<svg width="35" height="34" viewBox="0 0 35 34" fill="none" xmlns="http://www.w3.org/2000/svg">
<path fill-rule="evenodd" clip-rule="evenodd" d="M19.4368 7.27886L19.515 6.93575C19.5456 6.76235 19.696 6.62933 19.8796 6.626L21.5562 6.59191C21.6102 6.5908 21.6649 6.60117 21.7174 6.62488C21.907 6.70973 21.9915 6.93168 21.9058 7.12028L21.3741 8.2978H21.3738C21.3659 8.31559 21.3563 8.333 21.3451 8.34967C21.2312 8.52234 20.9981 8.57051 20.8242 8.45713L19.7057 7.72312C19.5117 7.67124 19.3922 7.47561 19.4368 7.27886ZM20.523 7.3626L20.8685 7.58936L20.975 7.35333L20.523 7.3626Z" fill="#262B2C"/>
<path fill-rule="evenodd" clip-rule="evenodd" d="M19.8858 7.0008L19.8035 7.36169C19.8172 7.35576 19.8247 7.35317 19.8247 7.35317L21.0307 8.14424L21.5624 6.96634L19.8858 7.0008Z" fill="#F7D9AF"/>
<mask id="mask0_2767_5132" style="mask-type:alpha" maskUnits="userSpaceOnUse" x="0" y="0" width="35" height="34">
<path fill-rule="evenodd" clip-rule="evenodd" d="M0 33.203H34.9233V0H0V33.203Z" fill="white"/>
</mask>
<g mask="url(#mask0_2767_5132)">
<path fill-rule="evenodd" clip-rule="evenodd" d="M7.31239 25.0363H7.66053V15.09H7.31239V25.0363Z" fill="#262B2C"/>
<path fill-rule="evenodd" clip-rule="evenodd" d="M2.48438 15.6698L2.79714 15.5179L7.18145 24.456L6.86868 24.6083L2.48438 15.6698Z" fill="#262B2C"/>
<path fill-rule="evenodd" clip-rule="evenodd" d="M29.3953 22.7882C30.1195 22.7882 30.812 22.932 31.4457 23.1929C32.1029 23.463 32.6942 23.8591 33.189 24.3496C33.3302 24.4893 33.3369 24.7124 33.2084 24.8598C33.0409 25.0681 32.8256 25.2122 32.5114 25.2841C32.2407 25.3463 31.8944 25.35 31.4275 25.2893C30.0882 25.1151 28.7217 25.3604 27.5295 25.9696C26.3789 26.5572 25.3904 27.4843 24.7447 28.7011C24.6479 28.8841 24.4201 28.9541 24.2361 28.8578C24.117 28.7952 24.0455 28.6785 24.0358 28.5543H24.0354C24.0313 28.4999 24.0276 28.431 24.0243 28.3465C24.0205 28.2568 24.019 28.1871 24.019 28.1382C24.019 26.6613 24.6207 25.3237 25.594 24.3552C26.567 23.387 27.9111 22.7882 29.3953 22.7882ZM31.1598 23.885C30.618 23.6623 30.0223 23.5393 29.3953 23.5393C28.1193 23.5393 26.9639 24.0543 26.1276 24.8865C25.5147 25.4964 25.0731 26.2767 24.8806 27.1497C25.5237 26.3712 26.3134 25.7498 27.1873 25.3034C28.5139 24.626 30.0338 24.353 31.5247 24.5471C31.8702 24.5919 32.1201 24.5957 32.3021 24.5623C31.9581 24.2848 31.5742 24.0558 31.1598 23.885Z" fill="#4B526B"/>
<path fill-rule="evenodd" clip-rule="evenodd" d="M8.85859 24.7822C10.027 24.7822 11.0848 25.2535 11.8503 26.0156C12.6159 26.7774 13.0899 27.8301 13.0899 28.9924C13.0899 30.1548 12.6159 31.2078 11.8503 31.9696C11.0848 32.7318 10.027 33.2031 8.85859 33.2031C7.69056 33.2031 6.63274 32.7318 5.86683 31.9696C5.1013 31.2078 4.62769 30.1548 4.62769 28.9924C4.62769 27.8301 5.1013 26.7774 5.86683 26.0156C6.63274 25.2535 7.69056 24.7822 8.85859 24.7822ZM11.3168 26.5466C10.6875 25.9204 9.81848 25.5332 8.85859 25.5332C7.8987 25.5332 7.02965 25.9204 6.40077 26.5466C5.77152 27.1728 5.38242 28.0376 5.38242 28.9924C5.38242 29.9476 5.77152 30.8124 6.40077 31.4386C7.02965 32.0644 7.8987 32.452 8.85859 32.452C9.81848 32.452 10.6875 32.0644 11.3168 31.4386C11.9457 30.8124 12.3348 29.9476 12.3348 28.9924C12.3348 28.0376 11.9457 27.1728 11.3168 26.5466ZM8.85859 26.6189C9.51726 26.6189 10.1137 26.8845 10.5453 27.314C10.9772 27.7438 11.2442 28.3373 11.2442 28.9924C11.2442 29.6479 10.9772 30.2415 10.5453 30.6713C10.1137 31.1007 9.51726 31.3664 8.85859 31.3664C8.19992 31.3664 7.60343 31.1007 7.17189 30.6713C6.74035 30.2415 6.473 29.6479 6.473 28.9924C6.473 28.3373 6.74035 27.7438 7.17189 27.314C7.60343 26.8845 8.19992 26.6189 8.85859 26.6189ZM10.0117 27.8453C9.71646 27.5518 9.30875 27.3699 8.85859 27.3699C8.40843 27.3699 8.00072 27.5518 7.70582 27.8453C7.41056 28.1387 7.22811 28.5445 7.22811 28.9924C7.22811 29.4408 7.41056 29.8461 7.70545 30.1399C8.00072 30.4334 8.40843 30.6153 8.85859 30.6153C9.30875 30.6153 9.71646 30.4334 10.0117 30.1399C10.3066 29.8461 10.4894 29.4408 10.4894 28.9924C10.4894 28.5445 10.3066 28.1387 10.0117 27.8453Z" fill="#262B2C"/>
<path fill-rule="evenodd" clip-rule="evenodd" d="M8.85861 25.1577C10.9865 25.1577 12.7123 26.8751 12.7123 28.9927C12.7123 31.1102 10.9865 32.8276 8.85861 32.8276C6.73068 32.8276 5.00488 31.1102 5.00488 28.9927C5.00488 26.8751 6.73068 25.1577 8.85861 25.1577ZM8.85861 26.9944C9.96781 26.9944 10.867 27.8892 10.867 28.9927C10.867 30.0961 9.96781 30.9909 8.85861 30.9909C7.74978 30.9909 6.85057 30.0961 6.85057 28.9927C6.85057 27.8892 7.74978 26.9944 8.85861 26.9944Z" fill="#262B2C"/>
<path fill-rule="evenodd" clip-rule="evenodd" d="M8.85878 26.9038C10.0179 26.9038 10.9577 27.839 10.9577 28.9925C10.9577 30.1459 10.0179 31.0815 8.85878 31.0815C7.69968 31.0815 6.75952 30.1459 6.75952 28.9925C6.75952 27.839 7.69968 26.9038 8.85878 26.9038Z" fill="#BBBDBF"/>
<path fill-rule="evenodd" clip-rule="evenodd" d="M8.85865 27.8925C9.46892 27.8925 9.96413 28.3853 9.96413 28.9926C9.96413 29.5999 9.46892 30.0927 8.85865 30.0927C8.24801 30.0927 7.75317 29.5999 7.75317 28.9926C7.75317 28.3853 8.24801 27.8925 8.85865 27.8925Z" fill="#E5E6E7"/>
<path fill-rule="evenodd" clip-rule="evenodd" d="M23.789 3.45081C23.9227 5.13076 24.0117 6.27568 23.4982 6.97338C22.9658 7.69701 21.9098 7.82188 19.8068 7.36762C19.63 7.33019 19.509 7.1742 19.509 7.00117L19.3656 4.60758C19.3596 4.50272 19.3976 4.40565 19.4635 4.33414L20.502 3.1203C20.5824 3.02656 20.6986 2.98209 20.8133 2.9895L23.4286 3.10548C23.6211 3.11326 23.7737 3.26443 23.7879 3.45081H23.789ZM22.8909 6.53097C23.2126 6.09375 23.1676 5.1756 23.0629 3.838L20.9559 3.74463L20.1259 4.71429L20.2443 6.69252C21.8167 7.00932 22.5804 6.95337 22.8909 6.53097Z" fill="#262B2C"/>
<path fill-rule="evenodd" clip-rule="evenodd" d="M23.413 3.4792C23.668 6.67645 23.7514 7.83582 19.8858 7.00066L19.741 4.5867L20.7887 3.36285L23.413 3.4792Z" fill="#F7D9AF"/>
<path fill-rule="evenodd" clip-rule="evenodd" d="M23.9771 2.2301C23.0224 3.21125 20.3751 1.35826 19.744 3.0271C19.744 3.0271 19.0138 3.07045 18.8217 4.00677C18.6299 4.94308 19.8858 7.0006 19.8858 7.0006L20.4455 5.85865C19.5485 5.23394 20.5177 4.39656 20.9682 5.26136L21.2884 4.0264C22.497 4.2665 24.3547 4.18647 23.9771 2.2301Z" fill="#262B2C"/>
<path fill-rule="evenodd" clip-rule="evenodd" d="M3.38537 22.3718H5.7218C5.93031 22.3718 6.09935 22.54 6.09935 22.7475C6.09935 22.879 6.03122 22.9946 5.92845 23.0617L3.61547 24.8372C3.4509 24.9636 3.21446 24.9336 3.08749 24.7698C3.03462 24.7016 3.00893 24.6208 3.00893 24.5408H3.00781V22.7475C3.00781 22.54 3.17686 22.3718 3.38537 22.3718ZM4.6167 23.1228H3.76292V23.7783L4.6167 23.1228Z" fill="#262B2C"/>
<path fill-rule="evenodd" clip-rule="evenodd" d="M3.3855 22.7474H5.72193L3.3855 24.5407V22.7474Z" fill="#E66A55"/>
<path fill-rule="evenodd" clip-rule="evenodd" d="M3.38537 22.3718C3.64899 22.3718 3.84708 22.5707 3.95357 22.8927C4.0191 23.0906 4.06006 23.3566 4.06006 23.6441C4.06006 23.9313 4.0191 24.1973 3.95357 24.3956C3.84708 24.7172 3.64899 24.9165 3.38537 24.9165C3.12138 24.9165 2.92367 24.7172 2.81718 24.3956C2.75128 24.1973 2.71069 23.9313 2.71069 23.6441C2.71069 23.3566 2.75128 23.0906 2.81718 22.8927C2.92367 22.5707 3.12138 22.3718 3.38537 22.3718ZM3.38537 23.1236C3.41181 23.1232 3.42112 23.1228 3.38537 23.1228C3.34926 23.1228 3.35857 23.1232 3.38537 23.1236ZM3.38537 24.1651C3.42112 24.1651 3.41181 24.1651 3.38537 24.1644C3.35857 24.1651 3.34926 24.1651 3.38537 24.1651Z" fill="#262B2C"/>
<path fill-rule="evenodd" clip-rule="evenodd" d="M3.38551 22.7474C3.54934 22.7474 3.68263 23.1487 3.68263 23.644C3.68263 24.1394 3.54934 24.5407 3.38551 24.5407C3.2213 24.5407 3.08838 24.1394 3.08838 23.644C3.08838 23.1487 3.2213 22.7474 3.38551 22.7474Z" fill="#F7C76A"/>
<path fill-rule="evenodd" clip-rule="evenodd" d="M29.7177 24.7822C30.8861 24.7822 31.9439 25.2535 32.7095 26.0156C33.4754 26.7774 33.949 27.8301 33.949 28.9924C33.949 30.1548 33.4754 31.2078 32.7095 31.9696C31.9439 32.7318 30.8861 33.2031 29.7177 33.2031C28.5497 33.2031 27.4919 32.7318 26.726 31.9696C25.9604 31.2078 25.4868 30.1548 25.4868 28.9924C25.4868 27.8301 25.9604 26.7774 26.726 26.0156C27.4919 25.2535 28.5497 24.7822 29.7177 24.7822ZM32.1759 26.5466C31.5467 25.9204 30.6776 25.5332 29.7177 25.5332C28.7578 25.5332 27.8888 25.9204 27.2599 26.5466C26.6306 27.1728 26.2416 28.0376 26.2416 28.9924C26.2416 29.9476 26.6306 30.8124 27.2599 31.4386C27.8888 32.0644 28.7578 32.452 29.7177 32.452C30.6776 32.452 31.5467 32.0644 32.1759 31.4386C32.8048 30.8124 33.1939 29.9476 33.1939 28.9924C33.1939 28.0376 32.8048 27.1728 32.1759 26.5466ZM29.7177 26.6189C30.3764 26.6189 30.9729 26.8845 31.4044 27.314C31.8363 27.7438 32.1033 28.3373 32.1033 28.9924C32.1033 29.6479 31.8363 30.2415 31.4044 30.6713C30.9729 31.1007 30.3764 31.3664 29.7177 31.3664C29.0591 31.3664 28.4626 31.1007 28.031 30.6713C27.5995 30.2415 27.3321 29.6479 27.3321 28.9924C27.3321 28.3373 27.5995 27.7438 28.031 27.314C28.4626 26.8845 29.0591 26.6189 29.7177 26.6189ZM30.8709 27.8453C30.576 27.5518 30.1679 27.3699 29.7177 27.3699C29.2676 27.3699 28.8598 27.5518 28.565 27.8453C28.2697 28.1387 28.0872 28.5445 28.0872 28.9924C28.0872 29.4408 28.2697 29.8461 28.565 30.1399C28.8598 30.4334 29.2676 30.6153 29.7177 30.6153C30.1679 30.6153 30.576 30.4334 30.8709 30.1399C31.1661 29.8461 31.3486 29.4408 31.3486 28.9924C31.3486 28.5445 31.1661 28.1387 30.8709 27.8453Z" fill="#262B2C"/>
<path fill-rule="evenodd" clip-rule="evenodd" d="M29.7177 25.1577C31.8457 25.1577 33.5715 26.8751 33.5715 28.9927C33.5715 31.1102 31.8457 32.8276 29.7177 32.8276C27.5898 32.8276 25.864 31.1102 25.864 28.9927C25.864 26.8751 27.5898 25.1577 29.7177 25.1577ZM29.7177 26.9944C30.8269 26.9944 31.7261 27.8892 31.7261 28.9927C31.7261 30.0961 30.8269 30.9909 29.7177 30.9909C28.6089 30.9909 27.7097 30.0961 27.7097 28.9927C27.7097 27.8892 28.6089 26.9944 29.7177 26.9944Z" fill="#262B2C"/>
<path fill-rule="evenodd" clip-rule="evenodd" d="M26.7444 15.7208C27.1994 17.5771 27.7918 19.1244 28.2825 20.4072C29.0328 22.3684 29.5589 23.7419 29.0618 24.8486C29.0559 24.8616 29.0492 24.8742 29.0421 24.8864L29.0425 24.8868C29.035 24.8994 26.4234 29.3298 23.6271 29.488C22.7641 29.5369 20.0698 29.5532 16.8628 29.5536C10.6797 29.5536 2.59027 29.4924 2.08501 29.4883C1.87724 29.4865 1.71043 29.3179 1.71192 29.1112C1.71192 29.1015 1.7123 29.0915 1.71341 29.0819H1.71192C1.88767 27.0685 2.66325 25.2251 3.85996 23.7304C5.07714 22.2098 6.7307 21.0497 8.63299 20.4372C8.63932 20.435 8.64565 20.4331 8.65198 20.4316V20.4313C9.72394 20.1508 11.2189 20.0066 12.7656 19.9633C14.5867 19.9125 16.4816 19.9996 17.8398 20.1674C17.9832 20.1849 18.0979 20.2801 18.1467 20.4057C18.1776 20.4765 18.204 20.5483 18.2256 20.6206C18.3056 20.8914 18.3068 21.1538 18.2066 21.3924C18.105 21.6343 17.9095 21.8348 17.6001 21.9734C17.5271 22.0064 17.4455 22.036 17.3558 22.0623C17.3513 22.0638 17.3469 22.0649 17.3424 22.066V22.0668C16.4492 22.2931 15.8828 22.7793 15.5902 23.3658C15.3887 23.7704 15.3128 24.2265 15.347 24.6819C15.3809 25.1406 15.5276 25.5971 15.77 25.9965C16.152 26.6268 16.7724 27.1114 17.5632 27.2348H23.3077C23.3389 27.2207 23.368 27.2063 23.3952 27.1911C23.4324 27.1707 23.4659 27.15 23.4946 27.1289C24.2035 26.4697 23.9377 24.8798 23.6621 23.2309C23.2883 20.9974 22.8992 18.6694 24.6954 17.7138L24.1372 16.4337C24.1283 16.4126 24.097 16.3436 24.0661 16.2755C23.9325 15.9787 23.7995 15.6845 23.7593 15.3202C23.6673 14.4944 24.0147 13.9345 24.5055 13.6484C24.7929 13.4806 25.1292 13.412 25.4542 13.4432C25.7826 13.4743 26.1025 13.6058 26.3527 13.8385C26.76 14.2176 26.9816 14.8489 26.7444 15.7208ZM27.5777 20.6743C27.0746 19.3593 26.4662 17.7694 25.9926 15.809C25.9751 15.7438 25.9751 15.6734 25.996 15.6041C26.1803 15.0027 26.0701 14.6018 25.8396 14.3873C25.7137 14.2706 25.5514 14.2042 25.3831 14.1883C25.2111 14.172 25.0346 14.2072 24.8856 14.2939C24.6317 14.4421 24.4545 14.7548 24.5081 15.2384C24.536 15.4888 24.644 15.7286 24.7531 15.9701C24.7713 16.0102 24.7892 16.0494 24.8272 16.1376L25.522 17.732C25.5287 17.7442 25.5343 17.7576 25.5395 17.7709C25.6125 17.9643 25.5145 18.1807 25.3198 18.2533C23.6953 18.8639 24.0579 21.0322 24.405 23.1079C24.7147 24.9591 25.0134 26.745 24.0058 27.6776C23.9909 27.6935 23.9745 27.7084 23.9563 27.7221C23.8975 27.7662 23.8312 27.8084 23.7578 27.8484C23.6953 27.8829 23.6268 27.9155 23.5538 27.9466C23.5028 27.9718 23.4458 27.9862 23.3851 27.9862H17.539V27.9855C17.5215 27.9855 17.5036 27.9844 17.4858 27.9818C16.4369 27.8303 15.6203 27.2018 15.124 26.3841C14.8213 25.8846 14.6377 25.3122 14.5949 24.7345C14.5517 24.1524 14.6511 23.5633 14.9151 23.0342C15.3005 22.2609 16.0273 21.6251 17.1566 21.339L17.157 21.3394C17.205 21.325 17.2493 21.3083 17.2903 21.2898C17.4124 21.2353 17.4824 21.1723 17.5107 21.1049C17.5353 21.0463 17.536 20.9715 17.517 20.8855C16.2045 20.7384 14.4597 20.6647 12.7864 20.7114C11.2963 20.7532 9.86432 20.89 8.84932 21.1545C7.09746 21.7214 5.57347 22.793 4.44974 24.1965C3.42395 25.4782 2.73288 27.0377 2.50799 28.7432C4.32054 28.7566 11.3518 28.8051 16.8628 28.8051C20.0463 28.8051 22.7227 28.7888 23.5862 28.7399C25.8913 28.6095 28.217 24.8001 28.3838 24.5218C28.7353 23.6997 28.2576 22.4506 27.5777 20.6743Z" fill="#4B526B"/>
<path fill-rule="evenodd" clip-rule="evenodd" d="M27.6951 19.9239C28.531 22.1341 29.1975 23.6295 28.7183 24.6959C28.7183 24.6959 28.4777 25.1034 28.0693 25.6711C28.0905 25.6392 28.697 24.7088 28.6125 23.605C28.5265 22.4816 27.6951 19.9239 27.6951 19.9239Z" fill="#FEFEFE"/>
<path fill-rule="evenodd" clip-rule="evenodd" d="M26.3558 15.7125C26.4966 16.296 26.6503 16.8474 26.8097 17.3698C26.0337 17.1427 25.4749 16.5065 25.4749 15.7573C25.4749 15.1856 25.8003 14.6794 26.2996 14.3708C26.4794 14.6857 26.5338 15.1326 26.3558 15.7125Z" fill="#D36455"/>
<path fill-rule="evenodd" clip-rule="evenodd" d="M24.8362 18.0679C24.9438 18.0064 25.06 17.9508 25.1869 17.903L27.1391 23.698L24.8362 18.0679Z" fill="#262B2C"/>
<path fill-rule="evenodd" clip-rule="evenodd" d="M14.7504 29.5523C12.8775 29.5486 10.9502 29.5408 9.19206 29.5319C6.36823 29.5182 3.97817 29.5015 2.95275 29.4941C2.74833 29.493 2.58227 29.3296 2.57855 29.1273C2.57817 29.1092 2.5778 29.0884 2.57743 29.0617C2.57594 28.975 2.5752 29.0425 2.5752 28.9943C2.5752 27.268 3.27892 25.7052 4.41605 24.5732C5.55317 23.442 7.12408 22.7417 8.85881 22.7417C10.5932 22.7417 12.1641 23.442 13.3012 24.5732C14.4387 25.7052 15.1421 27.268 15.1421 28.9943C15.1421 29.0165 15.1409 29.0102 15.1395 29.0925C15.1387 29.1306 15.1383 29.1618 15.1372 29.1884C15.1316 29.3952 14.9589 29.5582 14.7511 29.5523H14.7504ZM9.19541 28.7838C10.8397 28.792 12.6306 28.799 14.3836 28.8035C14.3341 27.3603 13.726 26.0583 12.7676 25.1045C11.7672 24.1089 10.385 23.4931 8.85881 23.4931C7.33222 23.4931 5.95009 24.1089 4.94961 25.1045C4.00349 26.046 3.39881 27.3273 3.33589 28.7486C4.50392 28.7568 6.6769 28.7712 9.19541 28.7838Z" fill="#4B526B"/>
<path fill-rule="evenodd" clip-rule="evenodd" d="M2.95437 29.1199C2.95363 29.078 2.95288 29.0362 2.95288 28.9943C2.95288 25.7492 5.59762 23.1174 8.85857 23.1174C10.2321 23.1174 11.4966 23.5846 12.4997 24.3675C11.567 23.7532 10.4488 23.3953 9.24655 23.3953C4.68389 23.3953 3.15841 27.4525 2.95437 29.1199Z" fill="#FEFEFE"/>
<path fill-rule="evenodd" clip-rule="evenodd" d="M8.0713 20.989C7.76412 20.3858 7.62152 19.8622 7.61705 19.4161C7.61183 18.8778 7.80247 18.4561 8.14763 18.1445C8.4712 17.8522 8.92433 17.6702 9.47093 17.5913C10.2986 17.472 11.3669 17.5872 12.5286 17.9111C13.248 18.1119 13.942 18.2279 14.6036 18.2886C15.2709 18.3494 15.9106 18.3557 16.5123 18.3349C17.8348 18.2901 18.5791 18.5302 18.941 18.8807C19.151 19.0841 19.246 19.3217 19.2538 19.5699C19.2613 19.7974 19.1916 20.0242 19.0702 20.2335C18.7906 20.7152 18.1978 21.1335 17.6762 21.205C17.6594 21.2072 17.6427 21.2084 17.6259 21.2084V21.2095H8.41497C8.26231 21.2095 8.13088 21.1191 8.0713 20.989ZM8.3688 19.4102C8.37178 19.6966 8.46114 20.0445 8.65141 20.458H17.604C17.9074 20.4047 18.2496 20.152 18.4186 19.8608C18.473 19.767 18.5047 19.6744 18.502 19.5936C18.4998 19.534 18.4737 19.4739 18.416 19.4176C18.1867 19.1957 17.6241 19.0464 16.5361 19.0834C15.9083 19.1045 15.2396 19.0982 14.5359 19.0338C13.8269 18.9689 13.0867 18.8455 12.3249 18.6332C11.2626 18.3368 10.3027 18.229 9.57705 18.3338C9.17902 18.3913 8.86215 18.5117 8.65476 18.6992C8.46859 18.867 8.3662 19.1027 8.3688 19.4102Z" fill="#262B2C"/>
<path fill-rule="evenodd" clip-rule="evenodd" d="M8.41506 20.8338C7.00277 18.0808 9.33548 17.4105 12.4267 18.2723C13.9078 18.6851 15.2948 18.7507 16.5243 18.7092C20.2298 18.5836 18.7199 20.6841 17.626 20.8338H8.41506Z" fill="#262B2C"/>
<path fill-rule="evenodd" clip-rule="evenodd" d="M8.5957 18.2752C9.3631 17.789 10.7884 17.8153 12.4271 18.2722C13.9083 18.685 15.2949 18.7509 16.5243 18.7091C17.8141 18.6653 18.4713 18.8917 18.7349 19.2107C16.0213 19.1352 9.83783 18.9266 9.01756 18.5783C8.82358 18.496 8.68804 18.3911 8.5957 18.2752Z" fill="#555658"/>
<path fill-rule="evenodd" clip-rule="evenodd" d="M24.7661 15.0275C25.0275 15.0275 25.2397 15.2387 25.2397 15.4988C25.2397 15.7593 25.0275 15.9701 24.7661 15.9701L23.0835 16.3847V15.2835L24.6239 15.0494C24.6689 15.0353 24.7166 15.0275 24.7661 15.0275Z" fill="#262B2C"/>
<path fill-rule="evenodd" clip-rule="evenodd" d="M27.2736 16.9346C26.7281 16.9346 26.2318 16.7404 25.8699 16.427C25.4942 16.1009 25.2615 15.647 25.2615 15.142C25.2615 14.637 25.4942 14.1827 25.8699 13.857C26.2318 13.5436 26.7281 13.3494 27.2736 13.3494C27.4821 13.3494 27.6512 13.5176 27.6512 13.7251V16.5589C27.6512 16.7664 27.4821 16.9346 27.2736 16.9346ZM26.3655 15.8608C26.5107 15.9864 26.692 16.082 26.896 16.1354V14.1486C26.692 14.202 26.5107 14.2972 26.3655 14.4232C26.1495 14.6103 26.0162 14.8645 26.0162 15.142C26.0162 15.4195 26.1495 15.6737 26.3655 15.8608Z" fill="#262B2C"/>
<path fill-rule="evenodd" clip-rule="evenodd" d="M27.2736 16.559C26.3711 16.559 25.6387 15.9243 25.6387 15.1421C25.6387 14.3596 26.3711 13.7252 27.2736 13.7252V16.559Z" fill="#EF526F"/>
<path fill-rule="evenodd" clip-rule="evenodd" d="M25.7234 14.6914C25.9405 14.1296 26.553 13.725 27.2738 13.725V15.7551C27.2094 15.764 27.1439 15.7688 27.0772 15.7688C26.4156 15.7688 25.8623 15.3079 25.7234 14.6914Z" fill="#E66A55"/>
<path fill-rule="evenodd" clip-rule="evenodd" d="M27.288 13.3495C27.5598 13.3495 27.7329 13.6333 27.7936 14.0916C27.8305 14.3688 27.8532 14.7408 27.8532 15.1421C27.8532 15.543 27.8305 15.9153 27.7936 16.1921C27.7329 16.6508 27.5598 16.9346 27.288 16.9346C27.0165 16.9346 26.843 16.6508 26.7823 16.1921C26.7459 15.915 26.7231 15.543 26.7231 15.1421C26.7231 14.7408 26.7459 14.3688 26.7823 14.0916C26.843 13.6333 27.0165 13.3495 27.288 13.3495ZM27.288 14.1135C27.333 14.1053 27.3494 14.1005 27.288 14.1005C27.2269 14.1005 27.2429 14.1053 27.288 14.1135ZM27.288 16.1832C27.3494 16.1832 27.333 16.1788 27.288 16.1706C27.2429 16.1788 27.2269 16.1832 27.288 16.1832Z" fill="#262B2C"/>
<path fill-rule="evenodd" clip-rule="evenodd" d="M27.288 13.7251C27.3915 13.7251 27.4753 14.3594 27.4753 15.142C27.4753 15.9245 27.3915 16.5588 27.288 16.5588C27.1845 16.5588 27.1003 15.9245 27.1003 15.142C27.1003 14.3594 27.1845 13.7251 27.288 13.7251Z" fill="#F7C76A"/>
<path fill-rule="evenodd" clip-rule="evenodd" d="M9.17105 24.8051H11.8191C11.8731 24.8051 11.9171 24.8489 11.9171 24.9026C11.9171 24.9563 11.8731 25 11.8191 25H9.17105C9.11706 25 9.07275 24.9563 9.07275 24.9026C9.07275 24.8489 9.11706 24.8051 9.17105 24.8051ZM9.17105 26.3043H11.8191C11.8731 26.3043 11.9171 26.3484 11.9171 26.4021C11.9171 26.4555 11.8731 26.4996 11.8191 26.4996H9.17105C9.11706 26.4996 9.07275 26.4555 9.07275 26.4021C9.07275 26.3484 9.11706 26.3043 9.17105 26.3043ZM9.17105 25.8044H11.8191C11.8731 25.8044 11.9171 25.8485 11.9171 25.9019C11.9171 25.9556 11.8731 25.9997 11.8191 25.9997H9.17105C9.11706 25.9997 9.07275 25.9556 9.07275 25.9019C9.07275 25.8485 9.11706 25.8044 9.17105 25.8044ZM9.17105 25.305H11.8191C11.8731 25.305 11.9171 25.3487 11.9171 25.4024C11.9171 25.4562 11.8731 25.4999 11.8191 25.4999H9.17105C9.11706 25.4999 9.07275 25.4562 9.07275 25.4024C9.07275 25.3487 9.11706 25.305 9.17105 25.305Z" fill="#262B2C"/>
<path fill-rule="evenodd" clip-rule="evenodd" d="M19.7677 26.0406C19.299 26.0139 19.2144 27.0844 19.449 27.3941C19.4501 27.396 19.4524 27.3975 19.4535 27.399H23.439C23.5247 27.2148 23.4416 26.6909 23.0417 26.4471C22.4501 26.0862 19.7677 26.0406 19.7677 26.0406Z" fill="#262B2C"/>
<path fill-rule="evenodd" clip-rule="evenodd" d="M19.3464 27.1287C19.3673 27.238 19.4015 27.3317 19.4488 27.3944C19.4503 27.3958 19.4522 27.3973 19.4537 27.3988H23.4392C23.4671 27.3384 23.4772 27.241 23.4634 27.1287H19.3464Z" fill="#FEFEFE"/>
<path fill-rule="evenodd" clip-rule="evenodd" d="M18.0882 16.3725L22.0447 18.4882C22.7659 18.8142 23.0705 19.4363 22.8232 20.4508L21.3201 26.1265L19.3746 26.0872L20.2485 20.6257L14.9724 18.8331C14.3469 18.7105 13.9344 18.2955 13.7415 17.7686C13.3483 16.6226 14.3395 14.1004 15.1467 14.272L16.737 14.6099L18.0882 16.3725Z" fill="#262B2C"/>
<path fill-rule="evenodd" clip-rule="evenodd" d="M19.8617 7.45364C19.2429 7.59852 17.6906 8.09947 16.9083 9.58786C16.0564 11.2093 14.07 15.0483 13.5264 16.0991C14.1177 16.5263 14.8165 16.6956 15.4905 16.7079C16.5062 16.726 17.4456 16.3985 17.8872 16.0542C18.4577 14.8386 18.9987 13.5354 19.4894 12.2023C19.9556 10.9347 20.3733 9.649 20.7241 8.39551C20.5431 8.28399 20.3823 8.148 20.2397 7.99053C20.0952 7.83158 19.9705 7.65113 19.8617 7.45364ZM16.2415 9.24142C17.3753 7.08386 19.8487 6.68443 20.0096 6.66035C20.1756 6.63293 20.3454 6.71889 20.4165 6.87859C20.5215 7.11424 20.647 7.32062 20.7993 7.4881C20.9427 7.64631 21.1121 7.77155 21.3139 7.85566L21.3131 7.85677C21.4852 7.92828 21.5812 8.11762 21.5302 8.30103C21.1545 9.67938 20.7025 11.0863 20.1972 12.4602C19.6949 13.8255 19.1353 15.1691 18.5407 16.4307C18.5195 16.4833 18.486 16.5319 18.4402 16.5719C17.9166 17.0269 16.7281 17.4804 15.4763 17.4578C14.5656 17.4415 13.6094 17.1803 12.8256 16.4989C12.6808 16.3914 12.6305 16.1925 12.7154 16.0272C12.7225 16.0139 15.0723 11.4672 16.2415 9.24142Z" fill="#262B2C"/>
<path fill-rule="evenodd" clip-rule="evenodd" d="M20.0719 7.03027C20.0719 7.03027 17.655 7.35967 16.5749 9.4146C15.4951 11.4699 13.051 16.1978 13.051 16.1978C14.74 17.6925 17.3821 16.9948 18.1916 16.29C19.3752 13.782 20.426 10.9223 21.1677 8.20187C20.6579 7.98845 20.3135 7.57235 20.0719 7.03027Z" fill="#E4002B"/>
<path fill-rule="evenodd" clip-rule="evenodd" d="M14.8342 17.0243C16.216 17.2544 17.6357 16.7738 18.1916 16.2899C18.8898 14.8112 19.5414 13.2101 20.1107 11.5872C19.083 13.906 17.5147 16.3018 14.8342 17.0243Z" fill="#FF2F56"/>
<path fill-rule="evenodd" clip-rule="evenodd" d="M23.0836 15.2835C23.3889 15.2835 23.6369 15.5302 23.6369 15.8341C23.6369 16.1383 23.3889 16.3847 23.0836 16.3847C22.7779 16.3847 22.5303 16.1383 22.5303 15.8341C22.5303 15.5302 22.7779 15.2835 23.0836 15.2835Z" fill="#262B2C"/>
<path fill-rule="evenodd" clip-rule="evenodd" d="M21.0503 6.4801C21.2834 6.90472 21.5425 7.28599 22.1606 7.24746C22.1606 7.24746 22.0504 7.38381 21.8921 7.40567C21.4665 7.46459 21.0223 7.22782 20.8369 6.79171L21.0503 6.4801Z" fill="#262B2C"/>
<path fill-rule="evenodd" clip-rule="evenodd" d="M23.837 2.83854C22.7978 3.03418 22.1629 3.39766 21.8442 3.92233C21.5232 4.45106 21.4994 5.17766 21.6897 6.08767C21.7995 6.61344 21.7411 6.92505 21.4998 7.14774C21.2842 7.34671 20.9852 7.39525 20.5548 7.43564C19.8373 7.5027 19.1473 7.26445 18.568 6.83131C18.034 6.43189 17.5924 5.86276 17.3136 5.2162C17.0336 4.56741 16.9155 3.83859 17.0287 3.12162C17.1508 2.34908 17.5385 1.59358 18.2768 0.969249C19.1741 0.210786 20.2349 -0.0556204 21.2004 0.00922132C21.7016 0.042939 22.1789 0.165953 22.5956 0.356032C23.0215 0.550187 23.3868 0.815852 23.6545 1.12932C23.9915 1.52392 24.1762 1.99227 24.1423 2.49433C24.1307 2.66847 24.0015 2.80705 23.837 2.8378V2.83854ZM21.1993 3.53402C21.594 2.88486 22.2917 2.42726 23.3712 2.17049C23.3291 1.973 23.2282 1.7844 23.0826 1.61359C22.886 1.3835 22.6101 1.18526 22.2836 1.03594C21.9477 0.882917 21.5605 0.783617 21.1516 0.756198C20.3615 0.703213 19.4955 0.91997 18.7635 1.53874C18.1766 2.03488 17.8695 2.63068 17.7734 3.2376C17.6829 3.81154 17.7786 4.39771 18.0046 4.92237C18.2321 5.44852 18.5896 5.91056 19.0211 6.23329C19.456 6.55898 19.9657 6.73831 20.4859 6.68977C20.7599 6.66384 20.9405 6.64234 20.9886 6.59788C21.0105 6.5775 21.0001 6.47264 20.9513 6.23884C20.7227 5.1458 20.7693 4.24283 21.1993 3.53402Z" fill="#262B2C"/>
<path fill-rule="evenodd" clip-rule="evenodd" d="M23.7668 2.47004C21.4609 2.90429 20.902 4.16037 21.3205 6.16342C21.4791 6.923 21.2248 6.99636 20.5203 7.06268C18.0942 7.29019 15.9655 3.41413 18.5205 1.25398C20.679 -0.571224 23.8837 0.743766 23.7668 2.47004Z" fill="#E4002B"/>
<path fill-rule="evenodd" clip-rule="evenodd" d="M23.7668 2.47001C21.4609 2.90426 20.902 4.16034 21.3205 6.16339C21.4791 6.92297 21.2248 6.99633 20.5203 7.06266C20.2117 7.09156 19.9082 7.05376 19.6182 6.96224C20.1588 6.94816 20.7527 6.87517 20.9433 6.63581C21.3205 6.16339 20.5081 4.7328 21.3875 3.38928C21.9814 2.48261 23.0981 2.26882 23.7612 2.22546C23.7701 2.30587 23.7724 2.38738 23.7668 2.47001Z" fill="#D36455"/>
<path fill-rule="evenodd" clip-rule="evenodd" d="M19.9402 4.39646C20.3222 4.32939 20.6871 4.5832 20.7549 4.96373C20.8223 5.34426 20.5672 5.707 20.1849 5.77407C19.8025 5.8415 19.4376 5.58732 19.3702 5.20716C19.3028 4.82664 19.5578 4.46352 19.9402 4.39646Z" fill="#FEFEFE"/>
<path fill-rule="evenodd" clip-rule="evenodd" d="M29.7178 26.9038C30.8769 26.9038 31.817 27.839 31.817 28.9925C31.817 30.1459 30.8769 31.0815 29.7178 31.0815C28.5587 31.0815 27.6189 30.1459 27.6189 28.9925C27.6189 27.839 28.5587 26.9038 29.7178 26.9038Z" fill="#BBBDBF"/>
<path fill-rule="evenodd" clip-rule="evenodd" d="M29.7178 27.8925C30.3284 27.8925 30.8233 28.3853 30.8233 28.9926C30.8233 29.5999 30.3284 30.0927 29.7178 30.0927C29.1075 30.0927 28.6123 29.5999 28.6123 28.9926C28.6123 28.3853 29.1075 27.8925 29.7178 27.8925Z" fill="#E5E6E7"/>
<path fill-rule="evenodd" clip-rule="evenodd" d="M2.16429 6.59607H9.2395C9.83524 6.59607 10.3763 6.83802 10.7683 7.22855C11.1604 7.61835 11.4035 8.15709 11.4035 8.74956V15.9325C11.4035 16.5254 11.1604 17.0637 10.7683 17.4539C10.3763 17.8441 9.83524 18.0864 9.2395 18.0864H2.16429C1.56854 18.0864 1.02753 17.8441 0.635457 17.4539C0.243382 17.0637 0.000244141 16.5254 0.000244141 15.9325V8.74956C0.000244141 8.15709 0.243382 7.61835 0.635457 7.22855C1.02753 6.83802 1.56854 6.59607 2.16429 6.59607ZM9.2395 7.34712H2.16429C1.77705 7.34712 1.42482 7.50497 1.16939 7.75952C0.913595 8.01369 0.754978 8.36421 0.754978 8.74956V15.9325C0.754978 16.3179 0.913595 16.6684 1.16939 16.9229C1.42482 17.1771 1.77705 17.335 2.16429 17.335H9.2395C9.62673 17.335 9.97897 17.1771 10.2348 16.9229C10.4902 16.6684 10.6488 16.3179 10.6488 15.9325V8.74956C10.6488 8.36421 10.4902 8.01369 10.2348 7.75952C9.97897 7.50497 9.62673 7.34712 9.2395 7.34712Z" fill="#262B2C"/>
<path fill-rule="evenodd" clip-rule="evenodd" d="M2.1643 6.97168H9.23952C10.2225 6.97168 11.0264 7.77164 11.0264 8.74945V15.9328C11.0264 16.9106 10.2225 17.7106 9.23952 17.7106H2.1643C1.1817 17.7106 0.377441 16.9106 0.377441 15.9328V8.74945C0.377441 7.77164 1.1817 6.97168 2.1643 6.97168Z" fill="#E4002B"/>
<path fill-rule="evenodd" clip-rule="evenodd" d="M2.1643 6.97168H9.23952C9.39962 6.97168 9.55489 6.99317 9.70271 7.03282C9.70606 7.14842 9.70829 7.26402 9.70829 7.38037C9.70829 11.8141 7.25978 15.679 3.63542 17.7106H2.1643C1.1817 17.7106 0.377441 16.9106 0.377441 15.9328V8.74945C0.377441 7.77164 1.1817 6.97168 2.1643 6.97168Z" fill="#FF2F56"/>
<path fill-rule="evenodd" clip-rule="evenodd" d="M3.89097 6.97168H5.10629L0.377197 12.4484V11.0408L3.89097 6.97168ZM5.37959 6.97168H5.98725L0.377197 13.4688V12.7648L5.37959 6.97168Z" fill="#FF5776"/>
<path fill-rule="evenodd" clip-rule="evenodd" d="M2.22446 7.73062H9.17941C9.48063 7.73062 9.75504 7.85326 9.9535 8.05075C10.152 8.24824 10.2752 8.52095 10.2752 8.82107V15.861C10.2752 16.1612 10.152 16.4339 9.9535 16.6314C9.75504 16.8288 9.48063 16.9519 9.17941 16.9519H2.22446C1.92286 16.9519 1.64919 16.8288 1.45036 16.6314C1.25191 16.4339 1.12866 16.1612 1.12866 15.861V8.82107C1.12866 8.52095 1.25191 8.24824 1.45036 8.05075C1.64919 7.85326 1.92286 7.73062 2.22446 7.73062ZM9.17941 7.9559H2.22446C1.98542 7.9559 1.76797 8.05335 1.61047 8.21008C1.45297 8.36718 1.35505 8.5832 1.35505 8.82107V15.861C1.35505 16.0989 1.45297 16.3153 1.61047 16.472C1.76797 16.6291 1.98542 16.7262 2.22446 16.7262H9.17941C9.41845 16.7262 9.63552 16.6291 9.7934 16.472C9.9509 16.3153 10.0488 16.0989 10.0488 15.861V8.82107C10.0488 8.5832 9.9509 8.36718 9.7934 8.21008C9.63552 8.05335 9.41845 7.9559 9.17941 7.9559Z" fill="#FEFEFE"/>
<path fill-rule="evenodd" clip-rule="evenodd" d="M19.5503 12.5957L23.8683 14.491C24.0653 14.5384 24.6908 14.7388 24.7906 15.4032C24.8338 15.6922 24.7191 15.9497 24.5266 16.1424C24.4108 16.258 24.2663 16.3495 24.1144 16.4073C23.958 16.467 23.7879 16.4929 23.6259 16.4759C23.3828 16.4503 23.1638 16.3351 23.0249 16.1035C22.9985 16.0598 22.9568 15.9879 22.917 15.919C22.7677 15.66 22.6701 15.4918 22.4411 15.4302C22.3235 15.3988 22.0412 15.3469 21.6819 15.2809C20.6848 15.0975 19.1299 14.8118 18.6019 14.511C17.7586 14.0308 17.7452 12.9892 17.7452 12.9863C17.7422 12.7817 17.9045 12.6128 18.1093 12.6065L19.3868 12.565C19.4449 12.5631 19.5004 12.5746 19.5503 12.5965V12.5957ZM23.5965 15.1916L23.2111 15.0227C23.3466 15.1616 23.4472 15.3358 23.5686 15.5462C23.5939 15.5899 23.6214 15.637 23.6706 15.7189C23.6743 15.7252 23.6866 15.7289 23.7026 15.7307C23.7439 15.7352 23.7942 15.7256 23.8463 15.7059C23.9026 15.6844 23.9543 15.6526 23.9927 15.614C24.0273 15.5796 24.0493 15.5425 24.0444 15.5118C24.0124 15.2976 23.7614 15.2331 23.7011 15.2205C23.6657 15.2161 23.6307 15.2068 23.5965 15.1916ZM22.3469 14.6433L19.3231 13.316L18.568 13.3405C18.631 13.5228 18.7505 13.731 18.9765 13.8596C19.3976 14.1001 20.8721 14.3709 21.8174 14.5443C22.0219 14.5817 22.2028 14.6151 22.3469 14.6433Z" fill="#262B2C"/>
<path fill-rule="evenodd" clip-rule="evenodd" d="M19.3985 12.939L23.7485 14.8483C23.7485 14.8483 24.3398 14.9413 24.4176 15.4574C24.4951 15.9732 23.6141 16.3548 23.3475 15.9113C23.0813 15.4678 22.9804 15.1866 22.5384 15.068C22.0964 14.9491 19.4461 14.56 18.7889 14.1854C18.1321 13.8112 18.1213 12.9805 18.1213 12.9805L19.3985 12.939Z" fill="#F7D9AF"/>
<path fill-rule="evenodd" clip-rule="evenodd" d="M18.0831 12.51C18.3419 12.6078 18.5999 12.6771 18.8572 12.7138C19.1126 12.7505 19.3695 12.7549 19.6276 12.7227L20.2296 9.46431L20.6072 9.4958L20.3216 13.1158H20.3209C20.294 13.2592 20.1831 13.38 20.0304 13.413C19.6004 13.5056 19.1737 13.5149 18.75 13.4541C18.34 13.3959 17.9368 13.2726 17.5391 13.0966C17.3783 13.0365 17.2747 12.8724 17.2986 12.696L18.1274 9.29016L18.5035 9.32129L18.0831 12.51Z" fill="#262B2C"/>
<path fill-rule="evenodd" clip-rule="evenodd" d="M17.6721 12.7455C18.4216 13.0809 19.1801 13.2128 19.9512 13.0468L20.6274 9.38562C20.4747 8.07582 18.5762 7.82275 18.1416 9.18295L17.6721 12.7455Z" fill="#F7C76A"/>
<path fill-rule="evenodd" clip-rule="evenodd" d="M18.4465 13.0149C18.9432 13.1361 19.4444 13.1557 19.9512 13.0468L20.516 9.99036C20.2207 11.3906 19.5405 12.3865 18.4465 13.0149Z" fill="#EDBC63"/>
<path fill-rule="evenodd" clip-rule="evenodd" d="M30.4925 23.6221C30.4456 23.6147 30.4136 23.5706 30.421 23.5239C30.4284 23.4772 30.4724 23.4454 30.5193 23.4528C30.7669 23.4917 31.0357 23.565 31.29 23.6688C31.5209 23.7633 31.7402 23.8841 31.9212 24.0282C31.9584 24.0578 31.9643 24.1116 31.9349 24.1482C31.9051 24.1853 31.8512 24.1912 31.8139 24.1619C31.6467 24.0286 31.4416 23.9163 31.2245 23.8274C30.9829 23.7288 30.7274 23.6591 30.4925 23.6221Z" fill="#FEFEFE"/>
<path fill-rule="evenodd" clip-rule="evenodd" d="M34.3898 28.4291C34.4464 29.3558 34.112 31.2729 33.0676 32.1807C34.3898 31.4089 34.7968 29.7086 34.3898 28.4291Z" fill="#262B2C"/>
<path fill-rule="evenodd" clip-rule="evenodd" d="M4.33618 29.9908C4.56331 30.8912 5.46326 32.6186 6.73443 33.1703C5.24022 32.8317 4.33618 31.3325 4.33618 29.9908Z" fill="#262B2C"/>
<path fill-rule="evenodd" clip-rule="evenodd" d="M4.12134 31.1055C4.26916 31.692 4.85597 32.8181 5.68405 33.1775C4.71038 32.957 4.12134 31.9799 4.12134 31.1055Z" fill="#262B2C"/>
<path fill-rule="evenodd" clip-rule="evenodd" d="M34.8937 29.8458C34.8475 30.449 34.4607 31.6573 33.7056 32.1508C34.6279 31.7695 35.0423 30.7076 34.8937 29.8458Z" fill="#262B2C"/>
<path fill-rule="evenodd" clip-rule="evenodd" d="M9.47598 11.3467C9.51135 11.3563 9.53221 11.3911 9.52401 11.426L9.40077 11.9795C9.39444 12.0066 9.3721 12.024 9.34492 12.024H9.1688C9.13492 12.024 9.1096 11.9969 9.11146 11.9636V11.9543C9.11928 11.7731 9.00385 11.6386 8.74471 11.6386C8.31242 11.6386 7.99742 11.9906 7.95758 12.4523C7.91401 12.9296 8.25173 13.2056 8.71566 13.2056C8.95433 13.2056 9.14311 13.1596 9.24885 13.1263C9.29056 13.1137 9.33226 13.1485 9.32407 13.193L9.26971 13.4783C9.26487 13.5024 9.24699 13.5231 9.22316 13.5309C9.1271 13.5609 8.85976 13.6324 8.45056 13.6324C7.4754 13.6324 7.08034 13.077 7.14104 12.5112C7.1954 12.0066 7.53162 11.264 8.85976 11.264C9.11258 11.2626 9.31588 11.3022 9.47598 11.3467Z" fill="#FEF9F6"/>
<path fill-rule="evenodd" clip-rule="evenodd" d="M3.98536 11.3485C3.99169 11.3196 4.01738 11.2992 4.04643 11.2992H5.00334C5.0402 11.2992 5.06887 11.334 5.06068 11.3689L5.02866 11.5149C5.02419 11.5404 5.00334 11.5575 4.97765 11.5593H4.97132C4.89909 11.5686 4.76951 11.5927 4.66228 11.6749L3.86696 12.33L4.47983 13.1518C4.59823 13.3023 4.65781 13.3312 4.77621 13.3327C4.81456 13.3327 4.84324 13.369 4.83504 13.4071L4.80153 13.5546C4.7952 13.5798 4.77286 13.5991 4.74568 13.5991H4.26536C3.73738 13.5991 3.5918 13.369 3.15169 12.5727L3.02361 13.1533C3.00425 13.2437 3.08132 13.2915 3.13568 13.3138C3.13903 13.3152 3.14052 13.3152 3.14201 13.3167C3.16919 13.3278 3.18371 13.3549 3.17738 13.3834L3.13903 13.5531C3.13233 13.5787 3.10999 13.5976 3.08281 13.5976H1.97845C1.9401 13.5976 1.91143 13.5628 1.91962 13.5246L1.95164 13.3786C1.95797 13.3516 1.98031 13.3327 2.006 13.3293H2.00898C2.10988 13.3182 2.21712 13.2548 2.28265 12.944L2.53398 11.8068C2.566 11.656 2.48893 11.5971 2.42339 11.5719C2.42339 11.5719 2.41855 11.5704 2.41222 11.5686C2.38169 11.5593 2.36419 11.5275 2.37089 11.4956L2.40441 11.3433C2.41073 11.3152 2.43643 11.2944 2.46659 11.2944H3.51808C3.55494 11.2944 3.58212 11.3278 3.5743 11.3641L3.54042 11.5134C3.53558 11.5352 3.51994 11.553 3.49722 11.5593C3.49425 11.5608 3.49238 11.5608 3.48903 11.5623C3.43988 11.5782 3.36281 11.6179 3.33898 11.7146L3.19972 12.3474L4.01441 11.6768C4.06355 11.6368 4.05127 11.583 3.99504 11.5623C3.96302 11.553 3.94366 11.5212 3.95185 11.4878L3.98536 11.3485Z" fill="#FEF9F6"/>
<path fill-rule="evenodd" clip-rule="evenodd" d="M6.92834 11.9795C6.89296 11.9795 6.86616 11.9495 6.871 11.9147V11.9065C6.8803 11.7624 6.83078 11.6783 6.66733 11.6783H6.16169L6.02764 12.2874H6.75073C6.78759 12.2874 6.81663 12.3223 6.80658 12.3571L6.73658 12.6713C6.73025 12.698 6.70754 12.7154 6.68036 12.7154H5.93158C5.93158 12.7154 5.84818 13.09 5.84483 13.1059C5.81802 13.2263 5.90105 13.2882 5.95541 13.3149C5.95876 13.3167 5.96174 13.3182 5.9636 13.3182C5.98743 13.3293 6.00009 13.3545 5.99525 13.3801L5.95727 13.5517C5.95094 13.5783 5.92823 13.5958 5.90105 13.5958H5.02084C4.98397 13.5958 4.95717 13.5624 4.96498 13.5261L5.34887 11.8035C5.38722 11.6512 5.29786 11.5894 5.23381 11.5656C5.23195 11.5638 5.22897 11.5638 5.22711 11.5638C5.19844 11.5545 5.18243 11.5241 5.18876 11.4941L5.22227 11.3419C5.22897 11.3133 5.25429 11.2926 5.28483 11.2926H7.24185C7.27871 11.2926 7.30589 11.3278 7.29807 11.3626L7.17185 11.9273C7.16514 11.9543 7.1428 11.9717 7.11562 11.9717H6.92834" fill="#FEF9F6"/>
</g>
</svg>
