<svg width="72" height="72" viewBox="0 0 72 72" fill="none" xmlns="http://www.w3.org/2000/svg">
<path d="M3.38098 64.0121C3.38098 65.0415 17.6414 65.8753 35.2359 65.8753C52.8285 65.8753 67.0909 65.0434 67.0909 64.0121C67.0909 62.9808 52.8285 62.1489 35.2359 62.1489C17.6414 62.1489 3.38098 62.9846 3.38098 64.0121Z" fill="#D7D7D7"/>
<path fill-rule="evenodd" clip-rule="evenodd" d="M19.3414 57.135C19.3548 60.9297 16.2413 64.0198 12.3793 64.0407C8.50382 64.0483 5.35546 60.9696 5.34192 57.1616C5.34192 53.3668 8.46708 50.2881 12.3271 50.2805C16.1891 50.2748 19.3258 53.3402 19.3414 57.135ZM16.3941 57.1749C16.4018 54.9869 14.6052 53.2035 12.3793 53.1921C10.1438 53.1883 8.3259 54.9641 8.31817 57.1616C8.31817 59.3495 10.1205 61.1253 12.3484 61.1291C14.5762 61.1329 16.3863 59.3647 16.3941 57.1749Z" fill="#3A4241"/>
<path d="M18.9527 57.1614C18.9488 58.603 18.3609 59.9856 17.3205 61.0017C16.28 62.0197 14.8702 62.5895 13.4024 62.5857C11.9346 62.5895 10.5248 62.0197 9.48437 61.0017C8.44394 59.9856 7.85604 58.603 7.85217 57.1614C7.85604 55.718 8.44394 54.3353 9.48437 53.3173C10.5267 52.3012 11.9365 51.7314 13.4044 51.7371C14.8722 51.7314 16.282 52.3012 17.3224 53.3192C18.3628 54.3353 18.9507 55.718 18.9546 57.1614" fill="#ACACAC"/>
<path d="M14.9496 57.2945C14.9496 57.7066 14.7813 58.1016 14.4835 58.3903C14.1857 58.6809 13.7834 58.8405 13.3657 58.8386C12.4993 58.8367 11.7954 58.1472 11.7935 57.2945C11.7954 56.4436 12.4993 55.7542 13.3657 55.7523C13.7834 55.7485 14.1857 55.9099 14.4835 56.2005C14.7813 56.4892 14.9496 56.8842 14.9496 57.2945Z" fill="#9C9C9C"/>
<path fill-rule="evenodd" clip-rule="evenodd" d="M15.6013 57.2869C15.6071 58.5024 14.6092 59.4938 13.3715 59.5014C12.1299 59.5033 11.1204 58.5176 11.1166 57.2964C11.1166 56.0808 12.1164 55.0951 13.3541 55.0913C14.5918 55.0894 15.5974 56.0713 15.6013 57.2869ZM14.2649 57.3002C14.2669 56.8139 13.8666 56.417 13.3715 56.4151C12.8745 56.4132 12.4722 56.8082 12.4684 57.2964C12.4684 57.7826 12.8706 58.1776 13.3657 58.1776C13.8608 58.1795 14.263 57.7864 14.2649 57.3002Z" fill="#C7C7C7"/>
<path fill-rule="evenodd" clip-rule="evenodd" d="M20.3683 57.135C20.3818 60.9297 17.2683 64.0198 13.4082 64.0407C9.53273 64.0483 6.38243 60.9696 6.3689 57.1616C6.3689 53.3668 9.49405 50.2881 13.356 50.2805C17.2161 50.2748 20.3528 53.3402 20.3683 57.135ZM17.423 57.1749C17.4307 54.9869 15.6341 53.2035 13.4063 53.1921C11.1707 53.1883 9.35481 54.9641 9.34708 57.1616C9.34708 59.3495 11.1495 61.1253 13.3773 61.1291C15.6032 61.1329 17.4133 59.3647 17.423 57.1749Z" fill="#222222"/>
<path d="M5.41534 57.3876C5.39992 53.3099 8.74554 49.9881 12.8957 49.9634C17.0438 49.99 20.3895 53.3099 20.374 57.3876H5.41534Z" fill="black"/>
<path d="M12.2227 46.7251C12.2227 46.7251 6.32822 47.217 5.48118 48.1761L5.06152 51.4865L12.2227 46.7251Z" fill="#8A8A8A"/>
<mask id="mask0_2618_228981" style="mask-type:alpha" maskUnits="userSpaceOnUse" x="3" y="46" width="19" height="10">
<path d="M21.5092 46.5769H3.27271V55.4901H21.5092V46.5769Z" fill="white"/>
</mask>
<g mask="url(#mask0_2618_228981)">
<path d="M12.391 46.5769C14.8025 46.5713 17.1193 47.5057 18.8289 49.177C20.5384 50.8503 21.5034 53.1199 21.5092 55.4902H3.27271C3.27851 53.1199 4.24351 50.8503 5.95307 49.177C7.66262 47.5057 9.97941 46.5713 12.391 46.5769Z" fill="#FF3737"/>
</g>
<path d="M10.5905 46.7517C11.1842 46.6358 11.7856 46.5769 12.3909 46.5769C14.8025 46.5713 17.1173 47.5057 18.8269 49.177C20.5384 50.8503 21.5014 53.1199 21.5092 55.4902H17.9102C17.9005 51.2358 14.8373 47.5779 10.5905 46.7517Z" fill="#FF6565"/>
<path d="M61.2641 51.8873C61.2641 51.8873 57.5994 41.8972 49.8793 41.7681H34.4392C34.4392 41.7681 39.6723 43.5591 39.6723 48.2882C39.6723 53.0155 35.4854 53.0212 32.9984 53.0212H27.042C27.042 53.0212 19.0222 53.7733 21.0721 41.7643L23.8144 32.2983L21.2868 33.417L14.6923 45.6577L14.9804 46.6757C18.7554 47.916 21.5498 51.0706 22.2808 54.9166C24.2921 55.7504 29.6857 55.8473 34.7022 55.8473H62.3161C62.1401 54.4912 61.7882 53.1617 61.2718 51.893" fill="#FF3737"/>
<path d="M51.2118 64.0407C55.0873 64.0483 58.2357 60.9696 58.2512 57.1616C58.2357 53.3517 55.0873 50.2729 51.2118 50.2805C47.3363 50.2729 44.186 53.3517 44.1725 57.1616C44.186 60.9696 47.3363 64.0483 51.2118 64.0407Z" fill="#3A4241"/>
<path d="M57.6052 57.3876C57.5955 60.2916 55.1956 62.6391 52.2406 62.6334C49.2875 62.641 46.8856 60.2916 46.876 57.3876C46.8798 55.9936 47.4484 54.6565 48.454 53.6727C49.4596 52.6889 50.823 52.1381 52.2406 52.1419C55.1956 52.1362 57.5974 54.4837 57.6052 57.3876Z" fill="#ACACAC"/>
<path fill-rule="evenodd" clip-rule="evenodd" d="M58.9744 57.3628C58.9879 61.0322 55.9749 64.0197 52.2425 64.0387C48.4946 64.0444 45.4507 61.0683 45.4371 57.3875C45.4371 53.7181 48.4598 50.742 52.1922 50.7344C55.9265 50.7287 58.9608 53.6934 58.9744 57.3628ZM56.1257 57.4008C56.1334 55.2831 54.3949 53.5586 52.2425 53.5491C50.0823 53.5491 48.3283 55.2641 48.3167 57.3875C48.3167 59.5033 50.0611 61.2221 52.2154 61.2259C54.3678 61.2278 56.1199 59.5166 56.1257 57.4008Z" fill="#222222"/>
<path d="M31.6853 39.2096C31.6853 40.408 32.4163 41.3843 33.3156 41.3843H44.8164C45.7176 41.3843 46.4466 40.4099 46.4466 39.2096C46.4466 38.0093 45.7543 36.6323 44.8531 36.6323L33.3465 38.2144C31.6853 38.3606 31.6853 39.2096 31.6853 39.2096Z" fill="#222222"/>
<path d="M34.7679 39.9429C35.0387 39.9429 46.1275 39.8555 46.1275 39.8555C46.2088 39.8555 46.2919 39.846 46.3732 39.8308C46.2823 40.6437 45.6344 41.2875 44.8086 41.3844H33.3214C32.424 41.3844 31.6969 40.4234 31.6969 39.2363C32.6271 39.7662 33.6965 40.0112 34.7679 39.9429Z" fill="black"/>
<path d="M53.7683 57.3876C53.7664 57.7845 53.6059 58.1663 53.3197 58.4455C53.0335 58.7247 52.6447 58.8823 52.2406 58.8804C51.8364 58.8823 51.4496 58.7247 51.1634 58.4455C50.8772 58.1663 50.7147 57.7845 50.7147 57.3876C50.7147 56.9907 50.8772 56.6108 51.1634 56.3316C51.4496 56.0505 51.8364 55.8948 52.2406 55.8948C52.6447 55.8948 53.0335 56.0505 53.3197 56.3316C53.6059 56.6108 53.7664 56.9907 53.7683 57.3876Z" fill="#9C9C9C"/>
<path fill-rule="evenodd" clip-rule="evenodd" d="M54.3931 57.3818C54.3969 58.5555 53.4358 59.5109 52.2426 59.5204C51.6643 59.5204 51.1113 59.2962 50.7013 58.8955C50.2932 58.4966 50.0612 57.9516 50.0612 57.3837C50.065 56.2118 51.032 55.2622 52.2252 55.2622C53.4184 55.2622 54.3873 56.2099 54.3931 57.3818ZM53.1051 57.3932C53.107 56.9222 52.7222 56.5385 52.2426 56.5347C51.763 56.5347 51.3723 56.9127 51.3685 57.3837C51.3665 57.8547 51.7533 58.2384 52.2329 58.2403C52.7125 58.2441 53.1012 57.8642 53.1051 57.3932Z" fill="#C7C7C7"/>
<path d="M44.0854 57.3876C44.07 53.3099 47.4175 49.9881 51.5676 49.9634C55.7158 49.99 59.0614 53.3099 59.046 57.3876H44.0854Z" fill="black"/>
<path d="M45.4739 55.0724C45.4739 55.0724 32.2229 55.8587 26.9976 54.5615C21.7703 53.2624 20.3489 49.0365 20.8304 43.5192C20.8304 54.0088 27.0401 53.0212 27.0401 53.0212H32.9965C35.4835 53.0212 39.6703 53.0212 39.6703 48.2882C39.6703 43.5534 34.4392 41.7681 34.4392 41.7681H49.8774C57.5974 41.901 61.2641 51.8873 61.2641 51.8873C61.7804 53.156 62.1305 54.4855 62.3064 55.8416H45.2341L45.4739 55.0724Z" fill="#E62828"/>
<path d="M54.3699 43.0481H57.6053C57.6053 43.0481 61.0012 44.4972 59.866 46.1173C59.866 46.1173 58.4716 47.141 58.0346 46.6301L54.3699 43.0481Z" fill="#CA1C10"/>
<path d="M56.5861 43.0481C57.4196 44.2807 58.462 45.3652 59.6668 46.2521C59.2607 46.5123 58.3691 47.0232 58.0346 46.6282L54.3699 43.0481H56.5861Z" fill="#8A8A8A"/>
<path d="M44.8512 44.0641C54.3717 42.0889 60.3088 51.4332 60.3088 56.2194H42.5866C39.0322 51.815 39.0244 45.2815 44.8512 44.0641Z" fill="#FF3737"/>
<path d="M44.683 45.4734C53.3391 43.6729 59.0324 51.2338 59.9955 56.2194H60.3107C60.3088 51.4332 54.3718 42.0889 44.8532 44.0641C42.0723 44.499 40.0572 46.9016 40.1538 49.6669C40.6315 47.4809 42.4339 45.8133 44.683 45.4734Z" fill="#FF6565"/>
<path d="M34.4411 41.3844H43.0701C45.3811 41.3844 47.754 41.2324 50.0611 41.3939C57.4776 41.9124 61.4594 49.4354 62.6874 55.739C62.7822 56.2233 62.026 56.4284 61.9313 55.9422C60.7884 50.0811 57.0192 42.429 49.9045 42.1517C44.7603 41.9523 39.5814 42.1517 34.4392 42.1517C34.2323 42.1403 34.0698 41.9713 34.0698 41.768C34.0698 41.5648 34.2323 41.3958 34.4392 41.3844" fill="#AC1414"/>
<path d="M29.2351 32.7407C29.0978 33.1016 28.7053 33.3048 28.3243 33.2098L23.4838 32.2412C23.302 32.2203 23.1395 32.1254 23.0332 31.981C22.9268 31.8348 22.8862 31.6524 22.9249 31.4758C23.0622 31.1149 23.4528 30.9117 23.8338 31.0067L28.6743 31.9772C28.8561 31.9981 29.0205 32.0912 29.1268 32.2374C29.2332 32.3818 29.2719 32.566 29.2351 32.7407Z" fill="#4D4D4F"/>
<path d="M29.2351 32.7407C29.0978 33.1016 28.7033 33.3029 28.3243 33.2061L23.4895 32.2393C23.3078 32.2203 23.1414 32.1273 23.0351 31.981C22.9268 31.8348 22.8862 31.6525 22.9248 31.4758L29.2351 32.7407Z" fill="#232323"/>
<path d="M18.6992 31.0713C18.5832 31.7304 18.7399 32.4084 19.1344 32.9535C19.5269 33.4986 20.1264 33.8671 20.7975 33.9791C22.2808 34.2602 23.7447 33.4112 24.2127 32.0001C24.2534 30.5187 23.1626 29.2405 21.6716 29.0201C20.9986 28.9043 20.3082 29.0562 19.7493 29.4399C19.1904 29.8254 18.8114 30.4123 18.6934 31.0732" fill="#E62828"/>
<path d="M21.6697 29.9641C22.8513 30.1825 23.8143 31.0201 24.1779 32.1463C24.1895 32.0969 24.205 32.0514 24.2147 32.002C24.2553 30.5187 23.1626 29.2386 21.6697 29.0201C20.9986 28.9043 20.3063 29.0562 19.7474 29.4399C19.1904 29.8254 18.8095 30.4123 18.6915 31.0732C18.6393 31.3714 18.6431 31.6753 18.7031 31.9716C18.97 30.6193 20.2889 29.7286 21.6697 29.9641Z" fill="#FF6565"/>
<path d="M21.6697 29.0201C20.9987 28.9043 20.3063 29.0562 19.7494 29.4399C19.1905 29.8254 18.8095 30.4123 18.6915 31.0732C18.5774 31.7323 18.7341 32.4084 19.1286 32.9535C19.5231 33.4986 20.1207 33.8671 20.7917 33.9791L21.6697 29.0201Z" fill="#607778"/>
<path d="M20.4998 30.1673C20.0646 30.1673 19.6315 30.0856 19.2253 29.928C18.9527 30.2585 18.7709 30.6535 18.6974 31.0732C18.5833 31.7323 18.7399 32.4084 19.1344 32.9535C19.527 33.4986 20.1265 33.867 20.7976 33.9791L21.4744 30.1274C21.1592 30.1559 20.8343 30.1673 20.4998 30.1673Z" fill="#4D4D4F"/>
<path d="M20.5577 29.0754C19.5947 29.3261 18.8694 30.1067 18.6993 31.0716C18.5291 32.0364 18.9468 33.0088 19.7687 33.5634L20.5577 29.0754Z" fill="#73D9D7"/>
<path d="M20.347 30.272L20.5578 29.0754C19.5967 29.328 18.8715 30.1067 18.6974 31.0716C18.6394 31.4001 18.651 31.7363 18.7284 32.0611C18.9256 31.233 19.5348 30.5607 20.347 30.272Z" fill="#A3F2EF"/>
<path d="M24.5667 32.5774C24.499 32.8225 24.2553 32.9782 24 32.9383C23.8821 32.9345 23.7699 32.8832 23.6926 32.794C23.6152 32.7047 23.5804 32.5888 23.5939 32.473L23.8357 31.1834C23.9014 30.9384 24.147 30.7826 24.4023 30.8206C24.5203 30.8244 24.6324 30.8757 24.7098 30.965C24.7871 31.0542 24.8219 31.1701 24.8084 31.286L24.5667 32.5774Z" fill="#E47C00"/>
<path d="M47.3904 47.0745C47.3904 47.179 47.3034 47.2625 47.197 47.2625H45.4855C45.3791 47.2625 45.2921 47.179 45.2921 47.0745C45.294 46.97 45.3791 46.8865 45.4855 46.8865H47.197C47.3034 46.8865 47.3884 46.97 47.3904 47.0745Z" fill="#E62828"/>
<path d="M47.3904 52.3907C47.3904 52.4932 47.3034 52.5787 47.197 52.5787H45.4855C45.3791 52.5787 45.2921 52.4932 45.2921 52.3907C45.294 52.2862 45.3791 52.2026 45.4855 52.2026H47.197C47.3034 52.2026 47.3884 52.2862 47.3904 52.3907Z" fill="#E62828"/>
<path d="M48.9723 47.9557C48.9723 48.007 48.951 48.0544 48.9123 48.0905C48.8756 48.1247 48.8253 48.1437 48.7731 48.1418H44.1569C44.0505 48.1418 43.9655 48.0582 43.9655 47.9557C43.9655 47.8512 44.0505 47.7658 44.1569 47.7658H48.7731C48.8253 47.7639 48.8756 47.7828 48.9143 47.8189C48.951 47.855 48.9723 47.9044 48.9723 47.9557Z" fill="#E62828"/>
<path d="M49.5119 48.8334C49.5119 48.8847 49.4906 48.9322 49.4539 48.9683C49.4171 49.0025 49.3669 49.0214 49.3146 49.0214H43.6909C43.6387 49.0214 43.5884 49.0025 43.5517 48.9683C43.5149 48.9322 43.4937 48.8847 43.4937 48.8334C43.4937 48.7821 43.5149 48.7347 43.5517 48.6986C43.5884 48.6625 43.6387 48.6435 43.6909 48.6454H49.3146C49.3669 48.6435 49.4171 48.6625 49.4539 48.6986C49.4906 48.7347 49.5119 48.7821 49.5119 48.8334Z" fill="#E62828"/>
<path d="M49.7014 49.7525C49.7014 49.8569 49.6144 49.9424 49.508 49.9424H43.5265C43.4202 49.9424 43.3351 49.8569 43.3351 49.7525C43.3351 49.648 43.4202 49.5645 43.5265 49.5645H49.508C49.6144 49.5645 49.6995 49.648 49.7014 49.7525Z" fill="#E62828"/>
<path d="M49.3474 50.5901C49.3455 50.6946 49.2604 50.7782 49.154 50.7782H43.6869C43.5825 50.7782 43.4955 50.6946 43.4955 50.5901C43.4955 50.5407 43.5148 50.4933 43.5516 50.4572C43.5883 50.4211 43.6367 50.4021 43.6869 50.4021H49.154C49.2604 50.4021 49.3474 50.4876 49.3474 50.5901Z" fill="#E62828"/>
<path d="M48.7905 51.4696C48.7905 51.5741 48.7035 51.6577 48.599 51.6577H44.1608C44.1105 51.6596 44.0602 51.6406 44.0235 51.6045C43.9867 51.5703 43.9655 51.5209 43.9655 51.4696C43.9655 51.4203 43.9848 51.3709 44.0235 51.3348C44.0602 51.3006 44.1086 51.2797 44.1608 51.2816H48.599C48.7054 51.2816 48.7905 51.3671 48.7905 51.4696Z" fill="#E62828"/>
<path d="M61.7476 40.7651L54.8107 43.0481L51.8325 41.3178L61.7476 40.7651Z" fill="#666666"/>
<path d="M47.1371 40.7653C47.1526 41.1623 47.4891 41.4718 47.8913 41.4585H65.4123C65.8145 41.4718 66.153 41.1623 66.1665 40.7653C66.153 40.3703 65.8145 40.0607 65.4123 40.0721H47.8913C47.4891 40.0607 47.1526 40.3703 47.1371 40.7653Z" fill="#8A8A8A"/>
<path d="M65.4123 40.072H47.7153V27.7268H65.4123V40.072Z" fill="white"/>
<path d="M49.3978 38.4842V27.7268H47.7134V40.072H65.4123V38.4842H49.3978Z" fill="#DCDCDC"/>
<path d="M29.5851 22.9009C29.5851 22.9009 31.1458 27.8846 29.4362 28.2854C27.7267 28.6861 25.0966 26.2285 22.8049 21.8469L22.3157 20.054C22.9306 20.3464 23.4876 20.7491 23.9556 21.2391C25.0715 22.3749 26.2647 23.4346 27.5294 24.4071L27.2838 21.7975L29.5851 22.9009Z" fill="#E09A68"/>
<path d="M38.8446 30.1656C38.8446 30.1656 39.767 43.0008 37.1408 49.4981L24.1026 58.9432L23.6152 57.1389L33.7488 47.5723C33.7488 47.5723 35.2592 41.7321 34.4953 38.1614L32.4763 37.7075C32.4763 37.7075 32.0605 54.1893 31.2289 63.4653H29.3666C29.3666 63.4653 27.5255 37.491 28.6105 31.7324C29.6973 25.9758 38.8446 30.1656 38.8446 30.1656Z" fill="#C0C0C0"/>
<path d="M32.0836 49.1504L30.5404 50.402C30.7995 44.1838 31.0413 37.4585 31.0413 37.4585L32.4743 37.713C32.4453 38.8469 32.2635 44.5332 32.0836 49.1504Z" fill="#979797"/>
<path d="M30.7281 53.0269C30.7474 53.3934 30.2678 54.1151 30.2871 54.4646L24.1026 58.9468L23.8492 58.0162L30.7281 53.0269Z" fill="#979797"/>
<path d="M30.3509 53.3098L35.5995 49.5037C38.2238 43.0006 37.2994 30.1673 37.2994 30.1673C35.6323 29.4323 33.8609 28.948 32.0469 28.7315C34.3927 28.7087 36.7134 29.2006 38.8426 30.1673C38.8426 30.1673 39.767 43.0006 37.1388 49.498L31.8903 53.3098C31.7104 56.9203 31.4842 60.5555 31.227 63.4766H29.6837C29.9448 60.5498 30.1672 56.9203 30.347 53.3098" fill="#979797"/>
<path d="M31.2289 63.469V64.8289C29.2892 65.883 27.2006 66.6446 25.0308 67.0909C25.0308 67.0909 24.6247 65.279 29.1693 64.0312L29.3666 63.469H31.2289Z" fill="#8B5D43"/>
<path d="M29.6219 63.469H31.2289V64.8289C31.2289 64.8289 30.2542 65.3626 28.9508 65.9076C29.3608 65.1555 29.589 64.3218 29.6219 63.469Z" fill="#70503E"/>
<path d="M31.229 64.4111V64.829C29.2893 65.8812 27.2007 66.6447 25.0309 67.091C25.0134 66.9505 25.0251 66.808 25.0676 66.6732C27.2239 66.2211 29.2989 65.4595 31.229 64.4111Z" fill="#583725"/>
<path d="M23.7273 57.5662L21.105 59.4445C21.105 59.4445 21.8225 63.0968 22.9866 63.4691H25.8372C25.8372 63.4691 25.8797 62.3713 23.9343 61.849L23.2825 59.1881L24.0174 58.6563L23.7273 57.5662Z" fill="#8B5D43"/>
<path d="M23.4508 59.8567C22.7507 60.2878 22.1473 60.8557 21.6813 61.5261C21.4434 60.8462 21.252 60.1511 21.105 59.4445L23.7273 57.5662L24.0232 58.6544L23.2883 59.1862L23.4508 59.8567Z" fill="#70503E"/>
<path d="M21.4105 59.2261C21.515 59.7142 22.2073 62.8385 23.2767 63.1841H25.783C25.8179 63.2772 25.8353 63.3741 25.8372 63.4709H22.9866C21.8244 63.0968 21.105 59.4445 21.105 59.4445L21.4105 59.2261Z" fill="#583725"/>
<path d="M38.9297 33.2954C38.9297 33.2954 33.1145 35.5574 28.011 34.3779C28.011 34.3779 30.0551 24.9918 28.713 19.4763C28.713 19.4763 33.7566 15.1958 38.3012 17.9537C38.3012 17.9537 40.9661 20.1961 38.9297 33.2972" fill="#E62828"/>
<path d="M31.6022 29.9035C33.7198 29.2273 35.5338 27.8523 36.7367 26.0138C37.7268 24.9768 38.3012 23.6245 38.3573 22.2039C38.3708 21.6417 38.3012 21.0814 38.1484 20.5382C37.9821 19.2752 37.3942 18.1024 36.4795 17.2021C37.1234 17.3556 37.7384 17.6088 38.3012 17.9525C38.3012 17.9525 40.9661 20.1963 38.9297 33.3012C38.9297 33.3012 33.1145 35.5614 28.011 34.3838C28.011 34.3838 28.3958 32.6175 28.7227 30.1675C29.6915 30.2757 30.672 30.1846 31.6041 29.9016" fill="#B51818"/>
<path d="M44.4257 36.0341C43.658 36.5336 44.2691 36.4614 43.8436 37.2534C43.7527 37.1983 41.9001 36.5146 41.8536 36.4177C40.6682 33.9809 38.9838 20.4943 38.9838 20.4943C39.123 20.3424 39.2197 20.16 39.2661 19.9606C39.6316 19.9929 40.0087 20.0062 40.4032 20.0062C40.5812 20.0062 39.0824 17.7635 39.2545 17.7434C40.5309 18.0311 41.4765 19.0888 41.6022 20.3708C42.9676 30.4559 42.6098 36.1024 44.4257 36.0341Z" fill="#F3B17D"/>
<path d="M39.2719 19.9606C39.6374 19.9929 40.0165 20.0062 40.409 20.0062C40.587 20.0062 39.0882 17.7635 39.2603 17.7434C39.9507 17.948 40.5696 18.3405 41.0434 18.8742C40.5019 18.5514 40.0087 18.5077 40.0029 18.4241C39.8308 18.445 41.3315 20.6842 41.1517 20.6842C40.7591 20.6842 40.382 20.6728 40.0145 20.6405C39.9662 20.84 39.8676 21.0223 39.7264 21.1742C39.7264 21.1742 41.26 33.4416 42.43 36.6912C42.2288 36.6228 42.0335 36.5336 41.8537 36.4234C40.6682 33.981 38.9838 20.4943 38.9838 20.4943C39.1249 20.3424 39.2236 20.16 39.2719 19.9606Z" fill="#DF9461"/>
<path d="M44.2729 36.0283C44.3232 36.0378 44.3754 36.0416 44.4257 36.0397L44.3174 36.1138L44.2729 36.0283Z" fill="#DF9461"/>
<path d="M36.4408 15.7345C37.9202 15.2764 39.535 15.6995 40.5851 16.8203C41.2445 17.7515 42.1051 18.3178 42.4513 21.8922C41.5153 22.688 40.3008 23.0907 39.067 23.0185L38.2161 21.1249L30.1344 21.2294L29.5387 23.7573L26.9241 22.6937C26.9241 22.6937 25.874 18.6768 29.3202 17.6012C30.8828 17.1169 36.4408 15.7345 36.4408 15.7345Z" fill="#E62828"/>
<path d="M38.3572 20.8648C38.3243 19.0567 37.9666 17.2671 37.3052 15.579C38.5429 15.402 39.7864 15.8719 40.585 16.819C41.2445 17.7502 42.1051 18.3179 42.4493 21.8923C41.5152 22.6881 40.3008 23.0927 39.0669 23.0186L38.3301 21.3909C38.3475 21.2143 38.3553 21.0377 38.3533 20.8591" fill="#B51818"/>
<path d="M44.1956 36.0059C44.1956 36.0059 46.2436 36.1673 46.1953 37.4208C46.1953 37.4208 45.9845 39.0998 45.7582 38.8225C45.7582 38.8225 45.414 38.7085 45.5687 37.4208C45.5687 37.4208 45.6074 39.0941 44.9131 39.0979C44.6752 39.0979 44.7507 37.4094 44.7507 37.4094C44.7507 37.4094 44.6288 39.0941 43.952 39.0979C43.6464 39.0979 43.8688 37.4322 43.8688 37.4322C43.8688 37.4322 42.0046 37.4455 41.8537 36.4237C41.7048 35.4 44.1956 36.0116 44.1956 36.0116" fill="#F3B17D"/>
<path d="M42.1516 35.926C43.0547 36.6041 44.1821 36.9307 45.3173 36.8415C45.5436 36.8396 45.7698 36.8187 45.9942 36.7807C46.1334 36.963 46.203 37.189 46.1914 37.4169C46.1914 37.4169 45.9845 39.0959 45.7582 38.8186C45.7582 38.8186 45.5416 38.7445 45.532 38.0684C45.4682 38.5394 45.3173 39.0921 44.9112 39.094C44.6714 39.094 44.7468 37.4056 44.7468 37.4056C44.7468 37.4056 44.625 39.0902 43.9501 39.094C43.6445 39.094 43.8669 37.4283 43.8669 37.4283C43.8669 37.4283 42.0046 37.4416 41.8537 36.4198C41.8112 36.2052 41.9388 35.9906 42.1516 35.926Z" fill="#DF9461"/>
<path d="M25.3074 23.7744L25.4795 21.049L19.5541 20.6919L19.382 23.4173L19.5521 23.4268L19.7127 20.8685L25.2977 21.2066L25.1372 23.763L25.3074 23.7744Z" fill="#6D6D6D"/>
<path d="M25.4988 23.48L19.2234 23.1021L20.0762 27.9395L24.0388 28.1788L25.4988 23.48Z" fill="white"/>
<path d="M36.315 15.7637C36.433 16.4837 36.2299 17.2185 35.76 17.7816C35.2881 18.3444 34.5939 18.6825 33.8512 18.7071C31.0258 18.9123 31.6602 16.9452 31.6602 16.9452L36.315 15.7637Z" fill="#F3B17D"/>
<path d="M36.5471 8.47433C37.4851 11.5344 36.1062 14.7461 33.4046 15.43C30.3142 16.2123 27.804 14.3655 26.868 11.3122C25.932 8.25877 27.338 5.14018 30.0106 4.35654C32.6813 3.57291 35.6092 5.4169 36.5471 8.47433Z" fill="#F3B17D"/>
<path d="M35.4216 11.8055C35.3423 11.2324 35.2069 10.6681 35.0155 10.1213C34.8047 9.5893 34.5339 9.08239 34.2071 8.60985C33.7275 7.96353 33.0855 7.45111 32.3428 7.12254L31.1322 6.76852C29.9003 6.57935 28.6414 6.87487 27.63 7.59071C27.2509 7.8604 26.9144 8.18403 26.6321 8.55135C26.8158 6.61923 28.1386 4.97447 30.0106 4.35512C32.6832 3.57282 35.6092 5.41548 36.5471 8.47291C37.3864 10.797 36.6109 13.388 34.6268 14.8962C35.2727 13.9992 35.557 12.8971 35.4216 11.8055Z" fill="#DF9461"/>
<path d="M34.7447 14.8657L35.1934 17.0263L33.0468 17.7422L32.6097 15.6759C33.391 15.6364 34.1394 15.3527 34.7447 14.8657Z" fill="#DF9461"/>
<path d="M33.6366 16.1628C34.0911 16.1605 34.5417 16.0701 34.9613 15.8967L35.1934 17.0275L33.0526 17.7434L32.7045 16.1203C33.0062 16.1469 33.3156 16.1575 33.6366 16.1575" fill="#F3B17D"/>
<path d="M36.8391 10.9661C36.6399 11.6036 36.3808 12.2215 36.0655 12.8114C35.9863 12.9618 35.9012 13.0948 35.8161 13.2345C35.7291 13.3741 35.6382 13.5073 35.5453 13.6336C35.4989 13.7002 35.4448 13.7667 35.3964 13.8239C35.3461 13.8811 35.292 13.9477 35.2378 14.0062C35.1334 14.1255 35.0213 14.2387 34.9033 14.3454L34.7254 14.5012L34.5378 14.6434C34.4121 14.7336 34.2786 14.8162 34.1413 14.8909C34.0756 14.9304 34.006 14.9652 33.9344 14.9948C33.8609 15.024 33.799 15.0639 33.7197 15.0865L33.5012 15.165L33.275 15.2235C33.1995 15.244 33.1222 15.2599 33.0448 15.2715C32.9694 15.2878 32.8901 15.2998 32.8128 15.3074C32.6561 15.3249 32.4975 15.3338 32.339 15.334C32.1784 15.3359 32.0179 15.3298 31.8594 15.3154C31.6969 15.3047 31.5364 15.2755 31.3759 15.2555L31.4049 15.2635L30.9195 15.1158L30.6758 15.044C30.5946 15.0198 30.5134 14.991 30.436 14.9574L29.9661 14.7766C29.8191 14.7006 29.6702 14.6288 29.5194 14.5557C29.4459 14.5169 29.3743 14.4725 29.3066 14.4225L29.0997 14.2922C29.032 14.2455 28.9663 14.1948 28.9044 14.1405C28.8406 14.0873 28.769 14.0381 28.711 13.9796C28.6549 13.9209 28.593 13.8598 28.5331 13.8C28.4712 13.7403 28.4132 13.6776 28.359 13.6123L28.0167 13.2279C28.0921 13.3848 28.1656 13.5379 28.2507 13.6909C28.2933 13.7667 28.3319 13.8452 28.3861 13.9169C28.4402 13.9889 28.4847 14.0647 28.5331 14.1392C28.5814 14.2138 28.6472 14.2723 28.7033 14.3454C28.7593 14.4157 28.8193 14.4827 28.8831 14.5464L29.0862 14.7247C29.1519 14.7868 29.2235 14.8442 29.297 14.8962C29.4459 14.9961 29.5948 15.1011 29.7495 15.1982L30.2291 15.443C30.3084 15.4859 30.3896 15.5245 30.4728 15.5589L30.7222 15.6559L31.225 15.8475H31.2366H31.254C31.4339 15.8781 31.6099 15.9193 31.7955 15.9419C31.9754 15.9655 32.1572 15.9788 32.337 15.9818C32.4298 15.9818 32.5227 15.9818 32.6078 15.9818L32.8862 15.9606C32.9771 15.9524 33.068 15.9395 33.157 15.922C33.2479 15.9095 33.3388 15.8912 33.4277 15.8675L33.6985 15.793L33.9731 15.7064C34.0601 15.673 34.1452 15.6346 34.2284 15.5921C34.3134 15.5532 34.3966 15.5087 34.4759 15.459C34.6364 15.3659 34.7892 15.2614 34.9362 15.1463L35.145 14.968C35.2108 14.9055 35.2804 14.8351 35.3423 14.7766C35.466 14.6457 35.584 14.508 35.6923 14.364C35.7465 14.294 35.7967 14.2212 35.8432 14.1458C35.8915 14.0714 35.9418 13.9982 35.9843 13.9209C36.0771 13.7694 36.1584 13.6136 36.2357 13.4568C36.315 13.2997 36.3711 13.1362 36.4388 12.9751C36.5065 12.814 36.5548 12.6492 36.6012 12.4828C36.6496 12.3164 36.6883 12.1503 36.7231 11.9825C36.7559 11.8148 36.7811 11.646 36.8043 11.477C36.8256 11.3076 36.8372 11.137 36.8391 10.9661Z" fill="#A8704C"/>
<path d="M34.3135 14.7925C34.3869 14.746 34.4604 14.6966 34.5339 14.6474L34.7196 14.5051L34.8975 14.3494C35.0155 14.2429 35.1276 14.1295 35.232 14.0102C35.2862 13.9517 35.3403 13.8917 35.3887 13.8279C35.437 13.7641 35.4912 13.7042 35.5376 13.6376C35.6362 13.5046 35.7271 13.3715 35.8083 13.2385C35.8915 13.1054 35.9805 12.9605 36.0598 12.8154C36.3769 12.2243 36.638 11.6052 36.8372 10.9661C36.8352 11.1364 36.8256 11.3066 36.8043 11.4756C36.7811 11.6433 36.7598 11.8135 36.7231 11.9812C36.6863 12.1489 36.6477 12.3151 36.6012 12.4815C36.5568 12.6479 36.4987 12.8101 36.4388 12.9738C36.3808 13.1375 36.3131 13.2984 36.2357 13.4554C36.1603 13.6123 36.0772 13.768 35.9843 13.9196C35.9418 13.9969 35.8915 14.07 35.8432 14.1445C35.7948 14.2204 35.7445 14.2938 35.6884 14.364C35.5801 14.508 35.4622 14.6457 35.3384 14.7766C35.2727 14.8404 35.203 14.9095 35.1412 14.968L34.9323 15.1463C34.7853 15.2614 34.6325 15.3659 34.472 15.459C34.3927 15.5087 34.3096 15.5532 34.2245 15.5921L34.1027 15.6519C34.1974 15.3727 34.269 15.0856 34.3135 14.7938" fill="#714328"/>
<path d="M29.7882 3.42916C33.1222 2.70687 36.4581 4.62968 37.4444 7.84096C37.8215 9.12657 37.8215 10.491 37.4444 11.7764C36.6264 10.7525 35.9437 9.63101 35.4138 8.43827L32.9771 7.6628L29.266 9.01717L28.3455 10.7254C28.74 11.739 28.6162 12.8772 28.0109 13.7855C26.5605 12.6121 25.7328 10.8539 25.7599 9.00786C25.6361 6.45829 27.2993 4.15487 29.7882 3.42916Z" fill="#FF7A09"/>
<path d="M33.1319 7.18249C32.9908 5.9888 32.3835 4.89578 31.4378 4.13436C31.0182 3.79288 30.5347 3.53496 30.0126 3.37466C33.2828 2.79823 36.4756 4.71706 37.4445 7.84096C37.8216 9.12657 37.8216 10.491 37.4445 11.7764C36.6265 10.7525 35.9438 9.63102 35.4139 8.43847L33.1571 7.72131C33.1609 7.54088 33.1551 7.36045 33.1358 7.18116" fill="#B51818"/>
<path d="M37.0789 12.1316C36.7792 11.7778 36.5084 11.3973 36.2377 11.0247C35.6826 10.2265 35.3636 9.34311 34.8762 8.52756C34.3869 7.71202 32.2539 8.28275 31.5963 8.4704C30.935 8.65329 30.3045 8.93609 29.7301 9.30854C29.5019 9.45744 28.6723 10.1507 28.7825 10.4194C29.3376 11.6427 29.1829 13.0645 28.3764 14.1446C27.9703 14.6542 27.247 13.9384 27.6493 13.4341C28.6491 12.1836 27.3785 10.8785 28.0477 9.60255C28.8696 8.47476 30.1053 7.70328 31.4938 7.44992C32.7296 6.99448 34.1007 7.03797 35.3055 7.5709C35.9515 7.97013 36.1178 8.83619 36.4601 9.45345C36.841 10.152 37.2936 10.8116 37.806 11.4226C38.2257 11.9176 37.5024 12.6319 37.0789 12.1329" fill="#E57676"/>
<path d="M27.6473 13.4303C28.6471 12.1796 27.3766 10.8744 28.0457 9.59851C28.8695 8.47187 30.1034 7.70191 31.4919 7.44988C32.0256 7.29794 32.5749 7.19898 33.128 7.15454C33.0777 7.48292 33.0661 7.81586 33.0931 8.1469C32.5865 8.21794 32.0837 8.32411 31.5924 8.46503C30.9291 8.64793 30.3006 8.93073 29.7262 9.30318C29.4961 9.45208 28.6665 10.1453 28.7786 10.4141C29.3337 11.6372 29.179 13.0597 28.3725 14.1393C27.9664 14.6488 27.2431 13.9332 27.6473 13.4289" fill="#F98A8A"/>
<path d="M35.1857 10.0736C35.1799 10.0341 35.1683 9.99534 35.1547 9.95773C35.1199 9.85612 35.0658 9.76097 34.9981 9.67702C34.9517 9.61928 34.8975 9.56705 34.8376 9.52147L34.7331 9.45101C34.6964 9.42955 34.6558 9.40961 34.6132 9.39232C34.5262 9.35605 34.4334 9.33098 34.3406 9.31787C34.2922 9.31787 34.2439 9.31787 34.1955 9.31787L34.0524 9.33117H34.0389H34.0215L34.0021 9.33914L33.977 9.34712L33.9151 9.36174C33.8648 9.37637 33.8184 9.39517 33.772 9.41758C33.6811 9.46127 33.5999 9.52128 33.5341 9.59459C33.5032 9.62992 33.4761 9.66714 33.451 9.70646C33.4297 9.74482 33.4123 9.78433 33.3968 9.82478C33.3697 9.89563 33.3543 9.97008 33.3504 10.0457C33.3427 10.153 33.3562 10.2607 33.3871 10.3636C33.3987 10.4022 33.4142 10.4396 33.4316 10.4753C33.4316 10.4753 33.4316 10.4314 33.4529 10.3609C33.4606 10.3264 33.4703 10.2838 33.4838 10.2373C33.4993 10.1862 33.5167 10.1359 33.538 10.0869C33.5612 10.0324 33.5883 9.97976 33.6192 9.92981C33.654 9.88081 33.6966 9.83618 33.741 9.79686C33.7913 9.75888 33.8455 9.72792 33.9035 9.70513C33.9325 9.69354 33.9634 9.68367 33.9944 9.67569L34.0543 9.6624L34.0853 9.65575H34.1007H34.0891H34.0988L34.2071 9.64378H34.3135L34.416 9.65176C34.4488 9.65176 34.4817 9.66373 34.5165 9.66904C34.5804 9.6831 34.6442 9.7019 34.7061 9.72507C34.7621 9.75147 34.8163 9.78072 34.8685 9.81282C34.9497 9.86657 35.0271 9.92658 35.0986 9.99249C35.1528 10.0417 35.1857 10.0736 35.1857 10.0736Z" fill="black"/>
<path d="M31.3334 10.9368C31.3237 10.8992 31.3102 10.8627 31.2928 10.8278C31.2483 10.7292 31.1864 10.6392 31.1091 10.5617C31.0569 10.5085 30.9988 10.4616 30.935 10.4219L30.8287 10.3607C30.7861 10.3435 30.7416 10.3288 30.6933 10.3142C30.6043 10.2888 30.5134 10.2745 30.4225 10.2715C30.3723 10.2715 30.3239 10.2715 30.2756 10.2795L30.1402 10.3062H30.1267H30.1112H30.0957L30.0609 10.3288L30.001 10.3488C29.9545 10.3678 29.9101 10.3904 29.8656 10.4166C29.7805 10.4686 29.707 10.5364 29.6471 10.6162C29.62 10.6542 29.5968 10.6943 29.5755 10.7359C29.5581 10.7757 29.5426 10.8166 29.5291 10.8584C29.5098 10.9317 29.502 11.0074 29.504 11.083C29.5078 11.1909 29.5291 11.2973 29.5716 11.3972C29.5852 11.4342 29.6045 11.4699 29.6258 11.5035C29.6258 11.5035 29.6258 11.4597 29.6355 11.3879C29.6355 11.352 29.6471 11.3079 29.6548 11.2547C29.6664 11.204 29.678 11.1539 29.6935 11.1045C29.7128 11.0468 29.7341 10.9907 29.7612 10.9368C29.7921 10.8863 29.8288 10.8394 29.8695 10.797C29.9139 10.7556 29.9623 10.7203 30.0164 10.692C30.0454 10.6772 30.0764 10.6643 30.1093 10.6534L30.1692 10.6348L30.2002 10.6255H30.2137H30.204H30.2137L30.322 10.5989L30.4225 10.587H30.527C30.5599 10.587 30.5947 10.587 30.6275 10.5949C30.6952 10.6042 30.7629 10.6185 30.8287 10.6375C30.8847 10.6591 30.9408 10.6836 30.993 10.7106C31.0781 10.7562 31.1594 10.8082 31.2348 10.8663C31.3005 10.9102 31.3334 10.9368 31.3334 10.9368Z" fill="black"/>
<path d="M35.1817 8.85098C35.1817 8.85098 34.6344 7.48598 32.7373 8.32811L33.1183 8.79913C33.7913 8.58394 34.5203 8.60236 35.1817 8.85098Z" fill="black"/>
<path d="M28.9431 10.3861C28.9431 10.3861 28.8019 8.9332 30.8847 8.84546L30.7628 9.43347C30.0628 9.53679 29.4207 9.87315 28.9431 10.3861Z" fill="black"/>
<path d="M31.8071 10.9209C31.8071 10.9209 31.8651 11.6873 31.2946 11.6886C30.7261 11.6899 30.9504 12.548 31.6466 12.5347C32.3447 12.5214 32.5555 11.3866 32.3931 11.0341C32.2306 10.6814 31.751 10.4206 31.8071 10.9209Z" fill="#DF9461"/>
<path d="M34.9168 11.9934C33.6057 12.7871 32.0856 13.1827 30.5463 13.1309C31.1129 13.7058 31.9406 13.9531 32.7374 13.7856C33.7507 13.6404 34.592 12.9472 34.9168 11.9934Z" fill="white"/>
<path d="M33.9595 13.8293L33.6327 13.9463C33.5341 13.9798 33.4219 14.0197 33.3001 14.0582C33.1782 14.0968 33.0487 14.1366 32.9172 14.1646C32.7895 14.194 32.66 14.2155 32.5304 14.2284L32.3505 14.2445H32.19L32.045 14.2204C32.0121 14.2147 31.9792 14.2063 31.9483 14.1951L31.8555 14.1712C31.8555 14.1712 31.8825 14.1912 31.9348 14.2257C31.9657 14.2478 31.9986 14.266 32.0315 14.2804C32.0721 14.2964 32.1185 14.3163 32.1668 14.3323C32.2171 14.3482 32.2809 14.3615 32.3428 14.3615C32.4066 14.3615 32.4704 14.3722 32.5381 14.3708C32.6078 14.3714 32.6774 14.3684 32.7451 14.3615C32.8166 14.3482 32.8882 14.3402 32.9578 14.3216C33.0932 14.2882 33.2247 14.2438 33.3523 14.1885C33.4625 14.1431 33.5689 14.0903 33.6695 14.0303C33.7739 13.9724 33.8706 13.9051 33.9595 13.8293Z" fill="#DF9461"/>
<path d="M23.8009 21.1343C23.8009 21.1343 23.5939 21.8085 23.3271 21.968C22.7353 22.3289 21.5943 21.9282 21.6465 21.3869C21.6987 20.8456 23.8009 21.1343 23.8009 21.1343Z" fill="#E09A68"/>
<path d="M20.699 20.1279C20.7512 20.1184 20.9427 20.1165 21.1283 20.1108L21.1825 20.1013C21.8033 19.9361 22.4627 19.9969 23.041 20.2742C23.2924 20.4546 23.5051 20.6806 23.6714 20.9389C22.3641 20.7585 22.8688 21.8486 22.8688 21.8486C23.126 22.8211 22.2481 22.1411 22.2481 22.1411C22.1572 22.2589 22.0121 22.3235 21.8613 22.3102C21.7124 22.2969 21.5789 22.2095 21.5113 22.0804C21.3507 22.3349 21.1283 22.3045 20.9794 22.0804C20.9195 22.1069 20.9794 22.0538 20.9794 22.0804C20.4573 22.8913 19.382 20.3577 20.701 20.1317" fill="#F3B17D"/>
<path d="M54.923 31.0522H54.6522L54.6 31.2669C54.7276 31.2745 54.9036 31.3808 54.7605 31.5062C54.7412 31.5214 53.2559 32.5698 53.2559 32.5698L53.575 31.5005C53.6253 31.3732 53.7433 31.2821 53.8825 31.2669L53.9386 31.0522H52.1517L52.0956 31.2669C52.1807 31.2878 52.4244 31.3314 52.3412 31.6315C51.7436 33.6333 51.8133 33.4339 51.7727 33.546C51.6102 34.1234 51.3453 34.0949 51.2505 34.1006L51.1906 34.3152V34.3323H53.0587L53.1225 34.0968C53.1225 34.0968 52.8247 34.0417 52.8808 33.8423C52.9369 33.6428 53.1709 32.8565 53.1709 32.8565C53.9966 34.0873 54.2035 34.3019 54.923 34.3323C55.1666 34.3437 55.4625 34.3323 55.8686 34.3323L55.9305 34.1025C55.739 34.0892 55.5631 33.9961 55.4451 33.8499C55.3948 33.8005 55.1434 33.451 54.9172 33.1243C54.7122 32.8319 54.5265 32.5641 54.5265 32.5641L54.923 32.2716L56.0369 31.4435C56.1529 31.3333 56.3076 31.2707 56.4701 31.2669L56.5281 31.0522H54.923Z" fill="#232020"/>
<path d="M62.4979 31.0201C62.3065 31.0182 62.1169 31.0258 61.9274 31.0466C60.4306 31.21 59.5275 32.0836 59.5275 32.9649C59.5275 33.7018 60.1695 34.4102 61.6528 34.4026C61.7418 34.4026 61.8327 34.4007 61.9235 34.3969C62.2465 34.3799 62.5695 34.34 62.8885 34.2792L63.0607 33.5936C62.7551 33.6904 62.4399 33.7455 62.1189 33.7588C62.0512 33.7588 61.9835 33.7588 61.9235 33.7493C61.3376 33.7626 60.8444 33.3239 60.8019 32.7503C60.8 32.2166 61.2215 31.7893 61.9274 31.6848C62.0512 31.6639 62.1769 31.6525 62.3026 31.6506C62.6197 31.6183 62.933 31.738 63.14 31.9754H63.2637L63.5055 31.1644C63.1767 31.0713 62.8383 31.0239 62.4979 31.0201Z" fill="#232020"/>
<path d="M58.5605 31.0522H56.7987L56.7407 31.2669C56.8277 31.2688 56.9089 31.3124 56.9573 31.3846C57.0056 31.4568 57.0153 31.548 56.9843 31.6277L56.1837 34.3304H57.783L57.843 34.0987C57.843 34.0987 57.5374 34.0341 57.6225 33.7758C57.6225 33.753 57.8565 32.9781 57.8565 32.9781H58.5895C58.7712 32.9572 58.9511 33.0237 59.0749 33.1547L59.2876 32.357H58.0518L58.2356 31.717H59.3089C59.5061 31.717 59.6434 31.8385 59.6434 31.9297H59.7653L60.0031 31.0522H58.5605Z" fill="#232020"/>
<path d="M33.3524 20.616H33.2402L33.2131 20.7242C33.2673 20.7242 33.3485 20.7812 33.2808 20.8439L32.6368 21.3757L32.7722 20.8439C32.7896 20.7812 32.8437 20.7356 32.9076 20.728L32.9308 20.616H32.1572L32.1398 20.7242C32.1766 20.7337 32.2752 20.7565 32.2442 20.9047C31.989 21.9056 32.0218 21.8125 32.0006 21.8619C31.9309 22.1525 31.8188 22.1373 31.7782 22.1411L31.7511 22.2474V22.2569H32.5537L32.5807 22.1392C32.5807 22.1392 32.4531 22.1107 32.4763 22.0062C32.5014 21.9018 32.602 21.52 32.602 21.52C32.9559 22.1335 33.0429 22.2417 33.3524 22.2569C33.4549 22.2569 33.5864 22.2569 33.7585 22.2569L33.7817 22.1411C33.6947 22.1316 33.6192 22.0822 33.5728 22.0081C33.5515 21.9834 33.4374 21.8087 33.3466 21.6473L33.1841 21.3719L33.3524 21.2275L33.8281 20.8116C33.8745 20.7584 33.9422 20.7261 34.0157 20.7242L34.0389 20.616H33.3524Z" fill="white"/>
<path d="M36.5955 20.6008C36.5143 20.5989 36.433 20.6027 36.3518 20.6141C35.8123 20.6312 35.3713 21.0433 35.323 21.5732C35.323 21.9398 35.5937 22.295 36.2339 22.2931H36.3518C36.4911 22.2836 36.6303 22.2646 36.7657 22.2342L36.8392 21.8866C36.7096 21.936 36.5723 21.9626 36.433 21.9683C36.406 21.9702 36.377 21.9702 36.3499 21.9683C36.0772 21.9569 35.8625 21.7347 35.8645 21.4669C35.8606 21.1915 36.0714 20.9579 36.3518 20.9294C36.406 20.9199 36.4582 20.9161 36.5123 20.9161C36.6535 20.9009 36.7908 20.9636 36.872 21.0775H36.9243L37.0287 20.6787C36.8894 20.6293 36.7425 20.6046 36.5955 20.6008Z" fill="white"/>
<path d="M34.9092 20.616H34.155L34.1298 20.7242C34.1704 20.7299 34.2072 20.7546 34.2265 20.7888C34.2478 20.8249 34.2497 20.8667 34.2343 20.9047L33.892 22.255H34.5766L34.6036 22.1392C34.5321 22.1202 34.4895 22.048 34.5089 21.9777L34.6075 21.577H34.9227C35.004 21.5694 35.0813 21.6036 35.1316 21.6663L35.2205 21.2674H34.6926L34.7719 20.9502H35.2321C35.3018 20.9407 35.3675 20.9863 35.3811 21.0547H35.4333L35.528 20.616H34.9092Z" fill="white"/>
<path d="M65 8.5C65 8.39674 64.9981 8.29387 64.9945 8.19151C64.8321 3.63999 61.0912 0 56.5 0C51.9088 0 48.1679 3.63999 48.0055 8.19151C48.0019 8.29387 48 8.39674 48 8.5C48 13.1944 52.3663 16.6915 56.5 16.6915C60.7086 16.6915 65 13.1944 65 8.5Z" fill="#FF5876"/>
<path d="M56.5 16.3832C51.9089 16.3832 48.1686 12.7431 48.0062 8.19165C48.0025 8.29412 48 8.39681 48 8.50014C48 13.1946 51.8056 17.0001 56.5 17.0001C61.1944 17.0001 65 13.1946 65 8.50014C65 8.39681 64.9975 8.29412 64.9939 8.19168C64.8314 12.7431 61.0911 16.3832 56.5 16.3832Z" fill="#E6485D"/>
<path d="M63.5861 8.19152C63.4246 4.41742 60.3138 1.40723 56.5 1.40723C52.6861 1.40723 49.5753 4.41742 49.4138 8.19152C49.4094 8.29382 49.4137 15.1416 56.5 15.1416C63.5862 15.1416 63.5905 8.29382 63.5861 8.19152Z" fill="#E4EEF9"/>
<path d="M56.5 14.976C52.6862 14.976 49.5759 11.9657 49.4143 8.19165C49.4099 8.29398 49.4072 8.39671 49.4072 8.50011C49.4072 12.4173 52.5828 15.5929 56.5 15.5929C60.4172 15.5929 63.5928 12.4174 63.5928 8.50014C63.5928 8.39675 63.5901 8.29398 63.5857 8.19168C63.4242 11.9658 60.3139 14.976 56.5 14.976Z" fill="#D5E0F2"/>
<path d="M59.0764 6.00991C58.8742 5.81053 58.5487 5.81275 58.3493 6.01489L57.1429 7.23799L57.2642 7.82028L57.8277 8.00801L59.0814 6.73696C59.2808 6.53482 59.2785 6.2093 59.0764 6.00991Z" fill="#405B6C"/>
<path d="M55.7722 7.28625L53.0362 4.84808C52.8242 4.65915 52.4992 4.67788 52.3103 4.88988C52.1215 5.10185 52.1401 5.42684 52.3521 5.61573L55.142 8.10192L55.7234 7.90801L55.7722 7.28625Z" fill="#405B6C"/>
<path d="M60.1402 11.8157C60.0819 11.8157 60.0232 11.796 59.975 11.7555L56.7187 9.02031C56.61 8.929 56.5959 8.76684 56.6872 8.65817C56.7785 8.54942 56.9406 8.53531 57.0493 8.62666L60.3057 11.3619C60.4144 11.4532 60.4285 11.6154 60.3372 11.724C60.2864 11.7846 60.2135 11.8157 60.1402 11.8157Z" fill="#86DCFF"/>
<path d="M55.1421 8.10204L55.6222 8.5299L56.2388 8.32039L56.2054 7.6723L55.7723 7.28638C55.471 7.46743 55.2429 7.75753 55.1421 8.10204Z" fill="#2D4456"/>
<path d="M57.1429 7.23828L56.7347 7.65213V8.46447H57.3778L57.8277 8.0083C57.7041 7.67374 57.4575 7.39905 57.1429 7.23828Z" fill="#2D4456"/>
<path d="M57.3229 8.1914C57.198 7.85837 56.8767 7.62134 56.5 7.62134C56.1234 7.62134 55.8021 7.85837 55.6772 8.1914C55.6412 8.28739 55.6748 9.07002 56.5 9.07002C57.3253 9.07002 57.3589 8.28739 57.3229 8.1914Z" fill="#FF5876"/>
<path d="M56.5 8.76175C56.1234 8.76175 55.8022 8.52468 55.6773 8.19165C55.6413 8.28764 55.6215 8.39153 55.6215 8.50011C55.6215 8.98534 56.0148 9.37866 56.5 9.37866C56.9852 9.37866 57.3786 8.9853 57.3786 8.50011C57.3786 8.39153 57.3587 8.28764 57.3228 8.19165C57.1979 8.52464 56.8767 8.76175 56.5 8.76175Z" fill="#E6485D"/>
<path d="M56.7577 3.10489V2.30712C56.7577 2.16487 56.6424 2.04956 56.5001 2.04956C56.3579 2.04956 56.2426 2.16487 56.2426 2.30712V3.10489C56.2426 3.24713 56.3578 3.36245 56.5001 3.36245C56.6424 3.36245 56.7577 3.24713 56.7577 3.10489Z" fill="#405B6C"/>
<path d="M56.2426 13.8921V14.6899C56.2426 14.8321 56.3578 14.9474 56.5001 14.9474C56.6424 14.9474 56.7577 14.8321 56.7577 14.6899V13.8921C56.7577 13.7498 56.6424 13.6345 56.5001 13.6345C56.3579 13.6345 56.2426 13.7498 56.2426 13.8921Z" fill="#405B6C"/>
<path d="M62.6909 8.75559C62.8332 8.75559 62.9485 8.64028 62.9485 8.49803C62.9485 8.35579 62.8332 8.24048 62.6909 8.24048H61.8932C61.7509 8.24048 61.6356 8.35579 61.6356 8.49803C61.6356 8.64028 61.7509 8.75559 61.8932 8.75559H62.6909Z" fill="#405B6C"/>
<path d="M50.3092 8.24048C50.1669 8.24048 50.0516 8.35579 50.0516 8.49803C50.0516 8.64028 50.1669 8.75559 50.3092 8.75559H51.107C51.2492 8.75559 51.3645 8.64028 51.3645 8.49803C51.3645 8.35579 51.2492 8.24048 51.107 8.24048H50.3092Z" fill="#405B6C"/>
</svg>
