<svg width="30" height="44" viewBox="0 0 30 44" fill="none" xmlns="http://www.w3.org/2000/svg">
<path fill-rule="evenodd" clip-rule="evenodd" d="M13.8191 43.5205L10.9336 42.7096L9.81824 22.4238L12.6898 23.0152L13.8191 43.5205Z" fill="#E31E2D"/>
<path fill-rule="evenodd" clip-rule="evenodd" d="M8.66903 42.5592L5.78358 41.7483L4.70544 22.0538H7.5397L8.66903 42.5592Z" fill="#E31E2D"/>
<path fill-rule="evenodd" clip-rule="evenodd" d="M17.7708 43.0963L20.1578 42.2703L21.0496 22.2608H18.7051L17.7708 43.0963Z" fill="#E31E2D"/>
<path fill-rule="evenodd" clip-rule="evenodd" d="M22.0052 42.2928L24.3923 41.482L25.2845 21.7875L22.9396 22.164L22.0052 42.2928Z" fill="#E31E2D"/>
<path fill-rule="evenodd" clip-rule="evenodd" d="M24.6843 19.6356C24.6843 21.0856 19.4231 22.2609 12.9332 22.2609C6.44332 22.2609 1.18213 21.0856 1.18213 19.6356C1.18213 18.1859 6.44332 17.0102 12.9332 17.0102C19.4231 17.0102 24.6843 18.1859 24.6843 19.6356Z" fill="#FDF2F2"/>
<path fill-rule="evenodd" clip-rule="evenodd" d="M26.5126 22.4934L25.5151 38.9893C24.6041 41.5754 18.8256 42.6257 16.631 42.8139C5.22469 42.9532 4.1857 39.4335 4.133 39.2114L3.13166 22.4633C3.13166 22.4633 3.13542 22.4633 3.13542 22.4671L3.01496 21.0667C2.9472 21.0253 2.87944 20.9764 2.81168 20.9312L1.84045 20.2536L3.0112 39.3506C3.02625 39.4862 3.22577 40.7171 5.10423 41.8691C7.34784 43.2506 11.0069 43.947 15.9797 43.947C16.2056 43.947 16.4315 43.947 16.6648 43.9433H16.7063C17.0601 43.9132 25.3682 43.1678 26.6105 39.2716L27.8114 20.7072L26.7987 20.9576C26.795 20.9613 26.8055 20.9587 26.644 21.0679" fill="#4B526B"/>
<mask id="mask0_2767_5533" style="mask-type:alpha" maskUnits="userSpaceOnUse" x="0" y="16" width="30" height="7">
<path fill-rule="evenodd" clip-rule="evenodd" d="M0.130493 16.4851H29.5214V22.9249H0.130493V16.4851Z" fill="white"/>
</mask>
<g mask="url(#mask0_2767_5533)">
<path fill-rule="evenodd" clip-rule="evenodd" d="M14.8258 17.4872C5.96576 17.4872 1.13259 18.9523 1.13259 19.7052C1.13259 20.4577 5.96576 21.9228 14.8258 21.9228C23.6858 21.9228 28.5189 20.4577 28.5189 19.7052C28.5189 18.9523 23.6858 17.4872 14.8258 17.4872ZM14.8258 22.9249C9.74301 22.9249 0.130493 22.2518 0.130493 19.7052C0.130493 17.1582 9.74301 16.4851 14.8258 16.4851C19.9085 16.4851 29.5214 17.1582 29.5214 19.7052C29.5214 22.2518 19.9085 22.9249 14.8258 22.9249Z" fill="#4B526B"/>
</g>
<path fill-rule="evenodd" clip-rule="evenodd" d="M21.252 31.7371C21.252 34.9343 18.6602 37.5261 15.463 37.5261C12.2655 37.5261 9.67371 34.9343 9.67371 31.7371C9.67371 28.54 12.2655 25.9482 15.463 25.9482C18.6602 25.9482 21.252 28.54 21.252 31.7371Z" fill="black"/>
<path fill-rule="evenodd" clip-rule="evenodd" d="M14.71 32.8488L18.1703 29.3882L18.703 29.9204L14.71 33.9134L12.3143 31.5177L12.8466 30.9854L14.71 32.8488Z" fill="#FEFEFE"/>
<path fill-rule="evenodd" clip-rule="evenodd" d="M9.12052 14.6357C9.0976 14.7956 8.92672 14.9005 8.75416 14.8612C8.24455 14.7446 7.28062 14.4224 6.8974 13.6076C6.50205 12.7672 6.8482 11.6732 7.92672 10.3562C8.49565 9.66072 8.7191 8.9552 8.59069 8.25914C8.41004 7.28295 7.59002 6.55607 7.19669 6.25702C7.0794 6.16791 7.05547 6.01411 7.14209 5.89999C7.24017 5.7703 7.4397 5.74283 7.57317 5.84353C8.03053 6.18958 8.96009 7.01808 9.17343 8.17065C9.32948 9.01562 9.06963 9.85785 8.40128 10.6748C7.47105 11.8112 7.13872 12.7519 7.44004 13.3958C7.72045 13.9955 8.49093 14.2475 8.8974 14.3412C9.04334 14.3751 9.14007 14.5002 9.12052 14.6357Z" fill="#4B526B"/>
<path fill-rule="evenodd" clip-rule="evenodd" d="M15.7295 12.0726C15.7066 12.2904 15.5357 12.4338 15.3631 12.3798C14.8532 12.2211 13.8895 11.7816 13.506 10.6707C13.1106 9.5248 13.4571 8.03291 14.5353 6.23666C15.1046 5.28829 15.3281 4.32624 15.1993 3.37724C15.019 2.04627 14.199 1.05496 13.8056 0.646929C13.6883 0.52544 13.6644 0.315857 13.7507 0.159703C13.8491 -0.0171228 14.0486 -0.0540146 14.1818 0.0833754C14.6395 0.554699 15.569 1.68467 15.782 3.2567C15.9381 4.40861 15.6786 5.55735 15.0099 6.6711C14.0796 8.22087 13.7477 9.50381 14.0486 10.3819C14.3294 11.1992 15.0999 11.543 15.506 11.6709C15.6523 11.717 15.7487 11.8878 15.7295 12.0726Z" fill="#4B526B"/>
<path fill-rule="evenodd" clip-rule="evenodd" d="M20.8793 14.6357C20.9023 14.7956 21.0729 14.9005 21.2455 14.8612C21.7553 14.7446 22.7191 14.4224 23.1027 13.6076C23.498 12.7672 23.1516 11.6732 22.0733 10.3562C21.5042 9.66072 21.2809 8.9552 21.4092 8.25914C21.5896 7.28295 22.4096 6.55607 22.8032 6.25702C22.9205 6.16791 22.9444 6.01411 22.8578 5.89999C22.7594 5.7703 22.56 5.74283 22.4268 5.84353C21.9694 6.18958 21.0395 7.01808 20.8266 8.17065C20.6704 9.01562 20.9302 9.85785 21.5985 10.6748C22.5287 11.8112 22.8613 12.7519 22.56 13.3958C22.2795 13.9955 21.5088 14.2475 21.1025 14.3412C20.9564 14.3751 20.86 14.5002 20.8793 14.6357Z" fill="#4B526B"/>
</svg>
