<svg width="57" height="31" viewBox="0 0 57 31" fill="none" xmlns="http://www.w3.org/2000/svg">
<mask id="mask0_2483_138227" style="mask-type:alpha" maskUnits="userSpaceOnUse" x="0" y="0" width="57" height="31">
<rect width="57" height="31" fill="#D9D9D9"/>
</mask>
<g mask="url(#mask0_2483_138227)">
<mask id="mask1_2483_138227" style="mask-type:alpha" maskUnits="userSpaceOnUse" x="0" y="0" width="57" height="31">
<rect width="57" height="31" fill="#D9D9D9"/>
</mask>
<g mask="url(#mask1_2483_138227)">
<path d="M45.6572 26.3887L33.1729 29.6679L34.6709 24.9418L45.6572 26.3887Z" fill="url(#paint0_linear_2483_138227)"/>
<g style="mix-blend-mode:multiply" opacity="0.1">
<path opacity="0.02" d="M45.737 26.4437C45.4772 26.5081 5.56369 32.2594 2.68291 32.3026C-0.197884 32.3457 -12.8575 4.57221 -3.14967 2.39748C1.28094 1.40675 52.3125 11.108 52.3125 11.108L45.737 26.4437Z" fill="#F9F9F9"/>
<path opacity="0.04" d="M45.7283 26.4257C45.4689 26.4894 5.74165 32.0636 2.84069 32.0847C-0.0604782 32.1058 -12.5083 4.74477 -2.97092 2.60989C1.43307 1.62709 52.2837 11.1869 52.2837 11.1869L45.7283 26.4255V26.4257Z" fill="#F4F4F4"/>
<path opacity="0.07" d="M45.7207 26.4076C45.4615 26.4705 5.9208 31.8676 2.99926 31.8668C0.0777283 31.8658 -12.1583 4.91724 -2.79136 2.82203C1.5864 1.84736 52.2559 11.266 52.2559 11.266L45.7207 26.4076Z" fill="#EEEEEE"/>
<path opacity="0.09" d="M45.712 26.3897C45.4532 26.4518 6.09895 31.6718 3.15704 31.6488C0.215328 31.626 -11.8091 5.08968 -2.61261 3.03412C1.73853 2.06796 52.2271 11.3451 52.2271 11.3451L45.712 26.3897Z" fill="#E9E9E9"/>
<path opacity="0.11" d="M45.7036 26.3716C45.445 26.4331 6.2771 31.4758 3.31501 31.4309C0.352932 31.386 -11.4597 5.26234 -2.43365 3.24625C1.89106 2.28822 52.1982 11.4242 52.1982 11.4242L45.7034 26.3718L45.7036 26.3716Z" fill="#E3E3E3"/>
<path opacity="0.13" d="M45.6948 26.3538C45.4366 26.4145 6.45506 31.2801 3.4724 31.2132C0.489948 31.1463 -11.1109 5.43507 -2.25529 3.45864C2.0432 2.50893 52.1694 11.5035 52.1694 11.5035L45.695 26.354L45.6948 26.3538Z" fill="#DEDEDE"/>
<path opacity="0.15" d="M45.6873 26.3359C45.4293 26.3959 6.63419 31.0843 3.63136 30.9953C0.628532 30.9063 -10.7605 5.60756 -2.07555 3.67079C2.19652 2.7292 52.1416 11.5823 52.1416 11.5823L45.6873 26.3357V26.3359Z" fill="#D8D8D8"/>
<path opacity="0.17" d="M45.6787 26.3179C45.4211 26.3771 6.81235 30.8883 3.78915 30.7775C0.765945 30.6666 -10.4113 5.78035 -1.89678 3.88324C2.34865 2.94978 52.1128 11.6615 52.1128 11.6615L45.6787 26.3179Z" fill="#D3D3D3"/>
<path opacity="0.2" d="M45.67 26.3C45.4126 26.3586 6.99051 30.6926 3.94693 30.5595C0.903358 30.4266 -10.062 5.9528 -1.71802 4.09536C2.50099 3.17021 52.084 11.7407 52.084 11.7407L45.67 26.3Z" fill="#CDCDCD"/>
<path opacity="0.22" d="M45.6619 26.282C45.4047 26.3398 7.16895 30.4966 4.105 30.3416C1.04105 30.1866 -9.71274 6.12532 -1.53897 4.30753C2.65361 3.39052 52.0557 11.8197 52.0557 11.8197L45.6619 26.282Z" fill="#C8C8C8"/>
<path opacity="0.24" d="M45.6544 26.264C45.3976 26.3211 7.34829 30.3008 4.26396 30.1238C1.17964 29.9468 -9.36597 6.28266 -1.35903 4.51981C2.80511 3.60299 52.0278 11.8989 52.0278 11.8989L45.6544 26.2642V26.264Z" fill="#C2C2C2"/>
<path opacity="0.26" d="M45.6456 26.2459C45.389 26.3022 7.52625 30.1048 4.42154 29.9059C1.31684 29.7068 -9.01716 6.45418 -1.18047 4.73196C2.95704 3.82268 51.999 11.9778 51.999 11.9778L45.6458 26.2459H45.6456Z" fill="#BCBCBC"/>
<path opacity="0.28" d="M45.6372 26.2279C45.381 26.2835 7.7044 29.909 4.57933 29.6879C1.45425 29.4669 -8.66814 6.62558 -1.00171 4.94399C3.10938 4.04245 51.9702 12.0569 51.9702 12.0569L45.6372 26.2279Z" fill="#B7B7B7"/>
<path opacity="0.3" d="M45.6285 26.2102C45.3725 26.2652 7.88256 29.7133 4.73711 29.4703C1.59167 29.2273 -8.31913 6.79766 -0.822945 5.1567C3.26131 4.2625 51.9414 12.1361 51.9414 12.1361L45.6285 26.2102Z" fill="#B1B1B1"/>
<path opacity="0.33" d="M45.6209 26.1922C45.3653 26.2464 8.0617 29.5175 4.89588 29.2523C1.73006 28.9872 -7.96913 6.96925 -0.6432 5.36872C3.41463 4.48227 51.9136 12.2152 51.9136 12.2152L45.6209 26.1922Z" fill="#ACACAC"/>
<path opacity="0.35" d="M45.6122 26.1742C45.3568 26.2276 8.23965 29.3214 5.05346 29.0343C1.86726 28.7472 -7.62032 7.14098 -0.464645 5.58089C3.56656 4.70198 51.8848 12.2943 51.8848 12.2943L45.6122 26.1742Z" fill="#A6A6A6"/>
<path opacity="0.37" d="M45.6038 26.1562C45.3488 26.2088 8.41801 29.1255 5.21144 28.8165C2.00487 28.5075 -7.2711 7.31297 -0.285679 5.79312C3.7189 4.92195 51.856 12.3732 51.856 12.3732L45.6038 26.1562Z" fill="#A1A1A1"/>
<path opacity="0.39" d="M45.595 26.1382C45.3402 26.1901 8.59577 28.9297 5.36903 28.5985C2.14209 28.2675 -6.92228 7.48482 -0.107113 6.0052C3.87084 5.14158 51.8271 12.4522 51.8271 12.4522L45.5952 26.138L45.595 26.1382Z" fill="#9B9B9B"/>
<path opacity="0.41" d="M45.5873 26.1202C45.3329 26.1714 8.7749 28.7337 5.52778 28.3806C2.28067 28.0275 -6.57209 7.65693 0.0726242 6.21756C4.02415 5.36148 51.7993 12.5315 51.7993 12.5315L45.5875 26.1204L45.5873 26.1202Z" fill="#969696"/>
<path opacity="0.43" d="M45.5789 26.1023C45.3247 26.1528 8.95326 28.538 5.68557 28.1629C2.41808 27.7878 -6.22307 7.82924 0.251389 6.42991C4.17629 5.58157 51.7705 12.6105 51.7705 12.6105L45.5789 26.1023Z" fill="#909090"/>
<path opacity="0.46" d="M45.5702 26.0844C45.3163 26.1341 9.13122 28.3421 5.84336 27.9449C2.55549 27.5478 -5.87385 8.00131 0.430153 6.64203C4.32842 5.80143 51.7417 12.6895 51.7417 12.6895L45.5702 26.0842V26.0844Z" fill="#8B8B8B"/>
<path opacity="0.48" d="M45.5616 26.0663C45.308 26.1152 9.30938 28.1462 6.00114 27.727C2.69291 27.3079 -5.52484 8.17357 0.608917 6.85414C4.48076 6.02128 51.7129 12.7685 51.7129 12.7685L45.5616 26.0663Z" fill="#858585"/>
<path opacity="0.5" d="M45.5532 26.0485C45.2998 26.0966 9.48773 27.9504 6.15892 27.5093C2.8303 27.0682 -5.17562 8.3461 0.787472 7.06653C4.63269 6.24141 51.6841 12.8478 51.6841 12.8478L45.5532 26.0485Z" fill="#7F7F7F"/>
<path opacity="0.52" d="M45.5455 26.0304C45.2925 26.0778 9.66667 27.7546 6.31768 27.2915C2.9687 26.8283 -4.82543 8.51866 0.967213 7.27895C4.78601 6.46156 51.6562 12.9271 51.6562 12.9271L45.5455 26.0306V26.0304Z" fill="#7A7A7A"/>
<path opacity="0.54" d="M45.5369 26.0124C45.2841 26.0592 9.84483 27.5586 6.47547 27.0734C3.10611 26.5882 -4.4762 8.691 1.14598 7.49094C4.93815 6.68149 51.6274 13.0058 51.6274 13.0058L45.5369 26.0124Z" fill="#747474"/>
<path opacity="0.57" d="M45.5289 25.9944C45.2766 26.0405 10.0237 27.3626 6.63374 26.8556C3.244 26.3485 -4.12651 8.86378 1.32523 7.70319C5.09097 6.90167 51.5991 13.085 51.5991 13.085L45.5287 25.9944H45.5289Z" fill="#6F6F6F"/>
<path opacity="0.59" d="M45.5196 25.9767C45.2674 26.022 10.2009 27.1671 6.79084 26.6378C3.38073 26.1086 -3.77777 9.03659 1.50331 7.91547C5.24242 7.12169 51.5698 13.1642 51.5698 13.1642L45.5196 25.9765V25.9767Z" fill="#696969"/>
<path opacity="0.61" d="M45.5124 25.9586C45.2605 26.0031 10.3806 26.971 6.95008 26.4199C3.5196 25.8687 -3.42709 9.2093 1.68353 8.12764C5.39621 7.34198 51.5425 13.2432 51.5425 13.2432L45.5124 25.9586Z" fill="#646464"/>
<path opacity="0.63" d="M45.5038 25.9406C45.2522 25.9846 10.5585 26.7753 7.10787 26.202C3.65701 25.6288 -3.07787 9.38225 1.8623 8.33987C5.54856 7.56214 51.5137 13.3223 51.5137 13.3223L45.504 25.9406H45.5038Z" fill="#5E5E5E"/>
<path opacity="0.65" d="M45.4953 25.9226C45.244 25.9658 10.7369 26.5793 7.26565 25.984C3.79443 25.3887 -2.72845 9.5552 2.04106 8.55209C5.7007 7.78249 51.4849 13.4013 51.4849 13.4013L45.4953 25.9226Z" fill="#595959"/>
<path opacity="0.67" d="M45.4867 25.9047C45.2358 25.947 10.915 26.3833 7.42344 25.7662C3.93184 25.1488 -2.37923 9.72818 2.21982 8.76434C5.85303 8.00286 51.4561 13.4804 51.4561 13.4804L45.4867 25.9047Z" fill="#535353"/>
<path opacity="0.7" d="M45.4788 25.8867C45.2281 25.9283 11.0938 26.1875 7.58199 25.5483C4.07002 24.9091 -2.02904 9.90151 2.39936 8.97656C6.00614 8.22321 51.4282 13.5595 51.4282 13.5595L45.479 25.8867H45.4788Z" fill="#4E4E4E"/>
<path opacity="0.72" d="M45.4704 25.8687C45.2201 25.9095 11.2721 25.9915 7.73978 25.3303C4.20743 24.669 -1.67962 10.0747 2.57812 9.18861C6.15848 8.44358 51.3994 13.6385 51.3994 13.6385L45.4704 25.8687Z" fill="#484848"/>
<path opacity="0.74" d="M45.4618 25.8508C45.2116 25.8908 11.4503 25.7958 7.89756 25.1125C4.34484 24.4292 -1.3302 10.2483 2.75689 9.40093C6.31082 8.66421 51.3706 13.7175 51.3706 13.7175L45.4618 25.8506V25.8508Z" fill="#434343"/>
<path opacity="0.76" d="M45.4541 25.8329C45.2044 25.8724 11.6292 25.6 8.05632 24.8948C4.48343 24.1895 -0.979809 10.422 2.93662 9.61348C6.46413 8.88528 51.3428 13.797 51.3428 13.797L45.4543 25.8329H45.4541Z" fill="#3D3D3D"/>
<path opacity="0.78" d="M45.4457 25.815C45.1961 25.8537 11.8076 25.4042 8.21411 24.6768C4.62084 23.9496 -0.630379 10.5954 3.11539 9.82556C6.61668 9.10587 51.314 13.8759 51.314 13.8759L45.4457 25.815Z" fill="#373737"/>
<path opacity="0.8" d="M45.4368 25.7969C45.1877 25.8348 11.9853 25.2082 8.37169 24.4589C4.75804 23.7096 -0.280968 10.7692 3.29395 10.0377C6.7688 9.32673 51.2852 13.955 51.2852 13.955L45.437 25.7969H45.4368Z" fill="#323232"/>
<path opacity="0.83" d="M45.4284 25.779C45.1795 25.8161 12.1637 25.0123 8.52967 24.2411C4.89566 23.4698 0.0686607 10.9432 3.47271 10.25C6.92135 9.54791 51.2563 14.0341 51.2563 14.0341L45.4284 25.779Z" fill="#2C2C2C"/>
<path opacity="0.85" d="M45.4198 25.7608C45.171 25.7972 12.3418 24.8163 8.68745 24.0229C5.03305 23.2295 0.418266 11.1167 3.65146 10.4619C7.07367 9.76869 51.2275 14.1127 51.2275 14.1127L45.4198 25.7606V25.7608Z" fill="#272727"/>
<path opacity="0.87" d="M45.4123 25.7432C45.164 25.779 12.521 24.6207 8.84622 23.8055C5.17146 22.99 0.768883 11.2912 3.83122 10.6745C7.2272 9.99058 51.1997 14.1922 51.1997 14.1922L45.4121 25.743L45.4123 25.7432Z" fill="#212121"/>
<path opacity="0.89" d="M45.4037 25.7252C45.1556 25.7602 12.6991 24.4249 9.004 23.5876C5.30886 22.7503 1.1183 11.4655 4.00998 10.8869C7.37994 10.2124 51.1709 14.2715 51.1709 14.2715L45.4037 25.7254V25.7252Z" fill="#1C1C1C"/>
<path opacity="0.91" d="M45.395 25.7071C45.1473 25.7414 12.8773 24.2289 9.16159 23.3695C5.44608 22.5101 1.46772 11.6396 4.18855 11.0989C7.53228 10.4341 51.1421 14.3504 51.1421 14.3504L45.395 25.7071Z" fill="#161616"/>
<path opacity="0.93" d="M45.3864 25.6892C45.1389 25.7226 13.0552 24.0329 9.31936 23.1517C5.58347 22.2703 1.81733 11.8143 4.36729 11.3111C7.68501 10.6564 51.1133 14.4296 51.1133 14.4296L45.3864 25.6892Z" fill="#111111"/>
<path opacity="0.96" d="M45.3792 25.6713C45.1321 25.7042 13.2349 23.8372 9.47862 22.9339C5.72236 22.0305 2.16943 11.9935 4.54753 11.5234C7.84064 10.8856 51.0859 14.5086 51.0859 14.5086L45.3792 25.6713Z" fill="#0B0B0B"/>
<path opacity="0.98" d="M45.3706 25.6531C45.1237 25.6852 13.4128 23.6411 9.63641 22.7157C5.85977 21.7902 2.51866 12.1657 4.7263 11.7353C7.99298 11.1056 51.0571 14.5873 51.0571 14.5873L45.3706 25.6529V25.6531Z" fill="#060606"/>
<path d="M45.3622 25.6352C45.1157 25.6665 13.5912 23.4454 9.79418 22.498C5.99717 21.5506 2.86786 12.3384 4.90505 11.9478C8.14531 11.3262 51.0283 14.6667 51.0283 14.6667L45.362 25.6352H45.3622Z" fill="black"/>
</g>
<path d="M3.26487 22.3847L0.902702 5.79823L51.4336 10.8356L45.6589 26.3797L3.26487 22.3847Z" fill="#DD1E42"/>
<path d="M41.854 3.56148L38.2716 1.13273L40.1347 0L41.854 3.56148Z" fill="#DD1E42"/>
<path d="M52.323 25.5007L55.4766 29.3779L53.512 30.6168L52.323 25.5007Z" fill="#DD1E42"/>
<path d="M41.4917 4.20688L39.5983 3.40323L38.8976 4.31077L41.4917 4.20688Z" fill="#DD1E42"/>
<path d="M51.2168 26.0493L50.9529 30.3788L48.9045 29.4328L51.2168 26.0493Z" fill="#DD1E42"/>
<path d="M53.4754 25.5242L55.0034 26.9531L56.0205 26.318L53.4754 25.5242Z" fill="#DD1E42"/>
<path fill-rule="evenodd" clip-rule="evenodd" d="M50.4839 10.5765C53.0351 10.5846 55.6625 8.61165 54.2266 7.06664C52.3946 5.09544 48.461 9.94017 48.461 9.94017L48.0935 9.86317C48.3836 7.51955 48.8231 4.32971 46.5404 3.60944C42.908 2.46336 42.205 7.5296 46.7742 9.57201C48.7271 10.6136 50.4841 10.5765 50.4841 10.5765H50.4839Z" fill="white" stroke="#DD1E42" stroke-width="1.10429" stroke-linecap="round" stroke-linejoin="round"/>
<path fill-rule="evenodd" clip-rule="evenodd" d="M50.9873 23.7135C51.237 23.7135 51.4672 23.5564 51.54 23.3146L54.6217 13.0989C54.7101 12.806 54.5342 12.4998 54.2287 12.415L41.5332 8.89224C41.4807 8.87773 41.4269 8.87057 41.3732 8.87057C41.2768 8.87057 41.1812 8.89379 41.0953 8.93926C40.9615 9.00987 40.8625 9.12866 40.8201 9.2693L37.7384 19.4852C37.65 19.7781 37.8259 20.0843 38.1314 20.1691L50.8269 23.6917C50.8804 23.7066 50.9342 23.7135 50.9871 23.7135H50.9873Z" fill="white"/>
<path d="M41.3728 9.42273L38.2911 19.6386L50.9866 23.1612L54.0685 12.9455L41.373 9.42273M41.373 8.31844C41.4803 8.31844 41.588 8.33275 41.6929 8.36197L54.3885 11.8848C54.9993 12.0542 55.3513 12.6665 55.1746 13.2524L52.0929 23.4682C51.947 23.9515 51.4869 24.2659 50.9874 24.2659C50.8815 24.2659 50.7738 24.2518 50.6669 24.2222L37.9713 20.6996C37.3605 20.5301 37.0085 19.9178 37.1852 19.332L40.2669 9.11609C40.3519 8.83479 40.5498 8.59722 40.8172 8.45599C40.9891 8.36525 41.1803 8.31882 41.3732 8.31882L41.373 8.31844Z" fill="#DD1E42"/>
<path fill-rule="evenodd" clip-rule="evenodd" d="M54.7154 15.9461C54.8066 15.9461 54.897 15.9243 54.9782 15.8813C55.1047 15.8144 55.1983 15.7022 55.2385 15.5691L56.0385 12.9171C56.122 12.64 55.9556 12.3504 55.6667 12.2703L40.3984 8.03383C40.3488 8.02009 40.2979 8.01332 40.2471 8.01332C40.1559 8.01332 40.0656 8.03518 39.9843 8.07813C39.8578 8.14507 39.7642 8.25728 39.724 8.39038L38.924 11.0424C38.8405 11.3194 39.0069 11.609 39.2958 11.6891L54.5641 15.9254C54.6137 15.9392 54.6646 15.9459 54.7154 15.9459V15.9461Z" fill="white"/>
<path d="M40.2465 8.53562L39.4465 11.1876L54.7148 15.4241L55.5149 12.7721L40.2465 8.53562ZM40.2465 7.4913C40.348 7.4913 40.4499 7.50485 40.5491 7.53251L55.8174 11.769C56.3952 11.9294 56.728 12.5084 56.5608 13.0625L55.7608 15.7145C55.6805 15.9805 55.4933 16.2051 55.2403 16.3388C55.0779 16.4247 54.8968 16.4686 54.7146 16.4686C54.6132 16.4686 54.5113 16.4551 54.412 16.4274L39.1437 12.1909C38.566 12.0306 38.2332 11.4515 38.4004 10.8974L39.2004 8.24543C39.2807 7.97941 39.4679 7.7548 39.7209 7.62112C39.8832 7.53522 40.0644 7.4913 40.2465 7.4913Z" fill="#DD1E42"/>
<path d="M46.2707 9.68162L49.7812 10.656L46.3926 21.8862L42.882 20.9119L46.2707 9.68162Z" fill="#DD1E42"/>
<path d="M11.4225 17.4775C11.3882 17.8019 11.3168 18.0211 11.2083 18.135C11.1093 18.2499 10.9644 18.2973 10.7736 18.2772L10.1726 18.2137C9.84824 18.1794 9.55125 18.1143 9.28165 18.0182C9.02259 17.9137 8.80146 17.7697 8.61825 17.5864C8.4456 17.3945 8.31664 17.1542 8.2314 16.8654C8.15569 16.5777 8.13951 16.2287 8.18286 15.8185L9.03418 7.76184L10.8945 7.95842L10.0704 15.7575C10.0351 16.0914 10.0697 16.3121 10.1741 16.4196C10.289 16.5185 10.4562 16.5796 10.6756 16.6028L10.9475 16.6315C11.0238 16.6396 11.0944 16.6567 11.1592 16.6828C11.2249 16.6994 11.2786 16.7388 11.3203 16.8011C11.3725 16.8549 11.4074 16.9357 11.4249 17.0437C11.4424 17.1517 11.4416 17.2963 11.4225 17.4775Z" fill="white"/>
<path d="M13.1376 10.2646C13.1668 9.98798 13.2922 9.76006 13.5137 9.58089C13.7352 9.40171 13.9843 9.32674 14.261 9.35598C14.5376 9.38521 14.7656 9.51059 14.9447 9.7321C15.1239 9.95361 15.1989 10.2027 15.1696 10.4794C15.1404 10.756 15.015 10.9839 14.7935 11.1631C14.572 11.3423 14.3229 11.4173 14.0463 11.388C13.7696 11.3588 13.5417 11.2334 13.3625 11.0119C13.1833 10.7904 13.1084 10.5413 13.1376 10.2646ZM12.5626 16.8022L12.9905 12.7524L14.8651 12.9505L14.2633 18.6459L10.743 18.2739C10.6667 18.2659 10.5956 18.2535 10.5299 18.237C10.4651 18.2108 10.4114 18.1714 10.3687 18.1186C10.3175 18.0553 10.2832 17.9697 10.2656 17.8618C10.2481 17.7538 10.2489 17.6092 10.2681 17.4279C10.3023 17.1035 10.3737 16.8844 10.4822 16.7705C10.5812 16.6555 10.7261 16.6081 10.9169 16.6283L12.5626 16.8022Z" fill="white"/>
<path d="M19.444 18.3252C19.4097 18.6495 19.3383 18.8687 19.2298 18.9826C19.1308 19.0976 18.9859 19.145 18.7951 19.1248L18.1941 19.0613C17.8698 19.027 17.5728 18.9619 17.3032 18.8658C17.0441 18.7613 16.823 18.6174 16.6398 18.434C16.4671 18.2421 16.3382 18.0018 16.2529 17.713C16.1772 17.4253 16.161 17.0763 16.2044 16.6661L17.0557 8.60945L18.916 8.80603L18.0919 16.6051C18.0566 16.939 18.0912 17.1597 18.1956 17.2672C18.3105 17.3661 18.4777 17.4272 18.6971 17.4504L18.969 17.4791C19.0454 17.4872 19.1159 17.5043 19.1807 17.5304C19.2464 17.547 19.3001 17.5865 19.3418 17.6487C19.394 17.7025 19.4289 17.7834 19.4464 17.8913C19.4639 17.9993 19.4631 18.1439 19.444 18.3252Z" fill="white"/>
<path d="M24.0757 18.0187C24.0875 17.6341 24.0622 17.2793 24.0001 16.9544C23.939 16.62 23.8251 16.3282 23.6585 16.0791C23.4919 15.83 23.2577 15.6268 22.956 15.4695C22.6648 15.3036 22.2903 15.1965 21.8324 15.1482C21.756 15.1401 21.6554 15.1343 21.5303 15.1307C21.4053 15.1271 21.265 15.1316 21.1093 15.1441C20.9546 15.1471 20.7894 15.1585 20.6137 15.1786C20.4389 15.189 20.2632 15.209 20.0864 15.2386L20.2618 13.5786C20.4893 13.5255 20.7984 13.4761 21.1891 13.4306C21.5797 13.3851 21.9707 13.383 22.3618 13.4243C23.0773 13.4999 23.6705 13.6832 24.1414 13.9741C24.6228 14.2565 24.9998 14.6147 25.2723 15.0486C25.5447 15.4826 25.7243 15.9742 25.811 16.5236C25.9082 17.0644 25.9356 17.6268 25.8931 18.2108L26.8233 18.3091C26.8996 18.3171 26.9702 18.3342 27.0349 18.3604C27.1007 18.377 27.1544 18.4164 27.1961 18.4787C27.2483 18.5324 27.2831 18.6133 27.3007 18.7213C27.3182 18.8292 27.3174 18.9738 27.2982 19.1551C27.264 19.4795 27.1926 19.6986 27.0841 19.8126C26.9851 19.9275 26.8402 19.9749 26.6494 19.9547L18.7788 19.1231C18.7025 19.115 18.6315 19.1027 18.5657 19.0861C18.5009 19.0599 18.4472 19.0205 18.4045 18.9678C18.3534 18.9045 18.319 18.8188 18.3015 18.7109C18.2839 18.6029 18.2847 18.4583 18.3039 18.277C18.3382 17.9527 18.4096 17.7335 18.5181 17.6196C18.617 17.5046 18.7619 17.4572 18.9527 17.4774L24.0757 18.0187ZM20.7745 21.736C20.8037 21.4593 20.9291 21.2314 21.1506 21.0522C21.3721 20.873 21.6212 20.7981 21.8979 20.8273C22.1745 20.8565 22.4025 20.9819 22.5816 21.2034C22.7608 21.4249 22.8358 21.674 22.8065 21.9507C22.7773 22.2273 22.6519 22.4553 22.4304 22.6344C22.2089 22.8136 21.9598 22.8886 21.6832 22.8593C21.4065 22.8301 21.1786 22.7047 20.9994 22.4832C20.8202 22.2617 20.7453 22.0126 20.7745 21.736Z" fill="white"/>
<path d="M32.3943 17.8704C32.4095 17.7273 32.4055 17.5822 32.3825 17.435C32.369 17.2889 32.3296 17.1593 32.2644 17.0463C32.2097 16.9248 32.1239 16.8241 32.0069 16.7442C31.9005 16.6558 31.7614 16.6025 31.5897 16.5843C31.3416 16.5581 31.07 16.6645 30.7746 16.9034C30.4793 17.1423 30.2195 17.5923 29.9953 18.2535C30.2186 18.4219 30.4302 18.5648 30.63 18.6824C30.8404 18.7914 31.0696 18.859 31.3176 18.8853C31.6229 18.9175 31.8672 18.842 32.0506 18.6588C32.2445 18.4671 32.3591 18.2043 32.3943 17.8704ZM27.5646 18.3874C27.6791 18.3995 27.8275 18.3187 28.0099 18.145C28.2018 17.9724 28.3836 17.7119 28.5555 17.3634C28.8228 16.8418 29.0944 16.4171 29.3702 16.0894C29.6566 15.753 29.9444 15.4941 30.2337 15.3124C30.524 15.1212 30.8073 14.9968 31.0834 14.9392C31.3596 14.8815 31.6265 14.8663 31.8841 14.8935C32.2562 14.9329 32.5968 15.0412 32.9061 15.2186C33.2153 15.3959 33.4708 15.6255 33.6726 15.9073C33.8838 16.1901 34.0371 16.5198 34.1324 16.8964C34.2276 17.2731 34.2526 17.676 34.2072 18.1053C34.1165 18.964 33.8345 19.6239 33.3613 20.0852C32.8891 20.5369 32.2237 20.7174 31.3651 20.6267C30.9835 20.5863 30.6032 20.4883 30.2241 20.3325C29.8451 20.1767 29.4603 19.9382 29.0698 19.6172C28.7925 19.8677 28.5221 20.0079 28.2584 20.0379C27.9948 20.068 27.7103 20.0668 27.405 20.0346L26.6466 19.9544C26.5703 19.9464 26.4992 19.934 26.4335 19.9174C26.3687 19.8913 26.315 19.8519 26.2723 19.7991C26.2211 19.7358 26.1868 19.6502 26.1692 19.5422C26.1517 19.4343 26.1525 19.2897 26.1717 19.1084C26.206 18.784 26.2773 18.5649 26.3859 18.451C26.4848 18.336 26.6297 18.2886 26.8205 18.3088L27.5646 18.3874Z" fill="white"/>
</g>
</g>
<defs>
<linearGradient id="paint0_linear_2483_138227" x1="32.8497" y1="28.9221" x2="41.3448" y2="24.8098" gradientUnits="userSpaceOnUse">
<stop stop-color="#FF004B"/>
<stop offset="1" stop-color="#640023"/>
</linearGradient>
</defs>
</svg>
