<svg width="118" height="54" viewBox="0 0 118 54" fill="none" xmlns="http://www.w3.org/2000/svg">
<g clip-path="url(#clip0_2207_31065)">
<path d="M26.4256 54.0031C36.2113 54.0031 44.1442 52.459 44.1442 50.5543C44.1442 48.6496 36.2113 47.1056 26.4256 47.1056C16.6398 47.1056 8.70691 48.6496 8.70691 50.5543C8.70691 52.459 16.6398 54.0031 26.4256 54.0031Z" fill="#1D1D1B"/>
<path d="M22.137 53.0891C29.5542 53.0891 35.567 51.5451 35.567 49.6404C35.567 47.7357 29.5542 46.1916 22.137 46.1916C14.7197 46.1916 8.70691 47.7357 8.70691 49.6404C8.70691 51.5451 14.7197 53.0891 22.137 53.0891Z" fill="white" stroke="#010101" stroke-width="0.640281" stroke-linecap="round" stroke-linejoin="round"/>
<path d="M35.6149 49.5674L40.5755 18.8808C40.5755 18.8808 36.3249 14.7785 22.0613 14.7785C7.79757 14.7785 3.547 18.7285 3.547 18.7285L8.67558 49.5674" fill="white"/>
<path d="M35.6149 49.5674L40.5755 18.8808C40.5755 18.8808 36.3249 14.7785 22.0613 14.7785C7.79757 14.7785 3.547 18.7285 3.547 18.7285L8.67558 49.5674" stroke="#010101" stroke-width="0.640281" stroke-linecap="round" stroke-linejoin="round"/>
<path d="M34.4513 30.1126L34.0583 31.8639C34.0393 31.9464 33.9632 32.0067 33.8776 32.0067H33.3166C33.2088 32.0067 33.1264 31.9179 33.1327 31.8132C33.1327 31.791 33.1327 31.7814 33.1327 31.7814C33.1613 31.2103 32.7967 30.782 31.9695 30.782C30.597 30.782 29.5985 31.8957 29.4654 33.3583C29.3323 34.8685 30.3973 35.7473 31.8775 35.7473C32.6351 35.7473 33.2373 35.6014 33.5733 35.4967C33.7065 35.4554 33.8364 35.5697 33.8111 35.7061L33.6367 36.6103C33.6209 36.6896 33.5638 36.7499 33.4909 36.7753C33.1866 36.8705 32.3371 37.0957 31.0344 37.0957C27.9408 37.0957 26.6856 35.3381 26.8789 33.5455C27.0501 31.9496 28.1183 29.5954 32.334 29.5954C33.1422 29.5954 33.7857 29.7223 34.296 29.8619C34.407 29.8905 34.4735 30.0047 34.4482 30.1158M16.8563 29.8683L16.7549 30.3252C16.7327 30.4267 16.7929 30.5282 16.8943 30.5599C17.0718 30.6297 17.113 30.7979 16.9577 30.9248L14.3681 33.0505L14.8118 31.0485C14.8879 30.7408 15.1351 30.6139 15.2905 30.5631C15.3 30.5631 15.3063 30.5568 15.3158 30.5536C15.3856 30.5314 15.4363 30.4774 15.4521 30.4076L15.5599 29.9317C15.5852 29.8175 15.4997 29.7128 15.3824 29.7128H12.0447C11.9496 29.7128 11.8672 29.7763 11.8482 29.8683L11.7404 30.3505C11.7182 30.4489 11.7753 30.5472 11.8703 30.579C11.8894 30.5853 11.902 30.5885 11.9052 30.5885C12.1144 30.671 12.3585 30.8518 12.2539 31.3309L11.4583 34.9319C11.2491 35.9155 10.9131 36.1154 10.5898 36.1534C10.5866 36.1534 10.5834 36.1534 10.5771 36.1534C10.4915 36.163 10.4218 36.2264 10.4028 36.3089L10.2982 36.769C10.2728 36.8863 10.3647 37.0006 10.4884 37.0006H13.9972C14.0828 37.0006 14.1589 36.9403 14.1747 36.8578L14.2952 36.3184C14.3142 36.2296 14.2666 36.1408 14.1811 36.109C14.1747 36.109 14.1652 36.1027 14.1589 36.0995C13.9814 36.0297 13.7373 35.8774 13.8007 35.5919L14.2064 33.7517C15.6043 36.2772 16.067 37.0037 17.7438 37.0037H19.2589C19.3445 37.0037 19.4174 36.9435 19.4364 36.861L19.5442 36.3946C19.5727 36.274 19.4808 36.1598 19.3572 36.1566C18.9768 36.1503 18.793 36.0646 18.4158 35.5855L16.4728 32.9839L18.999 30.9089C19.3382 30.6456 19.7502 30.5726 19.9785 30.5441C19.9785 30.5441 19.988 30.5441 20.0038 30.5441C20.0831 30.5346 20.1496 30.4806 20.1686 30.4013L20.2732 29.9381C20.2986 29.8239 20.2098 29.716 20.0926 29.716H17.0528C16.9577 29.716 16.8785 29.7794 16.8563 29.8715M26.2038 31.8703H26.7965C26.8821 31.8703 26.9582 31.81 26.974 31.7275L27.3766 29.9381C27.4019 29.8239 27.3163 29.716 27.1959 29.716H20.9801C20.885 29.716 20.8057 29.7794 20.7836 29.8715L20.6758 30.3505C20.6536 30.4457 20.7075 30.5377 20.7994 30.5695C20.8058 30.5695 20.8121 30.5758 20.8216 30.5758C21.0245 30.6519 21.3097 30.8487 21.1861 31.3309L19.9689 36.7848C19.9436 36.899 20.0323 37.0069 20.1465 37.0069H22.9421C23.0277 37.0069 23.1038 36.9466 23.1196 36.8641L23.2433 36.3184C23.2623 36.2391 23.2179 36.1566 23.145 36.1217C23.1355 36.1185 23.126 36.1122 23.1165 36.109C22.939 36.0234 22.6759 35.8267 22.7646 35.4428C22.7741 35.392 23.0372 34.2086 23.0372 34.2086H25.4145C25.5001 34.2086 25.5762 34.1483 25.5952 34.0658L25.8202 33.0696C25.8456 32.9553 25.7568 32.8475 25.6396 32.8475H23.3447L23.7726 30.9185H25.3765C25.8931 30.9185 26.0516 31.185 26.0231 31.6418C26.0231 31.6418 26.0231 31.6482 26.0231 31.6672C26.0104 31.7751 26.096 31.8703 26.2069 31.8703" fill="#1D1D1B"/>
<mask id="mask0_2207_31065" style="mask-type:alpha" maskUnits="userSpaceOnUse" x="8" y="24" width="28" height="29">
<path d="M35.5672 49.0059C35.5672 50.9106 29.5544 52.4547 22.1372 52.4547C14.72 52.4547 8.70715 50.9106 8.70715 49.0059C8.70715 47.1012 8.23633 24.8452 15.6535 24.8452C19.2448 24.8452 28.334 28.5923 32.3118 34.1911C36.5495 40.1558 35.5672 48.0234 35.5672 49.0059Z" fill="white"/>
<path d="M15.6535 24.8452C8.23633 24.8452 8.70715 47.1012 8.70715 49.0059C8.70715 50.9106 14.72 52.4547 22.1372 52.4547C29.5544 52.4547 35.5672 50.9106 35.5672 49.0059C35.5672 48.0234 36.5495 40.1558 32.3118 34.1911M15.6535 24.8452C19.2448 24.8452 28.334 28.5923 32.3118 34.1911M15.6535 24.8452L32.3118 34.1911" stroke="#010101" stroke-width="0.640281" stroke-linecap="round" stroke-linejoin="round"/>
</mask>
<g mask="url(#mask0_2207_31065)">
<path d="M31.83 59.4442L34.2802 40.5285L29.0344 41.4359L27.8552 59.9582C30.0138 59.9297 31.5131 59.6759 31.83 59.4442V59.4442Z" fill="#E11E2F"/>
<path d="M12.7739 59.292L10.0099 40.5666L15.2304 41.3376L16.7899 59.8726C14.6313 59.8853 13.0972 59.5141 12.7739 59.2888V59.292Z" fill="#E11E2F"/>
</g>
<path d="M21.836 24.3506C33.108 24.3506 42.2458 22.004 42.2458 19.1093C42.2458 16.2146 33.108 13.868 21.836 13.868C10.564 13.868 1.42627 16.2146 1.42627 19.1093C1.42627 22.004 10.564 24.3506 21.836 24.3506Z" fill="white" stroke="#010101" stroke-width="0.640281" stroke-linecap="round" stroke-linejoin="round"/>
<path d="M19.4232 47.112C19.4296 47.3531 19.531 47.9876 20.3424 48.5841C20.6816 48.8347 20.8337 48.9458 20.8781 48.9775C20.9003 48.9934 20.7577 48.9934 20.7196 48.9966C20.6562 49.0029 20.4407 48.9839 20.2695 49.0188C20.1142 49.0473 20.1364 49.0854 20.1205 49.1996C20.1079 49.2884 20.1206 49.4312 20.1174 49.5518C20.1142 49.6723 20.1079 49.758 20.1586 49.8151C20.2093 49.8722 20.241 49.8817 20.4534 49.8659C20.6562 49.8532 21.2173 49.85 21.2838 49.8342C21.3694 49.8151 21.3567 49.8468 21.306 49.9547C21.2204 50.1387 20.9478 50.9859 20.5168 51.7886C20.4565 51.9028 20.6277 51.8457 20.7735 51.9155C21.0398 52.0424 21.0303 52.0773 21.1 51.944C21.1729 51.7981 21.5501 50.9002 21.6071 50.621C21.6135 50.5861 21.6293 50.5544 21.6357 50.6083C21.6388 50.6464 21.6515 51.7854 21.623 52.1407C21.623 52.1598 21.6262 52.1788 21.642 52.1915C21.661 52.2105 21.6896 52.2169 21.7117 52.2232C21.8417 52.1788 22.0002 52.1471 22.1365 52.1661C22.1492 52.1661 22.1587 52.1629 22.1713 52.1598C22.1777 52.1534 22.184 52.1471 22.1904 52.1376C22.1999 52.1185 22.2062 52.0963 22.2094 52.0773C22.2094 52.0773 22.2094 52.0741 22.2094 52.0709C22.2157 52.0392 22.2221 52.0106 22.2252 51.9789C22.2252 51.9599 22.2252 51.944 22.2284 51.925C22.2284 51.9028 22.2284 51.8774 22.2284 51.8552C22.2284 51.8266 22.2284 51.7981 22.2284 51.7695C22.2284 51.7378 22.2284 51.7029 22.2284 51.6712C22.2284 51.6331 22.2284 51.5982 22.2284 51.5601C22.2284 51.5189 22.2284 51.5347 22.2284 51.4935C22.2284 51.4491 22.2252 51.4078 22.2221 51.3634C22.2221 51.319 22.2189 51.2714 22.2157 51.227C22.2157 51.1794 22.2094 51.1318 22.2062 51.0842C22.203 51.0366 22.1999 50.989 22.1935 50.9383C22.1904 50.8907 22.184 50.8399 22.1777 50.7923C22.1714 50.7416 22.165 50.694 22.1587 50.6432C22.1523 50.5956 22.146 50.5448 22.1365 50.4973C22.1301 50.4497 22.1206 50.4021 22.1111 50.3513C22.1016 50.3037 22.0953 50.2847 22.0826 50.2371C22.0731 50.1927 22.0636 50.1483 22.0509 50.1007C22.0414 50.0562 22.0287 50.015 22.016 49.9738C22.0065 49.9389 21.997 49.9071 21.9843 49.8722C21.9843 49.8659 21.9717 49.8215 21.9748 49.8151C21.978 49.7993 22.0002 49.8088 22.0224 49.8056C22.0224 49.8056 22.0319 49.8056 22.0382 49.8056C22.1809 49.7866 22.4344 49.7961 22.4915 49.7993C22.5485 49.7993 22.8338 49.8246 22.9131 49.8342C22.9923 49.8405 23.0906 49.8595 23.0842 49.6152C23.0842 49.5518 23.0842 49.5105 23.0842 49.4503C23.0842 49.4407 23.0842 49.4344 23.0842 49.4249C23.0842 49.409 23.0842 49.3932 23.0842 49.3805C23.0842 49.3709 23.0842 49.3646 23.0842 49.3551C23.0842 49.3456 23.0842 49.3392 23.0842 49.3297C23.0842 49.3233 23.0842 49.3138 23.0842 49.3075C23.0842 49.2948 23.0842 49.2821 23.0842 49.2694C23.0842 49.2662 23.0842 49.2631 23.0842 49.2599C23.0842 49.2504 23.0842 49.244 23.0842 49.2345C23.0842 49.2313 23.0842 49.2282 23.0842 49.225C23.0842 49.2186 23.0842 49.2123 23.0842 49.206C23.0842 49.206 23.0842 49.2028 23.0842 49.1996C23.0842 49.1933 23.0842 49.1837 23.0842 49.1774C23.0842 49.1171 23.0779 49.0092 22.9638 48.9807C22.8338 48.949 22.6088 48.9426 22.4027 48.9617C22.3742 48.9617 22.3679 48.9617 22.3774 48.9553C22.4218 48.9204 22.7134 48.7586 23.0494 48.454C23.417 48.1177 23.5945 47.94 23.7055 47.6989C23.7055 47.6989 24.108 46.9089 24.0827 46.2426C24.0763 46.1094 24.1397 46.1284 24.2253 46.1316C24.2507 46.1316 24.387 46.1252 24.4377 46.0903C24.6596 45.9412 24.6944 45.643 24.742 45.4399C24.9163 44.7166 25.322 43.7774 24.9005 43.5744C24.8846 43.5585 24.8529 43.5522 24.8244 43.5458C24.8117 43.5363 24.8085 43.5204 24.8117 43.5014C24.8624 43.1936 25.0336 42.7844 24.9924 42.5528C24.9797 42.4766 24.948 42.4766 24.9353 42.4671C24.9258 42.4607 24.8624 42.3846 24.8276 42.2958C24.7705 41.6581 24.5423 40.8553 23.8608 40.1605C23.8608 40.1605 23.8133 40.1193 23.7879 40.0939C23.7308 40.0431 23.6548 39.9797 23.5724 39.9162C23.3917 39.783 23.249 39.6814 22.9543 39.5355C22.9321 39.526 22.7102 39.4245 22.3837 39.3483C22.352 39.3388 22.3235 39.3324 22.2918 39.3261C22.2443 39.3166 22.1682 39.3007 22.0826 39.2912C21.8797 39.2595 21.6579 39.2468 21.4265 39.2595C21.3979 39.2595 21.3662 39.2626 21.3567 39.2626C21.3441 39.2626 21.3282 39.2626 21.3155 39.2626C21.2997 39.2626 21.2838 39.2626 21.268 39.2626C21.2173 39.2626 21.1539 39.2722 21.0873 39.2817C20.9764 39.2975 20.8591 39.3198 20.7862 39.3388C20.7038 39.3578 20.596 39.3832 20.4597 39.4213C20.4027 39.4371 20.3456 39.4562 20.2917 39.4752C20.2759 39.4816 20.26 39.4847 20.2442 39.4911C20.1839 39.5101 20.1237 39.5323 20.0603 39.5545C20.0159 39.5704 19.8258 39.6529 19.7846 39.6751C19.7655 39.6846 19.737 39.6973 19.7085 39.71C19.5754 39.7544 19.5468 39.8306 19.5437 39.875C19.5437 39.9035 19.5342 39.9289 19.5215 39.9543C19.3313 40.3668 18.8749 40.408 18.6942 40.4207C18.6466 40.4207 18.6054 40.4302 18.6213 40.4778C18.6593 40.5952 18.8749 40.8141 19.0048 40.8554C19.0048 40.8744 18.8939 40.8998 18.8717 40.9061C18.8178 40.9188 18.6023 40.9029 18.5928 40.9061C18.3487 40.9283 18.2758 41.0933 18.2536 41.1726C18.2473 41.198 18.2536 41.2266 18.2663 41.2456C18.3202 41.3281 18.3772 41.3947 18.4216 41.4994C18.4216 41.4994 18.4216 41.4994 18.4216 41.5026C18.4343 41.5311 18.4438 41.5629 18.4533 41.5978C18.4596 41.6454 18.4977 41.693 18.4501 41.785C18.3677 41.9468 18.2282 42.042 18.1902 42.2006C18.1331 42.4417 18.1712 42.5718 18.2758 42.9335C18.3519 43.1968 18.4343 43.4602 18.4818 43.5775C18.4755 43.5775 18.4406 43.5902 18.4279 43.5966C18.279 43.6473 18.2156 43.7743 18.2029 43.9583C18.1744 44.3707 18.5167 44.9735 18.5928 45.5129C18.6213 45.7191 18.7195 46.0396 18.8939 46.1189C19.0365 46.1855 19.176 46.1284 19.1855 46.3315C19.2077 46.7217 19.4169 47.1088 19.4169 47.1088" fill="white"/>
<path d="M24.7771 44.1677C24.701 44.5865 24.5932 44.7927 24.5362 45.0497C24.4791 45.3194 24.3904 45.6557 24.2541 45.697C24.14 45.7319 24.0544 45.6018 23.9815 45.697C23.9371 45.7541 23.9054 45.8302 23.8674 45.881C23.842 45.9127 23.8198 45.9857 23.8198 46.0237C23.8198 46.0999 23.8198 46.3727 23.7533 46.6932C23.655 47.1786 23.4712 47.5308 23.2778 47.756C22.9101 48.1844 22.5646 48.2542 22.5234 48.2764C22.4695 48.3049 22.3903 48.2891 22.3649 48.2764C22.3396 48.2637 22.3174 48.232 22.273 48.1875C22.2255 48.1431 22.2096 48.2097 22.2096 48.2288C22.2096 48.2446 22.235 48.4477 22.1843 48.5365C22.0733 48.7332 21.9751 48.765 21.9148 49.0093C21.8958 49.0918 21.9085 49.2155 21.8102 49.1616C21.5693 49.0251 21.2175 48.6412 21.1414 48.2796C21.1192 48.1685 21.1414 48.0479 21.2048 47.8385C21.2429 47.7148 21.2682 47.5784 21.2682 47.4991C21.2682 47.3595 21.2112 47.2421 21.2682 47.2294C21.3697 47.2072 21.4172 47.4673 21.4647 47.442C21.5472 47.3944 21.4838 47.1183 21.4838 47.1183C21.4838 47.1183 21.4489 47.039 21.3063 47.0073C21.2238 46.9882 21.1985 46.928 21.2841 46.8835C21.3506 46.8518 21.4267 46.8074 21.5155 46.8201C22.1082 46.8994 22.2794 46.782 22.5203 46.7154C22.5678 46.7027 22.5963 46.6964 22.6312 46.7154C22.6692 46.7313 22.7675 46.7852 22.7865 46.836C22.8087 46.8867 22.7865 47.0834 22.8182 47.2326C22.8499 47.3817 22.9545 47.2452 22.9799 47.185C23.0052 47.1247 23.0306 46.9819 23.0369 46.9438C23.0433 46.9058 23.0718 46.7535 23.1257 46.709C23.2334 46.617 23.2715 46.4996 23.2873 46.4521C23.3063 46.4045 23.3317 46.2617 23.3254 46.0523C23.319 45.8429 23.281 45.8207 23.2303 45.7763C23.1796 45.7319 23.1193 45.7414 22.9925 45.624C22.8784 45.5193 22.7833 45.3543 22.7009 45.2464C22.6185 45.1417 22.4822 45.0275 22.3237 44.9926C22.1684 44.9545 22.235 45.1005 22.2413 45.1386C22.2477 45.1671 22.2857 45.294 22.235 45.3353C22.1843 45.3765 21.8705 45.5891 21.5915 45.5193C21.2587 45.4336 21.1414 45.2496 21.1319 45.0688C21.1256 44.9418 21.1858 44.8181 21.2619 44.6722C21.3063 44.5865 21.3221 44.4437 21.3411 44.3073C21.3538 44.1994 21.3823 44.0408 21.4077 43.9837C21.4235 43.9424 21.4647 43.898 21.5535 43.9044C21.6422 43.9075 21.7025 43.952 21.7183 44.0313C21.7785 44.301 21.8736 44.3676 21.9053 44.3898C21.937 44.412 21.9973 44.3676 22.0226 44.3517C22.0448 44.3359 22.1082 44.2756 22.086 44.2407C22.0575 44.1899 22.0416 44.1582 22.0353 44.1296C22.0226 44.0789 22.0892 44.0852 22.1019 44.0947C22.2065 44.1772 22.3047 44.1836 22.4854 44.2121C22.8024 44.2629 22.8467 44.1455 23.0623 44.1836C23.0908 44.1867 23.1447 44.2121 23.1605 44.2438C23.1764 44.2724 23.2017 44.3359 23.2271 44.3454C23.2525 44.3549 23.319 44.3581 23.3507 44.3644C23.3983 44.3708 23.4775 44.3644 23.4648 44.4501C23.43 44.6785 23.17 44.742 23.0464 44.7642C22.9957 44.7737 22.9735 44.7769 22.964 44.7832C22.9387 44.8054 22.9355 44.8784 22.9672 44.9228C22.9894 44.9545 23.0876 44.9577 23.2239 44.9292C23.3666 44.9006 23.4997 44.8308 23.6075 44.6626C23.7216 44.485 23.7818 44.0916 23.7945 44.0186C23.8072 43.9456 23.8357 43.8219 23.8769 43.7965C23.9149 43.7711 24.1019 43.714 24.1273 43.7172C24.159 43.7235 24.1812 43.7362 24.197 43.8092C24.2129 43.8822 24.1875 44.3136 24.1875 44.3771C24.1875 44.4469 24.2224 44.4469 24.2414 44.4374C24.2858 44.4183 24.3999 44.339 24.4252 44.2502C24.4443 44.1836 24.3872 44.0884 24.4157 43.9964C24.4569 43.8536 24.5013 43.8155 24.5298 43.8187C24.7105 43.8346 24.812 43.9266 24.7676 44.1582M22.1621 46.4838C22.0955 46.5092 21.9022 46.5536 21.8071 46.5599C21.712 46.5663 21.4109 46.5885 21.3633 46.5853C21.2999 46.5821 21.2175 46.5536 21.1509 46.4901C21.1383 46.4774 21.1224 46.433 21.1763 46.433C21.2777 46.433 21.4521 46.3759 22.0511 46.4203C22.1145 46.4267 22.1462 46.4267 22.1621 46.4299C22.1779 46.4299 22.2318 46.4552 22.1621 46.4806M20.6882 46.2458C20.3965 46.2458 20.2603 46.1348 20.2412 46.1031C20.2222 46.0713 20.2539 46.046 20.2856 46.0364C20.3553 46.0142 20.4758 45.9508 20.5265 45.9127C20.5772 45.8746 20.7135 45.789 20.7833 45.7445C20.815 45.7223 21.002 45.6398 21.1129 45.716C21.2777 45.8302 21.433 45.9064 21.712 45.8873C21.8927 45.8746 21.8863 45.7287 22.0353 45.6811C22.1684 45.6398 22.1938 45.6049 22.235 45.5796C22.2889 45.57 22.3269 45.5542 22.3871 45.6081C22.46 45.6779 22.4886 45.7319 22.5741 45.827C22.6914 45.9571 22.8214 46.0206 22.8626 46.0269C22.9038 46.0364 22.9323 46.0682 22.9323 46.0809C22.9323 46.0935 22.9165 46.1348 22.7992 46.1697C22.4061 46.2839 21.9782 46.2141 21.7595 46.1284C21.6486 46.084 21.5408 46.0745 21.4172 46.1348C21.2936 46.1951 20.9671 46.2458 20.6945 46.2427M20.5645 47.8639C20.3427 47.8734 19.7785 47.5435 19.5185 46.5441C19.452 46.2871 19.5883 46.0555 19.6897 46.0206C19.7499 45.9984 19.7816 45.992 19.8006 45.9888C19.8197 45.9888 19.9243 45.9888 19.9211 46.0999C19.9211 46.1919 20.0003 46.9692 20.2032 47.2484C20.2539 47.3182 20.3015 47.3214 20.3236 47.2579C20.3458 47.2008 20.3807 47.1279 20.3902 47.0993C20.3997 47.0803 20.4726 46.966 20.4948 47.0517C20.5424 47.2325 20.6533 47.6069 20.7008 47.7021C20.7769 47.8607 20.6533 47.8607 20.5677 47.8639M19.3791 44.8847C19.3632 44.8181 19.3918 44.7166 19.5502 44.8181C19.5756 44.834 19.6517 44.8689 19.7341 44.8911C19.7848 44.9038 19.8165 44.8847 19.8292 44.8467C19.845 44.8118 19.8831 44.7388 19.8133 44.7039C19.7436 44.669 19.5693 44.6404 19.4678 44.3961C19.4488 44.3517 19.4805 44.301 19.5059 44.2883C19.5344 44.2756 19.5693 44.2819 19.601 44.3136C19.6327 44.3422 19.7024 44.4088 19.7658 44.412C19.8228 44.412 19.8323 44.3898 19.845 44.3771C19.8926 44.3232 20.0289 44.1201 20.3141 44.155C20.4314 44.1677 20.5392 44.1931 20.5804 44.1963C20.6089 44.1963 20.6882 44.2026 20.7611 44.1867C20.8466 44.1709 20.9734 44.1423 20.9132 44.2153C20.8625 44.2756 20.8213 44.2978 20.8657 44.3612C20.8657 44.3644 20.8688 44.3676 20.872 44.3708C20.9132 44.4279 20.9132 44.5008 20.872 44.5579L20.8657 44.5643C20.8023 44.6468 20.6723 44.742 20.4029 44.761C20.2793 44.7705 20.2729 44.7642 20.2698 44.834C20.2698 44.8625 20.2698 44.8752 20.2729 44.8943C20.2793 44.9292 20.3046 44.945 20.387 44.9482C20.4473 44.9514 20.5614 44.9387 20.5614 44.9387C20.5899 44.9292 20.6216 44.9482 20.6026 44.9704C20.6026 44.9736 20.5899 44.9894 20.5867 44.9926C20.5265 45.0719 20.5075 45.1449 20.5012 45.1893C20.498 45.2274 20.4758 45.2591 20.4441 45.275C20.4061 45.294 20.2444 45.3321 20.1208 45.4336C19.9972 45.5383 19.7373 45.624 19.6231 45.4971C19.509 45.3702 19.4171 45.0878 19.3664 44.8784M19.2776 43.6252C19.2428 43.6283 19.2143 43.6093 19.173 43.5998C19.1287 43.5903 19.1001 43.603 19.0843 43.5807C19.0684 43.5554 19.0716 43.5332 19.097 43.5236C19.1223 43.5141 19.1413 43.5236 19.1667 43.5173C19.2174 43.5078 19.2808 43.4475 19.3284 43.5141C19.3601 43.5554 19.3347 43.6252 19.2776 43.6315M18.9004 45.1735C18.7863 45.1005 18.7958 45.018 18.7673 44.9228C18.7039 44.7198 18.6405 44.5135 18.5803 44.3041C18.5454 44.1772 18.4884 43.8726 18.6596 43.8726C18.7451 43.8726 18.8117 43.898 18.8402 43.9805C18.9036 44.1614 18.7863 44.1296 18.818 44.3454C18.8402 44.4977 18.8688 44.6055 18.9195 44.8625C18.9417 44.9799 19.0082 45.2433 18.9036 45.1735M18.5296 42.3053C18.5898 42.134 18.6849 41.9912 18.761 41.8865C18.8307 41.7913 18.7958 41.6708 18.761 41.5597C18.7356 41.4582 18.6722 41.3535 18.6596 41.3249C18.6532 41.3059 18.6532 41.29 18.6596 41.2773C18.6627 41.2773 18.6691 41.271 18.6722 41.2678L18.8085 41.2551C19.2016 41.2012 19.5502 41.0616 19.6548 41.0013C19.7056 40.9728 19.7563 40.9506 19.8102 40.9315C19.8767 40.9093 19.9496 40.8839 20.0194 40.8744C20.0701 40.8649 20.1335 40.8586 20.1842 40.8522C20.2634 40.8427 20.387 40.8966 20.3585 40.9125C20.292 40.9537 19.9877 41.0267 19.7182 41.3503C19.5534 41.547 19.5154 41.6708 19.4615 41.7628C19.4044 41.8548 19.3601 41.877 19.2808 41.9436C19.2428 41.9785 19.1635 42.0483 19.1255 42.1562C19.0875 42.2672 18.9385 42.6575 18.9226 43.273C18.9226 43.346 18.91 43.4189 18.8402 43.4475C18.7832 43.4697 18.7483 43.4475 18.7325 43.3872C18.6912 43.2317 18.6088 42.9811 18.5803 42.7812C18.5264 42.5845 18.4916 42.4037 18.5264 42.3085M19.7151 43.8028C19.6422 43.8473 19.5724 43.9012 19.5217 43.9361C19.4551 43.9805 19.3664 43.9361 19.3918 43.8473C19.4044 43.8028 19.4678 43.6886 19.5724 43.6664C19.5851 43.6664 19.639 43.6537 19.6834 43.6474C19.7341 43.641 19.788 43.6379 19.8165 43.6347C19.8926 43.6315 19.8989 43.6918 19.8482 43.7235C19.8133 43.7457 19.7626 43.7711 19.7151 43.7997M19.7753 43.9329C19.7943 43.9171 19.8038 43.9171 19.8672 43.8822C19.9116 43.8568 19.9655 43.825 20.0194 43.7901C20.1144 43.7267 20.2951 43.6601 20.3744 43.6632C20.4314 43.6632 20.5265 43.6886 20.5804 43.7426C20.6343 43.8028 20.6501 43.8695 20.5804 43.8599C20.5107 43.8473 20.4346 43.8282 20.3015 43.8599C20.1493 43.8948 20.0479 43.9551 19.975 43.9869C19.9021 44.0218 19.826 44.0313 19.8006 44.0281C19.7753 44.0281 19.7087 43.99 19.7785 43.9329M20.9417 45.2623C20.9608 45.294 20.9639 45.348 20.9608 45.3702C20.9544 45.3987 20.8593 45.4336 20.7769 45.3131C20.6945 45.1925 20.7325 45.0465 20.7801 44.9894C20.8562 44.8974 20.9703 44.9641 20.9544 44.9958C20.8974 45.1163 20.9227 45.2274 20.9386 45.2591M23.3475 44.1011C23.319 44.1169 23.2049 44.0789 23.1764 44.063C23.113 44.0281 23.0718 44.0059 22.9862 43.9329C22.9323 43.8853 22.8309 43.8663 22.7358 43.8695C22.6629 43.8726 22.59 43.8885 22.5361 43.9044C22.4822 43.9171 22.4759 43.8695 22.4917 43.8504C22.5076 43.8314 22.5836 43.7616 22.7548 43.714C22.7802 43.7077 22.8277 43.7108 22.8499 43.714C22.9196 43.7203 23.0052 43.7679 23.0654 43.825C23.1257 43.8853 23.2493 43.9869 23.3158 44.0281C23.3475 44.0471 23.4173 44.0662 23.3475 44.1042M23.2746 43.7933C23.2746 43.7933 23.17 43.7235 23.1352 43.6664C23.1193 43.6379 23.1225 43.6125 23.1669 43.6125C23.3222 43.6125 23.468 43.6061 23.5377 43.6632C23.5884 43.7045 23.5916 43.7965 23.5663 43.8536C23.5377 43.9202 23.4807 43.9012 23.449 43.898C23.4173 43.8948 23.2778 43.7965 23.2778 43.7965M24.0607 43.5585C24.0385 43.5839 24.0164 43.5681 23.9688 43.5807C23.9308 43.5903 23.9054 43.6125 23.8705 43.6093C23.8167 43.6061 23.7881 43.5395 23.8167 43.4951C23.861 43.4285 23.9276 43.4856 23.9783 43.4951C24.0037 43.4983 24.0227 43.4919 24.0481 43.5014C24.0734 43.5109 24.0766 43.5332 24.0607 43.5585ZM19.5344 40.5571C19.5566 40.5191 19.6168 40.4651 19.6739 40.4239C19.7341 40.3795 20.032 40.1542 20.3078 40.0685C20.3585 40.0527 20.3712 40.0463 20.4061 40.0368C20.4473 40.0241 20.4821 39.9353 20.3966 39.9226C20.3046 39.9099 20.2698 39.9163 20.219 39.9194C20.1715 39.9194 20.1461 39.894 20.181 39.856C20.2159 39.8179 20.2793 39.7767 20.3934 39.7322C20.6406 39.6307 21.078 39.5768 21.2809 39.5577C21.5472 39.5324 21.5789 39.5324 21.7532 39.545C21.9148 39.5577 22.0448 39.5863 22.105 39.5958C22.4125 39.6497 22.7643 39.7893 23.0781 39.9607C23.2429 40.059 23.4046 40.1669 23.5504 40.2811C24.0005 40.6301 24.5203 41.2932 24.4538 42.6956C24.4443 42.8605 24.4252 42.9525 24.4157 42.9938C24.4062 43.035 24.3523 43.1048 24.3238 43.0128C24.2287 42.7146 24.1083 42.1847 23.8325 41.7691C23.7945 41.712 23.7374 41.7184 23.7438 41.7786C23.7438 41.804 23.7596 42.0705 23.7533 42.1245C23.7121 42.4703 23.8167 42.3339 23.972 42.7051C24.0195 42.8193 24.0829 43.0446 24.1019 43.1905C24.1051 43.2286 24.1083 43.2698 24.1114 43.3111C24.0893 43.3428 24.0639 43.3618 24.0639 43.3618C23.9561 43.3618 23.7945 43.3142 23.6962 43.3142C23.5821 43.3142 22.7928 43.3079 22.4949 43.3333C22.1969 43.3587 22.0385 43.4665 21.8705 43.603C21.8293 43.6379 21.7754 43.6664 21.7627 43.6664C21.75 43.6664 21.712 43.6632 21.6391 43.6474C21.5662 43.6315 21.5123 43.6283 21.4394 43.6505C21.3697 43.6728 21.3348 43.6918 21.2587 43.6474C21.1509 43.5839 20.9798 43.3301 20.3966 43.3301C20.0669 43.3301 19.6327 43.3301 19.3791 43.3396C19.2967 43.3428 19.2523 43.346 19.2333 43.346C19.2333 43.3364 19.2333 43.3301 19.2333 43.3269C19.2269 42.8605 19.5312 42.9621 19.5661 42.8415C19.6517 42.5401 19.6675 41.8135 20.1905 41.3662C20.4409 41.1504 20.5709 41.1409 20.8054 41.1409C21.0558 41.1409 21.3031 41.2044 21.4299 41.2647C21.5313 41.3123 21.5789 41.3471 21.6169 41.3154C21.6549 41.2869 21.7595 41.1885 21.8039 41.1568C21.8483 41.1219 21.8293 41.0711 21.7881 41.0394C21.75 41.0077 21.3728 40.5413 20.7991 40.4493C20.6691 40.4271 20.5709 40.408 20.4504 40.408C20.387 40.408 20.33 40.408 20.1778 40.4239C19.9591 40.4524 19.6739 40.5762 19.49 40.6492C19.4805 40.6396 19.5185 40.5762 19.5281 40.5603M19.4171 47.0961C19.4235 47.3372 19.5249 47.9718 20.3363 48.5683C20.6755 48.8189 20.8276 48.93 20.872 48.9617C20.8942 48.9775 20.7516 48.9775 20.7135 48.9807C20.6501 48.9871 20.4346 48.968 20.2634 49.0029C20.1081 49.0315 20.1303 49.0696 20.1144 49.1838C20.1018 49.2726 20.1144 49.4154 20.1113 49.5359C20.1081 49.6565 20.1018 49.7422 20.1525 49.7993C20.2032 49.8564 20.2349 49.8659 20.4473 49.85C20.6501 49.8374 21.2112 49.8342 21.2777 49.8183C21.3633 49.7993 21.3506 49.831 21.2999 49.9389C21.2143 50.1229 20.9417 50.97 20.5107 51.7727C20.4504 51.8869 20.6216 51.8298 20.7674 51.8996C21.0337 52.0265 21.0242 52.0614 21.0939 51.9282C21.1668 51.7822 21.544 50.8844 21.601 50.6052C21.6074 50.5703 21.6232 50.5385 21.6296 50.5925C21.6327 50.6305 21.6454 51.7695 21.6169 52.1249C21.6169 52.1439 21.6201 52.163 21.6359 52.1757C21.6549 52.1947 21.6835 52.201 21.7056 52.2074C21.8356 52.163 21.9941 52.1312 22.1304 52.1503C22.1431 52.1503 22.1526 52.1471 22.1652 52.1439C22.1716 52.1376 22.1779 52.1312 22.1843 52.1217C22.1938 52.1027 22.2001 52.0805 22.2033 52.0614C22.2033 52.0614 22.2033 52.0583 22.2033 52.0551C22.2096 52.0234 22.216 51.9948 22.2191 51.9631C22.2191 51.944 22.2191 51.9282 22.2223 51.9091C22.2223 51.8869 22.2223 51.8616 22.2223 51.8393C22.2223 51.8108 22.2223 51.7822 22.2223 51.7537C22.2223 51.722 22.2223 51.6871 22.2223 51.6553C22.2223 51.6173 22.2223 51.5824 22.2223 51.5443C22.2223 51.503 22.2223 51.5189 22.2223 51.4777C22.2223 51.4332 22.2191 51.392 22.216 51.3476C22.216 51.3032 22.2128 51.2556 22.2096 51.2111C22.2096 51.1636 22.2033 51.116 22.2001 51.0684C22.1969 51.0208 22.1938 50.9732 22.1874 50.9224C22.1843 50.8748 22.1779 50.8241 22.1716 50.7765C22.1652 50.7257 22.1589 50.6781 22.1526 50.6274C22.1462 50.5798 22.1399 50.529 22.1304 50.4814C22.124 50.4338 22.1145 50.3862 22.105 50.3355C22.0955 50.2879 22.0892 50.2688 22.0765 50.2213C22.067 50.1768 22.0575 50.1324 22.0448 50.0848C22.0353 50.0404 22.0226 49.9992 22.0099 49.9579C22.0004 49.923 21.9909 49.8913 21.9782 49.8564C21.9782 49.85 21.9656 49.8056 21.9687 49.7993C21.9719 49.7834 21.9941 49.7929 22.0163 49.7898C22.0163 49.7898 22.0258 49.7898 22.0321 49.7898C22.1748 49.7707 22.4283 49.7802 22.4854 49.7834C22.5424 49.7834 22.8277 49.8088 22.907 49.8183C22.9862 49.8247 23.0845 49.8437 23.0781 49.5994C23.0781 49.5359 23.0781 49.4947 23.0781 49.4344C23.0781 49.4249 23.0781 49.4186 23.0781 49.409C23.0781 49.3932 23.0781 49.3773 23.0781 49.3646C23.0781 49.3551 23.0781 49.3488 23.0781 49.3392C23.0781 49.3297 23.0781 49.3234 23.0781 49.3139C23.0781 49.3075 23.0781 49.298 23.0781 49.2916C23.0781 49.279 23.0781 49.2663 23.0781 49.2536C23.0781 49.2504 23.0781 49.2472 23.0781 49.2441C23.0781 49.2345 23.0781 49.2282 23.0781 49.2187C23.0781 49.2155 23.0781 49.2123 23.0781 49.2092C23.0781 49.2028 23.0781 49.1965 23.0781 49.1901C23.0781 49.1901 23.0781 49.1869 23.0781 49.1838C23.0781 49.1774 23.0781 49.1679 23.0781 49.1616C23.0781 49.1013 23.0718 48.9934 22.9577 48.9649C22.8277 48.9331 22.6027 48.9268 22.3966 48.9458C22.3681 48.9458 22.3618 48.9458 22.3713 48.9395C22.4157 48.9046 22.7073 48.7428 23.0433 48.4382C23.4109 48.1019 23.5884 47.9242 23.6994 47.6831C23.6994 47.6831 24.1019 46.8931 24.0766 46.2268C24.0702 46.0935 24.1336 46.1126 24.2192 46.1158C24.2446 46.1158 24.3809 46.1094 24.4316 46.0745C24.6535 45.9254 24.6883 45.6272 24.7359 45.4241C24.9102 44.7007 25.3159 43.7616 24.8944 43.5585C24.8785 43.5427 24.8468 43.5363 24.8183 43.53C24.8056 43.5205 24.8024 43.5046 24.8056 43.4856C24.8563 43.1778 25.0275 42.7685 24.9863 42.5369C24.9736 42.4608 24.9419 42.4608 24.9292 42.4513C24.9197 42.4449 24.8563 42.3688 24.8215 42.2799C24.7644 41.6422 24.5362 40.8395 23.8547 40.1447C23.8547 40.1447 23.8072 40.1034 23.7818 40.0781C23.7247 40.0273 23.6487 39.9638 23.5663 39.9004C23.3856 39.7671 23.2429 39.6656 22.9482 39.5197C22.926 39.5101 22.7041 39.4086 22.3776 39.3325C22.3459 39.323 22.3174 39.3166 22.2857 39.3103C22.2381 39.3007 22.1621 39.2849 22.0765 39.2754C21.8736 39.2436 21.6518 39.2309 21.4204 39.2436C21.3918 39.2436 21.3601 39.2468 21.3506 39.2468C21.338 39.2468 21.3221 39.2468 21.3094 39.2468C21.2936 39.2468 21.2777 39.2468 21.2619 39.2468C21.2112 39.2468 21.1478 39.2563 21.0812 39.2658C20.9703 39.2817 20.853 39.3039 20.7801 39.323C20.6977 39.342 20.5899 39.3674 20.4536 39.4054C20.3966 39.4213 20.3395 39.4403 20.2856 39.4594C20.2698 39.4657 20.2539 39.4689 20.2381 39.4752C20.1778 39.4943 20.1176 39.5165 20.0542 39.5387C20.0098 39.5546 19.8197 39.637 19.7785 39.6593C19.7594 39.6688 19.7309 39.6815 19.7024 39.6942C19.5693 39.7386 19.5407 39.8147 19.5376 39.8591C19.5376 39.8877 19.5281 39.9131 19.5154 39.9385C19.3252 40.3509 18.8688 40.3922 18.6881 40.4049C18.6405 40.4049 18.5993 40.4144 18.6152 40.462C18.6532 40.5794 18.8688 40.7983 18.9987 40.8395C18.9987 40.8585 18.8878 40.8839 18.8656 40.8903C18.8117 40.903 18.5962 40.8871 18.5866 40.8903C18.3426 40.9125 18.2697 41.0775 18.2475 41.1568C18.2411 41.1822 18.2475 41.2107 18.2602 41.2298C18.3141 41.3123 18.3711 41.3789 18.4155 41.4836C18.4155 41.4836 18.4155 41.4836 18.4155 41.4867C18.4282 41.5153 18.4377 41.547 18.4472 41.5819C18.4535 41.6295 18.4916 41.6771 18.444 41.7691C18.3616 41.9309 18.2221 42.0261 18.1841 42.1847C18.127 42.4259 18.1651 42.556 18.2697 42.9176C18.3458 43.181 18.4282 43.4443 18.4757 43.5617C18.4694 43.5617 18.4345 43.5744 18.4218 43.5807C18.2728 43.6315 18.2095 43.7584 18.1968 43.9424C18.1682 44.3549 18.5106 44.9577 18.5866 45.4971C18.6152 45.7033 18.7134 46.0237 18.8878 46.1031C19.0304 46.1697 19.1699 46.1126 19.1794 46.3156C19.2016 46.7059 19.4108 47.093 19.4108 47.093" fill="#211F1F"/>
<path d="M40.6007 18.8777C41.1237 19.4075 40.7718 19.8295 39.5832 20.4609C36.4705 22.1139 29.7603 23.256 21.985 23.256C14.2097 23.256 7.70228 22.1456 4.5294 20.5338C3.25201 19.8834 2.05386 18.7254 4.48186 17.9671" stroke="#010101" stroke-width="0.640281" stroke-linecap="round" stroke-linejoin="round"/>
<mask id="mask1_2207_31065" style="mask-type:alpha" maskUnits="userSpaceOnUse" x="1" y="-2" width="46" height="26">
<path d="M40.6145 20.0877C22.2288 26.6846 7.47753 23.3709 2.59106 19.4769L1.29297 9.39832L6.48494 -1.06198H23.8933L43.2105 2.37389L46.1883 10.1619L40.6145 20.0877Z" fill="#D9D9D9"/>
</mask>
<g mask="url(#mask1_2207_31065)">
<path d="M11.7742 35.9882C11.0928 36.0929 10.3606 35.8073 9.85023 35.3632C9.62835 35.1696 9.39062 34.9126 9.31138 34.6207C9.13388 33.983 9.33674 33.2565 9.27651 32.6061C9.20678 31.8414 9.02928 31.0863 8.75985 30.3661C8.22734 28.9289 7.34299 27.6249 6.23677 26.5684C5.44434 25.8164 4.8833 24.8266 4.6424 23.7605C4.63606 23.7383 4.63289 23.7129 4.62338 23.6939C4.17963 22.8277 4.55048 22.0409 4.62338 21.0669C4.65825 20.5941 4.69629 20.1087 4.89915 19.6804C5.21295 19.0141 5.87225 18.5922 6.36038 18.0433C6.75977 17.5927 7.05455 17.0439 7.51416 16.6504C8.36364 15.9271 9.57764 15.8033 10.6585 16.0794C11.1054 16.1936 11.5587 16.3681 12.0151 16.606C12.1388 16.6695 12.2592 16.7361 12.3797 16.8091C13.1087 17.2247 13.7838 17.7546 14.1452 18.5033C14.3861 19.0078 14.4653 19.5725 14.5414 20.1214C14.646 20.8765 14.7538 21.6316 14.8552 22.3836C14.9852 23.3259 14.6333 24.3729 14.2244 25.3976C13.9201 26.1654 13.5778 26.9174 13.3908 27.6027C12.8488 29.5698 12.8139 31.5781 13.6317 33.4754" fill="white"/>
<path d="M11.7742 35.9882C11.0928 36.0929 10.3606 35.8073 9.85023 35.3632C9.62835 35.1696 9.39062 34.9126 9.31138 34.6207C9.13388 33.983 9.33674 33.2565 9.27651 32.6061C9.20678 31.8414 9.02928 31.0863 8.75985 30.3661C8.22734 28.9289 7.34299 27.6249 6.23677 26.5684C5.44434 25.8164 4.8833 24.8266 4.6424 23.7605C4.63606 23.7383 4.63289 23.7129 4.62338 23.6939C4.17963 22.8277 4.55048 22.0409 4.62338 21.0669C4.65825 20.5941 4.69629 20.1087 4.89915 19.6804C5.21295 19.0141 5.87225 18.5922 6.36038 18.0433C6.75977 17.5927 7.05455 17.0439 7.51416 16.6504C8.36364 15.9271 9.57764 15.8033 10.6585 16.0794C11.1054 16.1936 11.5587 16.3681 12.0151 16.606C12.1388 16.6695 12.2592 16.7361 12.3797 16.8091C13.1087 17.2247 13.7838 17.7546 14.1452 18.5033C14.3861 19.0078 14.4653 19.5725 14.5414 20.1214C14.646 20.8765 14.7538 21.6316 14.8552 22.3836C14.9852 23.3259 14.6333 24.3729 14.2244 25.3976C13.9201 26.1654 13.5778 26.9174 13.3908 27.6027C12.8488 29.5698 12.8139 31.5781 13.6317 33.4754" stroke="#1D1D1B" stroke-width="0.640281" stroke-linecap="round" stroke-linejoin="round"/>
<path d="M10.3356 19.5216C10.475 19.5819 10.6145 19.639 10.7476 19.7183C11.4196 20.1149 11.7493 21.0064 11.4989 21.7425" stroke="#1D1D1B" stroke-width="0.640281" stroke-linecap="round" stroke-linejoin="round"/>
<path d="M15.8473 10.6506C15.8758 10.8188 15.9106 10.9964 16.0343 11.1138C16.2149 11.282 16.497 11.2471 16.7379 11.2915C17.2419 11.3835 17.5969 11.8309 18.0502 12.0688C18.2721 12.183 18.513 12.2465 18.757 12.2941C19.9203 12.5289 21.2294 12.4368 22.1518 11.6881C22.6811 11.2598 23.0615 10.6379 23.6606 10.3175C24.0029 10.1334 24.396 10.0636 24.7795 9.99385C24.8587 9.80348 24.9063 9.60043 24.919 9.3942C24.9348 9.1499 24.8999 8.90878 24.8682 8.66765C24.7319 7.6619 24.5925 6.65614 24.4562 5.65039C24.4467 5.57424 24.4276 5.48858 24.3611 5.44733C24.323 5.42512 24.2787 5.42513 24.2343 5.42513C23.6352 5.41561 23.0266 5.40926 22.4466 5.56155C22.3071 5.59962 22.1581 5.65356 22.0852 5.78047C22.0377 5.86296 22.0282 5.96449 22.0282 6.05967C22.0187 6.39598 22.0504 6.72911 22.1233 7.0559C21.6193 7.17964 21.1121 7.30338 20.6082 7.43029C20.4528 7.46836 20.269 7.50009 20.1549 7.39221C20.082 7.32241 20.0598 7.21771 20.0376 7.11936C19.9045 6.43405 19.7682 5.75192 19.6351 5.06661C19.5938 4.85721 19.5431 4.62877 19.3815 4.49234C19.2008 4.34005 18.9409 4.34005 18.7063 4.36226C18.2499 4.40668 17.7966 4.50821 17.3624 4.66367C17.2641 4.69857 17.1595 4.74616 17.1183 4.84134C17.0929 4.90163 17.0993 4.96825 17.1088 5.03488C17.169 5.57742 17.2483 6.11995 17.3465 6.65614C16.833 6.74498 16.3164 6.82747 15.8029 6.92582C15.2894 7.02418 15.2735 7.15109 15.3496 7.64603C15.5049 8.65178 15.6729 9.65754 15.8473 10.6601V10.6506Z" fill="#EA0029"/>
<path d="M14.1643 11.6531L17.5369 22.1357L27.0175 20.6922L27.0618 9.63522L23.8858 10.0889C23.8858 10.0889 22.4563 12.589 19.6828 12.5256C18.9474 12.5097 18.0757 12.4209 17.4893 11.9164C17.2516 11.7134 17.1248 11.3263 16.811 11.2248C16.7318 11.1994 16.5416 11.2692 16.4592 11.2819C16.1422 11.3326 15.8284 11.3834 15.5114 11.4342L14.1643 11.6499V11.6531Z" fill="white" stroke="#1D1D1B" stroke-width="0.640281" stroke-linecap="round" stroke-linejoin="round"/>
<path d="M15.7901 11.3741L15.0801 7.01476L17.3528 6.64673L18.2149 12.0086" stroke="#1D1D1B" stroke-width="0.640281" stroke-linecap="round" stroke-linejoin="round"/>
<path d="M17.353 6.6467L17.017 4.78749L19.5559 4.3782L20.8238 12.2719" stroke="#1D1D1B" stroke-width="0.640281" stroke-linecap="round" stroke-linejoin="round"/>
<path d="M20.1042 7.47462L22.117 7.151L22.7795 11.2755" stroke="#1D1D1B" stroke-width="0.640281" stroke-linecap="round" stroke-linejoin="round"/>
<path d="M22.1171 7.15115L21.8857 5.71708L24.4849 5.29828L25.2171 9.86065" stroke="#1D1D1B" stroke-width="0.640281" stroke-linecap="round" stroke-linejoin="round"/>
<path d="M25.322 18.8298L20.5421 19.6" stroke="#1D1D1B" stroke-width="0.640281" stroke-linecap="round" stroke-linejoin="round"/>
<path d="M19.4102 19.9023L18.3547 20.0734" stroke="#1D1D1B" stroke-width="0.640281" stroke-linecap="round" stroke-linejoin="round"/>
<path d="M39.1011 20.0163C39.1772 19.8831 39.2057 19.7086 39.304 19.5912C39.3642 19.5182 39.4561 19.4865 39.5195 19.4135C39.6939 19.22 39.7382 18.89 39.6717 18.6457C39.6241 18.4712 39.5259 18.3157 39.4942 18.1381C39.4593 17.9509 39.5068 17.7573 39.5544 17.5733C39.6019 17.3893 39.6558 17.1989 39.6336 17.0086C39.6114 16.8182 39.5005 16.6247 39.3198 16.5676C39.174 16.5231 39.0155 16.5676 38.8824 16.6437C38.6859 16.7484 38.5147 16.888 38.296 16.9419C38.0773 16.9959 37.8554 16.9991 37.6367 17.0435C37.0757 17.1545 36.502 17.2021 35.9314 17.1831C35.4433 17.1672 34.9551 17.1006 34.4797 16.9864C34.2642 16.9356 34.0201 16.8087 33.8014 16.8023C33.2562 16.7833 32.7395 17.0181 32.1785 16.9388C31.8995 16.9007 31.6333 16.8055 31.3702 16.7103C30.6982 16.4724 30.0548 16.2535 29.3638 16.0948C28.6728 15.9362 27.9533 15.7109 27.2813 15.4349C26.6473 15.1747 26.0102 14.8479 25.5887 14.3054C25.4238 14.0928 25.2939 13.8485 25.2115 13.5916C24.9072 13.7058 24.717 14.0135 24.6124 14.3213C24.5078 14.629 24.4824 14.9876 24.3461 15.2826C24.3461 15.2826 23.7185 15.6633 23.6298 16.6564C23.541 17.6495 24.1338 18.541 24.1338 18.541C24.1338 18.541 23.2431 20.0988 24.7233 21.3616C26.2036 22.6243 28.0547 23.9632 31.0913 24.1884C34.1279 24.4169 35.9092 24.1948 36.9838 23.6396C38.0583 23.0843 38.4608 21.0919 38.4101 20.8666C38.4038 20.8317 38.7398 20.5271 38.781 20.4795C38.9014 20.3336 39.0124 20.1813 39.1075 20.0163H39.1011Z" fill="white" stroke="#1D1D1B" stroke-width="0.640281" stroke-linecap="round" stroke-linejoin="round"/>
<path d="M23.8707 17.4814C23.8834 17.5163 23.8992 17.5512 23.9151 17.5893C23.9277 17.621 23.9341 17.6559 23.9468 17.6876C23.9563 17.7098 23.9594 17.732 23.969 17.7574C23.9848 17.7923 24.0006 17.8209 24.0133 17.8558C24.0323 17.9129 24.0609 17.9668 24.0862 18.0208C24.1211 18.0906 24.1591 18.1572 24.1972 18.2206C24.2257 18.2714 24.2669 18.319 24.2637 18.3761C24.2574 18.4427 24.2511 18.5094 24.2257 18.5728C24.194 18.649 24.175 18.7124 24.2257 18.7886C24.3018 18.8933 24.4286 18.9504 24.5427 19.017C24.6631 19.0868 24.7867 19.1598 24.904 19.2391C25.4555 19.6166 25.931 20.1719 26.5935 20.2702C26.8439 20.3083 27.1006 20.2702 27.351 20.2385C27.4144 20.229 27.481 20.2195 27.5349 20.1846C27.5856 20.1497 27.6205 20.0957 27.649 20.045C27.9089 19.5659 27.9279 18.9662 27.8233 18.4047C27.7758 18.1572 27.706 17.9192 27.6236 17.7003C27.4937 17.3608 27.3035 17.0309 26.996 16.8088C26.4318 16.3995 25.7693 16.3963 25.1164 16.2853C25.0118 16.2662 24.9008 16.2472 24.8089 16.1933C24.6758 16.1171 24.6219 15.9839 24.511 15.8982C24.4381 15.8443 24.3493 15.8316 24.2637 15.8538C24.2194 15.8665 24.1845 15.8887 24.1465 15.9045C24.1084 15.9204 24.0672 15.9109 24.0228 15.9045C23.9214 16.0695 23.8548 16.1742 23.8136 16.3614C23.7978 16.4439 23.7946 16.5232 23.7914 16.6057C23.7914 16.6406 23.7788 16.6755 23.7724 16.7104C23.7471 16.8437 23.7629 16.9738 23.7819 17.107C23.7914 17.1419 23.801 17.18 23.8073 17.2149C23.8168 17.2593 23.8263 17.3037 23.8422 17.3481C23.858 17.3926 23.858 17.4433 23.8739 17.4877L23.8707 17.4814Z" fill="#EA0029"/>
<path d="M34.9075 19.5723C34.302 19.7943 33.6015 19.7531 33.0278 19.458C32.5524 19.2137 32.1657 18.8108 31.668 18.6141C31.0341 18.3634 30.2797 18.4967 29.7218 18.8869C29.1639 19.2804 28.7931 19.9054 28.6346 20.5717C28.6156 20.6542 28.6029 20.7462 28.6505 20.8128C28.6948 20.8731 28.7741 20.8953 28.847 20.9143C29.2876 21.0158 29.7282 21.111 30.1719 21.2094C31.275 21.4505 32.3844 21.6916 33.5128 21.7329C34.6349 21.7741 35.7569 21.6187 36.8632 21.4188C37.4527 21.3109 38.0486 21.1903 38.5748 20.8985C39.3324 20.4797 39.8776 19.6421 39.605 18.76C39.5796 18.6775 39.5321 18.5824 39.4465 18.5697C39.3672 18.557 39.2975 18.6204 39.2404 18.6775C39.1454 18.7791 39.0471 18.8869 38.9235 18.9536C38.7872 19.0265 38.6509 18.998 38.5019 18.9758C38.1881 18.9282 37.8806 18.8425 37.57 18.7822C36.5937 18.5951 35.776 19.255 34.9075 19.5723V19.5723Z" fill="#EA0029"/>
<path d="M27.7504 15.7368C27.5824 15.6638 27.4207 15.5876 27.2559 15.5083C26.6156 15.1942 25.7028 14.7088 25.4016 14.033C25.0815 13.316 25.1132 12.526 25.4936 11.8407C26.0926 10.7588 27.4017 10.378 28.5618 10.0227C29.8899 9.61341 31.3702 9.61658 32.73 9.81646C35.3609 10.2035 39.0979 11.2156 39.38 14.4137C39.4403 15.1117 39.3483 15.962 38.9426 16.5553C38.3404 17.4405 35.9504 17.2597 32.207 16.8726C30.6855 16.714 29.1577 16.3554 27.7504 15.7368V15.7368Z" fill="white" stroke="#1D1D1B" stroke-width="0.640281" stroke-linecap="round" stroke-linejoin="round"/>
<path d="M24.8849 13.909C24.663 14.2136 24.4538 14.5435 24.3714 14.9116C24.289 15.2796 24.346 15.6984 24.6028 15.9776C25.037 16.4535 25.8073 16.3456 26.4032 16.5899C26.8882 16.7898 27.24 17.215 27.5665 17.6243C27.6774 17.7607 27.7884 17.9035 27.8486 18.0684C27.9627 18.3794 27.8771 18.7252 27.8105 19.0488C27.6425 19.8705 27.5221 20.6796 27.4207 21.5172C27.3826 21.8186 27.446 22.3706 27.8961 22.3072C28.2448 22.2564 28.343 21.7266 28.3969 21.4506C28.5332 20.7462 28.5744 19.8705 29.0309 19.2804C29.3478 18.8743 29.8233 18.6395 30.3051 18.4968C30.8027 18.3476 31.5349 18.3635 32.0326 18.5317C32.3115 18.6237 32.5207 18.9156 32.7426 19.0996C33.0184 19.328 33.3131 19.5311 33.6174 19.7183C34.1436 20.0355 34.9614 19.8959 35.4273 19.5501C35.8553 19.2328 36.2483 18.8775 36.7555 18.6871C37.0693 18.5697 37.4052 18.5221 37.7381 18.5729C37.9282 18.6015 38.1153 18.6617 38.2896 18.7411C38.5654 18.8711 38.9362 18.9473 39.1549 18.6776C39.4624 18.3 39.6177 17.602 39.6114 17.3102" stroke="#1D1D1B" stroke-width="0.640281" stroke-linecap="round" stroke-linejoin="round"/>
<path d="M27.5128 20.5145C25.9058 19.826 24.7742 19.0424 24.1276 18.5379" stroke="#1D1D1B" stroke-width="0.640281" stroke-linecap="round" stroke-linejoin="round"/>
<path d="M39.4528 18.4113C39.4528 18.4113 39.8934 18.8809 39.513 19.7407C39.1327 20.6005 37.1041 21.9933 34.2387 21.9299C32.0262 21.8823 30.1466 21.473 28.6093 20.94" stroke="#1D1D1B" stroke-width="0.640281" stroke-linecap="round" stroke-linejoin="round"/>
<path d="M30.5153 11.3329C30.3851 11.5044 30.2326 11.6568 30.0675 11.7934" stroke="#1D1D1B" stroke-width="0.640281" stroke-linecap="round" stroke-linejoin="round"/>
<path d="M27.9347 12.6242L27.6458 12.8814" stroke="#1D1D1B" stroke-width="0.640281" stroke-linecap="round" stroke-linejoin="round"/>
<path d="M31.0537 13.7249C30.9584 13.8392 30.8441 13.9345 30.7202 14.0139" stroke="#1D1D1B" stroke-width="0.640281" stroke-linecap="round" stroke-linejoin="round"/>
<path d="M18.7172 25.8611C18.153 26.2608 17.3732 26.3338 16.7171 26.1688C16.4318 26.0959 16.1054 25.9721 15.9025 25.75C15.4587 25.2614 15.3129 24.5222 14.9643 23.9638C14.5585 23.3102 14.0609 22.7201 13.4967 22.1966C12.3746 21.1528 10.999 20.385 9.53773 19.9408C8.49173 19.6235 7.54716 18.9953 6.85299 18.1514C6.83714 18.1355 6.82129 18.1133 6.80545 18.1006C6.35535 17.7706 6.15249 17.3011 5.97181 16.7934C5.80382 16.3175 5.43613 15.978 5.34104 15.4546C5.30301 15.2515 5.28716 15.0231 5.13184 14.8866C4.66589 14.4678 4.88143 13.3574 4.8117 12.7926C4.79585 12.6657 4.78 12.5388 4.78634 12.4087C4.79585 12.2691 4.83389 12.1359 4.8751 12.0026C4.93215 11.8059 4.9892 11.6092 5.04943 11.4125C5.07796 11.3141 5.10648 11.2158 5.15086 11.1238C5.19207 11.0413 5.24278 10.9651 5.2935 10.8922C5.51221 10.5749 5.51538 10.2481 5.70239 9.95305C5.87672 9.6802 6.24124 9.60405 6.51383 9.47714C6.89103 9.30264 7.1351 9.03931 7.42671 8.75376C7.96873 8.22392 8.64388 8.16046 9.38559 8.2144C9.96564 8.25882 10.5932 8.3191 11.0972 8.02721C11.2367 7.94472 11.4015 7.83367 11.5473 7.9003C11.6424 7.94472 11.6931 8.04624 11.7692 8.11604C11.9023 8.23661 12.0925 8.24613 12.2669 8.28737C12.6916 8.38572 13.0529 8.68713 13.297 9.04882C13.6393 9.55011 13.7946 10.099 14.1497 10.5908C14.5617 11.1619 14.9516 11.752 15.351 12.3294C15.8898 13.1131 16.0451 14.2077 16.1434 15.3054C16.2163 16.1272 16.248 16.9552 16.3875 17.6501C16.7837 19.6489 17.6585 21.4605 19.2402 22.7867" fill="white"/>
<path d="M18.7172 25.8611C18.153 26.2608 17.3732 26.3338 16.7171 26.1688C16.4318 26.0959 16.1054 25.9721 15.9025 25.75C15.4587 25.2614 15.3129 24.5222 14.9643 23.9638C14.5585 23.3102 14.0609 22.7201 13.4967 22.1966C12.3746 21.1528 10.999 20.385 9.53773 19.9408C8.49173 19.6235 7.54716 18.9953 6.85299 18.1514C6.83714 18.1355 6.82129 18.1133 6.80545 18.1006C6.35535 17.7706 6.15249 17.3011 5.97181 16.7934C5.80382 16.3175 5.43613 15.978 5.34104 15.4546C5.30301 15.2515 5.28716 15.0231 5.13184 14.8866C4.66589 14.4678 4.88143 13.3574 4.8117 12.7926C4.79585 12.6657 4.78 12.5388 4.78634 12.4087C4.79585 12.2691 4.83389 12.1359 4.8751 12.0026C4.93215 11.8059 4.9892 11.6092 5.04943 11.4125C5.07796 11.3141 5.10648 11.2158 5.15086 11.1238C5.19207 11.0413 5.24278 10.9651 5.2935 10.8922C5.51221 10.5749 5.51538 10.2481 5.70239 9.95305C5.87672 9.6802 6.24124 9.60405 6.51383 9.47714C6.89103 9.30264 7.1351 9.03931 7.42671 8.75376C7.96873 8.22392 8.64388 8.16046 9.38559 8.2144C9.96564 8.25882 10.5932 8.3191 11.0972 8.02721C11.2367 7.94472 11.4015 7.83367 11.5473 7.9003C11.6424 7.94472 11.6931 8.04624 11.7692 8.11604C11.9023 8.23661 12.0925 8.24613 12.2669 8.28737C12.6916 8.38572 13.0529 8.68713 13.297 9.04882C13.6393 9.55011 13.7946 10.099 14.1497 10.5908C14.5617 11.1619 14.9516 11.752 15.351 12.3294C15.8898 13.1131 16.0451 14.2077 16.1434 15.3054C16.2163 16.1272 16.248 16.9552 16.3875 17.6501C16.7837 19.6489 17.6585 21.4605 19.2402 22.7867" stroke="#1D1D1B" stroke-width="0.640281" stroke-linecap="round" stroke-linejoin="round"/>
<path d="M19.24 22.7834C20.0166 23.345 19.7092 25.1535 18.717 25.8578Z" fill="white"/>
<path d="M19.24 22.7834C20.0166 23.345 19.7092 25.1535 18.717 25.8578" stroke="#1D1D1B" stroke-width="0.640281" stroke-linecap="round" stroke-linejoin="round"/>
<path d="M10.2474 11.7997C10.3999 11.7902 10.5523 11.7807 10.7047 11.7902" stroke="#1D1D1B" stroke-width="0.640281" stroke-linecap="round" stroke-linejoin="round"/>
</g>
<path d="M39.0669 7.90305C39.3617 7.64289 39.3078 7.15112 39.5582 6.84971C39.8276 6.52609 40.3918 6.57368 40.6739 6.88461C40.956 7.19871 40.9846 7.68414 40.8261 8.07755C40.6676 8.47097 40.3601 8.7819 40.0305 9.04523C39.8371 9.19752 39.6279 9.34347 39.3902 9.39423C39.1525 9.445 38.8735 9.38472 38.7214 9.19118C38.4868 8.8866 38.6612 8.44559 38.8894 8.13784C39.1176 7.83008 39.4092 7.51915 39.4029 7.13843" fill="#EA0029"/>
<path d="M39.0669 7.90305C39.3617 7.64289 39.3078 7.15112 39.5582 6.84971C39.8276 6.52609 40.3918 6.57368 40.6739 6.88461C40.956 7.19871 40.9846 7.68414 40.8261 8.07755C40.6676 8.47097 40.3601 8.7819 40.0305 9.04523C39.8371 9.19752 39.6279 9.34347 39.3902 9.39423C39.1525 9.445 38.8735 9.38472 38.7214 9.19118C38.4868 8.8866 38.6612 8.44559 38.8894 8.13784C39.1176 7.83008 39.4092 7.51915 39.4029 7.13843" stroke="#010101" stroke-width="0.640281" stroke-linecap="round" stroke-linejoin="round"/>
<path d="M27.2692 5.61242C27.1837 5.20949 26.705 5.00961 26.5592 4.62571C26.4007 4.21325 26.7304 3.72465 27.1615 3.62313C27.5926 3.5216 28.049 3.75004 28.3279 4.09269C28.6069 4.43534 28.7336 4.87635 28.8034 5.31102C28.8446 5.56483 28.8699 5.82817 28.7939 6.07564C28.7178 6.32311 28.5213 6.5452 28.2677 6.5801C27.8715 6.63721 27.5577 6.25331 27.3929 5.88845C27.228 5.52359 27.0949 5.09844 26.7431 4.90808" stroke="#010101" stroke-width="0.640281" stroke-linecap="round" stroke-linejoin="round"/>
<path d="M11.7725 3.66415C12.0799 4.38119 12.0768 4.40974 12.2543 5.16803" stroke="#010101" stroke-width="0.640281" stroke-linecap="round" stroke-linejoin="round"/>
<path d="M32.3597 7.09423L32.7472 6.96402" stroke="#010101" stroke-width="0.640281" stroke-linecap="round" stroke-linejoin="round"/>
<path d="M25.3168 1.72577L25.3802 1.59573" stroke="#010101" stroke-width="0.640281" stroke-linecap="round" stroke-linejoin="round"/>
<path d="M8.70728 5.67273L8.83731 5.80277" stroke="#010101" stroke-width="0.640281" stroke-linecap="round" stroke-linejoin="round"/>
<path d="M36.0206 5.72657C36.3059 5.23479 36.5912 4.73985 36.8796 4.24808" stroke="#010101" stroke-width="0.640281" stroke-linecap="round" stroke-linejoin="round"/>
<path d="M12.4918 14.8612C12.6249 14.7788 12.8563 15.2891 13.0402 15.5047" stroke="#1D1D1B" stroke-width="0.640281" stroke-linecap="round" stroke-linejoin="round"/>
<path d="M14.1371 13.5127V13.808" stroke="#1D1D1B" stroke-width="0.640281" stroke-linecap="round" stroke-linejoin="round"/>
<path d="M15.0056 16.8602L15.039 16.8935" stroke="#1D1D1B" stroke-width="0.640281" stroke-linecap="round" stroke-linejoin="round"/>
<path d="M10.9515 9.82596C11.221 9.94324 11.5062 10.032 11.7947 10.0859" stroke="#1D1D1B" stroke-width="0.640281" stroke-linecap="round" stroke-linejoin="round"/>
<path d="M39.8367 25.6831H117.03" stroke="#010101" stroke-width="0.640281" stroke-linecap="round" stroke-linejoin="round"/>
<path d="M47.7476 49.926H117.03" stroke="#010101" stroke-width="0.640281" stroke-linecap="round" stroke-linejoin="round"/>
<g clip-path="url(#clip1_2207_31065)">
<path fill-rule="evenodd" clip-rule="evenodd" d="M52.8045 33.6767H55.4488V30.9184H52.8045V33.6767ZM49.1337 33.6767H51.778V30.9184H49.1337V33.6767ZM59.7706 35.0055V40.6423C59.7706 43.716 58.2511 45.2523 55.2121 45.2523H49.3111C47.627 45.2523 46.3181 44.682 45.3843 43.5409C44.6473 42.6424 44.2792 41.5819 44.2792 40.3607C44.2792 39.4075 44.3938 38.5819 44.6244 37.884C44.8542 37.1868 45.239 36.5088 45.779 35.8511L48.0089 37.401C47.4036 38.2066 47.1012 39.0788 47.1012 40.0181C47.1012 40.7297 47.3703 41.3403 47.9103 41.8498C48.4494 42.36 49.1661 42.6152 50.0612 42.6152H55.2121C55.6195 42.6152 55.9453 42.4708 56.1887 42.182C56.4318 41.8938 56.5539 41.5081 56.5539 41.0251V35.0055H59.7706Z" fill="white"/>
<path fill-rule="evenodd" clip-rule="evenodd" d="M65.5525 32.0054V41.025C65.5525 41.5216 65.6841 41.9171 65.9472 42.2123C66.1711 42.4811 66.4868 42.6151 66.8946 42.6151H67.5653V45.2522H66.8946C65.2367 45.2522 64.0593 44.8968 63.3622 44.1853C62.6778 43.4743 62.336 42.2924 62.336 40.6421V32.0054H65.5525ZM62.7504 28.5225C63.0132 28.5225 63.4079 28.6429 63.9343 28.8854C63.9866 28.9117 64.079 28.9592 64.2106 29.0257C64.6447 29.2408 64.9477 29.3481 65.1184 29.3481C65.3554 29.3481 65.5788 29.1004 65.7895 28.603L66.8353 29.268C66.4012 30.2475 65.8288 30.7371 65.1184 30.7371C64.8154 30.7371 64.4207 30.5829 63.9343 30.2741C63.5398 30.0325 63.1909 29.9115 62.8885 29.9115C62.5594 29.9115 62.2895 30.1601 62.0794 30.6567L61.0336 29.9925C61.4676 29.0127 62.04 28.5225 62.7504 28.5225Z" fill="white"/>
<path fill-rule="evenodd" clip-rule="evenodd" d="M74.6899 37.4212C74.2558 37.4212 73.9233 37.5592 73.6935 37.8335C73.4632 38.1087 73.348 38.502 73.348 39.0113V41.025C73.348 41.5355 73.4632 41.9276 73.6935 42.2019C73.9233 42.478 74.2558 42.6152 74.6899 42.6152C75.1242 42.6152 75.4561 42.478 75.6868 42.2019C75.9165 41.9276 76.032 41.5355 76.032 41.025V39.0113C76.032 38.502 75.9165 38.1087 75.6868 37.8335C75.4561 37.5592 75.1242 37.4212 74.6899 37.4212ZM73.0717 33.7169H76.2884V30.8983H73.0717V33.7169ZM74.6899 34.7841C77.7295 34.7841 79.249 36.3212 79.249 39.3941V40.6425C79.249 43.7159 77.7295 45.2525 74.6899 45.2525H67.171V42.6152H70.5854C70.2824 41.9982 70.131 41.3405 70.131 40.6425V39.3941C70.131 36.3212 71.6508 34.7841 74.6899 34.7841Z" fill="white"/>
<path fill-rule="evenodd" clip-rule="evenodd" d="M84.9325 30.8783V41.0249C84.9325 41.5079 85.0537 41.8939 85.2977 42.1818C85.5407 42.4706 85.8663 42.615 86.2746 42.615H86.9454V45.2524H86.2746C83.2356 45.2524 81.7161 43.7158 81.7161 40.6424V30.8783H84.9325Z" fill="white"/>
<path fill-rule="evenodd" clip-rule="evenodd" d="M100.147 45.2524H98.6677C97.6144 45.2524 96.9638 44.9572 96.7135 44.3666C95.964 44.9572 94.9179 45.2524 93.5755 45.2524H86.5507V42.6153H93.5755C94.0105 42.6153 94.3427 42.4782 94.5727 42.2021C94.8022 41.9278 94.918 41.5354 94.918 41.0252V39.2328C94.918 38.7232 94.8022 38.3303 94.5727 38.0551C94.3427 37.7804 94.0105 37.6427 93.5755 37.6427H88.7016V36.6556C88.7016 36.1197 88.7803 35.6498 88.9383 35.247C89.0963 34.8442 89.3923 34.3684 89.8264 33.8172L92.1949 30.8783H95.7667L92.4507 35.0053H93.5755C96.6148 35.0053 98.1344 36.5425 98.1344 39.6154V40.6424C98.1344 41.3004 98.062 41.9035 97.9176 42.4539C98.0493 42.5615 98.2924 42.6153 98.6477 42.6153H100.147V45.2524Z" fill="white"/>
<path fill-rule="evenodd" clip-rule="evenodd" d="M108.594 41.8697V39.011C108.594 38.5017 108.479 38.1084 108.249 37.8332C108.019 37.5589 107.686 37.4209 107.252 37.4209C106.818 37.4209 106.486 37.5589 106.256 37.8332C106.026 38.1084 105.91 38.5017 105.91 39.011V41.8697C105.91 42.3799 106.026 42.7732 106.256 43.0475C106.486 43.3227 106.818 43.4607 107.252 43.4607C107.686 43.4607 108.019 43.3227 108.249 43.0475C108.479 42.7732 108.594 42.3799 108.594 41.8697ZM107.252 34.7838C110.292 34.7838 111.811 36.321 111.811 39.3939V41.4878C111.811 44.5615 110.292 46.0978 107.252 46.0978C105.647 46.0978 104.47 45.675 103.72 44.8295C103.049 45.111 102.26 45.2523 101.351 45.2523H99.7535V42.6152H101.351C101.759 42.6152 102.085 42.4708 102.329 42.182C102.572 41.8938 102.694 41.508 102.694 41.0251V39.3939C102.694 36.321 104.213 34.7838 107.252 34.7838Z" fill="white"/>
</g>
</g>
<defs>
<clipPath id="clip0_2207_31065">
<rect width="118" height="54" fill="white"/>
</clipPath>
<clipPath id="clip1_2207_31065">
<rect width="67.7139" height="17.9413" fill="white" transform="translate(44.1161 28.3874)"/>
</clipPath>
</defs>
</svg>
