<svg width="102" height="43" viewBox="0 0 102 43" fill="none" xmlns="http://www.w3.org/2000/svg">
<path d="M10.384 28.776C10.384 29.7733 10.2373 30.4627 9.944 30.844C9.68 31.2253 9.25467 31.416 8.668 31.416H6.82C5.82267 31.416 4.89867 31.3133 4.048 31.108C3.22667 30.8733 2.508 30.5067 1.892 30.008C1.30533 29.48 0.836 28.7907 0.484 27.94C0.161333 27.0893 0 26.0333 0 24.772V0H5.72V23.98C5.72 25.0067 5.896 25.6667 6.248 25.96C6.62933 26.224 7.15733 26.356 7.832 26.356H8.668C8.90267 26.356 9.12267 26.3853 9.328 26.444C9.53333 26.4733 9.70933 26.576 9.856 26.752C10.032 26.8987 10.164 27.1333 10.252 27.456C10.34 27.7787 10.384 28.2187 10.384 28.776Z" fill="white"/>
<path d="M11.3018 26.356C12.2991 26.356 12.9885 26.2093 13.3698 25.916C13.7805 25.5933 13.9858 24.8893 13.9858 23.804V13.904H19.7058V23.32C19.7058 24.4053 19.9111 25.1827 20.3218 25.652C20.7325 26.1213 21.6418 26.356 23.0498 26.356C23.2845 26.356 23.5045 26.3853 23.7098 26.444C23.9151 26.4733 24.0911 26.576 24.2378 26.752C24.4138 26.8987 24.5458 27.1333 24.6338 27.456C24.7218 27.7787 24.7658 28.2187 24.7658 28.776C24.7658 29.7733 24.6191 30.4627 24.3258 30.844C24.0618 31.2253 23.6365 31.416 23.0498 31.416C22.1991 31.416 21.3778 31.284 20.5858 31.02C19.7938 30.7267 19.1338 30.1107 18.6058 29.172C18.2538 29.6707 17.8285 30.0813 17.3298 30.404C16.8311 30.6973 16.3031 30.9173 15.7458 31.064C15.1885 31.2107 14.6018 31.3133 13.9858 31.372C13.3991 31.4013 12.8125 31.416 12.2258 31.416H8.61781C8.38315 31.416 8.16315 31.4013 7.95781 31.372C7.75248 31.3133 7.57648 31.2107 7.42981 31.064C7.25381 30.888 7.12181 30.6387 7.03381 30.316C6.94581 29.9933 6.90181 29.5533 6.90181 28.996C6.90181 27.9987 7.04848 27.3093 7.34181 26.928C7.60581 26.5467 8.03115 26.356 8.61781 26.356H11.3018ZM13.6778 6.292C13.6778 5.44133 13.9858 4.708 14.6018 4.092C15.2178 3.476 15.9511 3.168 16.8018 3.168C17.6525 3.168 18.3858 3.476 19.0018 4.092C19.6178 4.708 19.9258 5.44133 19.9258 6.292C19.9258 7.14267 19.6178 7.876 19.0018 8.492C18.3858 9.108 17.6525 9.416 16.8018 9.416C15.9511 9.416 15.2178 9.108 14.6018 8.492C13.9858 7.876 13.6778 7.14267 13.6778 6.292Z" fill="white"/>
<path d="M38.8073 31.416C38.3966 31.416 37.9566 31.3867 37.4873 31.328C37.018 31.2693 36.5633 31.1667 36.1233 31.02C35.6833 30.844 35.258 30.6093 34.8473 30.316C34.466 30.0227 34.1433 29.6413 33.8793 29.172C33.5273 29.6707 33.102 30.0813 32.6033 30.404C32.1046 30.6973 31.5766 30.9173 31.0193 31.064C30.462 31.2107 29.8753 31.3133 29.2593 31.372C28.6726 31.4013 28.086 31.416 27.4993 31.416H23.0553C22.8206 31.416 22.6006 31.4013 22.3953 31.372C22.19 31.3133 22.014 31.2107 21.8673 31.064C21.6913 30.888 21.5593 30.6387 21.4713 30.316C21.3833 29.9933 21.3393 29.5533 21.3393 28.996C21.3393 27.9987 21.486 27.3093 21.7793 26.928C22.0433 26.5467 22.4686 26.356 23.0553 26.356H26.5753C27.5726 26.356 28.262 26.2093 28.6433 25.916C29.054 25.5933 29.2593 24.8893 29.2593 23.804V13.904H34.9793V23.32C34.9793 24.4053 35.258 25.1827 35.8153 25.652C36.402 26.1213 37.3993 26.356 38.8073 26.356C39.042 26.356 39.262 26.3853 39.4673 26.444C39.6726 26.4733 39.8486 26.576 39.9953 26.752C40.1713 26.8987 40.3033 27.1333 40.3913 27.456C40.4793 27.7787 40.5233 28.2187 40.5233 28.776C40.5233 29.7733 40.3766 30.4627 40.0833 30.844C39.8193 31.2253 39.394 31.416 38.8073 31.416ZM24.1993 38.808C24.1993 37.9573 24.5073 37.224 25.1233 36.608C25.7393 35.992 26.4726 35.684 27.3233 35.684C28.174 35.684 28.9073 35.992 29.5233 36.608C30.1393 37.224 30.4473 37.9573 30.4473 38.808C30.4473 39.6587 30.1393 40.392 29.5233 41.008C28.9073 41.624 28.174 41.932 27.3233 41.932C26.4726 41.932 25.7393 41.624 25.1233 41.008C24.5073 40.392 24.1993 39.6587 24.1993 38.808ZM31.3713 38.808C31.3713 37.9573 31.6793 37.224 32.2953 36.608C32.9113 35.992 33.6446 35.684 34.4953 35.684C35.346 35.684 36.0793 35.992 36.6953 36.608C37.3113 37.224 37.6193 37.9573 37.6193 38.808C37.6193 39.6587 37.3113 40.392 36.6953 41.008C36.0793 41.624 35.346 41.932 34.4953 41.932C33.6446 41.932 32.9113 41.624 32.2953 41.008C31.6793 40.392 31.3713 39.6587 31.3713 38.808Z" fill="white"/>
<path d="M43.4888 6.292C43.4888 5.44133 43.7968 4.708 44.4128 4.092C45.0288 3.476 45.7622 3.168 46.6128 3.168C47.4635 3.168 48.1968 3.476 48.8128 4.092C49.4288 4.708 49.7368 5.44133 49.7368 6.292C49.7368 7.14267 49.4288 7.876 48.8128 8.492C48.1968 9.108 47.4635 9.416 46.6128 9.416C45.7622 9.416 45.0288 9.108 44.4128 8.492C43.7968 7.876 43.4888 7.14267 43.4888 6.292ZM43.8408 26.356V13.904H49.6048V31.416H38.7808C38.5462 31.416 38.3262 31.4013 38.1208 31.372C37.9155 31.3133 37.7395 31.2107 37.5928 31.064C37.4168 30.888 37.2848 30.6387 37.1968 30.316C37.1088 29.9933 37.0648 29.5533 37.0648 28.996C37.0648 27.9987 37.2115 27.3093 37.5048 26.928C37.7688 26.5467 38.1942 26.356 38.7808 26.356H43.8408Z" fill="white"/>
<path d="M65.2551 28.776C65.2551 29.7733 65.1084 30.4627 64.8151 30.844C64.5511 31.2253 64.1258 31.416 63.5391 31.416H61.6911C60.6938 31.416 59.7698 31.3133 58.9191 31.108C58.0978 30.8733 57.3791 30.5067 56.7631 30.008C56.1764 29.48 55.7071 28.7907 55.3551 27.94C55.0324 27.0893 54.8711 26.0333 54.8711 24.772V0H60.5911V23.98C60.5911 25.0067 60.7671 25.6667 61.1191 25.96C61.5004 26.224 62.0284 26.356 62.7031 26.356H63.5391C63.7738 26.356 63.9938 26.3853 64.1991 26.444C64.4044 26.4733 64.5804 26.576 64.7271 26.752C64.9031 26.8987 65.0351 27.1333 65.1231 27.456C65.2111 27.7787 65.2551 28.2187 65.2551 28.776Z" fill="white"/>
<path d="M68.1529 26.356V24.64C68.1529 21.0907 68.8862 18.3333 70.3529 16.368C71.8489 14.3733 73.9316 13.376 76.6009 13.376C77.9796 13.376 79.1529 13.6253 80.1209 14.124C81.0889 14.6227 81.8662 15.2533 82.4529 16.016C83.0689 16.7493 83.5089 17.556 83.7729 18.436C84.0662 19.316 84.2129 20.1373 84.2129 20.9C84.2129 21.8387 84.0956 22.7627 83.8609 23.672C83.6262 24.552 83.2156 25.388 82.6289 26.18V26.356H87.5129C87.7476 26.356 87.9676 26.3853 88.1729 26.444C88.3782 26.4733 88.5542 26.576 88.7009 26.752C88.8769 26.8987 89.0089 27.1333 89.0969 27.456C89.1849 27.7787 89.2289 28.2187 89.2289 28.776C89.2289 29.7733 89.0822 30.4627 88.7889 30.844C88.5249 31.2253 88.0996 31.416 87.5129 31.416H82.7609V31.548C83.0542 31.812 83.2889 32.12 83.4649 32.472C83.6409 32.824 83.7729 33.1613 83.8609 33.484C83.9782 33.836 84.0516 34.1587 84.0809 34.452C84.1102 34.7453 84.1249 34.98 84.1249 35.156C84.1249 36.0947 83.9636 36.9893 83.6409 37.84C83.3476 38.6907 82.8929 39.424 82.2769 40.04C81.6609 40.6853 80.8689 41.1987 79.9009 41.58C78.9622 41.9613 77.8329 42.152 76.5129 42.152C74.9876 42.152 73.6969 41.9027 72.6409 41.404C71.5849 40.9347 70.7196 40.2453 70.0449 39.336C69.3996 38.456 68.9156 37.3707 68.5929 36.08C68.2996 34.7893 68.1529 33.3373 68.1529 31.724V31.416H63.4889C63.2542 31.416 63.0342 31.4013 62.8289 31.372C62.6236 31.3133 62.4476 31.2107 62.3009 31.064C62.1249 30.888 61.9929 30.6387 61.9049 30.316C61.8169 29.9933 61.7729 29.5533 61.7729 28.996C61.7729 27.9987 61.9196 27.3093 62.2129 26.928C62.4769 26.5467 62.9022 26.356 63.4889 26.356H68.1529ZM73.2129 26.356H74.3129C75.0756 26.356 75.7356 26.224 76.2929 25.96C76.8502 25.6667 77.3049 25.3 77.6569 24.86C78.0089 24.3907 78.2582 23.8627 78.4049 23.276C78.5809 22.66 78.6689 22.044 78.6689 21.428C78.6689 20.6067 78.4782 19.932 78.0969 19.404C77.7156 18.876 77.1582 18.612 76.4249 18.612C75.3689 18.612 74.5622 19.14 74.0049 20.196C73.4769 21.2227 73.2129 22.484 73.2129 23.98V26.356ZM73.2129 31.416C73.2129 33.088 73.4622 34.4373 73.9609 35.464C74.4889 36.52 75.3396 37.048 76.5129 37.048C77.3049 37.048 77.8622 36.8133 78.1849 36.344C78.5369 35.8747 78.7129 35.2733 78.7129 34.54C78.7129 34.364 78.6689 34.1 78.5809 33.748C78.4929 33.396 78.3316 33.044 78.0969 32.692C77.8622 32.3693 77.5249 32.076 77.0849 31.812C76.6742 31.548 76.1316 31.416 75.4569 31.416H73.2129Z" fill="white"/>
<path d="M92.5684 26.356V13.904H98.3324V31.416H87.5084C87.2738 31.416 87.0538 31.4013 86.8484 31.372C86.6431 31.3133 86.4671 31.2107 86.3204 31.064C86.1444 30.888 86.0124 30.6387 85.9244 30.316C85.8364 29.9933 85.7924 29.5533 85.7924 28.996C85.7924 27.9987 85.9391 27.3093 86.2324 26.928C86.4964 26.5467 86.9218 26.356 87.5084 26.356H92.5684ZM88.2564 6.292C88.2564 5.44133 88.5644 4.708 89.1804 4.092C89.7964 3.476 90.5298 3.168 91.3804 3.168C92.2311 3.168 92.9644 3.476 93.5804 4.092C94.1964 4.708 94.5044 5.44133 94.5044 6.292C94.5044 7.14267 94.1964 7.876 93.5804 8.492C92.9644 9.108 92.2311 9.416 91.3804 9.416C90.5298 9.416 89.7964 9.108 89.1804 8.492C88.5644 7.876 88.2564 7.14267 88.2564 6.292ZM95.4284 6.292C95.4284 5.44133 95.7364 4.708 96.3524 4.092C96.9684 3.476 97.7018 3.168 98.5524 3.168C99.4031 3.168 100.136 3.476 100.752 4.092C101.368 4.708 101.676 5.44133 101.676 6.292C101.676 7.14267 101.368 7.876 100.752 8.492C100.136 9.108 99.4031 9.416 98.5524 9.416C97.7018 9.416 96.9684 9.108 96.3524 8.492C95.7364 7.876 95.4284 7.14267 95.4284 6.292Z" fill="white"/>
</svg>
