<svg width="205" height="37" viewBox="0 0 205 37" fill="none" xmlns="http://www.w3.org/2000/svg">
<path d="M8.272 30.3032C15.275 30.3032 20.398 24.3812 22.842 18.4122L22.889 18.2242C22.889 17.8952 22.701 17.8012 22.419 17.7542C22.278 17.7542 22.09 17.8482 21.996 17.9892C19.317 21.9842 13.771 28.0942 8.507 28.0942C5.828 28.0472 4.794 26.5432 4.794 23.7702C4.794 16.8612 10.528 4.82922 16.544 3.56022C16.873 3.51322 17.202 3.41922 17.578 3.41922C18.565 3.41922 19.223 3.88922 19.223 5.01722C19.223 8.44822 14.1 16.0152 11.515 16.2502C11.233 16.2502 11.045 16.4382 11.045 16.7202C11.186 17.7542 13.16 18.6942 14.711 18.6942C15.322 18.6942 15.839 18.5532 16.262 18.2712C18.847 16.5322 21.808 10.7512 21.808 6.70922C21.808 3.32522 19.834 0.928223 15.604 0.928223C6.674 1.02222 0 13.4302 0 21.4672C0 27.4832 3.854 30.3032 8.178 30.3032H8.272Z" fill="white"/>
<path d="M25.6033 26.5432H25.4622C24.7572 26.4492 24.4753 25.6032 24.4753 24.4282C24.4753 21.0442 26.9662 14.6522 29.2222 14.2762H29.4573C30.0683 14.2762 30.3503 14.7462 30.4913 15.3572C29.5983 15.5922 28.7523 16.9552 28.7523 18.3182C28.7523 19.1172 29.0343 19.9632 29.7863 20.5272C29.2693 21.9842 27.4363 26.5432 25.6033 26.5432ZM25.2743 28.0002C28.5173 28.0002 30.8202 24.2402 31.8542 21.2792H32.2303C34.1103 21.2792 36.0843 20.2452 37.0243 18.4592C37.0713 18.3652 37.0713 18.2712 37.0713 18.1772C37.0713 18.0362 37.0243 17.8952 36.8833 17.8482C36.7892 17.8012 36.6953 17.7542 36.6012 17.7542C36.4603 17.7542 36.3193 17.8012 36.2253 17.9892C35.4263 19.5402 33.7342 20.3392 32.1833 20.3392C32.5122 19.2582 32.7943 17.8012 32.7943 16.4382C32.7943 14.2292 32.1362 12.1142 29.8803 11.5502C29.4573 11.4562 29.0812 11.4092 28.7052 11.4092C24.3342 11.4092 21.0912 17.7542 21.0912 22.5952C21.0912 25.6032 22.3132 28.0002 25.2743 28.0002Z" fill="white"/>
<path d="M45.8019 28.0472L47.1179 28.0002C48.9039 27.9062 49.9379 25.8852 53.2279 18.4122C53.2749 18.3182 53.2749 18.2712 53.2749 18.2242C53.2749 17.9422 53.0399 17.7542 52.7579 17.7542C52.6169 17.7542 52.4759 17.8482 52.3819 18.0362C49.0919 25.4152 48.2459 26.9662 47.0709 27.0602C46.8359 27.0602 46.7889 26.7782 46.7889 26.2142C46.7889 23.4882 49.0449 17.1902 49.7029 13.9472L49.7499 13.3832C49.7499 12.1142 48.7629 11.4092 47.5879 11.4092C45.6139 11.4092 43.6399 13.8062 42.2299 15.6392C41.3839 16.7202 40.5849 17.8952 39.8799 18.9292C40.0209 18.5532 41.5719 13.9002 41.9479 13.0072L41.9949 12.8192C41.9949 12.0672 40.4439 11.4092 39.3159 11.4092C38.7519 11.4092 38.2819 11.5972 38.1409 11.9732C36.9659 15.0282 34.1929 24.2872 34.1929 26.6842C34.2399 27.7652 35.7439 28.0002 36.8719 28.0002H37.1069C37.4829 28.0002 37.7179 27.9532 37.7179 27.5302C37.7649 26.4492 38.2349 24.5692 38.7989 22.5012C39.6449 21.0442 42.8409 15.7802 45.0969 13.7592C45.2379 13.6182 45.4259 13.4772 45.5669 13.4772C45.6609 13.4772 45.7079 13.5712 45.7079 13.7122C45.6609 14.2762 43.0289 21.8902 42.9349 25.3212C42.9349 27.6712 44.1099 28.0472 45.8019 28.0472Z" fill="white"/>
<path d="M55.7541 24.4282H55.7071C55.2371 24.4282 55.0491 23.9582 55.0491 23.2062C55.0491 20.4332 57.7281 14.0882 59.9371 14.0412C60.6421 14.0412 60.8771 14.6522 60.8771 15.3572C60.8771 16.4382 60.4071 17.7542 60.2661 18.2242C59.7491 19.5402 57.1641 24.4282 55.7541 24.4282ZM53.4041 36.7892C57.3521 36.7892 59.3261 32.8412 60.5951 29.5982C62.5221 28.8462 63.8851 27.5772 65.1541 25.7442C66.4231 23.9112 67.5511 21.4672 68.9611 18.4122C69.0081 18.3182 69.0081 18.2712 69.0081 18.2242C69.0081 17.9892 68.8671 17.8482 68.7261 17.8012C68.6321 17.7542 68.5851 17.7542 68.5381 17.7542C68.3501 17.7542 68.1621 17.8952 68.1151 18.0362C66.7051 21.0442 65.6241 23.4412 64.4021 25.2272C63.4151 26.6372 62.3811 27.6712 61.0651 28.3762C62.1461 25.4152 63.2271 21.8902 64.2141 18.7412C64.8721 16.4852 65.5301 14.4642 66.0471 12.9602L66.0941 12.8192C66.0941 12.1612 64.7781 11.4092 63.6501 11.4092C63.1801 11.4092 62.7101 11.5032 62.3811 11.8322C62.1931 11.9732 62.0991 12.3022 62.0521 12.5842C61.4411 11.8322 60.5011 11.4562 59.4201 11.4562H59.3731C54.7201 11.4562 51.3361 18.0832 51.3361 22.7362C51.3361 25.1802 52.2761 27.0602 54.5321 27.1072H54.6261C56.2241 27.1072 57.5401 25.6502 58.6211 24.0992C58.0571 26.1202 57.8221 27.0602 57.2581 28.6112C52.9811 28.8462 50.6311 29.8802 50.0671 32.7002C50.0201 33.0292 49.9731 33.3112 49.9731 33.5932C49.9731 35.3322 51.0071 36.6482 53.0751 36.7892H53.4041ZM52.3701 34.7212C51.4301 34.7212 51.0071 34.1102 51.0071 33.3112C51.0071 33.1232 51.0071 32.9352 51.0541 32.7472C51.5711 30.4912 53.6391 29.7392 56.8821 29.5982C55.8011 32.2302 54.1561 34.7212 52.3701 34.7212Z" fill="white"/>
<path d="M75.1633 28.0002C76.0093 28.0002 76.6673 27.6712 77.7013 26.1672C78.6413 24.8042 79.8163 22.4072 81.6023 18.4122C81.6493 18.3182 81.6493 18.2712 81.6493 18.2242C81.6493 18.0362 81.5553 17.8952 81.4613 17.8482C81.3673 17.8012 81.2733 17.7542 81.1323 17.7542C80.9913 17.7542 80.8503 17.8482 80.7563 18.0362C78.9703 21.9842 77.7953 24.3342 76.9023 25.6502C76.6673 26.0262 75.7743 27.1072 75.1633 27.1072C74.9283 27.1072 74.7403 26.9662 74.6463 26.5432L74.5523 25.7442C74.5523 23.3942 76.0563 19.2112 76.8083 17.0962C77.3253 15.5922 77.7013 14.6052 77.7013 13.8532L77.6543 13.5242C77.4663 12.3022 76.2913 11.4092 75.1163 11.4092C74.1293 11.4092 73.0483 11.7852 71.7793 11.8322C71.9203 11.5032 72.2963 10.4222 72.4843 9.76422L72.5313 9.62322C72.5313 9.24722 71.9203 9.05922 71.3563 9.05922C70.8863 9.05922 70.3693 9.20022 70.2283 9.57622C69.9933 10.1872 69.7583 10.8922 69.7583 11.5502C69.7583 12.0672 69.9463 12.5372 70.3693 12.8662C69.5703 14.7932 69.2413 15.5452 68.1133 18.0362C68.0663 18.1302 68.0663 18.1772 68.0663 18.2242C68.0663 18.5062 68.2073 18.6002 68.3483 18.6472C68.4423 18.6942 68.4893 18.6942 68.5833 18.6942C68.7243 18.6942 68.9123 18.5532 68.9593 18.4122C70.0403 16.0622 70.4633 15.1222 71.1683 13.2892C71.4033 13.3832 71.6853 13.3832 71.9203 13.3832C72.7193 13.3832 73.5653 13.1482 74.1763 13.1012C73.3303 15.6392 70.9803 21.4672 70.9803 24.9922C70.9803 25.7442 71.1213 26.4022 71.3563 26.8722C71.9203 27.9532 73.5653 28.0002 74.6933 28.0002H75.1633Z" fill="white"/>
<path d="M84.1664 24.4752C83.6964 24.4752 83.4613 24.0052 83.4613 23.2062C83.4613 20.4332 86.1404 14.0412 88.2554 14.0412L88.5374 14.0882C89.0544 14.2292 89.2424 14.7462 89.2424 15.4042C89.2424 16.4382 88.8194 17.7072 88.5844 18.3182C88.1143 19.4932 85.5764 24.4282 84.1664 24.4752ZM91.1693 28.0002C93.3783 27.9062 96.2924 21.7492 97.8434 18.4122C97.8904 18.2712 97.8904 18.2712 97.8904 18.1772C97.8904 17.9892 97.7963 17.8482 97.6553 17.8012L97.4203 17.7542C97.2323 17.7542 97.0914 17.8012 96.9974 18.0362C95.6344 20.9972 92.6734 27.0132 91.1224 27.0602C90.8874 27.0602 90.8404 26.6372 90.8404 25.9792C90.9344 22.5952 93.9893 14.5112 94.6003 13.0072L94.6474 12.8192C94.6474 12.0672 93.1904 11.4092 92.1094 11.4092C91.5453 11.4092 91.1224 11.5502 90.8874 11.9262L90.5583 12.7722C89.9943 11.8792 89.0074 11.4562 87.7854 11.4562H87.7383C83.0854 11.4562 79.7014 18.0832 79.7014 22.7362C79.7014 25.1802 80.6414 27.0602 82.8974 27.1072H82.9913C84.8243 27.1072 86.3284 25.2742 87.4094 23.3942C87.3624 23.9582 87.3154 24.4282 87.3154 24.8982C87.3154 25.6972 87.4094 26.4022 87.6914 26.8722C88.2084 27.8592 89.4304 28.0002 90.6054 28.0002H91.1693Z" fill="white"/>
<path d="M99.4744 28.0002C100.367 27.9532 101.26 26.9192 101.824 26.2612C103.422 24.1462 105.161 20.6682 106.148 18.4122C106.195 18.3182 106.195 18.2242 106.195 18.2242C106.195 18.0362 106.101 17.8952 105.96 17.8012C105.866 17.7542 105.772 17.7542 105.725 17.7542C105.537 17.7542 105.396 17.8012 105.302 18.0362C104.362 20.0572 102.67 23.5352 101.213 25.5092C100.884 25.9322 99.9914 27.0602 99.4744 27.0602C99.3334 27.0602 99.2864 26.9662 99.2864 26.6372C99.2864 25.7912 99.7094 23.8642 99.8034 23.5822C100.743 19.5872 102.341 14.7462 103.798 10.4222C104.785 10.4222 105.678 10.4222 106.477 10.4692C106.806 10.4692 106.994 10.2342 106.994 9.99922C106.994 9.76422 106.806 9.52922 106.524 9.52922L104.174 9.48222C104.597 8.35422 105.02 7.32022 105.443 6.38022L105.49 6.23922C105.49 5.53422 103.798 4.78222 102.576 4.78222C102.012 4.78222 101.542 4.92322 101.401 5.34622C100.931 6.38022 100.367 7.74322 99.7564 9.34122L96.8424 9.29422C96.5604 9.29422 96.3724 9.52922 96.3724 9.76422C96.3724 9.95222 96.5604 10.1872 96.8424 10.2342C97.5944 10.2342 98.4874 10.2342 99.4274 10.2812C97.6884 14.9812 95.7614 21.0912 95.7614 24.7572C95.7614 25.6032 95.9024 26.3552 96.1374 26.8722C96.5604 27.8592 97.6414 28.0002 98.7694 28.0002H99.4744Z" fill="white"/>
<path d="M115.773 28.0002C116.666 27.9532 117.7 26.8722 118.734 25.3682C120.144 23.2532 121.507 20.3392 122.4 18.4122C122.447 18.3182 122.447 18.2712 122.447 18.1772C122.447 18.0362 122.353 17.8952 122.212 17.8012C122.118 17.7542 122.024 17.7542 121.977 17.7542C121.836 17.7542 121.648 17.8012 121.554 18.0362C120.755 19.7752 119.392 22.6422 118.076 24.6632C117.183 26.0262 116.337 27.0132 115.726 27.0602C115.444 27.0602 115.397 26.6372 115.397 25.9792C115.491 22.5952 118.546 14.5112 119.157 13.0072L119.204 12.8192C119.204 12.0672 117.747 11.4092 116.619 11.4092C116.055 11.4092 115.585 11.5972 115.444 11.9732C114.974 13.0072 114.222 14.9812 113.564 17.0962C112.295 20.5272 111.214 22.8772 110.227 24.4282C109.005 26.4022 108.112 27.0602 107.595 27.0602C107.36 27.0602 107.313 26.6372 107.313 25.9792C107.407 22.5952 110.462 14.5112 111.073 13.0072L111.12 12.8192C111.12 12.1142 109.663 11.4092 108.535 11.4092C107.971 11.4092 107.548 11.5972 107.36 11.9732C106.655 13.4772 104.963 18.1302 104.258 21.4202C103.976 22.6892 103.788 23.9582 103.788 24.9452C103.788 25.7442 103.882 26.4022 104.164 26.8722C104.681 27.8592 105.903 28.0002 107.078 28.0002H107.689C108.77 27.9532 109.945 26.5902 110.932 24.9922C111.355 24.3812 111.731 23.7232 112.013 23.1122C111.919 23.7702 111.872 24.3812 111.872 24.9452C111.872 25.7442 111.966 26.4022 112.248 26.8722C112.765 27.8592 113.987 28.0002 115.162 28.0002H115.773Z" fill="white"/>
<path d="M123.89 28.0002C124.877 27.9532 125.911 26.7312 126.428 25.9792C128.026 23.8642 129.577 20.5742 130.564 18.4122C130.611 18.3182 130.611 18.2712 130.611 18.1772C130.611 18.0362 130.517 17.8952 130.376 17.8012C130.282 17.7542 130.188 17.7542 130.141 17.7542C129.953 17.7542 129.812 17.8012 129.718 18.0362C128.778 20.0102 127.18 23.4412 125.723 25.4622C125.441 25.8382 124.548 27.0602 123.937 27.0602H123.843C123.749 27.0602 123.749 26.8722 123.749 26.5902L123.796 25.6502C124.313 20.8092 129.248 7.88422 129.812 6.38022L129.859 6.23922C129.859 5.58122 128.308 4.78222 127.086 4.78222C126.522 4.78222 126.052 4.97022 125.817 5.34622C125.065 7.08522 120.224 19.1172 120.224 24.8512C120.224 25.6502 120.318 26.3552 120.553 26.8722C121.023 27.8592 122.104 28.0002 123.232 28.0002H123.89Z" fill="white"/>
<path d="M133.14 24.4752C132.67 24.4752 132.435 24.0052 132.435 23.2062C132.435 20.4332 135.114 14.0412 137.229 14.0412L137.511 14.0882C138.028 14.2292 138.216 14.7462 138.216 15.4042C138.216 16.4382 137.793 17.7072 137.558 18.3182C137.088 19.4932 134.55 24.4282 133.14 24.4752ZM140.143 28.0002C142.352 27.9062 145.266 21.7492 146.817 18.4122C146.864 18.2712 146.864 18.2712 146.864 18.1772C146.864 17.9892 146.77 17.8482 146.629 17.8012L146.394 17.7542C146.206 17.7542 146.065 17.8012 145.971 18.0362C144.608 20.9972 141.647 27.0132 140.096 27.0602C139.861 27.0602 139.814 26.6372 139.814 25.9792C139.908 22.5952 142.963 14.5112 143.574 13.0072L143.621 12.8192C143.621 12.0672 142.164 11.4092 141.083 11.4092C140.519 11.4092 140.096 11.5502 139.861 11.9262L139.532 12.7722C138.968 11.8792 137.981 11.4562 136.759 11.4562H136.712C132.059 11.4562 128.675 18.0832 128.675 22.7362C128.675 25.1802 129.615 27.0602 131.871 27.1072H131.965C133.798 27.1072 135.302 25.2742 136.383 23.3942C136.336 23.9582 136.289 24.4282 136.289 24.8982C136.289 25.6972 136.383 26.4022 136.665 26.8722C137.182 27.8592 138.404 28.0002 139.579 28.0002H140.143Z" fill="white"/>
<path d="M148.448 28.0002C149.341 27.9532 150.234 26.9192 150.798 26.2612C152.396 24.1462 154.135 20.6682 155.122 18.4122C155.169 18.3182 155.169 18.2242 155.169 18.2242C155.169 18.0362 155.075 17.8952 154.934 17.8012C154.84 17.7542 154.746 17.7542 154.699 17.7542C154.511 17.7542 154.37 17.8012 154.276 18.0362C153.336 20.0572 151.644 23.5352 150.187 25.5092C149.858 25.9322 148.965 27.0602 148.448 27.0602C148.307 27.0602 148.26 26.9662 148.26 26.6372C148.26 25.7912 148.683 23.8642 148.777 23.5822C149.717 19.5872 151.315 14.7462 152.772 10.4222C153.759 10.4222 154.652 10.4222 155.451 10.4692C155.78 10.4692 155.968 10.2342 155.968 9.99922C155.968 9.76422 155.78 9.52922 155.498 9.52922L153.148 9.48222C153.571 8.35422 153.994 7.32022 154.417 6.38022L154.464 6.23922C154.464 5.53422 152.772 4.78222 151.55 4.78222C150.986 4.78222 150.516 4.92322 150.375 5.34622C149.905 6.38022 149.341 7.74322 148.73 9.34122L145.816 9.29422C145.534 9.29422 145.346 9.52922 145.346 9.76422C145.346 9.95222 145.534 10.1872 145.816 10.2342C146.568 10.2342 147.461 10.2342 148.401 10.2812C146.662 14.9812 144.735 21.0912 144.735 24.7572C144.735 25.6032 144.876 26.3552 145.111 26.8722C145.534 27.8592 146.615 28.0002 147.743 28.0002H148.448Z" fill="white"/>
<path d="M156.757 28.0002C158.919 27.9062 161.786 21.7492 163.29 18.4122C163.337 18.3182 163.337 18.2712 163.337 18.1772C163.337 17.9892 163.243 17.8482 163.102 17.8012L162.867 17.7542C162.679 17.7542 162.538 17.8012 162.444 18.0362C161.128 20.9972 158.214 27.0132 156.663 27.0602C156.381 27.0602 156.287 26.7782 156.287 26.2612C156.287 23.3942 159.577 14.0412 159.953 13.0072L160 12.8192C160 12.1142 158.543 11.4092 157.415 11.4092C156.898 11.4092 156.428 11.5972 156.24 11.9732C155.535 13.7122 153.984 17.8952 153.232 21.4202C152.997 22.6422 152.809 23.8172 152.809 24.8042C152.809 25.6502 152.95 26.4022 153.232 26.8722C153.749 27.8592 154.971 28.0002 156.146 28.0002H156.757ZM160.188 9.67022C160.564 9.67022 160.893 9.57622 160.987 9.34122C161.316 8.63622 161.974 6.94422 162.209 6.52122C162.303 6.42722 162.303 6.28622 162.303 6.19222C162.303 5.48722 160.893 4.73522 159.812 4.73522C159.295 4.73522 158.872 4.87622 158.731 5.29922C158.449 5.91022 157.885 7.74322 157.885 8.49522C157.885 9.10622 159.248 9.67022 160.188 9.67022Z" fill="white"/>
<path d="M166.007 26.5432H165.866C165.161 26.4492 164.879 25.6032 164.879 24.4282C164.879 21.0442 167.37 14.6522 169.626 14.2762H169.861C170.472 14.2762 170.754 14.7462 170.895 15.3572C170.002 15.5922 169.156 16.9552 169.156 18.3182C169.156 19.1172 169.438 19.9632 170.19 20.5272C169.673 21.9842 167.84 26.5432 166.007 26.5432ZM165.678 28.0002C168.921 28.0002 171.224 24.2402 172.258 21.2792H172.634C174.514 21.2792 176.488 20.2452 177.428 18.4592C177.475 18.3652 177.475 18.2712 177.475 18.1772C177.475 18.0362 177.428 17.8952 177.287 17.8482C177.193 17.8012 177.099 17.7542 177.005 17.7542C176.864 17.7542 176.723 17.8012 176.629 17.9892C175.83 19.5402 174.138 20.3392 172.587 20.3392C172.916 19.2582 173.198 17.8012 173.198 16.4382C173.198 14.2292 172.54 12.1142 170.284 11.5502C169.861 11.4562 169.485 11.4092 169.109 11.4092C164.738 11.4092 161.495 17.7542 161.495 22.5952C161.495 25.6032 162.717 28.0002 165.678 28.0002Z" fill="white"/>
<path d="M186.205 28.0472L187.521 28.0002C189.307 27.9062 190.341 25.8852 193.631 18.4122C193.678 18.3182 193.678 18.2712 193.678 18.2242C193.678 17.9422 193.443 17.7542 193.161 17.7542C193.02 17.7542 192.879 17.8482 192.785 18.0362C189.495 25.4152 188.649 26.9662 187.474 27.0602C187.239 27.0602 187.192 26.7782 187.192 26.2142C187.192 23.4882 189.448 17.1902 190.106 13.9472L190.153 13.3832C190.153 12.1142 189.166 11.4092 187.991 11.4092C186.017 11.4092 184.043 13.8062 182.633 15.6392C181.787 16.7202 180.988 17.8952 180.283 18.9292C180.424 18.5532 181.975 13.9002 182.351 13.0072L182.398 12.8192C182.398 12.0672 180.847 11.4092 179.719 11.4092C179.155 11.4092 178.685 11.5972 178.544 11.9732C177.369 15.0282 174.596 24.2872 174.596 26.6842C174.643 27.7652 176.147 28.0002 177.275 28.0002H177.51C177.886 28.0002 178.121 27.9532 178.121 27.5302C178.168 26.4492 178.638 24.5692 179.202 22.5012C180.048 21.0442 183.244 15.7802 185.5 13.7592C185.641 13.6182 185.829 13.4772 185.97 13.4772C186.064 13.4772 186.111 13.5712 186.111 13.7122C186.064 14.2762 183.432 21.8902 183.338 25.3212C183.338 27.6712 184.513 28.0472 186.205 28.0472Z" fill="white"/>
<path d="M195.217 28.0002C196.627 28.0002 198.272 27.9062 199.682 26.3552C200.481 25.4622 201.186 24.5222 201.891 23.4412C202.878 21.9372 203.818 20.1982 204.664 18.4122L204.711 18.2242C204.711 18.0362 204.617 17.8952 204.476 17.8012C204.382 17.7542 204.288 17.7542 204.241 17.7542C204.053 17.7542 203.912 17.8012 203.818 17.9892C202.878 20.0102 201.985 21.5612 201.186 22.8302C200.434 23.9582 199.447 25.2272 198.836 25.8852C199.259 25.2272 199.541 24.3812 199.776 23.3002C199.87 22.8302 199.917 22.3602 199.917 21.8902C199.917 19.8692 199.259 17.8952 199.259 15.9212C199.259 14.6992 199.541 13.4302 200.387 12.1612C200.481 12.0672 200.481 11.9262 200.481 11.8322C200.481 11.5972 200.293 11.4092 200.011 11.4092H196.533C195.64 11.4092 193.196 17.1432 192.82 17.9892C192.773 18.0832 192.773 18.2242 192.773 18.3182C192.773 18.5532 192.914 18.6002 193.008 18.6472C193.102 18.6942 193.149 18.6942 193.243 18.6942C193.384 18.6942 193.572 18.6002 193.666 18.4592L195.358 14.7932C195.311 15.1222 195.311 15.4512 195.311 15.7802C195.311 17.8482 195.875 20.4802 195.875 22.7362C195.875 24.0522 195.687 25.2272 195.029 26.0732C194.794 26.3552 194.465 26.5902 194.183 26.5902C194.089 26.5902 193.995 26.5902 193.901 26.4962C193.713 26.3552 193.619 26.1202 193.619 25.7442C193.619 24.7572 194.277 23.1122 195.029 22.5012C195.17 22.4072 195.217 22.2662 195.217 22.1722C195.217 21.5142 193.854 20.5272 192.773 20.5272C192.397 20.5272 192.021 20.6682 191.786 20.9972C191.081 21.9842 190.705 23.1122 190.705 24.1932C190.705 26.2142 192.021 28.0002 194.794 28.0002H195.217Z" fill="white"/>
</svg>
