<svg width="13" height="15" viewBox="0 0 13 15" fill="none" xmlns="http://www.w3.org/2000/svg">
<path d="M12.8005 7.39492C12.8005 7.65999 12.6993 7.92503 12.4973 8.12713L6.13775 14.4866C5.7332 14.8912 5.0773 14.8912 4.67292 14.4866C4.26853 14.0822 4.26853 13.4265 4.67292 13.0219L10.3002 7.39492L4.67311 1.76792C4.26873 1.36337 4.26873 0.707667 4.67311 0.303317C5.0775 -0.101427 5.7334 -0.101427 6.13795 0.303317L12.4975 6.66272C12.6995 6.86491 12.8005 7.12995 12.8005 7.39492Z" fill="white"/>
<g opacity="0.5">
<path d="M6.36681 7.38248C6.36681 7.56848 6.29579 7.75447 6.15404 7.89628L1.69141 12.3589C1.40753 12.6427 0.947271 12.6427 0.663507 12.3589C0.379743 12.0751 0.379743 11.6149 0.663507 11.331L4.61229 7.38248L0.663644 3.4339C0.37988 3.15002 0.37988 2.6899 0.663644 2.40616C0.947408 2.12214 1.40767 2.12214 1.69155 2.40616L6.15418 6.86867C6.29595 7.01056 6.36681 7.19654 6.36681 7.38248Z" fill="white"/>
</g>
</svg>
