<svg width="37" height="38" viewBox="0 0 37 38" fill="none" xmlns="http://www.w3.org/2000/svg">
<circle cx="18.5" cy="18.7988" r="18.5" fill="#5DC658"/>
<path d="M18.536 9.22449C18.6606 8.84122 19.2028 8.84122 19.3273 9.22449L21.3581 15.4745C21.4138 15.6459 21.5735 15.762 21.7537 15.762H28.3254C28.7284 15.762 28.8959 16.2776 28.5699 16.5145L23.2533 20.3773C23.1075 20.4832 23.0465 20.671 23.1022 20.8424L25.1329 27.0924C25.2575 27.4756 24.8188 27.7944 24.4928 27.5575L19.1762 23.6948C19.0304 23.5888 18.833 23.5888 18.6872 23.6948L13.3706 27.5575C13.0445 27.7944 12.6059 27.4756 12.7304 27.0924L14.7612 20.8424C14.8169 20.671 14.7558 20.4832 14.61 20.3773L9.29345 16.5145C8.96742 16.2776 9.13498 15.762 9.53797 15.762H16.1096C16.2899 15.762 16.4496 15.6459 16.5053 15.4745L18.536 9.22449Z" fill="white"/>
</svg>
