<svg width="120" height="99" viewBox="0 0 120 99" fill="none" xmlns="http://www.w3.org/2000/svg">
<g opacity="0.5" clip-path="url(#clip0_807_139913)">
<path d="M98.3957 44.941H20.6508C12.0082 44.941 5.00293 51.9467 5.00293 60.5884C5.00293 69.2306 12.0086 76.2363 20.6503 76.2363H98.3957C107.037 76.2363 114.043 69.2306 114.043 60.5884C114.043 51.9467 107.037 44.941 98.3957 44.941Z" fill="white"/>
<path d="M93.651 84.8519H19.3059C21.6851 84.8519 23.6139 82.9227 23.6139 80.5439C23.6139 78.1647 21.6851 76.2354 19.3059 76.2354H93.6505C91.2709 76.2354 89.3425 78.1651 89.3425 80.5439C89.3425 82.9222 91.2713 84.8519 93.651 84.8519ZM93.8095 84.8519H19.1482C16.0198 84.8519 13.4842 87.3875 13.4842 90.5155C13.4842 93.6435 16.0198 96.1791 19.1482 96.1791H93.8095C96.9375 96.1791 99.4736 93.6435 99.4736 90.5155C99.4736 87.3875 96.9375 84.8519 93.8095 84.8519ZM15.5145 30.4004H11.5092C10.581 30.4004 9.69072 30.7692 9.03434 31.4256C8.37797 32.0819 8.00922 32.9722 8.00922 33.9004C8.00922 34.8287 8.37797 35.7189 9.03434 36.3753C9.69072 37.0317 10.581 37.4004 11.5092 37.4004H15.5145C16.4428 37.4004 17.333 37.0317 17.9894 36.3753C18.6458 35.7189 19.0145 34.8287 19.0145 33.9004C19.0145 32.9722 18.6458 32.0819 17.9894 31.4256C17.333 30.7692 16.4428 30.4004 15.5145 30.4004ZM115.738 94.5212C117.95 92.3093 117.95 88.723 115.738 86.5111C113.526 84.2991 109.94 84.2991 107.728 86.5111C105.516 88.723 105.516 92.3093 107.728 94.5212C109.94 96.7332 113.526 96.7332 115.738 94.5212Z" fill="white"/>
<path d="M30.4296 22.0701L31.039 23.7837C31.0651 23.8571 31.1167 23.9152 31.182 23.9446L32.7044 24.6305C32.9194 24.7274 32.9194 25.0701 32.7044 25.1671L31.182 25.853C31.1167 25.8824 31.0651 25.9405 31.039 26.0139L30.4296 27.7274C30.3436 27.9695 30.039 27.9695 29.953 27.7274L29.3436 26.0139C29.3175 25.9405 29.2658 25.8823 29.2006 25.853L27.6782 25.1671C27.4631 25.0702 27.4631 24.7275 27.6782 24.6305L29.2006 23.9446C29.2658 23.9152 29.3175 23.8571 29.3436 23.7837L29.953 22.0701C30.039 21.828 30.3435 21.828 30.4296 22.0701Z" fill="#FED330"/>
<path d="M86.7395 27.4027L87.4126 29.2956C87.4414 29.3766 87.4985 29.4409 87.5705 29.4733L89.2521 30.231C89.4897 30.338 89.4897 30.7165 89.2521 30.8237L87.5705 31.5813C87.4985 31.6138 87.4414 31.678 87.4126 31.759L86.7395 33.6518C86.6444 33.9192 86.308 33.9192 86.2129 33.6518L85.5398 31.759C85.511 31.678 85.4539 31.6137 85.3819 31.5813L83.7003 30.8237C83.4627 30.7166 83.4627 30.3381 83.7003 30.231L85.3819 29.4733C85.4539 29.4409 85.511 29.3766 85.5398 29.2956L86.2129 27.4027C86.308 27.1354 86.6443 27.1354 86.7395 27.4027Z" fill="#FED330"/>
<circle cx="64.1021" cy="59.0991" r="19.9444" fill="white" stroke="#EDEDED" stroke-width="0.761509"/>
</g>
<path d="M54.2712 28.2818C53.1382 28.2818 52.2197 27.3637 52.2192 26.2309C52.2192 26.1724 52.1948 20.3261 50.6247 14.614C48.7078 7.64021 45.4977 4.10411 41.0834 4.10411C37.139 4.10411 35.3735 6.45193 35.3735 8.77882C35.3735 11.9609 38.5359 15.3858 45.4793 15.3858C46.6126 15.3858 47.5313 16.3045 47.5313 17.4378C47.5313 18.5711 46.6126 19.4899 45.4793 19.4899C36.5308 19.4899 31.2693 14.5135 31.2693 8.77882C31.2693 4.41629 34.6403 0 41.0834 0C45.5585 0 51.5367 2.35973 54.6024 13.601C56.3037 19.8388 56.3233 25.9718 56.3233 26.2298C56.3233 27.363 55.4045 28.2818 54.2712 28.2818Z" fill="#F3F9FF"/>
<path d="M5.33322 52.2396L6.449 55.3772C6.49682 55.5115 6.59136 55.618 6.71077 55.6718L9.49832 56.9278C9.89212 57.1052 9.89212 57.7326 9.49832 57.9102L6.71077 59.1662C6.59136 59.2199 6.49682 59.3263 6.449 59.4607L5.33322 62.5983C5.17565 63.0415 4.61803 63.0415 4.46045 62.5983L3.34467 59.4607C3.29685 59.3263 3.20231 59.2198 3.08291 59.1662L0.295349 57.9102C-0.0984495 57.7328 -0.0984495 57.1053 0.295349 56.9278L3.08291 55.6718C3.20231 55.618 3.29685 55.5115 3.34467 55.3772L4.46045 52.2396C4.61803 51.7963 5.17551 51.7963 5.33322 52.2396Z" fill="#FFC54D"/>
<path d="M98.516 43.4841L99.6317 46.6218C99.6796 46.7561 99.7741 46.8626 99.8935 46.9164L102.681 48.1724C103.075 48.3498 103.075 48.9772 102.681 49.1548L99.8935 50.4107C99.7741 50.4645 99.6796 50.5709 99.6317 50.7052L98.516 53.8428C98.3584 54.2861 97.8008 54.2861 97.6432 53.8428L96.5274 50.7052C96.4796 50.5709 96.385 50.4644 96.2656 50.4107L93.4781 49.1548C93.0843 48.9773 93.0843 48.3499 93.4781 48.1724L96.2656 46.9164C96.385 46.8626 96.4796 46.7561 96.5274 46.6218L97.6432 43.4841C97.8008 43.0409 98.3583 43.0409 98.516 43.4841Z" fill="#FFC54D"/>
<circle cx="61.6009" cy="61.6006" r="20.3251" stroke="#D72937" stroke-opacity="0.6" stroke-width="0.761509" stroke-linecap="round" stroke-dasharray="1.52 1.52"/>
<path d="M61.9141 53.1554C61.6448 53.1554 61.4265 52.8405 61.4265 52.4521V48.2327C61.4265 47.8443 61.6448 47.5294 61.9141 47.5294C62.1834 47.5294 62.4017 47.8443 62.4017 48.2327V52.4521C62.4017 52.8405 62.1834 53.1554 61.9141 53.1554Z" fill="#F0C419"/>
<path d="M65.327 53.8586C65.0577 53.8586 64.8394 53.5437 64.8394 53.1554V48.2327C64.8394 47.8443 65.0577 47.5294 65.327 47.5294C65.5963 47.5294 65.8146 47.8443 65.8146 48.2327V53.1554C65.8146 53.5437 65.5963 53.8586 65.327 53.8586Z" fill="#F0C419"/>
<path d="M68.7401 55.9684C68.4708 55.9684 68.2525 55.6535 68.2525 55.2652V52.4522C68.2525 52.0638 68.4708 51.7489 68.7401 51.7489C69.0094 51.7489 69.2277 52.0638 69.2277 52.4522V55.2652C69.2277 55.6535 69.0094 55.9684 68.7401 55.9684Z" fill="#F0C419"/>
<path d="M68.7401 50.3424C68.4708 50.3424 68.2525 50.0275 68.2525 49.6392V48.2327C68.2525 47.8443 68.4708 47.5294 68.7401 47.5294C69.0094 47.5294 69.2277 47.8443 69.2277 48.2327V49.6392C69.2277 50.0275 69.0094 50.3424 68.7401 50.3424Z" fill="#F0C419"/>
<path d="M72.1534 67.9235C71.8841 67.9235 71.6658 67.6086 71.6658 67.2203V51.7489C71.6658 51.3605 71.8841 51.0457 72.1534 51.0457C72.4227 51.0457 72.641 51.3605 72.641 51.7489V67.2203C72.641 67.6086 72.4227 67.9235 72.1534 67.9235Z" fill="#F0C419"/>
<path d="M58.5006 53.8586C58.2313 53.8586 58.013 53.5437 58.013 53.1554V48.2327C58.013 47.8443 58.2313 47.5294 58.5006 47.5294C58.7699 47.5294 58.9882 47.8443 58.9882 48.2327V53.1554C58.9882 53.5437 58.7699 53.8586 58.5006 53.8586Z" fill="#F0C419"/>
<path d="M55.0874 55.9684C54.8182 55.9684 54.5999 55.6535 54.5999 55.2652V52.4522C54.5999 52.0638 54.8182 51.7489 55.0874 51.7489C55.3567 51.7489 55.575 52.0638 55.575 52.4522V55.2652C55.575 55.6535 55.3567 55.9684 55.0874 55.9684Z" fill="#F0C419"/>
<path d="M55.0874 50.3424C54.8182 50.3424 54.5999 50.0275 54.5999 49.6392V48.2327C54.5999 47.8443 54.8182 47.5294 55.0874 47.5294C55.3567 47.5294 55.575 47.8443 55.575 48.2327V49.6392C55.575 50.0275 55.3567 50.3424 55.0874 50.3424Z" fill="#F0C419"/>
<path d="M51.6745 67.9235C51.4053 67.9235 51.187 67.6086 51.187 67.2203V51.7489C51.187 51.3605 51.4053 51.0457 51.6745 51.0457C51.9438 51.0457 52.1621 51.3605 52.1621 51.7489V67.2203C52.1621 67.6086 51.9438 67.9235 51.6745 67.9235Z" fill="#F0C419"/>
<path d="M61.9134 76.2973C68.3763 76.2973 73.6155 71.0581 73.6155 64.5952C73.6155 58.1322 68.3763 52.893 61.9134 52.893C55.4504 52.893 50.2112 58.1322 50.2112 64.5952C50.2112 71.0581 55.4504 76.2973 61.9134 76.2973Z" fill="#FEDC95"/>
<path d="M62.8073 57.8635L64.1501 60.6944C64.29 60.9983 64.5718 61.2126 64.902 61.2663L67.8812 61.7159C68.2679 61.7928 68.581 62.0761 68.6961 62.4533C68.8112 62.8304 68.7096 63.2403 68.4317 63.52L66.2946 65.6859C66.0529 65.935 65.9443 66.2842 66.002 66.6264L66.5091 69.6983C66.5908 70.0792 66.4467 70.4733 66.1384 70.7115C65.8301 70.9498 65.4124 70.99 65.0644 70.8148L62.3729 69.3438C62.0865 69.1863 61.7396 69.1863 61.4533 69.3438L58.7618 70.8148C58.4137 70.99 57.996 70.9498 57.6877 70.7115C57.3794 70.4733 57.2353 70.0792 57.317 69.6983L57.8241 66.6264C57.8819 66.2842 57.7732 65.935 57.5316 65.6859L55.3945 63.52C55.1165 63.2403 55.0149 62.8304 55.13 62.4533C55.2451 62.0761 55.5582 61.7928 55.945 61.7159L58.9241 61.2663C59.2547 61.2129 59.5369 60.9985 59.677 60.6944L61.0198 57.8664C61.1743 57.5108 61.5248 57.2805 61.9126 57.2798C62.3003 57.2792 62.6516 57.5083 62.8073 57.8635Z" fill="#F29C1F"/>
<defs>
<clipPath id="clip0_807_139913">
<rect width="114.997" height="78.8426" fill="white" transform="translate(5.00305 19.9579)"/>
</clipPath>
</defs>
</svg>
