<svg width="24" height="24" viewBox="0 0 24 24" fill="none" xmlns="http://www.w3.org/2000/svg">
<g opacity="0.3">
<circle cx="12" cy="12" r="12" fill="#808080"/>
</g>
<g clip-path="url(#clip0_3805_163281)">
<path d="M17.7601 14.7434L13.556 7.46153C12.8693 6.25859 11.1328 6.25859 10.4486 7.46153L6.24205 14.7434C5.55536 15.9463 6.41002 17.4407 7.79574 17.4407H16.1916C17.5773 17.4407 18.4468 15.9315 17.7601 14.7434ZM11.9998 15.8253C11.6343 15.8253 11.3305 15.5215 11.3305 15.1559C11.3305 14.7903 11.6343 14.4865 11.9998 14.4865C12.3654 14.4865 12.6692 14.7903 12.6544 15.1732C12.6717 15.5215 12.3506 15.8253 11.9998 15.8253ZM12.61 11.4977C12.5803 12.0164 12.5482 12.5326 12.5186 13.0514C12.5037 13.2193 12.5037 13.3725 12.5037 13.538C12.4889 13.8121 12.274 14.0246 11.9998 14.0246C11.7257 14.0246 11.5132 13.827 11.4959 13.5528C11.4515 12.7451 11.4046 11.9522 11.3601 11.1444C11.3453 10.932 11.3305 10.7171 11.3132 10.5047C11.3132 10.1539 11.5108 9.86493 11.8319 9.77354C12.153 9.69697 12.4716 9.85011 12.61 10.1539C12.6569 10.2601 12.6717 10.3664 12.6717 10.4899C12.6569 10.8283 12.6248 11.1642 12.61 11.4977Z" fill="white"/>
</g>
<defs>
<clipPath id="clip0_3805_163281">
<rect width="12" height="12" fill="white" transform="translate(6 6)"/>
</clipPath>
</defs>
</svg>
