<svg width="113" height="60" viewBox="0 0 113 60" fill="none" xmlns="http://www.w3.org/2000/svg">
<g clip-path="url(#clip0_1221_18746)">
<path d="M19.3701 48.6868L41.4607 54.7369L38.8101 46.0173L19.3701 48.6868Z" fill="url(#paint0_linear_1221_18746)"/>
<g style="mix-blend-mode:multiply" opacity="0.1">
<path opacity="0.02" d="M19.2284 48.7883C19.6881 48.9072 90.3135 59.5183 95.4109 59.5979C100.508 59.6774 122.909 8.43566 105.731 4.42331C97.8917 2.59543 7.59326 20.4941 7.59326 20.4941L19.2284 48.7883Z" fill="#F9F9F9"/>
<path opacity="0.04" d="M19.244 48.7551C19.703 48.8725 89.9989 59.157 95.1321 59.1959C100.266 59.2348 122.292 8.75403 105.415 4.81521C97.6228 3.00196 7.64453 20.6397 7.64453 20.6397L19.244 48.7547V48.7551Z" fill="#F4F4F4"/>
<path opacity="0.07" d="M19.2571 48.7217C19.7158 48.8377 89.6815 58.7953 94.851 58.7938C100.021 58.792 121.672 9.07224 105.097 5.20659C97.351 3.40833 7.69336 20.7855 7.69336 20.7855L19.2571 48.7217Z" fill="#EEEEEE"/>
<path opacity="0.09" d="M19.2727 48.6887C19.7306 48.8032 89.3666 58.4342 94.5722 58.3917C99.7774 58.3496 121.054 9.39039 104.781 5.59791C97.0822 3.81536 7.74463 20.9317 7.74463 20.9317L19.2727 48.6887Z" fill="#E9E9E9"/>
<path opacity="0.11" d="M19.2874 48.6553C19.745 48.7688 89.0511 58.0724 94.2924 57.9896C99.5337 57.9068 120.436 9.70896 104.464 5.9893C96.8121 4.22174 7.79541 21.0775 7.79541 21.0775L19.2878 48.6556L19.2874 48.6553Z" fill="#E3E3E3"/>
<path opacity="0.13" d="M19.3029 48.6224C19.7597 48.7344 88.736 57.7114 94.0137 57.5879C99.2911 57.4644 119.818 10.0276 104.149 6.38114C96.5427 4.62893 7.84619 21.2237 7.84619 21.2237L19.3025 48.6227L19.3029 48.6224Z" fill="#DEDEDE"/>
<path opacity="0.15" d="M19.3161 48.5894C19.7727 48.7 88.4191 57.3501 93.7325 57.1859C99.0459 57.0217 119.198 10.3459 103.831 6.77257C96.2714 5.03534 7.89551 21.3692 7.89551 21.3692L19.3161 48.589V48.5894Z" fill="#D8D8D8"/>
<path opacity="0.17" d="M19.3312 48.5562C19.787 48.6655 88.1037 56.9886 93.4531 56.784C98.8026 56.5795 118.58 10.6647 103.514 7.16452C96.0021 5.44229 7.94629 21.5153 7.94629 21.5153L19.3312 48.5562Z" fill="#D3D3D3"/>
<path opacity="0.2" d="M19.3468 48.5232C19.8022 48.6313 87.7887 56.6275 93.1742 56.3819C98.5597 56.1367 117.963 10.9828 103.198 7.55588C95.7328 5.84899 7.99756 21.6614 7.99756 21.6614L19.3468 48.5232Z" fill="#CDCDCD"/>
<path opacity="0.22" d="M19.3619 48.4899C19.817 48.5966 87.4737 56.2658 92.8952 55.9799C98.3168 55.694 117.345 11.3012 102.882 7.94735C95.4634 6.25546 8.04834 21.8073 8.04834 21.8073L19.3619 48.4899Z" fill="#C8C8C8"/>
<path opacity="0.24" d="M19.3751 48.4568C19.8295 48.5621 87.1564 55.9047 92.614 55.5781C98.0716 55.2515 116.732 11.5914 102.564 8.33899C95.1954 6.64746 8.09766 21.9534 8.09766 21.9534L19.3751 48.4571V48.4568Z" fill="#C2C2C2"/>
<path opacity="0.26" d="M19.3906 48.4234C19.8446 48.5273 86.8413 55.5429 92.335 55.176C97.8286 54.8087 116.114 11.9079 102.248 8.7304C94.9264 7.05278 8.14844 22.0988 8.14844 22.0988L19.3902 48.4234H19.3906Z" fill="#BCBCBC"/>
<path opacity="0.28" d="M19.4053 48.3902C19.8586 48.4927 86.5259 55.1817 92.0556 54.7737C97.5853 54.3661 115.496 12.2241 101.931 9.1216C94.6566 7.45827 8.19922 22.2448 8.19922 22.2448L19.4053 48.3902Z" fill="#B7B7B7"/>
<path opacity="0.3" d="M19.4209 48.3576C19.8738 48.4589 86.2109 54.8207 91.7767 54.3723C97.3424 53.924 114.879 12.5416 101.615 9.51404C94.3881 7.86427 8.25049 22.391 8.25049 22.391L19.4209 48.3576Z" fill="#B1B1B1"/>
<path opacity="0.33" d="M19.434 48.3243C19.8863 48.4243 85.8935 54.4594 91.4953 53.9701C97.0971 53.481 114.259 12.8582 101.297 9.90523C94.1163 8.26973 8.29932 22.5369 8.29932 22.5369L19.434 48.3243Z" fill="#ACACAC"/>
<path opacity="0.35" d="M19.4496 48.291C19.9015 48.3895 85.579 54.0977 91.2168 53.568C96.8547 53.0383 113.643 13.175 100.981 10.2967C93.8478 8.6751 8.35059 22.6828 8.35059 22.6828L19.4496 48.291Z" fill="#A6A6A6"/>
<path opacity="0.37" d="M19.4643 48.2578C19.9155 48.3549 85.2632 53.7361 90.9371 53.1661C96.611 52.5961 113.024 13.4923 100.664 10.6882C93.5781 9.08092 8.40137 22.8284 8.40137 22.8284L19.4643 48.2578Z" fill="#A1A1A1"/>
<path opacity="0.39" d="M19.4798 48.2247C19.9306 48.3204 84.9484 53.375 90.658 52.7639C96.368 52.1532 112.407 13.8094 100.348 11.0795C93.309 9.48613 8.45215 22.9741 8.45215 22.9741L19.4794 48.2244L19.4798 48.2247Z" fill="#9B9B9B"/>
<path opacity="0.41" d="M19.4934 48.1914C19.9435 48.286 84.6315 53.0133 90.3772 52.3619C96.1228 51.7105 111.787 14.127 100.03 11.4713C93.0378 9.89187 8.50146 23.1204 8.50146 23.1204L19.493 48.1918L19.4934 48.1914Z" fill="#969696"/>
<path opacity="0.43" d="M19.5081 48.1584C19.9579 48.2516 84.3157 52.6523 90.0978 51.9602C95.8795 51.2681 111.17 14.4448 99.7134 11.8631C92.7684 10.2979 8.55225 23.2662 8.55225 23.2662L19.5081 48.1584Z" fill="#909090"/>
<path opacity="0.46" d="M19.5232 48.1254C19.9726 48.2171 84.0007 52.2909 89.8184 51.5581C95.6362 50.8253 110.552 14.7623 99.3969 12.2545C92.499 10.7036 8.60303 23.412 8.60303 23.412L19.5232 48.125V48.1254Z" fill="#8B8B8B"/>
<path opacity="0.48" d="M19.5388 48.092C19.9875 48.1823 83.6857 51.9294 89.5395 51.1559C95.3933 50.3828 109.934 15.0801 99.0808 12.6458C92.2298 11.1092 8.6543 23.5578 8.6543 23.5578L19.5388 48.092Z" fill="#858585"/>
<path opacity="0.5" d="M19.5535 48.0591C20.0018 48.148 83.3699 51.5681 89.2601 50.7543C95.15 49.9405 109.316 15.3985 98.7647 13.0377C91.9607 11.5153 8.70508 23.7041 8.70508 23.7041L19.5535 48.0591Z" fill="#7F7F7F"/>
<path opacity="0.52" d="M19.5671 48.0259C20.0147 48.1133 83.0534 51.2069 88.9793 50.3524C94.9052 49.4979 108.697 15.7168 98.4467 13.4296C91.6895 11.9215 8.75439 23.8504 8.75439 23.8504L19.5671 48.0262V48.0259Z" fill="#7A7A7A"/>
<path opacity="0.54" d="M19.5822 47.9926C20.0295 48.079 82.7379 50.8452 88.6999 49.95C94.6618 49.0548 108.078 16.0348 98.1302 13.8207C91.4201 12.3273 8.80518 23.9956 8.80518 23.9956L19.5822 47.9926Z" fill="#747474"/>
<path opacity="0.57" d="M19.597 47.9594C20.0435 48.0444 82.4221 50.4837 88.4205 49.5482C94.4185 48.6126 107.46 16.3536 97.8137 14.2123C91.1504 12.7335 8.85596 24.1416 8.85596 24.1416L19.5973 47.9594H19.597Z" fill="#6F6F6F"/>
<path opacity="0.59" d="M19.6129 47.9267C20.0591 48.0102 82.1079 50.1229 88.142 49.1463C94.176 48.1701 106.843 16.6724 97.498 14.6039C90.8818 13.1394 8.90723 24.2877 8.90723 24.2877L19.6129 47.9263V47.9267Z" fill="#696969"/>
<path opacity="0.61" d="M19.626 47.8934C20.0718 47.9755 81.7905 49.7612 87.8606 48.7443C93.9307 47.7274 106.223 16.991 97.1796 14.9954C90.6101 13.5459 8.95605 24.4336 8.95605 24.4336L19.626 47.8934Z" fill="#646464"/>
<path opacity="0.63" d="M19.6416 47.8602C20.0867 47.9412 81.4759 49.4 87.5817 48.3424C93.6879 47.2848 105.605 17.3101 96.8635 15.387C90.3409 13.9521 9.00732 24.5796 9.00732 24.5796L19.6412 47.8602H19.6416Z" fill="#5E5E5E"/>
<path opacity="0.65" d="M19.6563 47.827C20.1011 47.9066 81.1601 49.0384 87.3023 47.9401C93.4445 46.8418 104.987 17.6292 96.547 15.7785C90.0715 14.3586 9.05811 24.7252 9.05811 24.7252L19.6563 47.827Z" fill="#595959"/>
<path opacity="0.67" d="M19.6719 47.7938C20.1159 47.872 80.8452 48.6769 87.0234 47.5382C93.2017 46.3992 104.369 17.9483 96.231 16.1701C89.8022 14.7652 9.10938 24.8712 9.10938 24.8712L19.6719 47.7938Z" fill="#535353"/>
<path opacity="0.7" d="M19.6854 47.7606C20.1291 47.8373 80.5285 48.3156 86.7424 47.1363C92.9568 45.957 103.749 18.2682 95.9129 16.5616C89.5309 15.1717 9.1582 25.0172 9.1582 25.0172L19.685 47.7606H19.6854Z" fill="#4E4E4E"/>
<path opacity="0.72" d="M19.7006 47.7274C20.1436 47.8027 80.2132 47.9541 86.4635 46.7341C92.7139 45.514 103.131 18.5876 95.5969 16.9529C89.2616 15.5783 9.20947 25.1628 9.20947 25.1628L19.7006 47.7274Z" fill="#484848"/>
<path opacity="0.74" d="M19.7157 47.6944C20.1583 47.7683 79.8978 47.593 86.1842 46.3323C92.4706 45.0716 102.512 18.908 95.2804 17.3446C88.9918 15.9854 9.26025 25.3086 9.26025 25.3086L19.7157 47.694V47.6944Z" fill="#434343"/>
<path opacity="0.76" d="M19.7288 47.6614C20.1707 47.7342 79.5807 47.2317 85.9028 45.9306C92.2249 44.6292 101.892 19.2284 94.9619 17.7367C88.7201 16.3932 9.30908 25.4552 9.30908 25.4552L19.7285 47.6614H19.7288Z" fill="#3D3D3D"/>
<path opacity="0.78" d="M19.7441 47.6283C20.1856 47.6997 79.2654 46.8705 85.6239 45.5285C91.9821 44.1867 101.274 19.5483 94.6459 18.128C88.4505 16.8002 9.36035 25.6009 9.36035 25.6009L19.7441 47.6283Z" fill="#373737"/>
<path opacity="0.8" d="M19.7595 47.595C20.2003 47.6649 78.9507 46.5088 85.3449 45.1264C91.7391 43.744 100.655 19.869 94.3298 18.5194C88.1811 17.2077 9.41113 25.7467 9.41113 25.7467L19.7592 47.595H19.7595Z" fill="#323232"/>
<path opacity="0.83" d="M19.7742 47.5619C20.2147 47.6304 78.6349 46.1473 85.0651 44.7246C91.4954 43.3014 100.037 20.19 94.0132 18.9111C87.911 17.6158 9.46191 25.8928 9.46191 25.8928L19.7742 47.5619Z" fill="#2C2C2C"/>
<path opacity="0.85" d="M19.7898 47.5284C20.2299 47.5955 78.32 45.7858 84.7863 44.322C91.2526 42.8582 99.4183 20.5103 93.6972 19.302C87.6418 18.0231 9.51318 26.0378 9.51318 26.0378L19.7898 47.528V47.5284Z" fill="#272727"/>
<path opacity="0.87" d="M19.8026 47.4959C20.242 47.5619 78.0026 45.4249 84.5049 43.9208C91.0073 42.4163 98.7975 20.8322 93.3788 19.6943C87.3697 18.4325 9.56201 26.1845 9.56201 26.1845L19.8029 47.4955L19.8026 47.4959Z" fill="#212121"/>
<path opacity="0.89" d="M19.8182 47.4626C20.2572 47.5272 77.6876 45.0636 84.226 43.5188C90.7644 41.974 98.1795 21.1537 93.0627 20.0861C87.0997 18.8418 9.61328 26.3308 9.61328 26.3308L19.8182 47.463V47.4626Z" fill="#1C1C1C"/>
<path opacity="0.91" d="M19.8333 47.4294C20.2716 47.4926 77.3721 44.702 83.947 43.1165C90.5214 41.531 97.561 21.4749 92.7466 20.4773C86.83 19.2508 9.66406 26.4763 9.66406 26.4763L19.8333 47.4294Z" fill="#161616"/>
<path opacity="0.93" d="M19.8483 47.3962C20.2863 47.4579 77.0571 44.3404 83.6676 42.7146C90.2781 41.0884 96.9422 21.7972 92.4301 20.8688C86.5595 19.661 9.71484 26.6223 9.71484 26.6223L19.8483 47.3962Z" fill="#111111"/>
<path opacity="0.96" d="M19.862 47.3632C20.2992 47.4238 76.7402 43.9794 83.3867 42.3128C90.0333 40.6459 96.3201 22.1279 92.1121 21.2606C86.2851 20.0838 9.76416 26.7681 9.76416 26.7681L19.862 47.3632Z" fill="#0B0B0B"/>
<path opacity="0.98" d="M19.877 47.3296C20.3139 47.3889 76.4251 43.6175 83.1073 41.9102C89.79 40.2026 95.7019 22.4456 91.7956 21.6514C86.0153 20.4896 9.81494 26.9134 9.81494 26.9134L19.877 47.3293V47.3296Z" fill="#060606"/>
<path d="M19.8923 47.2966C20.3284 47.3544 76.1098 43.2564 82.8285 41.5084C89.5471 39.7605 95.0843 22.7642 91.4796 22.0435C85.7461 20.8967 9.86621 27.0599 9.86621 27.0599L19.8926 47.2966H19.8923Z" fill="black"/>
</g>
<path d="M94.3817 41.2994L98.5614 10.6976L9.14893 19.9916L19.367 48.6702L94.3817 41.2994Z" fill="#DD1E42"/>
<path d="M26.0991 6.57089L32.438 2.08988L29.1413 0L26.0991 6.57089Z" fill="#DD1E42"/>
<path d="M7.57514 47.0485L1.99512 54.2019L5.47134 56.4877L7.57514 47.0485Z" fill="#DD1E42"/>
<path d="M26.7407 7.76164L30.091 6.27892L31.331 7.95332L26.7407 7.76164Z" fill="#DD1E42"/>
<path d="M9.53223 48.0606L9.9991 56.0486L13.6238 54.3031L9.53223 48.0606Z" fill="#DD1E42"/>
<path d="M5.53621 47.0919L2.8324 49.7282L1.03271 48.5564L5.53621 47.0919Z" fill="#DD1E42"/>
<path fill-rule="evenodd" clip-rule="evenodd" d="M10.8294 19.5135C6.31523 19.5285 1.6661 15.8884 4.2068 13.0379C7.44851 9.40103 14.4088 18.3395 14.4088 18.3395L15.0592 18.1974C14.5459 13.8735 13.7681 7.98827 17.8072 6.65938C24.2346 4.54488 25.4786 13.892 17.3935 17.6602C13.938 19.582 10.8291 19.5135 10.8291 19.5135H10.8294Z" fill="white" stroke="#DD1E42" stroke-width="1.10429" stroke-linecap="round" stroke-linejoin="round"/>
<path fill-rule="evenodd" clip-rule="evenodd" d="M9.93865 43.7512C9.49676 43.7512 9.08949 43.4614 8.96064 43.0152L3.50768 24.1674C3.35134 23.627 3.66259 23.0619 4.203 22.9056L26.6673 16.4061C26.7601 16.3793 26.8554 16.3661 26.9504 16.3661C27.121 16.3661 27.2902 16.409 27.4422 16.4928C27.6789 16.6231 27.8541 16.8423 27.9291 17.1018L33.382 35.9499C33.5384 36.4903 33.2271 37.0554 32.6867 37.2117L10.2224 43.7109C10.1278 43.7383 10.0325 43.7512 9.93901 43.7512H9.93865Z" fill="white"/>
<path d="M26.9508 17.3848L32.4037 36.233L9.93941 42.7321L4.4861 23.8843L26.9504 17.3848M26.9504 15.3474C26.7605 15.3474 26.5699 15.3738 26.3843 15.4277L3.92 21.9272C2.83919 22.2399 2.21633 23.3696 2.52901 24.4504L7.98196 43.2986C8.24003 44.1902 9.05421 44.7703 9.93799 44.7703C10.1254 44.7703 10.316 44.7442 10.5052 44.6896L32.9695 38.1904C34.0503 37.8778 34.6731 36.7481 34.3605 35.6672L28.9075 16.8191C28.7572 16.3001 28.4071 15.8618 27.9338 15.6012C27.6297 15.4338 27.2913 15.3481 26.9501 15.3481L26.9504 15.3474Z" fill="#DD1E42"/>
<path fill-rule="evenodd" clip-rule="evenodd" d="M3.34221 29.4204C3.18087 29.4204 3.02097 29.3801 2.87712 29.3009C2.65332 29.1774 2.4877 28.9703 2.41667 28.7248L1.00105 23.8318C0.853276 23.3207 1.14775 22.7864 1.65889 22.6386L28.6756 14.8223C28.7634 14.797 28.8533 14.7845 28.9433 14.7845C29.1046 14.7845 29.2645 14.8248 29.4084 14.9041C29.6322 15.0276 29.7978 15.2346 29.8688 15.4802L31.2845 20.3731C31.4322 20.8842 31.1378 21.4186 30.6266 21.5663L3.60992 29.3822C3.52211 29.4076 3.43216 29.4201 3.34221 29.4201V29.4204Z" fill="white"/>
<path d="M28.9439 15.7481L30.3595 20.6411L3.34282 28.4573L1.9272 23.5644L28.9439 15.7481ZM28.9439 13.8214C28.7644 13.8214 28.5841 13.8464 28.4085 13.8974L1.39179 21.7137C0.36952 22.0096 -0.219429 23.0779 0.0764729 24.1002L1.49209 28.9931C1.63415 29.4839 1.96539 29.8983 2.41299 30.1449C2.70033 30.3034 3.02086 30.3844 3.34318 30.3844C3.52272 30.3844 3.70297 30.3594 3.87859 30.3084L30.8953 22.4921C31.9176 22.1962 32.5065 21.1279 32.2106 20.1056L30.795 15.2127C30.6529 14.7219 30.3217 14.3075 29.8741 14.0609C29.5868 13.9024 29.2662 13.8214 28.9439 13.8214Z" fill="#DD1E42"/>
<path d="M18.2845 17.8625L12.0728 19.6601L18.0688 40.3798L24.2806 38.5821L18.2845 17.8625Z" fill="#DD1E42"/>
<g filter="url(#filter0_d_1221_18746)">
<path d="M41.8551 37.8981L43.5203 37.713L42.8351 31.5495L48.9986 30.8643L48.8327 29.3721L42.6692 30.0573L42.0225 24.2398L49.3106 23.4297L49.1447 21.9374L40.1914 22.9328L41.8551 37.8981Z" fill="white"/>
<path d="M53.2384 36.6326L54.9036 36.4475L54.2665 30.7166L58.5053 30.2454L61.8457 35.6758L63.6839 35.4714L60.132 29.7142C61.9462 28.8995 62.6405 27.2679 62.3953 25.062C62.0443 21.9046 60.2469 20.7032 57.1111 21.0518L51.5747 21.6673L53.2384 36.6326ZM54.1031 29.246L53.4034 22.9528L57.2745 22.5224C59.3507 22.2916 60.4368 23.1999 60.6676 25.276C60.8744 27.1358 60.2233 28.5656 57.9958 28.8132L54.1031 29.246Z" fill="white"/>
<path d="M66.5647 35.1512L75.6694 34.139L75.5035 32.6468L68.0641 33.4739L67.4654 28.0889L73.6073 27.4061L73.4438 25.9356L67.302 26.6183L66.7322 21.4929L74.1716 20.6659L74.0057 19.1737L64.9011 20.1858L66.5647 35.1512Z" fill="white"/>
<path d="M78.5183 33.8223L87.6229 32.8102L87.457 31.318L80.0176 32.145L79.419 26.7601L85.5608 26.0773L85.3974 24.6067L79.2555 25.2895L78.6857 20.1641L86.1251 19.337L85.9593 17.8448L76.8546 18.857L78.5183 33.8223Z" fill="white"/>
</g>
</g>
<defs>
<filter id="filter0_d_1221_18746" x="39.7649" y="17.8448" width="48.2848" height="20.9064" filterUnits="userSpaceOnUse" color-interpolation-filters="sRGB">
<feFlood flood-opacity="0" result="BackgroundImageFix"/>
<feColorMatrix in="SourceAlpha" type="matrix" values="0 0 0 0 0 0 0 0 0 0 0 0 0 0 0 0 0 0 127 0" result="hardAlpha"/>
<feOffset dy="0.426555"/>
<feGaussianBlur stdDeviation="0.213277"/>
<feComposite in2="hardAlpha" operator="out"/>
<feColorMatrix type="matrix" values="0 0 0 0 0 0 0 0 0 0 0 0 0 0 0 0 0 0 0.25 0"/>
<feBlend mode="normal" in2="BackgroundImageFix" result="effect1_dropShadow_1221_18746"/>
<feBlend mode="normal" in="SourceGraphic" in2="effect1_dropShadow_1221_18746" result="shape"/>
</filter>
<linearGradient id="paint0_linear_1221_18746" x1="42.0325" y1="53.3609" x2="26.7684" y2="46.2743" gradientUnits="userSpaceOnUse">
<stop stop-color="#FF004B"/>
<stop offset="1" stop-color="#640023"/>
</linearGradient>
<clipPath id="clip0_1221_18746">
<rect width="112.544" height="60" fill="white"/>
</clipPath>
</defs>
</svg>
