<svg width="11" height="11" viewBox="0 0 11 11" fill="none" xmlns="http://www.w3.org/2000/svg">
<path d="M5.43708 0C6.25963 0.481923 6.45028 1.15274 6.15494 1.83983C5.95125 2.36563 5.69353 2.90274 5.34683 3.34472C4.18014 4.72554 2.87137 5.93708 1.25992 6.84231C0.970168 7.01658 0.662018 7.22309 0.26955 6.90713C-0.0871648 6.61212 -0.0294003 6.25892 0.099986 5.94764C0.266057 5.57183 0.432009 5.19603 0.669586 4.86213C1.96659 3.08454 3.5487 1.56005 5.23805 0.0984298C5.2207 0.0452245 5.29314 0.00165079 5.43708 0Z" fill="white"/>
<path d="M3.17524 10.9927C3.04368 10.4196 3.33084 10.0259 3.70618 9.76975C4.30513 9.33627 4.90419 8.90281 5.5702 8.67892C6.75039 8.31004 7.95754 8.14099 9.18592 7.89983C9.64955 7.78112 9.99898 7.90508 10.173 8.33403C10.3176 8.71716 10.0622 9.00264 9.71861 9.15064C7.62758 9.99281 5.67304 11.1002 3.17524 10.9927Z" fill="white"/>
</svg>
