<svg width="11" height="10" viewBox="0 0 11 10" fill="none" xmlns="http://www.w3.org/2000/svg">
<path d="M0 7.15216C0.120025 6.18395 0.617006 5.74791 1.2957 5.77003C1.80732 5.76558 2.34714 5.80854 2.8379 5.97245C4.39996 6.56438 5.8691 7.35614 7.1858 8.55291C7.43226 8.76382 7.71214 8.98005 7.58263 9.47456C7.45841 9.92696 7.14201 10.0054 6.83611 9.99972C6.46336 9.98327 6.0906 9.96693 5.72828 9.86637C3.78824 9.30017 1.962 8.36573 0.151406 7.30502C0.112771 7.3418 0.0511707 7.28907 0 7.15216Z" fill="white"/>
<path d="M11 6.37727C10.516 6.74391 10.0559 6.63785 9.69285 6.39017C9.09065 6.0054 8.48855 5.62062 8.05695 5.08389C7.31795 4.121 6.75401 3.04819 6.11643 1.98573C5.85027 1.59644 5.84645 1.21298 6.18314 0.867024C6.4875 0.568273 6.83706 0.689852 7.08965 0.953052C8.57293 2.57941 10.2547 3.96458 11 6.37727Z" fill="white"/>
</svg>
