<svg width="60" height="60" viewBox="0 0 60 60" fill="none" xmlns="http://www.w3.org/2000/svg">
<rect width="60" height="60" rx="9.61539" fill="#F3F6FF"/>
<mask id="mask0_655_121472" style="mask-type:luminance" maskUnits="userSpaceOnUse" x="12" y="29" width="37" height="19">
<path fill-rule="evenodd" clip-rule="evenodd" d="M12.6924 29.7474H48.4616V47.3522H12.6924V29.7474Z" fill="white"/>
</mask>
<g mask="url(#mask0_655_121472)">
<path fill-rule="evenodd" clip-rule="evenodd" d="M48.4408 31.4538C48.3681 31.1397 48.172 30.8667 47.9085 30.6801C45.5683 29.1326 42.4461 29.5459 40.5971 31.6583L37.0142 35.7419C36.3733 33.9805 34.7025 32.801 32.8357 32.7967H31.7974C31.2377 32.7967 30.6874 32.6281 30.2141 32.3192C26.062 29.5511 20.531 30.1014 16.9945 33.6253L13.0205 37.5993C12.583 38.0367 12.583 38.7472 13.0205 39.1878C13.4569 39.6253 14.1674 39.6253 14.6132 39.1878L18.5788 35.2191C21.3596 32.432 25.7067 31.9998 28.9755 34.185C29.8041 34.7447 30.7918 35.0409 31.7985 35.0409H32.841C34.0743 35.0409 35.0799 36.0381 35.0799 37.2757H27.2363C26.6217 37.2757 26.1168 37.7722 26.1168 38.3909C26.1168 39.015 26.6217 39.5114 27.2363 39.5114H36.2004C36.5103 39.5072 36.815 39.3607 37.0195 39.1193L42.2732 33.1288C43.1059 32.178 44.3951 31.7774 45.6232 32.0915L37.7531 42.6432C37.1249 43.4907 36.1277 43.9862 35.0757 43.9862H25.4664C24.1509 43.9862 22.8996 44.4963 21.971 45.4292C21.5293 45.8625 21.5293 46.5761 21.9615 47.0136C21.9615 47.0178 21.971 47.0178 21.971 47.0178C22.4074 47.4595 23.1083 47.4647 23.5553 47.0273V47.0178C24.0602 46.5086 24.7475 46.2167 25.4664 46.2219H35.0757C36.8287 46.2219 38.49 45.3881 39.5462 43.9862L48.269 32.3466C48.4419 32.082 48.4967 31.7679 48.4419 31.4538H48.4408Z" fill="black"/>
</g>
<path fill-rule="evenodd" clip-rule="evenodd" d="M35.0756 13.7826C38.7766 13.7826 41.7903 16.7868 41.7903 20.4973C41.7903 24.2067 38.7766 27.2078 35.0756 27.2078C31.3704 27.2078 28.3525 24.2025 28.3525 20.492C28.3525 16.7826 31.3704 13.7826 35.0756 13.7826ZM35.0756 29.4422C40.0099 29.4422 44.0208 25.4313 44.0208 20.4918C44.0208 15.548 40.0099 11.5381 35.0756 11.5381C30.1223 11.5381 26.1167 15.548 26.1167 20.4918C26.1167 25.4313 30.1223 29.4422 35.0756 29.4422V29.4422Z" fill="#5A7FED"/>
</svg>
