<svg width="60" height="60" viewBox="0 0 60 60" fill="none" xmlns="http://www.w3.org/2000/svg">
<rect width="60" height="60" rx="9.61539" fill="#FFF0F7"/>
<mask id="mask0_655_121447" style="mask-type:luminance" maskUnits="userSpaceOnUse" x="10" y="10" width="40" height="40">
<path fill-rule="evenodd" clip-rule="evenodd" d="M10.3845 10.3848H49.6153V49.6156H10.3845V10.3848Z" fill="white"/>
</mask>
<g mask="url(#mask0_655_121447)">
<path fill-rule="evenodd" clip-rule="evenodd" d="M41.5663 28.5444C37.2226 32.8878 32.8776 37.2325 28.554 41.5557C35.8737 42.5781 42.5492 36.3085 41.5663 28.5444ZM31.5293 18.4588C23.4426 17.3732 17.2721 24.6039 18.4889 31.4966C22.8239 27.1626 27.1626 22.8249 31.5293 18.4588ZM45.3819 24.5984C44.6052 25.3791 43.8639 26.1347 43.1083 26.876C42.9457 27.0356 42.8941 27.1738 42.9413 27.4047C43.2726 29.0224 43.289 30.6501 43.0102 32.2751C41.7814 39.4315 34.9306 44.2568 27.7534 42.9985C27.2434 42.9091 26.9419 43.0045 26.6073 43.3686C25.9721 44.0593 25.2868 44.7038 24.6101 45.3798C29.4367 47.212 36.3558 46.5869 41.3651 41.7262C46.4219 36.8196 47.3111 29.7914 45.3819 24.5984ZM48.1037 19.7848C47.9762 19.6473 47.8938 19.5529 47.8058 19.4649C45.387 17.0454 42.9632 14.6306 40.5537 12.2017C40.3175 11.9635 40.2074 11.9621 39.9691 12.2007C30.7148 21.4691 21.4532 30.7304 12.1849 39.9853C11.9553 40.2149 11.968 40.322 12.1899 40.5418C14.6178 42.9523 17.0376 45.3707 19.4474 47.7996C19.6826 48.0372 19.7934 48.0395 20.0313 47.8006C25.4308 42.3857 30.8397 36.9802 36.2469 31.5733C40.1013 27.7186 43.9554 23.8641 47.8115 20.011C47.8918 19.9307 47.9919 19.8705 48.1037 19.7848ZM39.8845 10.3848H40.5739C41.0139 10.5368 41.3516 10.8262 41.6765 11.1525C44.0525 13.5405 46.4345 15.9225 48.8218 18.2989C49.1558 18.6315 49.4594 18.9738 49.6156 19.4263V20.116C49.4175 20.5975 49.0521 20.9472 48.691 21.3036C48.0732 21.913 47.4706 22.5381 46.8451 23.1395C46.6517 23.3252 46.6172 23.4765 46.7169 23.7298C47.3752 25.4034 47.746 27.1469 47.8346 28.9386C48.0552 33.4 46.8679 37.4549 44.0883 40.9654C40.5919 45.3813 35.9835 47.676 30.3448 47.8527C28.0765 47.924 25.8769 47.5368 23.7576 46.7256C23.4725 46.6165 23.3068 46.6644 23.1044 46.8775C22.5328 47.4782 21.9348 48.0541 21.3505 48.6431C20.9784 49.0183 20.6216 49.4111 20.1157 49.6156H19.3493C18.8591 49.4061 18.5064 49.0246 18.1396 48.6572C15.8757 46.39 13.6102 44.1244 11.3423 41.8612C10.9745 41.4944 10.595 41.1404 10.3845 40.6508V39.8078C10.7657 39.1509 11.3496 38.674 11.87 38.1413C12.2803 37.721 12.6896 37.2983 13.1199 36.8994C13.3337 36.701 13.3816 36.5377 13.2722 36.2475C12.1277 33.219 11.8312 30.0964 12.4061 26.916C13.2749 22.1115 15.7315 18.2875 19.6786 15.4192C20.5156 14.8112 21.4107 14.2982 22.3447 13.8551C22.7577 13.6593 23.2058 13.822 23.3882 14.2015C23.5702 14.5799 23.435 14.9832 23.0451 15.2161C22.9578 15.2683 22.8658 15.3125 22.7744 15.358C15.8714 18.7888 12.3131 26.4495 14.1496 33.9402C14.2681 34.4234 14.3792 34.914 14.6161 35.3939C15.2961 34.7135 15.9242 34.0409 16.6029 33.4235C16.9897 33.0714 17.1725 32.7321 16.9884 32.2117C16.9011 31.9651 16.9044 31.6843 16.879 31.4179C16.5075 27.5297 17.5503 24.0628 20.189 21.1832C23.5126 17.5563 27.6763 16.2264 32.522 17.0506C32.8104 17.0998 32.9848 17.0423 33.1815 16.8375C33.8274 16.1655 34.4964 15.5156 35.1523 14.8533C35.2262 14.7787 35.3437 14.7282 35.3494 14.583C35.3012 14.5629 35.2567 14.5411 35.2098 14.5257C33.39 13.9207 31.522 13.6369 29.6035 13.6777C29.0105 13.6905 28.6725 13.3973 28.6756 12.9064C28.6782 12.4305 29.0045 12.1568 29.5774 12.1437C31.8999 12.0905 34.1493 12.4677 36.3192 13.2966C36.5494 13.3843 36.6796 13.3438 36.8436 13.1741C37.4379 12.5587 38.052 11.9624 38.654 11.3543C39.0244 10.9802 39.3802 10.5886 39.8845 10.3848Z" fill="#030303"/>
</g>
<path fill-rule="evenodd" clip-rule="evenodd" d="M25.2315 13.3743C25.2281 13.8115 25.5643 14.1467 25.9995 14.1407C26.4099 14.135 26.7501 13.7951 26.7534 13.3874C26.7571 12.9686 26.3918 12.606 25.9744 12.6144C25.5607 12.6224 25.2345 12.9559 25.2315 13.3743Z" fill="#FDFDFD"/>
<path fill-rule="evenodd" clip-rule="evenodd" d="M25.2315 13.3743C25.2345 12.9559 25.5607 12.6224 25.9744 12.6144C26.3918 12.606 26.7571 12.9686 26.7534 13.3874C26.7501 13.7951 26.4099 14.135 25.9995 14.1407C25.5643 14.1467 25.2281 13.8115 25.2315 13.3743Z" fill="#060606"/>
<path fill-rule="evenodd" clip-rule="evenodd" d="M22.3192 37.8103C21.7195 37.1825 21.1028 36.5393 20.4894 35.8931C20.0312 35.4108 20.1919 34.7305 20.7992 34.5629C21.088 34.4829 21.334 34.5752 21.5351 34.7713C22.7412 35.9476 23.9456 37.1256 25.1413 38.3122C25.4475 38.6164 25.4987 39.0002 25.3273 39.3282C25.152 39.6649 24.8451 39.8175 24.387 39.7395C23.3067 39.5558 22.2298 39.3523 21.152 39.1562C21.0435 39.1364 20.9371 39.0899 20.7604 39.1605C21.3715 39.7592 21.9605 40.3365 22.5494 40.9141C22.6963 41.0576 22.8389 41.2062 22.8734 41.4197C22.9296 41.7674 22.8282 42.0586 22.5166 42.2389C22.2101 42.4163 21.8955 42.3932 21.6298 42.156C21.3541 41.91 21.1004 41.6389 20.8387 41.3776C19.8729 40.4121 18.9045 39.4493 17.9434 38.4792C17.5769 38.1088 17.5642 37.6439 17.8898 37.3277C18.1391 37.0861 18.4376 37.0944 18.7499 37.1523C19.9516 37.3755 21.154 37.5957 22.3192 37.8103Z" fill="#6DD400"/>
<path fill-rule="evenodd" clip-rule="evenodd" d="M28.3952 33.4626C28.3975 32.4345 27.583 31.6096 26.5603 31.605C25.5266 31.6003 24.7067 32.4028 24.6964 33.4298C24.6857 34.4819 25.4985 35.3048 26.5473 35.3041C27.5773 35.3038 28.3928 34.4909 28.3952 33.4626ZM26.5557 36.8391C24.676 36.8454 23.1728 35.3566 23.1614 33.4766C23.1501 31.5985 24.6443 30.0809 26.5142 30.0712C28.4144 30.0615 29.9293 31.5621 29.9293 33.4542C29.9296 35.3332 28.4351 36.8324 26.5557 36.8391Z" fill="#6DD400"/>
<path fill-rule="evenodd" clip-rule="evenodd" d="M36.701 27.7482C36.4758 27.7381 36.275 27.6464 36.1043 27.4751C34.9147 26.2824 33.7197 25.0951 32.5337 23.8991C32.1462 23.5086 32.1555 23.0909 32.5461 22.6917C33.0099 22.2172 33.4791 21.7477 33.9532 21.2838C34.3388 20.9067 34.7768 20.8833 35.1058 21.2065C35.4337 21.5285 35.415 21.9755 35.0475 22.3601C34.8006 22.6181 34.5536 22.8781 34.2869 23.1147C34.1145 23.2673 34.1507 23.3529 34.2956 23.4992C34.8518 24.0604 34.8457 24.0654 35.4073 23.5059C35.5428 23.3707 35.6723 23.2271 35.8219 23.1093C36.1348 22.8627 36.5585 22.8908 36.8322 23.1612C37.1056 23.4309 37.1494 23.8629 36.8928 24.1688C36.6475 24.461 36.3684 24.726 36.0923 24.9907C35.9732 25.1048 35.9765 25.1681 36.089 25.2922C36.6642 25.9274 36.6595 25.9311 37.2549 25.3371C37.4175 25.1748 37.5734 25.0044 37.7491 24.8578C38.0751 24.5858 38.5034 24.6052 38.7879 24.8883C39.0723 25.1714 39.1111 25.6161 38.822 25.9247C38.2986 26.4825 37.7468 27.014 37.2033 27.5527C37.0711 27.6839 36.8968 27.7301 36.701 27.7482Z" fill="#6DD400"/>
<path fill-rule="evenodd" clip-rule="evenodd" d="M40.1648 24.2643C39.9289 24.2757 39.7475 24.1686 39.5882 24.0094C38.3879 22.808 37.1835 21.6109 35.9881 20.4046C35.6257 20.0388 35.6287 19.6235 35.9868 19.2534C36.466 18.7578 36.9543 18.2705 37.4482 17.7893C37.8123 17.4349 38.2503 17.4202 38.5716 17.7314C38.9029 18.0527 38.8888 18.5008 38.5241 18.8836C38.2687 19.1516 38.006 19.413 37.7373 19.6677C37.6125 19.7861 37.5988 19.8544 37.7326 19.9939C38.3133 20.599 38.3069 20.6053 38.8962 20.0164C39.0046 19.9079 39.108 19.7942 39.2228 19.6931C39.5541 19.4013 40.0009 19.3993 40.2957 19.6817C40.6002 19.9742 40.6109 20.441 40.3014 20.7814C40.0698 21.0364 39.8245 21.28 39.5705 21.5126C39.43 21.6417 39.4591 21.7123 39.5792 21.8385C40.1528 22.4389 40.1478 22.4425 40.7424 21.8499C40.9051 21.6879 41.0617 21.5169 41.2391 21.3727C41.5593 21.1123 41.9652 21.1331 42.248 21.4048C42.5422 21.6872 42.593 22.1293 42.3039 22.4395C41.7731 23.0084 41.2113 23.5489 40.6561 24.095C40.5246 24.2242 40.3509 24.2764 40.1648 24.2643Z" fill="#6DD400"/>
<path fill-rule="evenodd" clip-rule="evenodd" d="M31.0093 24.4603C31.4089 24.467 31.6398 24.6065 31.7736 24.8823C31.9142 25.1707 31.8931 25.4615 31.6793 25.7028C31.4259 25.9886 31.1545 26.26 30.8754 26.5207C30.7228 26.6632 30.7085 26.7486 30.8681 26.9079C31.4022 27.4413 31.3945 27.4487 31.9296 26.9139C32.0377 26.8058 32.1417 26.6924 32.2579 26.5933C32.5912 26.3085 33.0383 26.3186 33.3264 26.6104C33.6125 26.9002 33.6232 27.3543 33.3311 27.6806C33.1189 27.9178 32.8917 28.1434 32.6558 28.3569C32.5172 28.482 32.5186 28.559 32.6531 28.6875C33.0312 29.0486 33.3997 29.4197 33.7634 29.7952C34.1332 30.1767 34.1506 30.6234 33.822 30.9454C33.5017 31.2589 33.0383 31.2338 32.6695 30.8667C31.4855 29.6888 30.3035 28.5081 29.1263 27.3235C28.7284 26.9233 28.7264 26.5153 29.1152 26.1164C29.569 25.6506 30.0348 25.1968 30.4926 24.735C30.6616 24.5647 30.8527 24.4532 31.0093 24.4603Z" fill="#6DD400"/>
</svg>
