<svg width="60" height="60" viewBox="0 0 60 60" fill="none" xmlns="http://www.w3.org/2000/svg">
<rect width="60" height="60" rx="9.61539" fill="#FFF0F0"/>
<mask id="mask0_655_121486" style="mask-type:luminance" maskUnits="userSpaceOnUse" x="16" y="15" width="28" height="31">
<path fill-rule="evenodd" clip-rule="evenodd" d="M16.1538 15H43.8461V45.7319H16.1538V15Z" fill="white"/>
</mask>
<g mask="url(#mask0_655_121486)">
<path fill-rule="evenodd" clip-rule="evenodd" d="M41.5326 36.0544C41.5326 36.6492 41.2117 37.2045 40.6967 37.5014L30.8349 43.1952C30.3276 43.4882 29.6714 43.4882 29.1641 43.1952L19.3033 37.5014C18.7874 37.2045 18.4674 36.6492 18.4674 36.0544V24.6679C18.4674 24.0732 18.7874 23.5178 19.3033 23.2209L29.1641 17.5272C29.4177 17.3811 29.7069 17.3033 29.999 17.3033C30.2921 17.3033 30.5813 17.3811 30.8349 17.5272L40.6957 23.2209C41.2116 23.5178 41.5306 24.0732 41.5306 24.6679V36.0544H41.5326ZM41.8535 21.2169L31.9927 15.5232C30.7831 14.8256 29.217 14.8256 28.0073 15.5232L18.1465 21.2169C16.9167 21.926 16.1538 23.2481 16.1538 24.6672V36.0537C16.1538 37.4728 16.9177 38.7958 18.1465 39.5049L28.0073 45.1987C28.6126 45.5474 29.3015 45.7319 30 45.7319C30.6985 45.7319 31.3874 45.5474 31.9918 45.1987L41.8535 39.5049C43.0824 38.7958 43.8462 37.4738 43.8462 36.0537V24.6681C43.8462 23.2481 43.0833 21.926 41.8535 21.2169Z" fill="black"/>
<path fill-rule="evenodd" clip-rule="evenodd" d="M32.4325 31.909C31.5716 31.909 30.7616 32.2443 30.1535 32.8525C29.5443 33.4617 29.209 34.2707 29.209 35.1315C29.209 35.9924 29.5443 36.8024 30.1525 37.4106C30.7616 38.0197 31.5707 38.3551 32.4325 38.3551C33.2934 38.3551 34.1033 38.0197 34.7115 37.4106C35.3207 36.8024 35.655 35.9934 35.655 35.1315C35.655 34.2707 35.3197 33.4617 34.7115 32.8535C34.1033 32.2443 33.2943 31.909 32.4325 31.909Z" fill="#FF8989"/>
<path fill-rule="evenodd" clip-rule="evenodd" d="M33.0754 35.7745C32.7314 36.1185 32.1328 36.1185 31.7898 35.7745C31.6178 35.6026 31.5237 35.3748 31.5237 35.1318C31.5237 34.8896 31.6178 34.661 31.7898 34.489C31.9618 34.318 32.1905 34.2228 32.4326 34.2228C32.6757 34.2228 32.9034 34.318 33.0754 34.4899C33.2474 34.6619 33.3415 34.8896 33.3415 35.1318C33.3415 35.3748 33.2474 35.6026 33.0754 35.7745Z" fill="white"/>
<path fill-rule="evenodd" clip-rule="evenodd" d="M27.567 28.8142C28.4279 28.8142 29.2369 28.4789 29.8461 27.8707C30.4552 27.2616 30.7905 26.4526 30.7905 25.5917C30.7905 24.7308 30.4552 23.9208 29.8461 23.3117C29.2369 22.7035 28.4279 22.3682 27.567 22.3682C26.7052 22.3682 25.8962 22.7035 25.288 23.3117C24.6788 23.9199 24.3435 24.7298 24.3435 25.5917C24.3435 26.4526 24.6788 27.2616 25.287 27.8698C25.8962 28.4789 26.7052 28.8142 27.567 28.8142Z" fill="#FF8989"/>
<path fill-rule="evenodd" clip-rule="evenodd" d="M26.9231 24.9482C27.0951 24.7762 27.3238 24.682 27.5659 24.682C27.809 24.682 28.0377 24.7762 28.2087 24.9491C28.3807 25.1211 28.4758 25.3488 28.4758 25.591C28.4758 25.834 28.3807 26.0618 28.2087 26.2337C27.8657 26.5777 27.2681 26.5777 26.9231 26.2337C26.7511 26.0618 26.657 25.834 26.657 25.591C26.657 25.3488 26.7521 25.1202 26.9231 24.9482Z" fill="white"/>
<path fill-rule="evenodd" clip-rule="evenodd" d="M35.0279 25.015L23.5577 33.8765C23.0524 34.2675 22.9592 34.9939 23.3502 35.4993C23.5779 35.7943 23.92 35.949 24.2659 35.949C24.5128 35.949 24.7616 35.8702 24.973 35.7078L36.4422 26.8453C36.9485 26.4552 37.0417 25.7279 36.6507 25.2225C36.2606 24.7181 35.5333 24.6239 35.0279 25.015Z" fill="#FF8989"/>
</g>
</svg>
