<svg width="122" height="30" viewBox="0 0 122 30" fill="none" xmlns="http://www.w3.org/2000/svg">
<path fill-rule="evenodd" clip-rule="evenodd" d="M0 0L119 0C120.657 0 122 1.34315 122 3V22H0L9 11L0 0Z" fill="#CE2323"/>
<path fill-rule="evenodd" clip-rule="evenodd" d="M0 0L119 0C120.657 0 122 1.34315 122 3V22H0L9 11L0 0Z" fill="url(#paint0_linear_1800_41044)"/>
<path opacity="0.6" fill-rule="evenodd" clip-rule="evenodd" d="M9 11L18 0H0L9 11ZM0 22H18L9 11L0 22Z" fill="#EA8A8A"/>
<path d="M115 22H122L115 30V22Z" fill="#690E1F"/>
<path d="M105.319 14.0155L108.41 16L107.569 12.2963L110.319 9.81979L106.71 9.51575L105.319 6L103.929 9.51575L100.319 9.81979L103.069 12.2963L102.229 16L105.319 14.0155Z" fill="white"/>
<path fill-rule="evenodd" clip-rule="evenodd" d="M67.7628 5.0209C67.7314 5.02679 67.4661 5.04957 67.1733 5.07156C66.6021 5.11438 66.1551 5.16288 66.0323 5.19532C65.9905 5.20639 65.845 5.23579 65.709 5.2607C65.4761 5.30333 65.3093 5.34262 65.0434 5.41739C64.5264 5.5628 64.3484 5.6149 64.2828 5.64004C64.0875 5.7147 64.0047 5.75038 63.8513 5.82602C63.7604 5.87083 63.6549 5.90749 63.6168 5.90749C63.5787 5.90749 63.5418 5.92035 63.5348 5.93602C63.5165 5.97709 63.2015 6.13569 63.1382 6.13569C63.1088 6.13569 63.0847 6.1528 63.0847 6.17372C63.0847 6.19464 63.059 6.21176 63.0277 6.21176C62.9963 6.21176 62.9706 6.22469 62.9706 6.24051C62.9706 6.25633 62.915 6.29387 62.847 6.32395C62.779 6.35404 62.6902 6.40957 62.6497 6.44733C62.6091 6.4851 62.5613 6.51602 62.5434 6.51602C62.5255 6.51602 62.4646 6.5598 62.408 6.61327C62.3514 6.66675 62.258 6.7389 62.2004 6.77358C62.1429 6.80831 62.0959 6.8501 62.0959 6.86653C62.0959 6.88293 62.078 6.89635 62.0562 6.89635C62.0161 6.89635 61.382 7.52972 61.1545 7.79702C61.0058 7.97171 60.6231 8.55293 60.5917 8.65159C60.5794 8.69027 60.5506 8.72195 60.5276 8.72195C60.5046 8.72195 60.4964 8.73253 60.5093 8.74546C60.5222 8.75839 60.4668 8.90021 60.3862 9.0606C60.1208 9.58846 59.8512 10.5267 59.7751 11.1879C59.6907 11.9208 59.7749 12.9918 59.9475 13.381C59.9754 13.4438 60.0106 13.5465 60.0259 13.6092C60.0525 13.7185 60.3621 14.3619 60.4277 14.4444C60.4451 14.4662 60.5023 14.5378 60.5549 14.6036C60.6075 14.6694 60.6506 14.7395 60.6506 14.7593C60.6506 14.7792 60.6848 14.8265 60.7267 14.8643C60.7685 14.9022 60.8027 14.9562 60.8027 14.9843C60.8027 15.0125 60.822 15.0355 60.8455 15.0355C60.897 15.0355 61.2591 15.4028 61.2591 15.4551C61.2591 15.4753 61.2816 15.4919 61.309 15.4919C61.3364 15.4919 61.3956 15.5261 61.4405 15.5679C61.4854 15.6098 61.5398 15.644 61.5615 15.644C61.5831 15.644 61.6222 15.6782 61.6483 15.7201C61.6744 15.7619 61.7141 15.7961 61.7365 15.7961C61.7589 15.7961 61.8111 15.8261 61.8526 15.8627C61.894 15.8993 61.9786 15.9593 62.0404 15.996C62.2102 16.0967 62.8551 16.4047 62.8964 16.4047C62.9163 16.4047 62.9326 16.4218 62.9326 16.4427C62.9326 16.4636 62.9616 16.4807 62.997 16.4807C63.0324 16.4807 63.2164 16.5303 63.4058 16.5908C63.9736 16.7723 64.2508 16.8375 64.7201 16.9003C64.898 16.924 65.1119 16.9586 65.1956 16.9771C65.3963 17.0213 67.8261 16.9962 68.1431 16.9466C68.2791 16.9253 68.4845 16.895 68.5995 16.8792C68.7146 16.8635 68.827 16.8363 68.8493 16.8189C68.8716 16.8015 68.9443 16.7831 69.0109 16.778C69.0775 16.773 69.132 16.7595 69.132 16.7481C69.132 16.7368 69.1849 16.7041 69.2496 16.6755C69.5083 16.5609 69.691 16.2674 69.7615 15.8532C69.7722 15.7904 69.7996 15.6562 69.8224 15.555C69.8669 15.3575 69.8174 15.1876 69.7154 15.1876C69.6877 15.1876 69.6437 15.1534 69.6176 15.1115C69.5915 15.0697 69.54 15.0355 69.5032 15.0355C69.4664 15.0355 69.402 15.0012 69.3602 14.9594C69.3184 14.9176 69.267 14.8833 69.2461 14.8833C69.2252 14.8833 69.2081 14.8662 69.2081 14.8453C69.2081 14.8244 69.1824 14.8073 69.151 14.8073C69.1196 14.8073 69.094 14.7902 69.094 14.7692C69.094 14.7483 69.0683 14.7312 69.0369 14.7312C69.0055 14.7312 68.9799 14.7141 68.9799 14.6932C68.9799 14.6723 68.9556 14.6551 68.926 14.6551C68.8964 14.6551 68.8664 14.6423 68.8594 14.6266C68.8525 14.6109 68.7371 14.5405 68.6031 14.4702C68.3478 14.3361 68.3713 14.3381 67.9054 14.4125C67.827 14.425 67.7628 14.4505 67.7628 14.4691C67.7628 14.4878 67.721 14.503 67.67 14.503C67.6189 14.503 67.5666 14.5201 67.5536 14.541C67.5407 14.562 67.4967 14.5791 67.4558 14.5791C67.4149 14.5791 67.3517 14.5945 67.3154 14.6134C67.2791 14.6323 67.1723 14.6682 67.0782 14.6932C66.9841 14.7182 66.8774 14.7541 66.841 14.7729C66.8047 14.7918 66.7403 14.8073 66.6979 14.8073C66.6555 14.8073 66.5825 14.827 66.5357 14.8512C66.3531 14.9457 66.3161 14.9594 66.2443 14.9594C66.2034 14.9594 66.1593 14.9765 66.1464 14.9974C66.1335 15.0184 66.0736 15.0355 66.0133 15.0355C65.953 15.0355 65.8931 15.0526 65.8802 15.0735C65.8672 15.0944 65.8235 15.1115 65.7828 15.1115C65.7422 15.1115 65.709 15.1287 65.709 15.1496C65.709 15.1705 65.616 15.1876 65.5024 15.1876C65.3292 15.1876 65.2919 15.1753 65.2716 15.1115C65.2584 15.0697 65.2312 15.0355 65.2113 15.0355C65.1648 15.0355 65.207 14.8256 65.3527 14.3319C65.3897 14.2063 65.4242 14.078 65.4293 14.0466C65.4433 13.9603 65.553 13.6093 65.6788 13.2479C65.7407 13.0701 65.8085 12.8519 65.8293 12.763C65.8502 12.6741 65.8816 12.6013 65.899 12.6013C65.9164 12.6013 65.9428 12.4726 65.9575 12.3152C65.9832 12.0417 65.9795 12.022 65.8752 11.8686C65.8152 11.7802 65.7318 11.6725 65.69 11.629C65.6187 11.555 65.4195 11.3154 65.2906 11.1488C65.2593 11.1082 65.1865 11.023 65.129 10.9594C65.0715 10.8958 65.0244 10.8285 65.0244 10.8097C65.0244 10.791 64.9987 10.7757 64.9674 10.7757C64.936 10.7757 64.9103 10.761 64.9103 10.7429C64.9103 10.7248 64.8602 10.6526 64.799 10.5825C64.7378 10.5124 64.6961 10.4417 64.7062 10.4252C64.7163 10.4088 64.6979 10.3954 64.6653 10.3954C64.6327 10.3954 64.606 10.3805 64.606 10.3622C64.606 10.3439 64.5376 10.2541 64.4539 10.1625C64.3702 10.071 64.3018 9.97416 64.3018 9.94734C64.3018 9.92053 64.2777 9.88934 64.2482 9.87805C64.177 9.8507 64.1022 9.66415 64.118 9.55313C64.1453 9.36121 64.2343 9.35034 65.8611 9.33961C66.9636 9.33238 67.3886 9.31721 67.4579 9.28256C67.5677 9.22768 67.7218 9.06478 67.7236 9.00176C67.7242 8.97784 67.7504 8.94844 67.7818 8.93638C67.8132 8.92436 67.8389 8.88831 67.8389 8.85625C67.8389 8.82422 67.8539 8.79802 67.8723 8.79802C67.8907 8.79802 67.927 8.74667 67.953 8.68392C67.979 8.62116 68.0141 8.56982 68.0311 8.56982C68.0481 8.56982 68.0722 8.5376 68.0846 8.49828C68.0972 8.45891 68.1368 8.39205 68.1728 8.34968C68.2088 8.30731 68.2639 8.23524 68.2953 8.18949C68.3489 8.11125 68.4345 8.00099 68.5227 7.89632C68.5441 7.87107 68.5615 7.83635 68.5615 7.8192C68.5615 7.80204 68.5914 7.76123 68.6281 7.72845C68.6647 7.69566 68.7203 7.63036 68.7517 7.58331C68.9246 7.324 69.2544 6.97242 69.3247 6.97242C69.3616 6.97242 69.399 6.95124 69.4076 6.92533C69.4308 6.85562 69.6264 6.95276 69.6264 7.03396C69.6264 7.06872 69.6533 7.11676 69.686 7.14072C69.7188 7.16468 69.7553 7.25642 69.7671 7.34458C69.7789 7.43274 69.8009 7.50489 69.8158 7.50489C69.8308 7.50489 69.87 7.56909 69.9029 7.64751C70.0545 8.00944 70.2042 8.39498 70.2151 8.45142C70.2217 8.48557 70.2656 8.59891 70.3127 8.70332C70.3597 8.80768 70.4106 8.92733 70.4256 8.96917C70.4934 9.15766 70.533 9.25023 70.6365 9.4636C70.8274 9.85698 71.0179 9.97279 71.0744 9.72976C71.089 9.66704 71.1292 9.48737 71.1638 9.33048C71.1984 9.1736 71.2591 8.89976 71.2986 8.72195C71.3381 8.54415 71.399 8.25319 71.4339 8.07539C71.4688 7.89758 71.5138 7.68364 71.534 7.59997C71.554 7.5163 71.5855 7.35584 71.6037 7.24337C71.622 7.13091 71.6549 6.99399 71.6768 6.93911C71.6987 6.88422 71.7503 6.65104 71.7916 6.42094C71.8328 6.19084 71.8782 5.94625 71.8925 5.87741C71.9256 5.71831 71.8141 5.45109 71.7147 5.45109C71.6773 5.45109 71.6361 5.43398 71.6232 5.41306C71.6103 5.39214 71.5408 5.37503 71.4688 5.37503C71.3968 5.37503 71.3379 5.36004 71.3379 5.34171C71.3379 5.32338 71.2481 5.29831 71.1383 5.28599C71.0284 5.27367 70.853 5.24602 70.7484 5.22453C70.4348 5.16006 69.9635 5.09411 69.3657 5.03098C69.0282 4.9953 67.9359 4.98845 67.7628 5.0209ZM35.5804 5.23259C35.4805 5.3168 35.4475 5.38719 35.4111 5.59337C35.4009 5.65111 35.3678 5.79491 35.3375 5.91297C35.2405 6.29079 35.2712 6.48639 35.4382 6.55554C35.4989 6.58071 35.5486 6.61635 35.5486 6.63472C35.5486 6.65313 35.5914 6.66816 35.6437 6.66816C35.696 6.66816 35.7388 6.68527 35.7388 6.70619C35.7388 6.72711 35.7655 6.74422 35.7981 6.74422C35.8307 6.74422 35.8468 6.76134 35.8339 6.78226C35.821 6.80317 35.8381 6.82029 35.8719 6.82029C35.9058 6.82029 35.924 6.83562 35.9124 6.85433C35.9008 6.87308 35.9157 6.89768 35.9453 6.90909C36.0422 6.94625 36.1383 7.20838 36.1359 7.42882C36.1333 7.66539 36.1131 7.77044 35.8545 8.8931C35.8112 9.08137 35.7664 9.28674 35.755 9.3495C35.7307 9.48368 35.5608 10.2412 35.5119 10.4334C35.4933 10.5067 35.4584 10.6693 35.4343 10.7948C35.4102 10.9203 35.3753 11.0743 35.3568 11.1371C35.3382 11.1998 35.2968 11.3753 35.2647 11.5269C35.1357 12.1366 35.0939 12.3313 35.0177 12.6774C34.974 12.8761 34.9225 13.0986 34.9034 13.1718C34.8843 13.2451 34.8479 13.4162 34.8226 13.5522C34.7973 13.6881 34.76 13.8208 34.7396 13.8469C34.7193 13.8731 34.7135 13.8945 34.7268 13.8945C34.7401 13.8945 34.7236 13.9587 34.6902 14.0371C34.6568 14.1156 34.6217 14.2198 34.6123 14.2687C34.6028 14.3177 34.5721 14.3947 34.5439 14.4399C34.5158 14.4851 34.4827 14.566 34.4703 14.6196C34.4579 14.6733 34.413 14.7572 34.3706 14.8061C34.3282 14.855 34.2935 14.9087 34.2935 14.9256C34.2935 14.9645 34.0103 15.2637 33.9734 15.2637C33.9582 15.2637 33.922 15.2875 33.8929 15.3166C33.8638 15.3457 33.7153 15.3977 33.5628 15.4323C33.2279 15.5081 33.1943 15.547 33.0826 15.9875C32.9685 16.4381 32.9724 16.6708 33.0958 16.7782L33.1912 16.8611H36.1353H39.0795L39.1542 16.7375C39.1953 16.6695 39.2405 16.5325 39.2547 16.4332C39.2689 16.3338 39.293 16.2525 39.3082 16.2525C39.3234 16.2525 39.3384 16.214 39.3416 16.167C39.3556 15.9616 39.3971 15.7582 39.429 15.7385C39.4639 15.7169 39.3198 15.3786 39.2789 15.3862C39.225 15.3961 39.0477 15.3282 39.0477 15.2976C39.0477 15.2789 39.022 15.2637 38.9907 15.2637C38.9593 15.2637 38.9336 15.2466 38.9336 15.2256C38.9336 15.2047 38.9091 15.1876 38.8791 15.1876C38.8492 15.1876 38.7852 15.1321 38.7369 15.0643C38.5936 14.8631 38.6253 14.5352 38.8974 13.4C38.9149 13.3268 38.9648 13.0968 39.0083 12.889C39.0518 12.6811 39.1118 12.4158 39.1416 12.2995C39.1715 12.1831 39.2041 12.0416 39.2141 11.985C39.2241 11.9283 39.2495 11.8513 39.2705 11.8138C39.3066 11.7495 39.3103 11.7499 39.3341 11.8217C39.3852 11.9758 39.4412 12.075 39.5345 12.1764C39.5617 12.206 39.5937 12.2795 39.6058 12.3397C39.6179 12.3999 39.6388 12.4492 39.6524 12.4492C39.6659 12.4492 39.7107 12.5134 39.7518 12.5918C39.793 12.6703 39.8374 12.743 39.8505 12.7535C39.8637 12.7639 39.9217 12.8666 39.9795 12.9817C40.0373 13.0967 40.0965 13.1994 40.1111 13.2099C40.1257 13.2203 40.1874 13.323 40.2483 13.4381C40.3093 13.5531 40.4063 13.714 40.4641 13.7956C40.5218 13.8772 40.569 13.9592 40.569 13.9778C40.569 13.9965 40.5862 14.0325 40.6072 14.0577C40.6997 14.1691 40.9113 14.5048 40.9113 14.5401C40.9113 14.5615 40.9264 14.5791 40.9448 14.5791C40.9631 14.5791 40.9995 14.6304 41.0254 14.6932C41.0514 14.7559 41.0866 14.8073 41.1036 14.8073C41.1205 14.8073 41.1452 14.8412 41.1584 14.8827C41.1715 14.9241 41.2492 15.0311 41.331 15.1204C41.4128 15.2097 41.4803 15.2949 41.4808 15.3099C41.4819 15.3398 42.1239 15.9814 42.3177 16.1463C42.3843 16.203 42.4715 16.2597 42.5115 16.2724C42.5516 16.2852 42.6058 16.3165 42.6321 16.342C42.6857 16.3942 42.8623 16.4802 43.1173 16.5784C43.2114 16.6146 43.3047 16.6588 43.3245 16.6766C43.3444 16.6944 43.4172 16.7089 43.4862 16.7089C43.5552 16.7089 43.6117 16.7245 43.6117 16.7436C43.6117 16.8072 44.0736 16.8285 45.7986 16.8447L47.5101 16.8608L47.5828 16.76C47.6228 16.7046 47.6682 16.5977 47.6838 16.5225C47.6992 16.4472 47.7393 16.2864 47.7726 16.1651C47.8996 15.7041 47.8219 15.5197 47.4831 15.4778C47.0311 15.4217 46.8065 15.3602 46.8065 15.2924C46.8065 15.2766 46.7787 15.2637 46.7448 15.2637C46.7109 15.2637 46.554 15.1353 46.3961 14.9784C46.2382 14.8215 46.1223 14.6932 46.1387 14.6932C46.155 14.6932 46.1279 14.6595 46.0786 14.6184C46.0292 14.5772 46.0042 14.543 46.0231 14.5423C46.042 14.5416 46.0217 14.51 45.9779 14.472C45.9341 14.4341 45.7868 14.2501 45.6505 14.0632C45.5142 13.8763 45.3888 13.7062 45.3718 13.6853C45.3088 13.6075 45.1883 13.4442 45.133 13.3617C45.1016 13.3149 45.0546 13.2543 45.0284 13.2269C45.0023 13.1996 44.9809 13.1631 44.9809 13.1457C44.9809 13.1283 44.9467 13.0927 44.9048 13.0666C44.863 13.0404 44.8288 12.9935 44.8288 12.9624C44.8288 12.9311 44.8131 12.9056 44.7938 12.9056C44.7746 12.9056 44.7196 12.8414 44.6716 12.763C44.6236 12.6846 44.5666 12.6004 44.5449 12.5761C44.4432 12.462 44.3297 12.2986 44.3351 12.2741C44.3384 12.2591 44.3168 12.2332 44.287 12.2166C44.2572 12.1999 44.183 12.1128 44.1219 12.023C44.0609 11.9332 43.9725 11.8171 43.9255 11.765C43.8784 11.7129 43.8399 11.6596 43.8399 11.6466C43.8399 11.6335 43.7888 11.5649 43.7264 11.494C43.664 11.4232 43.6126 11.3547 43.6123 11.3419C43.612 11.3291 43.5606 11.2606 43.4982 11.1898C43.4358 11.1189 43.3844 11.0508 43.3841 11.0383C43.3838 11.0258 43.3536 10.9803 43.3169 10.9372C43.2803 10.8941 43.2247 10.8215 43.1933 10.7757C43.162 10.73 43.1063 10.6573 43.0697 10.6143C42.9927 10.5236 42.9798 10.3193 43.051 10.3193C43.0774 10.3193 43.1203 10.2851 43.1465 10.2433C43.1726 10.2014 43.2157 10.1672 43.2423 10.1672C43.2689 10.1672 43.3153 10.133 43.3455 10.0911C43.3756 10.0493 43.4142 10.0151 43.4312 10.0151C43.4482 10.0151 43.5123 9.96374 43.5737 9.90098C43.635 9.83823 43.7143 9.78688 43.7499 9.78688C43.7854 9.78688 43.8041 9.77642 43.7913 9.76365C43.7684 9.74071 43.9611 9.55868 44.0083 9.55868C44.0217 9.55868 44.0828 9.50734 44.1442 9.44458C44.2055 9.38183 44.2648 9.33048 44.2759 9.33048C44.2871 9.33048 44.3689 9.26172 44.4579 9.17767C44.5468 9.09358 44.6666 9.00386 44.7242 8.97818C44.7817 8.95255 44.8288 8.90957 44.8288 8.88264C44.8288 8.85571 44.8587 8.82255 44.8953 8.80897C44.9319 8.79539 44.9876 8.75743 45.019 8.72457C45.1175 8.62166 45.5442 8.26555 45.5691 8.26555C45.5822 8.26555 45.6327 8.22702 45.6815 8.17998C45.7302 8.13293 45.8021 8.06839 45.8414 8.03663C45.8806 8.00483 46.0325 7.8791 46.1789 7.7572C46.5192 7.47393 46.5761 7.42882 46.5929 7.42882C46.6005 7.42882 46.6816 7.36036 46.7731 7.27669C46.8647 7.19301 46.9608 7.12455 46.9868 7.12455C47.0128 7.12455 47.0554 7.09032 47.0815 7.04849C47.1077 7.00665 47.1592 6.97242 47.196 6.97242C47.2328 6.97242 47.2629 6.95531 47.2629 6.93439C47.2629 6.91347 47.2971 6.89635 47.339 6.89635C47.3808 6.89635 47.415 6.88198 47.415 6.86441C47.415 6.84684 47.4877 6.80964 47.5767 6.78172C47.6656 6.75384 47.7545 6.71684 47.7744 6.69957C47.7943 6.68231 47.8511 6.66816 47.9006 6.66816C47.95 6.66816 48.0209 6.65188 48.058 6.63203C48.0952 6.61213 48.1978 6.59163 48.2862 6.58642C48.3745 6.58121 48.4553 6.56322 48.4656 6.54649C48.476 6.52972 48.5406 6.51602 48.6092 6.51602C48.7205 6.51602 48.7386 6.50062 48.7763 6.3734C49.0226 5.54298 49.0249 5.34186 48.7892 5.23088C48.662 5.17098 48.455 5.16733 46.159 5.18486C43.7331 5.20338 43.6647 5.20589 43.5853 5.27994C43.5033 5.35639 43.3074 6.02357 43.3074 6.22636C43.3074 6.37994 43.3855 6.50929 43.5028 6.55017C43.5627 6.57105 43.6117 6.60612 43.6117 6.62814C43.6117 6.65017 43.6362 6.66816 43.6662 6.66816C43.7464 6.66816 43.7774 6.80975 43.725 6.9364C43.6874 7.02707 43.4301 7.27262 43.1167 7.51702C42.9126 7.67607 42.6399 7.90869 42.6292 7.93276C42.6222 7.94843 42.6 7.96129 42.5799 7.96129C42.5598 7.96129 42.5034 7.99981 42.4546 8.04686C42.291 8.20489 42.1208 8.34162 42.0879 8.34162C42.07 8.34162 41.9875 8.41008 41.9046 8.49375C41.8218 8.57742 41.7394 8.64588 41.7214 8.64588C41.7035 8.64588 41.6641 8.68011 41.634 8.72195C41.6038 8.76379 41.5666 8.79802 41.5512 8.79802C41.5359 8.79802 41.4825 8.83654 41.4325 8.88359C41.285 9.02268 40.9797 9.27876 40.777 9.43348C40.6731 9.51281 40.5823 9.59055 40.5754 9.60622C40.5684 9.62189 40.5485 9.63475 40.5311 9.63475C40.5137 9.63475 40.4407 9.69039 40.3688 9.75836C40.1969 9.92095 39.9217 10.1442 39.8691 10.1637C39.8462 10.1722 39.805 10.2108 39.7777 10.2493C39.7504 10.2878 39.7023 10.3193 39.6708 10.3193C39.6394 10.3193 39.6243 10.3365 39.6372 10.3574C39.6502 10.3783 39.6359 10.3954 39.6055 10.3954C39.5487 10.3954 39.558 10.3127 39.6568 9.93901C39.6762 9.8658 39.6937 9.79338 39.6956 9.77806C39.6976 9.76277 39.7155 9.69431 39.7355 9.62592C39.7555 9.55758 39.7795 9.45029 39.7888 9.38753C39.7981 9.32478 39.8567 9.03382 39.919 8.74097C39.9814 8.44811 40.0595 8.08014 40.0926 7.92325C40.166 7.57494 40.2562 7.25794 40.3253 7.10554C40.3868 6.96987 40.5817 6.74422 40.6374 6.74422C40.6591 6.74422 40.6825 6.73057 40.6895 6.71391C40.706 6.67439 41.047 6.51602 41.1155 6.51602C41.1818 6.51602 41.2319 6.39325 41.3327 5.98382C41.4445 5.53016 41.4465 5.34791 41.3408 5.26229C41.2946 5.22491 41.2676 5.1836 41.2806 5.17056C41.2936 5.15751 40.0393 5.1469 38.4931 5.14702L35.6818 5.14721L35.5804 5.23259ZM49.8801 5.23259C49.778 5.31794 49.7561 5.37905 49.6427 5.89391C49.5429 6.34719 49.5662 6.48096 49.7568 6.54984C49.8285 6.57577 49.8872 6.61301 49.8872 6.63259C49.8872 6.65214 49.9214 6.66816 49.9632 6.66816C50.0051 6.66816 50.0393 6.68527 50.0393 6.70619C50.0393 6.72711 50.0572 6.74422 50.0791 6.74422C50.1914 6.74422 50.3874 7.0497 50.4387 7.30445C50.458 7.40045 50.4226 7.66851 50.362 7.88522C50.3591 7.89568 50.3433 7.9727 50.3269 8.05637C50.3105 8.14004 50.249 8.41388 50.1902 8.6649C50.1313 8.91592 50.0551 9.24966 50.0209 9.40655C49.9458 9.7501 49.9124 9.89075 49.8874 9.96754C49.8823 9.98321 49.8801 10.0085 49.8824 10.0236C49.8847 10.0388 49.8254 10.3126 49.7506 10.6322C49.6759 10.9517 49.5746 11.4014 49.5255 11.6315C49.4765 11.8616 49.3833 12.2638 49.3185 12.5253C49.2537 12.7868 49.1922 13.0606 49.182 13.1338C49.1717 13.207 49.1478 13.3268 49.1288 13.4C49.1097 13.4733 49.0741 13.6358 49.0497 13.7614C49.0252 13.8869 48.9897 14.0289 48.9708 14.0769C48.9518 14.125 48.9363 14.212 48.9363 14.2702C48.9363 14.3285 48.9244 14.3881 48.9099 14.4027C48.8953 14.4172 48.8801 14.45 48.876 14.4756C48.8588 14.5833 48.6565 15.5244 48.5189 16.1372C48.4154 16.5984 48.4358 16.7538 48.6084 16.8162C48.6989 16.8489 49.362 16.8607 51.0499 16.8599L53.3672 16.8587L53.4373 16.7625C53.5048 16.6698 53.6712 16.0533 53.7134 15.7391C53.7309 15.6091 53.7177 15.5689 53.6232 15.4633C53.5624 15.3954 53.4843 15.3397 53.4497 15.3397C53.4151 15.3397 53.3655 15.3055 53.3394 15.2637C53.3133 15.2218 53.2715 15.1876 53.2465 15.1876C53.2216 15.1876 53.1903 15.1534 53.1771 15.1115C53.1638 15.0697 53.1298 15.0355 53.1015 15.0355C53.008 15.0355 52.9183 14.675 52.9516 14.4336C52.968 14.3149 52.9836 14.2092 52.9863 14.1987C52.989 14.1883 53.0038 14.1198 53.0192 14.0466C53.0346 13.9734 53.0799 13.768 53.1199 13.5902C53.1599 13.4124 53.229 13.0958 53.2734 12.8866C53.3177 12.6774 53.3625 12.4763 53.3727 12.4397C53.3902 12.3774 53.518 12.3731 55.357 12.3719C56.9847 12.3709 57.3348 12.3615 57.3932 12.3173C57.437 12.2841 57.4833 12.1659 57.5156 12.0048C57.5441 11.8622 57.5928 11.6343 57.6238 11.4984C57.6547 11.3624 57.7018 11.1485 57.7285 11.023C57.7552 10.8975 57.786 10.7862 57.797 10.7757C57.8408 10.7343 57.8406 10.3896 57.7967 10.3367C57.7714 10.3063 57.7657 10.2812 57.7839 10.2811C57.8022 10.2809 57.7681 10.2553 57.7082 10.224C57.6159 10.1759 57.315 10.1672 55.7374 10.1672C53.982 10.1672 53.8767 10.1634 53.8953 10.1007C53.9062 10.064 53.9691 9.79449 54.0353 9.50163C54.1015 9.20878 54.1711 8.90071 54.19 8.81703C54.209 8.73336 54.234 8.61356 54.2456 8.5508C54.2649 8.4467 54.3171 8.21793 54.354 8.07539C54.3701 8.01316 54.4345 7.73236 54.4674 7.58095C54.4787 7.52866 54.5084 7.40398 54.5334 7.30388L54.5787 7.12185L55.9317 7.13494C56.6758 7.14212 57.3446 7.16053 57.4178 7.17582C57.6915 7.23303 57.9115 7.39494 58.0297 7.62603C58.1226 7.80775 58.1698 8.2794 58.1031 8.35976C58.0765 8.39179 58.0721 8.41769 58.0931 8.41769C58.114 8.41769 58.1525 8.46903 58.1784 8.53178L58.2257 8.64588H58.8435C59.5872 8.64588 59.6178 8.63219 59.7139 8.25677C59.8337 7.78854 59.9877 7.10257 60.0406 6.80127C60.059 6.69668 60.1188 6.42284 60.1737 6.19274C60.3412 5.48935 60.3468 5.45878 60.3215 5.38727C60.308 5.34916 60.2623 5.27945 60.2199 5.2324L60.1429 5.14683L55.0626 5.14702L49.9823 5.14721L49.8801 5.23259ZM74.1429 5.63045C74.0522 5.64422 74.0383 5.66362 74.0383 5.77689C74.0383 5.84873 74.0212 5.90749 74.0003 5.90749C73.9793 5.90749 73.9622 5.9448 73.9622 5.99036C73.9622 6.03593 73.9463 6.1258 73.9269 6.19004C73.9074 6.25428 73.8378 6.53789 73.7722 6.82029C73.6412 7.38459 73.6259 7.44932 73.5096 7.92862C73.4657 8.10935 73.4296 8.29761 73.4295 8.34698C73.4294 8.39631 73.406 8.48135 73.3775 8.53589C73.349 8.59043 73.3132 8.73591 73.2979 8.85918C73.2825 8.98244 73.2563 9.10894 73.2396 9.14032C73.2229 9.17169 73.199 9.26145 73.1866 9.33976C73.1742 9.41807 73.1452 9.55499 73.1222 9.64403C73.0992 9.73307 73.0723 9.8658 73.0623 9.93901C73.0524 10.0122 73.0343 10.0978 73.0221 10.1292C72.9807 10.2358 72.974 10.2622 72.9314 10.4905C72.908 10.616 72.8736 10.735 72.855 10.7548C72.8364 10.7747 72.8212 10.8463 72.8212 10.914C72.8212 10.9817 72.8039 11.0827 72.7827 11.1385C72.7435 11.2414 72.6551 11.6055 72.5936 11.9167C72.575 12.0109 72.5428 12.1564 72.5221 12.24C72.4798 12.4108 72.3791 12.8462 72.3285 13.0768C72.3101 13.1604 72.2834 13.2717 72.269 13.324C72.2547 13.3763 72.2292 13.4961 72.2125 13.5902C72.1957 13.6843 72.1549 13.8555 72.1217 13.9705C72.0886 14.0856 72.0612 14.2354 72.061 14.3033C72.0607 14.3713 72.0472 14.4269 72.0308 14.4269C72.0144 14.4269 71.9789 14.551 71.9518 14.7027C71.9247 14.8543 71.8873 15.0298 71.8686 15.0925C71.85 15.1553 71.7815 15.4462 71.7164 15.7391C71.6513 16.0319 71.5714 16.3601 71.5389 16.4683C71.4374 16.8059 71.3533 16.785 72.8126 16.785L74.0994 16.785L74.1845 16.4142C74.2313 16.2102 74.286 15.9792 74.3061 15.9007C74.3261 15.8223 74.3608 15.6854 74.3832 15.5965C74.4055 15.5075 74.4397 15.3823 74.4592 15.318C74.4787 15.2538 74.4947 15.1609 74.4947 15.1115C74.4947 15.0622 74.5107 14.9693 74.5301 14.9051C74.5496 14.8408 74.5822 14.7198 74.6024 14.6361C74.6226 14.5524 74.6591 14.407 74.6834 14.3128C74.73 14.1329 74.7953 13.8372 74.8935 13.362C74.9259 13.2051 74.9693 13.0242 74.9898 12.96C75.0103 12.8957 75.0272 12.8001 75.0272 12.7476C75.0272 12.6951 75.0391 12.6401 75.0536 12.6256C75.0682 12.611 75.0838 12.5783 75.0883 12.5527C75.1485 12.2112 75.2022 11.9928 75.226 11.9928C75.2422 11.9928 75.2554 11.9371 75.2554 11.8689C75.2554 11.8008 75.2738 11.6853 75.2962 11.6122C75.3486 11.4419 75.4397 11.0714 75.483 10.8518C75.5016 10.7577 75.5338 10.6122 75.5546 10.5285C75.5754 10.4449 75.6201 10.2651 75.6539 10.1292C75.6878 9.99321 75.731 9.80495 75.7499 9.71081C75.8503 9.21087 75.8759 9.10198 75.9429 8.88812C75.9831 8.75987 76.016 8.59401 76.016 8.51954C76.016 8.44507 76.0317 8.37448 76.0507 8.36269C76.0698 8.35086 76.0971 8.26856 76.1113 8.17979C76.1255 8.09098 76.1603 7.91565 76.1886 7.79014C76.4733 6.53055 76.5493 6.2132 76.6266 5.96184C76.675 5.80465 76.6719 5.70382 76.6169 5.64886C76.5832 5.61509 76.2689 5.60471 75.4094 5.60893C74.7703 5.61205 74.2004 5.62174 74.1429 5.63045ZM89.414 5.65331C89.3696 5.72212 89.2857 6.09298 89.264 6.31635C89.2533 6.42619 89.229 6.51602 89.21 6.51602C89.191 6.51602 89.1755 6.57045 89.1755 6.63693C89.1755 6.70341 89.1595 6.8104 89.1401 6.87464C89.0788 7.07633 88.9736 7.50572 88.9112 7.80915C88.8549 8.08235 88.8002 8.29537 88.75 8.4367C88.7277 8.49946 88.6873 8.69012 88.6602 8.86039C88.6331 9.03067 88.5932 9.20182 88.5717 9.24072C88.5501 9.27963 88.5156 9.4056 88.4951 9.52065C88.4746 9.6357 88.4207 9.89242 88.3755 10.0911C88.3302 10.2899 88.2846 10.5252 88.2741 10.6141C88.2636 10.703 88.2433 10.7757 88.229 10.7757C88.2146 10.7757 88.1987 10.8314 88.1936 10.8994C88.1885 10.9673 88.1678 11.0786 88.1474 11.1466C88.1272 11.2145 88.0935 11.327 88.0726 11.3965C88.0516 11.466 88.0345 11.576 88.0345 11.641C88.0345 11.706 88.0094 11.7843 87.9787 11.815C87.948 11.8457 87.9239 11.9197 87.9252 11.9793C87.9273 12.0782 87.8854 12.2752 87.7484 12.8105C87.7217 12.9151 87.682 13.0863 87.6603 13.1909C87.6386 13.2954 87.5839 13.5265 87.5387 13.7043C87.4936 13.8821 87.4482 14.1174 87.4378 14.2273C87.4274 14.3371 87.4034 14.4269 87.3844 14.4269C87.3654 14.4269 87.3499 14.4814 87.3499 14.5478C87.3499 14.6143 87.334 14.7213 87.3145 14.7856C87.295 14.8498 87.2621 14.9708 87.2415 15.0545C87.2209 15.1382 87.1871 15.2751 87.1664 15.3588C87.1456 15.4424 87.1093 15.605 87.0856 15.7201C87.042 15.9317 86.9912 16.1394 86.9321 16.3476C86.9142 16.4104 86.8882 16.5344 86.8742 16.6234L86.8488 16.785H88.1047C89.3272 16.785 89.3612 16.783 89.3847 16.7089C89.398 16.6671 89.4258 16.6329 89.4465 16.6329C89.4673 16.6329 89.4751 16.618 89.4638 16.5997C89.4526 16.5815 89.4795 16.5259 89.5237 16.4761C89.5776 16.4155 89.6097 16.4014 89.6212 16.4332C89.6306 16.4594 89.6635 16.4807 89.6944 16.4807C89.7253 16.4807 89.7399 16.4978 89.727 16.5188C89.7137 16.5403 89.7456 16.5568 89.8008 16.5568C89.8543 16.5568 89.8982 16.5739 89.8982 16.5948C89.8982 16.6158 89.9409 16.6329 89.9932 16.6329C90.0455 16.6329 90.0883 16.65 90.0883 16.6709C90.0883 16.6918 90.1301 16.7089 90.1812 16.7089C90.2322 16.7089 90.2846 16.726 90.2975 16.747C90.3104 16.7679 90.3703 16.785 90.4306 16.785C90.4909 16.785 90.5508 16.8021 90.5637 16.823C90.5767 16.8439 90.6975 16.8611 90.8322 16.8611C90.9842 16.8611 91.0772 16.8768 91.0772 16.9027C91.0772 16.9735 92.5756 16.8946 92.6537 16.8197C92.6735 16.8006 92.7377 16.785 92.7963 16.785C92.8549 16.785 92.9028 16.7679 92.9028 16.747C92.9028 16.726 92.9541 16.7089 93.0169 16.7089C93.0796 16.7089 93.131 16.6918 93.131 16.6709C93.131 16.65 93.1652 16.6329 93.207 16.6329C93.2489 16.6329 93.2831 16.6158 93.2831 16.5948C93.2831 16.5739 93.3259 16.5568 93.3782 16.5568C93.4305 16.5568 93.4733 16.5397 93.4733 16.5188C93.4733 16.4978 93.5171 16.4807 93.5706 16.4807C93.6258 16.4807 93.6578 16.4643 93.6444 16.4427C93.6315 16.4218 93.6476 16.4047 93.6802 16.4047C93.7128 16.4047 93.7395 16.3876 93.7395 16.3666C93.7395 16.3457 93.7652 16.3286 93.7966 16.3286C93.8279 16.3286 93.8536 16.3115 93.8536 16.2906C93.8536 16.2696 93.881 16.2525 93.9144 16.2525C93.9479 16.2525 94.0232 16.2012 94.0818 16.1384C94.1404 16.0757 94.2072 16.0243 94.2302 16.0243C94.2532 16.0243 94.272 16.0072 94.272 15.9863C94.272 15.9654 94.2904 15.9483 94.313 15.9483C94.3356 15.9483 94.4218 15.8798 94.5046 15.7961C94.5875 15.7125 94.6717 15.644 94.6918 15.644C94.7119 15.644 94.7284 15.6275 94.7284 15.6072C94.7284 15.587 94.7888 15.51 94.8627 15.4361C94.9367 15.3622 94.9874 15.3017 94.9755 15.3017C94.9636 15.3017 94.9893 15.2632 95.0326 15.2161C95.2254 15.0066 95.3357 14.8605 95.3363 14.8141C95.3366 14.7864 95.3583 14.74 95.3844 14.7108C95.4939 14.5888 95.516 14.5525 95.5406 14.4542C95.5549 14.3973 95.5834 14.3509 95.6039 14.3509C95.6244 14.3509 95.6412 14.3244 95.6412 14.2919C95.6412 14.2292 95.7479 14.0024 95.7924 13.9705C95.807 13.9601 95.8289 13.9173 95.841 13.8755C95.8531 13.8336 95.9006 13.7053 95.9467 13.5902C95.9928 13.4752 96.0553 13.2783 96.0857 13.1528C96.116 13.0273 96.158 12.8562 96.1789 12.7725C96.2715 12.4024 96.2967 12.1562 96.313 11.4626C96.3271 10.8648 96.3185 10.6719 96.2679 10.4547C96.1934 10.1345 96.0898 9.81381 96.0518 9.78555C96.0368 9.77437 95.9907 9.68879 95.9493 9.59538C95.873 9.42286 95.4549 8.95015 95.3786 8.95015C95.3557 8.95015 95.3369 8.93304 95.3369 8.91212C95.3369 8.8912 95.3112 8.87408 95.2799 8.87408C95.2485 8.87408 95.2228 8.85697 95.2228 8.83605C95.2228 8.81513 95.1886 8.79802 95.1467 8.79802C95.1049 8.79802 95.0707 8.7809 95.0707 8.75998C95.0707 8.73907 95.0364 8.72195 94.9946 8.72195C94.9528 8.72195 94.9185 8.70484 94.9185 8.68392C94.9185 8.663 94.8672 8.64588 94.8044 8.64588C94.7417 8.64588 94.6903 8.62877 94.6903 8.60785C94.6903 8.58693 94.6144 8.56982 94.5214 8.56982C94.4285 8.56982 94.342 8.5527 94.329 8.53178C94.3154 8.50973 94.1075 8.49375 93.8346 8.49375C93.5617 8.49375 93.3538 8.50973 93.3402 8.53178C93.3272 8.5527 93.2331 8.56982 93.131 8.56982C93.0289 8.56982 92.9347 8.58693 92.9218 8.60785C92.9089 8.62877 92.848 8.64588 92.7864 8.64588C92.7249 8.64588 92.6746 8.663 92.6746 8.68392C92.6746 8.70484 92.6318 8.72195 92.5795 8.72195C92.5272 8.72195 92.4844 8.73907 92.4844 8.75998C92.4844 8.7809 92.4416 8.79802 92.3893 8.79802C92.337 8.79802 92.2943 8.81513 92.2943 8.83605C92.2943 8.85697 92.26 8.87408 92.2182 8.87408C92.1763 8.87408 92.1421 8.8912 92.1421 8.91212C92.1421 8.93304 92.1122 8.95053 92.0756 8.95099C92.0389 8.95144 91.9662 8.98529 91.9139 9.02622C91.8616 9.06714 91.7989 9.10099 91.7744 9.10145C91.7501 9.1019 91.7244 9.11575 91.7174 9.13218C91.6946 9.18596 91.4663 9.33048 91.4041 9.33048C91.3707 9.33048 91.3434 9.3476 91.3434 9.36852C91.3434 9.38943 91.3192 9.40655 91.2895 9.40655C91.2599 9.40655 91.228 9.42796 91.2187 9.45409C91.2093 9.48026 91.1916 9.49247 91.1793 9.48125C91.1669 9.47003 91.1885 9.33311 91.2273 9.17698C91.2661 9.02085 91.3201 8.7733 91.3473 8.62687C91.3746 8.48044 91.4084 8.35208 91.4226 8.34162C91.4367 8.33116 91.4571 8.25414 91.4678 8.17047C91.4785 8.0868 91.5138 7.90709 91.5463 7.77112C91.5787 7.63515 91.6414 7.36987 91.6856 7.1816C91.7298 6.99334 91.7988 6.70239 91.839 6.53504C91.8792 6.36769 91.9234 6.15805 91.9372 6.06913C91.951 5.98021 91.9771 5.90749 91.9952 5.90749C92.0487 5.90749 92.0325 5.69238 91.9754 5.64495C91.8997 5.58208 89.4549 5.59007 89.414 5.65331ZM68.9158 7.90986C68.9294 7.92344 68.91 7.96197 68.8728 7.99544C68.8356 8.02895 68.7212 8.16762 68.6186 8.30359C68.5159 8.43955 68.4225 8.55936 68.411 8.56982C68.3996 8.58028 68.3389 8.66585 68.2763 8.75998C68.2136 8.85412 68.1452 8.94372 68.1242 8.95909C68.0989 8.97765 68.0989 8.98742 68.1241 8.98818C68.147 8.98887 68.1458 9.00051 68.1212 9.01728C68.0037 9.09726 67.8886 9.55868 67.9861 9.55868C68.0196 9.55868 68.2466 9.29713 68.3118 9.18333C68.3314 9.14922 68.3656 9.1005 68.3879 9.07509C68.4832 8.96632 68.5159 8.92128 68.5615 8.83605C68.5881 8.78638 68.6249 8.72758 68.6434 8.70533C68.7974 8.52003 68.8277 8.47842 68.8277 8.4526C68.8277 8.4364 68.8499 8.4005 68.8769 8.37285C68.9617 8.28628 69.1323 7.95455 69.1104 7.91907C69.0989 7.90047 69.0449 7.88522 68.9903 7.88522C68.9358 7.88522 68.9022 7.89632 68.9158 7.90986ZM80.7321 8.68392C80.7321 8.70849 80.2887 8.72195 79.4778 8.72195H78.2234L78.2076 8.80753C78.1989 8.85457 78.1721 8.98723 78.148 9.10228C78.124 9.21733 78.0891 9.38848 78.0704 9.48262C78.0518 9.57675 78.0196 9.72223 77.9989 9.8059C77.9782 9.88957 77.9337 10.0778 77.9 10.2243C77.8663 10.3707 77.8227 10.559 77.8032 10.6426C77.7836 10.7263 77.7484 10.8889 77.725 11.0039C77.7016 11.119 77.656 11.2987 77.6239 11.4033C77.5917 11.5079 77.5518 11.6705 77.5351 11.7646C77.5066 11.9263 77.3863 12.4766 77.3066 12.8105C77.2866 12.8942 77.2616 13.0054 77.2511 13.0577C77.2303 13.1612 77.1248 13.6058 77.021 14.0276C76.985 14.174 76.9475 14.5088 76.9379 14.7715C76.9229 15.1783 76.9329 15.2995 77.0051 15.5881C77.1003 15.9679 77.2246 16.2525 77.2952 16.2525C77.3209 16.2525 77.3529 16.2868 77.3662 16.3286C77.3795 16.3704 77.4159 16.4047 77.4471 16.4047C77.4783 16.4047 77.4932 16.4218 77.4803 16.4427C77.4674 16.4636 77.4845 16.4807 77.5183 16.4807C77.5522 16.4807 77.5693 16.4978 77.5564 16.5188C77.5434 16.5397 77.5681 16.5568 77.6112 16.5568C77.6542 16.5568 77.6895 16.5739 77.6895 16.5948C77.6895 16.6158 77.7152 16.6329 77.7465 16.6329C77.7779 16.6329 77.8036 16.65 77.8036 16.6709C77.8036 16.6918 77.8378 16.7089 77.8797 16.7089C77.9215 16.7089 77.9557 16.726 77.9557 16.747C77.9557 16.7679 77.9889 16.785 78.0295 16.785C78.0702 16.785 78.1139 16.8021 78.1269 16.823C78.1398 16.8439 78.1997 16.8611 78.26 16.8611C78.3203 16.8611 78.3787 16.8757 78.3898 16.8937C78.4619 17.0103 79.9048 17.012 80.0266 16.8956C80.0465 16.8766 80.1278 16.8611 80.2073 16.8611C80.2868 16.8611 80.3518 16.8439 80.3518 16.823C80.3518 16.8021 80.3946 16.785 80.4469 16.785C80.4992 16.785 80.542 16.7679 80.542 16.747C80.542 16.726 80.5848 16.7089 80.6371 16.7089C80.6894 16.7089 80.7321 16.6918 80.7321 16.6709C80.7321 16.65 80.7749 16.6329 80.8272 16.6329C80.8795 16.6329 80.9223 16.6158 80.9223 16.5948C80.9223 16.5739 80.9565 16.5568 80.9984 16.5568C81.0402 16.5568 81.0744 16.5397 81.0744 16.5188C81.0744 16.4978 81.1087 16.4807 81.1505 16.4807C81.1923 16.4807 81.2266 16.4636 81.2266 16.4427C81.2266 16.4218 81.257 16.4047 81.2942 16.4047C81.3315 16.4047 81.3866 16.3704 81.4167 16.3286C81.4469 16.2868 81.502 16.2525 81.5392 16.2525C81.5764 16.2525 81.6069 16.2354 81.6069 16.2145C81.6069 16.1936 81.6411 16.1765 81.683 16.1765C81.7248 16.1765 81.759 16.1594 81.759 16.1384C81.759 16.1175 81.7857 16.1004 81.8183 16.1004C81.8509 16.1004 81.8671 16.0833 81.8541 16.0624C81.8407 16.0407 81.8736 16.0243 81.9305 16.0243C82.0114 16.0243 82.026 16.0381 82.0074 16.0967C81.9948 16.1365 81.9684 16.2679 81.9487 16.3887C81.9291 16.5094 81.893 16.6206 81.8685 16.6357C81.844 16.6509 81.8345 16.6906 81.8474 16.7241C81.8682 16.7783 82.0133 16.785 83.1646 16.785H84.4584L84.5177 16.6431C84.5503 16.5651 84.5915 16.4067 84.6091 16.2913C84.6268 16.1758 84.659 16.03 84.6808 15.9673C84.7025 15.9045 84.737 15.7676 84.7574 15.663C84.7778 15.5584 84.822 15.353 84.8557 15.2066C84.8894 15.0602 84.9248 14.8976 84.9345 14.8453C84.9618 14.6976 85.0301 14.3838 85.067 14.2368C85.0854 14.1636 85.1273 13.9839 85.1601 13.8374C85.1928 13.691 85.23 13.5455 85.2426 13.5141C85.2552 13.4828 85.2726 13.4057 85.2814 13.343C85.2972 13.229 85.3469 13.0257 85.4117 12.8105C85.4305 12.7478 85.4567 12.628 85.4699 12.5443C85.4831 12.4606 85.5085 12.3649 85.5263 12.3316C85.544 12.2983 85.5692 12.1871 85.5823 12.0844C85.5953 11.9817 85.6247 11.8293 85.6476 11.7456C85.6705 11.6619 85.6939 11.5687 85.6996 11.5385C85.7053 11.5082 85.7377 11.3627 85.7715 11.2152C85.8054 11.0676 85.8672 10.7929 85.9089 10.6046C85.9505 10.4163 86.0023 10.1938 86.0238 10.1102C86.0454 10.0265 86.0799 9.88957 86.1005 9.8059C86.1211 9.72223 86.154 9.6012 86.1735 9.53696C86.193 9.47273 86.2095 9.37004 86.2103 9.30876C86.211 9.24749 86.2361 9.15458 86.266 9.10228C86.3302 8.98993 86.3386 8.76459 86.2815 8.68392C86.2511 8.64098 86.2364 8.63862 86.2219 8.67441C86.207 8.71107 85.9167 8.72195 84.9514 8.72195H83.7002L83.6814 8.80753C83.671 8.85457 83.6458 8.97868 83.6253 9.08327C83.6049 9.18786 83.57 9.35045 83.5476 9.44458C83.5253 9.53871 83.4972 9.66708 83.485 9.72983C83.4729 9.79259 83.4476 9.87276 83.4287 9.90798C83.4099 9.94323 83.3941 10.0203 83.3937 10.0791C83.3933 10.138 83.349 10.3488 83.2952 10.5475C83.2415 10.7463 83.1832 11.003 83.1656 11.118C83.1481 11.2331 83.1139 11.3871 83.0897 11.4603C83.0655 11.5336 83.0119 11.7475 82.9707 11.9358C82.9295 12.124 82.8785 12.3465 82.8575 12.4302C82.8364 12.5139 82.8042 12.6593 82.7859 12.7535C82.7676 12.8476 82.7362 12.9931 82.7161 13.0768C82.696 13.1604 82.6423 13.3915 82.5968 13.5902C82.5513 13.7889 82.499 14.0114 82.4805 14.0846C82.4621 14.1579 82.4357 14.2648 82.4219 14.3223C82.4032 14.4002 82.3735 14.4269 82.3061 14.4269C82.2562 14.4269 82.2154 14.4441 82.2154 14.465C82.2154 14.4859 82.1812 14.503 82.1394 14.503C82.0975 14.503 82.0633 14.5201 82.0633 14.541C82.0633 14.562 82.0376 14.5791 82.0063 14.5791C81.9749 14.5791 81.9492 14.5962 81.9492 14.6171C81.9492 14.638 81.9064 14.6551 81.8541 14.6551C81.8018 14.6551 81.759 14.6723 81.759 14.6932C81.759 14.7141 81.7077 14.7312 81.6449 14.7312C81.5822 14.7312 81.5308 14.7483 81.5308 14.7692C81.5308 14.7902 81.4891 14.8073 81.438 14.8073C81.3869 14.8073 81.3346 14.8244 81.3217 14.8453C81.3079 14.8675 81.0931 14.8833 80.806 14.8833C80.5032 14.8833 80.3138 14.8687 80.3138 14.8453C80.3138 14.8244 80.2743 14.8073 80.2261 14.8073C80.1333 14.8073 79.885 14.599 79.8638 14.5033C79.8569 14.4722 79.8326 14.4351 79.8097 14.421C79.7135 14.3615 79.7885 13.408 79.9318 12.8676C80.0216 12.5294 80.0947 12.2256 80.1241 12.0689C80.1579 11.8891 80.2506 11.4962 80.3349 11.1751C80.4468 10.7487 80.5121 10.4815 80.5439 10.3193C80.6454 9.80084 80.8115 9.07178 80.8453 8.9959C80.8996 8.87412 80.8939 8.76417 80.8299 8.70023C80.7662 8.63649 80.7321 8.63082 80.7321 8.68392ZM66.1274 9.66415C66.1274 9.68491 66.0931 9.71089 66.0513 9.72185C66.0095 9.73276 65.9752 9.75843 65.9752 9.7789C65.9752 9.83344 66.115 9.86184 66.3866 9.86241C66.5187 9.86272 66.6556 9.87816 66.6909 9.89672C66.754 9.93004 67.1157 9.88356 67.2281 9.82769C67.3442 9.76999 67.3047 9.71808 67.1276 9.69537C66.7395 9.64563 66.1274 9.62653 66.1274 9.66415ZM91.7142 10.521C91.6358 10.543 91.5716 10.575 91.5716 10.5923C91.5716 10.6095 91.5288 10.6236 91.4765 10.6236C91.4242 10.6236 91.3815 10.6407 91.3815 10.6616C91.3815 10.6826 91.3472 10.6997 91.3054 10.6997C91.2635 10.6997 91.2293 10.7168 91.2293 10.7377C91.2293 10.7586 91.1867 10.7757 91.1345 10.7757C91.081 10.7757 91.0191 10.8088 90.9923 10.8518C90.9662 10.8936 90.915 10.9279 90.8786 10.9279C90.837 10.9279 90.8044 10.9667 90.7908 11.0325C90.7789 11.09 90.7536 11.197 90.7346 11.2702C90.7155 11.3434 90.6915 11.4546 90.6811 11.5174C90.6403 11.7644 90.5754 12.0554 90.5369 12.164C90.5146 12.2267 90.4884 12.3465 90.4786 12.4302C90.4689 12.5139 90.4455 12.5986 90.4267 12.6185C90.4079 12.6383 90.3924 12.6982 90.3921 12.7516C90.3919 12.8049 90.3647 12.9427 90.3317 13.0577C90.2988 13.1728 90.258 13.3354 90.2411 13.4191C90.2243 13.5027 90.1726 13.7338 90.1262 13.9325C90.0799 14.1312 90.0202 14.3965 89.9936 14.522C89.967 14.6475 89.9328 14.7802 89.9176 14.8168C89.8964 14.8679 89.9087 14.8833 89.9702 14.8833C90.0142 14.8833 90.0503 14.9005 90.0503 14.9214C90.0503 14.9423 90.0835 14.9594 90.1241 14.9594C90.1647 14.9594 90.2085 14.9765 90.2214 14.9974C90.2344 15.0184 90.3466 15.0355 90.4709 15.0355C90.5962 15.0355 90.6968 15.0524 90.6968 15.0735C90.6968 15.0957 90.8236 15.1115 91.0011 15.1115C91.1786 15.1115 91.3054 15.0957 91.3054 15.0735C91.3054 15.0526 91.3961 15.0355 91.507 15.0355C91.7012 15.0355 91.913 14.9711 91.9136 14.9119C91.9138 14.8962 91.9567 14.8833 92.009 14.8833C92.0613 14.8833 92.1041 14.8662 92.1041 14.8453C92.1041 14.8244 92.1363 14.8073 92.1755 14.8073C92.2149 14.8073 92.3176 14.7388 92.4038 14.6551C92.49 14.5715 92.5703 14.503 92.5823 14.503C92.6173 14.503 92.6896 14.4157 92.7476 14.3033C92.7772 14.2458 92.8209 14.1987 92.8446 14.1987C92.8682 14.1987 92.9262 14.126 92.9733 14.0371C93.0204 13.9482 93.0906 13.8156 93.1294 13.7423C93.1681 13.6691 93.2436 13.5065 93.2971 13.381C93.6178 12.6284 93.6813 11.4967 93.4283 11.042C93.3876 10.9688 93.3448 10.8789 93.3333 10.8423C93.3217 10.8057 93.2949 10.7757 93.2736 10.7757C93.2524 10.7757 93.2073 10.7449 93.1735 10.7071C93.1396 10.6694 93.0308 10.6009 92.9317 10.555C92.7758 10.4828 92.691 10.4721 92.3042 10.4763C92.0581 10.4789 91.7927 10.4991 91.7142 10.521Z" fill="white"/>
<path d="M24.5002 13.7139L27.2815 15.5L26.5254 12.1667L29 9.93781L25.7517 9.66418L24.5002 6.5L23.2487 9.66418L20 9.93781L22.4751 12.1667L21.719 15.5L24.5002 13.7139Z" fill="white"/>
<defs>
<linearGradient id="paint0_linear_1800_41044" x1="2.02075e-06" y1="22" x2="27.4502" y2="65.9396" gradientUnits="userSpaceOnUse">
<stop stop-color="#DD1E42"/>
<stop offset="0.531382" stop-color="#FA708A"/>
<stop offset="1" stop-color="#B50728"/>
</linearGradient>
</defs>
</svg>
