<svg width="17" height="20" viewBox="0 0 17 20" fill="none" xmlns="http://www.w3.org/2000/svg">
<path d="M15.8345 8.91027L7.20464 0.283287C6.82597 -0.094429 6.21246 -0.094429 5.83283 0.283287C5.45416 0.661003 5.45416 1.27451 5.83283 1.65223L13.7782 9.5947L5.83379 17.5372C5.45512 17.9149 5.45512 18.5284 5.83379 18.9071C6.21246 19.2848 6.82693 19.2848 7.2056 18.9071L15.8355 10.2801C16.2084 9.90628 16.2084 9.28313 15.8345 8.91027Z" fill="white"/>
<g opacity="0.7">
<path d="M1.91001 3.43142L1.9099 3.43131L0.915872 4.42373L0.814916 4.52472L0.815026 4.52483L5.8871 9.59507L0.815648 14.6653C0.815625 14.6653 0.815602 14.6654 0.815579 14.6654C0.513088 14.9672 0.513295 15.4571 0.815521 15.7593L0.815648 15.7595C1.11794 16.061 1.60824 16.061 1.91053 15.7595L1.91064 15.7593L7.52953 10.1423L7.52966 10.1422C7.82804 9.8431 7.82823 9.34694 7.52878 9.04832L1.91001 3.43142Z" fill="white" stroke="white" stroke-width="0.285597"/>
</g>
</svg>
