<svg width="231" height="190" viewBox="0 0 231 190" fill="none" xmlns="http://www.w3.org/2000/svg">
<path d="M193.414 88.3389H40.5926C23.604 88.3389 9.83398 102.11 9.83398 119.097C9.83398 136.084 23.6048 149.855 40.5917 149.855H193.414C210.4 149.855 224.171 136.084 224.171 119.097C224.171 102.11 210.4 88.3389 193.414 88.3389V88.3389Z" fill="#E5F0FB"/>
<path d="M184.088 166.792H37.9498C42.6265 166.792 46.4179 162.999 46.4179 158.323C46.4179 153.647 42.6265 149.854 37.9498 149.854H184.087C179.409 149.854 175.619 153.648 175.619 158.323C175.619 162.998 179.41 166.792 184.088 166.792ZM184.4 166.792H37.6398C31.4903 166.792 26.5062 171.776 26.5062 177.924C26.5062 184.073 31.4903 189.057 37.6398 189.057H184.4C190.548 189.057 195.533 184.073 195.533 177.924C195.533 171.776 190.548 166.792 184.4 166.792ZM30.4971 59.7578H22.624C20.7993 59.7578 19.0494 60.4827 17.7592 61.7729C16.469 63.0631 15.7441 64.813 15.7441 66.6377C15.7441 68.4623 16.469 70.2122 17.7592 71.5025C19.0494 72.7927 20.7993 73.5175 22.624 73.5175H30.4971C32.3217 73.5175 34.0717 72.7927 35.3619 71.5025C36.6521 70.2122 37.3769 68.4623 37.3769 66.6377C37.3769 64.813 36.6521 63.0631 35.3619 61.7729C34.0717 60.4827 32.3217 59.7578 30.4971 59.7578ZM227.504 185.798C231.851 181.45 231.851 174.401 227.504 170.053C223.156 165.705 216.107 165.705 211.759 170.053C207.411 174.401 207.411 181.45 211.759 185.798C216.107 190.146 223.156 190.146 227.504 185.798Z" fill="#E5F0FB"/>
<path d="M59.8153 43.3823L61.0131 46.7506C61.0645 46.8949 61.1659 47.0092 61.2941 47.0669L64.2867 48.4153C64.7094 48.6057 64.7094 49.2793 64.2867 49.4699L61.2941 50.8182C61.1659 50.876 61.0645 50.9902 61.0131 51.1344L59.8153 54.5028C59.6461 54.9786 59.0475 54.9786 58.8783 54.5028L57.6805 51.1344C57.6292 50.9902 57.5277 50.8758 57.3995 50.8182L54.4069 49.4699C53.9842 49.2795 53.9842 48.6059 54.4069 48.4153L57.3995 47.0669C57.5277 47.0092 57.6292 46.8949 57.6805 46.7506L58.8783 43.3823C59.0475 42.9064 59.646 42.9064 59.8153 43.3823V43.3823Z" fill="#FED330"/>
<path d="M170.502 53.8649L171.825 57.5856C171.882 57.7449 171.994 57.8712 172.136 57.935L175.441 59.4243C175.908 59.6347 175.908 60.3788 175.441 60.5893L172.136 62.0787C171.994 62.1424 171.882 62.2686 171.825 62.4279L170.502 66.1486C170.315 66.6742 169.654 66.6742 169.467 66.1486L168.144 62.4279C168.087 62.2686 167.975 62.1423 167.834 62.0787L164.528 60.5893C164.061 60.3789 164.061 59.6349 164.528 59.4243L167.834 57.935C167.975 57.8712 168.087 57.7449 168.144 57.5856L169.467 53.8649C169.654 53.3393 170.315 53.3393 170.502 53.8649V53.8649Z" fill="#FED330"/>
<path d="M165.456 116.169C165.456 137.958 147.792 155.622 126.003 155.622C104.214 155.622 86.5508 137.958 86.5508 116.169C86.5508 94.3803 104.214 76.7168 126.003 76.7168C147.792 76.7168 165.456 94.3803 165.456 116.169Z" fill="#E6EEF6" stroke="#D6D6D6"/>
<path d="M106.679 55.5928C104.452 55.5928 102.646 53.7881 102.645 51.5613C102.645 51.4465 102.597 39.9545 99.5112 28.7264C95.7432 15.0181 89.4332 8.06733 80.756 8.06733C73.0027 8.06733 69.5322 12.6824 69.5322 17.2563C69.5322 23.5112 75.7486 30.2434 89.3969 30.2434C91.6246 30.2434 93.4306 32.0494 93.4306 34.277C93.4306 36.5047 91.6246 38.3107 89.3969 38.3107C71.8072 38.3107 61.4648 28.5288 61.4648 17.2563C61.4648 8.68099 68.0911 0 80.756 0C89.5526 0 101.304 4.63845 107.33 26.7351C110.674 38.9967 110.713 51.052 110.713 51.5591C110.713 53.7868 108.907 55.5928 106.679 55.5928V55.5928Z" fill="#E5F0FB"/>
<path d="M10.4834 102.686L12.6766 108.853C12.7706 109.117 12.9565 109.327 13.1912 109.432L18.6706 111.901C19.4447 112.25 19.4447 113.483 18.6706 113.832L13.1912 116.301C12.9565 116.407 12.7706 116.616 12.6766 116.88L10.4834 123.047C10.1736 123.919 9.07753 123.919 8.76779 123.047L6.57453 116.88C6.48054 116.616 6.29469 116.407 6.05999 116.301L0.580559 113.832C-0.19352 113.484 -0.19352 112.25 0.580559 111.901L6.05999 109.432C6.29469 109.327 6.48054 109.117 6.57453 108.853L8.76779 102.686C9.07753 101.814 10.1734 101.814 10.4834 102.686V102.686Z" fill="#FFC54D"/>
<path d="M193.651 85.4757L195.845 91.6432C195.939 91.9073 196.124 92.1167 196.359 92.2224L201.839 94.6912C202.613 95.04 202.613 96.2733 201.839 96.6223L196.359 99.0911C196.124 99.1969 195.939 99.4059 195.845 99.67L193.651 105.838C193.342 106.709 192.245 106.709 191.936 105.838L189.742 99.67C189.649 99.4059 189.463 99.1966 189.228 99.0911L183.749 96.6223C182.974 96.2736 182.974 95.0402 183.749 94.6912L189.228 92.2224C189.463 92.1167 189.649 91.9073 189.742 91.6432L191.936 85.4757C192.245 84.6044 193.341 84.6044 193.651 85.4757V85.4757Z" fill="#FFC54D"/>
<circle cx="121.087" cy="121.087" r="39.9525" stroke="#D72937" stroke-opacity="0.6" stroke-linecap="round" stroke-dasharray="2 2"/>
<path d="M121.705 104.486C121.175 104.486 120.746 103.868 120.746 103.104V94.8101C120.746 94.0466 121.175 93.4277 121.705 93.4277C122.234 93.4277 122.663 94.0466 122.663 94.8101V103.104C122.663 103.868 122.234 104.486 121.705 104.486Z" fill="#F0C419"/>
<path d="M128.412 105.869C127.882 105.869 127.453 105.25 127.453 104.486V94.8101C127.453 94.0466 127.882 93.4277 128.412 93.4277C128.941 93.4277 129.37 94.0466 129.37 94.8101V104.486C129.37 105.25 128.941 105.869 128.412 105.869Z" fill="#F0C419"/>
<path d="M135.123 110.016C134.593 110.016 134.164 109.397 134.164 108.633V103.104C134.164 102.341 134.593 101.722 135.123 101.722C135.652 101.722 136.081 102.341 136.081 103.104V108.633C136.081 109.397 135.652 110.016 135.123 110.016Z" fill="#F0C419"/>
<path d="M135.123 98.9571C134.593 98.9571 134.164 98.3382 134.164 97.5748V94.8101C134.164 94.0466 134.593 93.4277 135.123 93.4277C135.652 93.4277 136.081 94.0466 136.081 94.8101V97.5748C136.081 98.3382 135.652 98.9571 135.123 98.9571Z" fill="#F0C419"/>
<path d="M141.83 133.516C141.3 133.516 140.871 132.897 140.871 132.134V101.722C140.871 100.959 141.3 100.34 141.83 100.34C142.359 100.34 142.788 100.959 142.788 101.722V132.134C142.788 132.897 142.359 133.516 141.83 133.516Z" fill="#F0C419"/>
<path d="M114.996 105.869C114.466 105.869 114.037 105.25 114.037 104.486V94.8101C114.037 94.0466 114.466 93.4277 114.996 93.4277C115.525 93.4277 115.954 94.0466 115.954 94.8101V104.486C115.954 105.25 115.525 105.869 114.996 105.869Z" fill="#F0C419"/>
<path d="M108.285 110.016C107.755 110.016 107.326 109.397 107.326 108.633V103.104C107.326 102.341 107.755 101.722 108.285 101.722C108.814 101.722 109.243 102.341 109.243 103.104V108.633C109.243 109.397 108.814 110.016 108.285 110.016Z" fill="#F0C419"/>
<path d="M108.285 98.9571C107.755 98.9571 107.326 98.3382 107.326 97.5748V94.8101C107.326 94.0466 107.755 93.4277 108.285 93.4277C108.814 93.4277 109.243 94.0466 109.243 94.8101V97.5748C109.243 98.3382 108.814 98.9571 108.285 98.9571Z" fill="#F0C419"/>
<path d="M101.576 133.516C101.046 133.516 100.617 132.897 100.617 132.134V101.722C100.617 100.959 101.046 100.34 101.576 100.34C102.105 100.34 102.534 100.959 102.534 101.722V132.134C102.534 132.897 102.105 133.516 101.576 133.516Z" fill="#F0C419"/>
<path d="M121.704 149.976C134.408 149.976 144.706 139.677 144.706 126.973C144.706 114.269 134.408 103.971 121.704 103.971C109 103.971 98.7012 114.269 98.7012 126.973C98.7012 139.677 109 149.976 121.704 149.976Z" fill="#FEDC95"/>
<path d="M123.462 113.741L126.102 119.306C126.377 119.903 126.931 120.324 127.579 120.43L133.436 121.314C134.196 121.465 134.811 122.022 135.038 122.763C135.264 123.504 135.064 124.31 134.518 124.86L130.317 129.117C129.842 129.607 129.628 130.293 129.742 130.966L130.739 137.004C130.899 137.753 130.616 138.528 130.01 138.996C129.404 139.464 128.583 139.543 127.899 139.199L122.608 136.308C122.045 135.998 121.363 135.998 120.8 136.308L115.51 139.199C114.826 139.543 114.005 139.464 113.399 138.996C112.793 138.528 112.509 137.753 112.67 137.004L113.667 130.966C113.78 130.293 113.567 129.607 113.092 129.117L108.891 124.86C108.344 124.31 108.145 123.504 108.371 122.763C108.597 122.022 109.213 121.465 109.973 121.314L115.829 120.43C116.479 120.325 117.033 119.903 117.309 119.306L119.948 113.747C120.252 113.048 120.941 112.595 121.703 112.594C122.465 112.593 123.156 113.043 123.462 113.741Z" fill="#F29C1F"/>
</svg>
