<svg width="157" height="30" viewBox="0 0 157 30" fill="none" xmlns="http://www.w3.org/2000/svg">
<path fill-rule="evenodd" clip-rule="evenodd" d="M0 0L154 0C155.657 0 157 1.34315 157 3V22H0L9 11L0 0Z" fill="#CE2323"/>
<path fill-rule="evenodd" clip-rule="evenodd" d="M0 0L154 0C155.657 0 157 1.34315 157 3V22H0L9 11L0 0Z" fill="url(#paint0_linear_2595_155128)"/>
<path opacity="0.6" fill-rule="evenodd" clip-rule="evenodd" d="M9 11L18 0H0L9 11ZM0 22H18L9 11L0 22Z" fill="#EA8A8A"/>
<path d="M150 22H157L150 30V22Z" fill="#690E1F"/>
<path d="M143.844 14.0155L146.935 16L146.094 12.2963L148.844 9.81979L145.235 9.51575L143.844 6L142.454 9.51575L138.844 9.81979L141.594 12.2963L140.754 16L143.844 14.0155Z" fill="white"/>
<path d="M78.7245 15.9576C78.6315 15.9576 78.5524 15.925 78.4873 15.8599C78.4221 15.7948 78.3896 15.7157 78.3896 15.6226V6.53675C78.3896 6.4344 78.4221 6.35065 78.4873 6.28552C78.5524 6.22039 78.6315 6.18782 78.7245 6.18782H82.3394C83.4652 6.18782 84.3538 6.44835 85.0051 6.96941C85.6564 7.49046 85.9821 8.24878 85.9821 9.24437C85.9821 9.93291 85.81 10.5051 85.4657 10.9611C85.1307 11.417 84.6795 11.7473 84.1119 11.952L86.1496 15.511C86.1775 15.5668 86.1914 15.618 86.1914 15.6645C86.1914 15.7483 86.1589 15.818 86.0938 15.8739C86.0379 15.9297 85.9728 15.9576 85.8984 15.9576H84.6283C84.4701 15.9576 84.3491 15.9157 84.2654 15.832C84.1817 15.7483 84.1165 15.6645 84.07 15.5808L82.2696 12.273H80.3296V15.6226C80.3296 15.7157 80.297 15.7948 80.2319 15.8599C80.1761 15.925 80.097 15.9576 79.9946 15.9576H78.7245ZM80.3296 10.6959H82.2975C82.8651 10.6959 83.2884 10.5703 83.5676 10.319C83.8467 10.0585 83.9863 9.69564 83.9863 9.23041C83.9863 8.76519 83.8467 8.40231 83.5676 8.14178C83.2977 7.87195 82.8744 7.73703 82.2975 7.73703H80.3296V10.6959Z" fill="white"/>
<path d="M90.6575 16.0972C89.6247 16.0972 88.8059 15.7994 88.2011 15.2039C87.5963 14.6084 87.2707 13.7617 87.2241 12.6638C87.2148 12.5707 87.2102 12.4544 87.2102 12.3149C87.2102 12.166 87.2148 12.0497 87.2241 11.966C87.2614 11.2588 87.4195 10.654 87.6987 10.1516C87.9871 9.63981 88.3826 9.24902 88.885 8.97919C89.3875 8.70005 89.9783 8.56049 90.6575 8.56049C91.4112 8.56049 92.0439 8.71866 92.5557 9.03502C93.0674 9.34207 93.4535 9.77473 93.7141 10.333C93.9746 10.882 94.1049 11.5193 94.1049 12.2451V12.5382C94.1049 12.6312 94.0723 12.7103 94.0072 12.7754C93.942 12.8406 93.8583 12.8731 93.7559 12.8731H89.1223C89.1223 12.8731 89.1223 12.8871 89.1223 12.915C89.1223 12.9429 89.1223 12.9662 89.1223 12.9848C89.1316 13.3105 89.1921 13.6129 89.3037 13.892C89.4247 14.1618 89.5968 14.3805 89.8201 14.548C90.0527 14.7154 90.3272 14.7992 90.6436 14.7992C90.9041 14.7992 91.1228 14.762 91.2995 14.6875C91.4763 14.6038 91.6205 14.5107 91.7322 14.4084C91.8439 14.306 91.9229 14.2223 91.9695 14.1572C92.0532 14.0455 92.1183 13.9804 92.1649 13.9618C92.2207 13.9339 92.2998 13.9199 92.4021 13.9199H93.6024C93.6955 13.9199 93.7699 13.9478 93.8257 14.0036C93.8909 14.0595 93.9188 14.1293 93.9095 14.213C93.9002 14.3619 93.8211 14.5433 93.6722 14.7573C93.5326 14.9713 93.3279 15.1807 93.0581 15.3854C92.7883 15.5901 92.4487 15.7622 92.0392 15.9018C91.6392 16.032 91.1786 16.0972 90.6575 16.0972ZM89.1223 11.7008H92.2067V11.6589C92.2067 11.296 92.1463 10.9797 92.0253 10.7098C91.9043 10.4307 91.7276 10.2167 91.4949 10.0678C91.2623 9.90965 90.9832 9.83056 90.6575 9.83056C90.3319 9.83056 90.0527 9.90965 89.8201 10.0678C89.5875 10.2167 89.4107 10.4307 89.2898 10.7098C89.1781 10.9797 89.1223 11.296 89.1223 11.6589V11.7008Z" fill="white"/>
<path d="M97.3638 15.9576C97.2335 15.9576 97.1358 15.925 97.0707 15.8599C97.0056 15.7948 96.9497 15.711 96.9032 15.6087L94.9074 9.13272C94.8981 9.08619 94.8934 9.04432 94.8934 9.0071C94.8934 8.92336 94.9213 8.85358 94.9772 8.79775C95.0423 8.73262 95.1121 8.70005 95.1865 8.70005H96.2193C96.331 8.70005 96.4194 8.73262 96.4845 8.79775C96.5496 8.85358 96.5868 8.90941 96.5962 8.96523L97.9639 13.5849L99.4154 9.0071C99.434 8.94197 99.4759 8.87684 99.541 8.81171C99.6062 8.73727 99.7039 8.70005 99.8341 8.70005H100.532C100.662 8.70005 100.76 8.73727 100.825 8.81171C100.89 8.87684 100.932 8.94197 100.951 9.0071L102.402 13.5849L103.77 8.96523C103.779 8.90941 103.812 8.85358 103.868 8.79775C103.933 8.73262 104.021 8.70005 104.133 8.70005H105.166C105.249 8.70005 105.319 8.73262 105.375 8.79775C105.44 8.85358 105.473 8.92336 105.473 9.0071C105.473 9.04432 105.463 9.08619 105.445 9.13272L103.449 15.6087C103.421 15.711 103.37 15.7948 103.295 15.8599C103.23 15.925 103.133 15.9576 103.002 15.9576H102.095C101.974 15.9576 101.872 15.925 101.788 15.8599C101.714 15.7948 101.662 15.711 101.635 15.6087L100.183 11.1983L98.7316 15.6087C98.6943 15.711 98.6385 15.7948 98.5641 15.8599C98.4989 15.925 98.3966 15.9576 98.257 15.9576H97.3638Z" fill="white"/>
<path d="M108.72 16.0972C108.236 16.0972 107.799 16.0041 107.408 15.818C107.018 15.6226 106.706 15.3668 106.473 15.0504C106.25 14.7248 106.138 14.3619 106.138 13.9618C106.138 13.3105 106.403 12.7941 106.934 12.4126C107.464 12.0218 108.157 11.7613 109.013 11.631L110.925 11.3519V11.0588C110.925 10.668 110.828 10.3656 110.632 10.1516C110.437 9.93756 110.102 9.83056 109.627 9.83056C109.293 9.83056 109.018 9.90034 108.804 10.0399C108.599 10.1702 108.446 10.347 108.343 10.5703C108.269 10.6912 108.162 10.7517 108.022 10.7517H106.92C106.817 10.7517 106.738 10.7238 106.683 10.668C106.636 10.6121 106.613 10.5377 106.613 10.4447C106.622 10.2958 106.683 10.1143 106.794 9.90034C106.915 9.68634 107.092 9.48164 107.325 9.28624C107.567 9.08154 107.878 8.90941 108.26 8.76984C108.641 8.63027 109.102 8.56049 109.641 8.56049C110.228 8.56049 110.721 8.63492 111.121 8.7838C111.53 8.92336 111.856 9.11411 112.098 9.35603C112.34 9.59794 112.517 9.88173 112.628 10.2074C112.74 10.5331 112.796 10.8773 112.796 11.2402V15.6226C112.796 15.7157 112.763 15.7948 112.698 15.8599C112.633 15.925 112.554 15.9576 112.461 15.9576H111.33C111.228 15.9576 111.144 15.925 111.079 15.8599C111.023 15.7948 110.995 15.7157 110.995 15.6226V15.0783C110.874 15.2458 110.711 15.4086 110.507 15.5668C110.302 15.725 110.051 15.8553 109.753 15.9576C109.465 16.0507 109.12 16.0972 108.72 16.0972ZM109.195 14.7713C109.52 14.7713 109.814 14.7015 110.074 14.5619C110.344 14.4224 110.553 14.2084 110.702 13.9199C110.86 13.6222 110.939 13.25 110.939 12.8034V12.5103L109.544 12.7336C108.995 12.8173 108.585 12.9522 108.316 13.1383C108.046 13.3244 107.911 13.5524 107.911 13.8222C107.911 14.0269 107.971 14.2037 108.092 14.3526C108.222 14.4921 108.385 14.5991 108.581 14.6736C108.776 14.7387 108.981 14.7713 109.195 14.7713Z" fill="white"/>
<path d="M114.921 15.9576C114.828 15.9576 114.749 15.925 114.684 15.8599C114.619 15.7948 114.586 15.7157 114.586 15.6226V9.04897C114.586 8.94662 114.619 8.86288 114.684 8.79775C114.749 8.73262 114.828 8.70005 114.921 8.70005H116.052C116.145 8.70005 116.224 8.73262 116.289 8.79775C116.363 8.86288 116.401 8.94662 116.401 9.04897V9.62121C116.615 9.32346 116.889 9.0955 117.224 8.93732C117.568 8.77914 117.964 8.70005 118.41 8.70005H118.983C119.085 8.70005 119.164 8.73262 119.22 8.79775C119.285 8.86288 119.318 8.94197 119.318 9.03502V10.0399C119.318 10.133 119.285 10.212 119.22 10.2772C119.164 10.3423 119.085 10.3749 118.983 10.3749H117.894C117.447 10.3749 117.098 10.5005 116.847 10.7517C116.605 10.9936 116.484 11.3379 116.484 11.7845V15.6226C116.484 15.7157 116.452 15.7948 116.387 15.8599C116.321 15.925 116.238 15.9576 116.135 15.9576H114.921Z" fill="white"/>
<path d="M122.991 16.0972C122.507 16.0972 122.079 16.0181 121.707 15.8599C121.344 15.6924 121.041 15.4598 120.799 15.1621C120.558 14.8643 120.371 14.5154 120.241 14.1153C120.111 13.7059 120.037 13.2593 120.018 12.7754C120.009 12.608 120.004 12.4591 120.004 12.3288C120.004 12.1893 120.009 12.0357 120.018 11.8683C120.037 11.403 120.106 10.9704 120.227 10.5703C120.358 10.1702 120.544 9.82125 120.786 9.52351C121.037 9.21646 121.344 8.97919 121.707 8.81171C122.079 8.64423 122.507 8.56049 122.991 8.56049C123.493 8.56049 123.917 8.64888 124.261 8.82567C124.614 8.99315 124.907 9.21181 125.14 9.48164V6.38322C125.14 6.29018 125.168 6.21109 125.224 6.14596C125.289 6.08082 125.373 6.04826 125.475 6.04826H126.661C126.754 6.04826 126.833 6.08082 126.899 6.14596C126.964 6.21109 126.996 6.29018 126.996 6.38322V15.6226C126.996 15.7157 126.964 15.7948 126.899 15.8599C126.833 15.925 126.754 15.9576 126.661 15.9576H125.559C125.456 15.9576 125.373 15.925 125.308 15.8599C125.252 15.7948 125.224 15.7157 125.224 15.6226V15.1062C124.991 15.3947 124.693 15.6319 124.331 15.818C123.977 16.0041 123.53 16.0972 122.991 16.0972ZM123.507 14.6038C123.898 14.6038 124.21 14.5154 124.442 14.3386C124.675 14.1618 124.847 13.9385 124.959 13.6687C125.07 13.3896 125.131 13.1058 125.14 12.8173C125.149 12.6498 125.154 12.4731 125.154 12.287C125.154 12.0916 125.149 11.9101 125.14 11.7426C125.131 11.4635 125.066 11.1983 124.945 10.9471C124.824 10.6866 124.647 10.4726 124.414 10.3051C124.182 10.1376 123.879 10.0539 123.507 10.0539C123.116 10.0539 122.805 10.1423 122.572 10.319C122.349 10.4865 122.186 10.7098 122.084 10.989C121.981 11.2681 121.921 11.5752 121.902 11.9101C121.893 12.1893 121.893 12.4684 121.902 12.7475C121.921 13.0825 121.981 13.3896 122.084 13.6687C122.186 13.9478 122.349 14.1758 122.572 14.3526C122.805 14.5201 123.116 14.6038 123.507 14.6038Z" fill="white"/>
<path d="M131.606 16.0972C131.048 16.0972 130.569 16.032 130.168 15.9018C129.778 15.7715 129.457 15.6087 129.205 15.4133C128.954 15.2179 128.768 15.0225 128.647 14.8271C128.526 14.6317 128.461 14.4689 128.452 14.3386C128.442 14.2363 128.47 14.1572 128.535 14.1013C128.61 14.0362 128.689 14.0036 128.773 14.0036H129.875C129.913 14.0036 129.945 14.0083 129.973 14.0176C130.001 14.0269 130.038 14.0548 130.085 14.1013C130.206 14.2037 130.331 14.3107 130.462 14.4224C130.601 14.534 130.764 14.6317 130.95 14.7154C131.136 14.7899 131.369 14.8271 131.648 14.8271C132.011 14.8271 132.313 14.7573 132.555 14.6178C132.806 14.4689 132.932 14.2595 132.932 13.9897C132.932 13.7943 132.876 13.6361 132.764 13.5152C132.662 13.3942 132.467 13.2872 132.178 13.1942C131.89 13.0918 131.48 12.9848 130.95 12.8731C130.429 12.7522 129.996 12.5987 129.652 12.4126C129.308 12.2265 129.052 11.9939 128.884 11.7147C128.717 11.4356 128.633 11.1099 128.633 10.7378C128.633 10.3749 128.74 10.0306 128.954 9.70495C129.177 9.36998 129.503 9.0955 129.931 8.88149C130.368 8.66749 130.908 8.56049 131.55 8.56049C132.053 8.56049 132.49 8.62562 132.862 8.75588C133.234 8.87684 133.541 9.03037 133.783 9.21646C134.034 9.40255 134.225 9.59329 134.355 9.78869C134.486 9.97478 134.556 10.1376 134.565 10.2772C134.574 10.3795 134.546 10.4633 134.481 10.5284C134.416 10.5842 134.342 10.6121 134.258 10.6121H133.225C133.178 10.6121 133.137 10.6028 133.099 10.5842C133.062 10.5656 133.025 10.5424 132.988 10.5144C132.885 10.4214 132.774 10.3237 132.653 10.2213C132.532 10.1097 132.383 10.0166 132.206 9.94221C132.039 9.86778 131.815 9.83056 131.536 9.83056C131.183 9.83056 130.913 9.90965 130.727 10.0678C130.541 10.2167 130.448 10.4074 130.448 10.6401C130.448 10.7982 130.489 10.9378 130.573 11.0588C130.666 11.1704 130.848 11.2774 131.118 11.3798C131.387 11.4821 131.797 11.5891 132.346 11.7008C132.969 11.8124 133.462 11.9799 133.825 12.2032C134.197 12.4172 134.458 12.6684 134.607 12.9569C134.765 13.236 134.844 13.5477 134.844 13.892C134.844 14.3107 134.718 14.6875 134.467 15.0225C134.225 15.3575 133.862 15.6226 133.379 15.818C132.904 16.0041 132.313 16.0972 131.606 16.0972Z" fill="white"/>
<path d="M75.3334 6.14231L74.7423 8.77389C74.7137 8.89784 74.5993 8.98841 74.4705 8.98841H73.6267C73.4646 8.98841 73.3407 8.85493 73.3502 8.69761C73.3502 8.66423 73.3502 8.64993 73.3502 8.64993C73.3931 7.79181 72.8449 7.14822 71.6006 7.14822C69.5363 7.14822 68.0346 8.82156 67.8344 11.0193C67.6342 13.2886 69.236 14.6091 71.4624 14.6091C72.6017 14.6091 73.5075 14.3898 74.0129 14.2325C74.2131 14.1705 74.4086 14.3421 74.3704 14.5471L74.1082 15.9058C74.0844 16.025 73.9986 16.1156 73.8889 16.1537C73.4313 16.2967 72.1536 16.6352 70.1942 16.6352C65.5413 16.6352 63.6535 13.9941 63.9443 11.3006C64.2017 8.9026 65.8083 5.36523 72.1488 5.36523C73.3645 5.36523 74.3323 5.55593 75.0998 5.76569C75.2667 5.8086 75.3668 5.98022 75.3287 6.14708M48.8699 5.77523L48.7174 6.46172C48.684 6.61428 48.7746 6.76683 48.9271 6.81451C49.1941 6.91939 49.2561 7.17206 49.0225 7.36275L45.1276 10.5569L45.795 7.54868C45.9094 7.08625 46.2813 6.89555 46.5149 6.81928C46.5292 6.81928 46.5387 6.80974 46.553 6.80497C46.6579 6.7716 46.7342 6.69055 46.758 6.58567L46.9201 5.87057C46.9582 5.69895 46.8295 5.54163 46.6531 5.54163H41.6331C41.4901 5.54163 41.3661 5.63697 41.3375 5.77523L41.1754 6.49986C41.1421 6.64765 41.2279 6.79544 41.3709 6.84311C41.3995 6.85264 41.4186 6.85741 41.4233 6.85741C41.738 6.98136 42.1051 7.2531 41.9477 7.97297L40.7511 13.3839C40.4365 14.8618 39.9312 15.1621 39.4449 15.2193C39.4401 15.2193 39.4354 15.2193 39.4258 15.2193C39.2971 15.2336 39.1922 15.329 39.1636 15.4529L39.0063 16.1442C38.9682 16.3206 39.1064 16.4922 39.2923 16.4922H44.5698C44.6985 16.4922 44.8129 16.4016 44.8368 16.2777L45.0179 15.4672C45.0465 15.3337 44.975 15.2003 44.8463 15.1526C44.8368 15.1526 44.8225 15.1431 44.8129 15.1383C44.5459 15.0334 44.1789 14.8046 44.2742 14.3755L44.8844 11.6105C46.9868 15.4053 47.6829 16.497 50.2048 16.497H52.4836C52.6123 16.497 52.7219 16.4064 52.7505 16.2824L52.9126 15.5816C52.9555 15.4005 52.8173 15.2289 52.6314 15.2241C52.0593 15.2146 51.7828 15.0858 51.2155 14.366L48.2931 10.4568L52.0926 7.33891C52.6028 6.94322 53.2225 6.83357 53.5658 6.79067C53.5658 6.79067 53.5801 6.79067 53.6039 6.79067C53.7231 6.77637 53.8232 6.69532 53.8518 6.57614L54.0091 5.88011C54.0473 5.70848 53.9138 5.54639 53.7374 5.54639H49.1655C49.0225 5.54639 48.9033 5.64174 48.8699 5.77999M62.9288 8.78342H63.8203C63.949 8.78342 64.0634 8.69284 64.0873 8.56889L64.6927 5.88011C64.7309 5.70848 64.6022 5.54639 64.421 5.54639H55.0722C54.9292 5.54639 54.81 5.64174 54.7767 5.77999L54.6146 6.49986C54.5812 6.64288 54.6622 6.78113 54.8005 6.82881C54.81 6.82881 54.8196 6.83835 54.8339 6.83835C55.139 6.95276 55.568 7.24834 55.3821 7.97297L53.5515 16.168C53.5133 16.3397 53.6468 16.5017 53.8184 16.5017H58.0232C58.1519 16.5017 58.2664 16.4112 58.2902 16.2872L58.4761 15.4672C58.5047 15.348 58.438 15.2241 58.3283 15.1717C58.314 15.1669 58.2997 15.1574 58.2854 15.1526C58.0185 15.0239 57.6228 14.7283 57.7562 14.1514C57.7706 14.0752 58.1662 12.297 58.1662 12.297H61.7417C61.8705 12.297 61.9849 12.2064 62.0135 12.0824L62.352 10.5855C62.3901 10.4139 62.2566 10.2518 62.0802 10.2518H58.6287L59.2723 7.35322H61.6845C62.4616 7.35322 62.7 7.75368 62.6571 8.44017C62.6571 8.44017 62.6571 8.4497 62.6571 8.47831C62.638 8.6404 62.7667 8.78342 62.9336 8.78342" fill="white"/>
<path d="M30.5002 13.7139L33.2814 15.5L32.5253 12.1667L34.9999 9.93781L31.7517 9.66418L30.5002 6.5L29.2487 9.66418L25.9999 9.93781L28.475 12.1667L27.7189 15.5L30.5002 13.7139Z" fill="white"/>
<defs>
<linearGradient id="paint0_linear_2595_155128" x1="35" y1="22" x2="62.4502" y2="65.9396" gradientUnits="userSpaceOnUse">
<stop stop-color="#DD1E42"/>
<stop offset="0.531382" stop-color="#FA708A"/>
<stop offset="1" stop-color="#B50728"/>
</linearGradient>
</defs>
</svg>
