<svg width="157" height="30" viewBox="0 0 157 30" fill="none" xmlns="http://www.w3.org/2000/svg">
<path fill-rule="evenodd" clip-rule="evenodd" d="M147 0L3 0C1.34314 0 0 1.34315 0 3V22H147L138 11L147 0Z" fill="#CE2323"/>
<path fill-rule="evenodd" clip-rule="evenodd" d="M147 0L3 0C1.34314 0 0 1.34315 0 3V22H147L138 11L147 0Z" fill="url(#paint0_linear_2595_155140)"/>
<path opacity="0.6" fill-rule="evenodd" clip-rule="evenodd" d="M138 11L129 0H147L138 11ZM147 22H129L138 11L147 22Z" fill="#EA8A8A"/>
<path d="M7 22H0L7 30V22Z" fill="#690E1F"/>
<path d="M116.337 14.0155L119.427 16L118.587 12.2963L121.337 9.81979L117.728 9.51575L116.337 6L114.947 9.51575L111.337 9.81979L114.087 12.2963L113.247 16L116.337 14.0155Z" fill="white"/>
<g clip-path="url(#clip0_2595_155140)">
<path fill-rule="evenodd" clip-rule="evenodd" d="M68.9825 8.53777H70.7008V6.69287H68.9825V8.53777ZM66.5973 8.53777H68.3156V6.69287H66.5973V8.53777ZM73.5091 9.42655V13.1967C73.5091 15.2525 72.5217 16.2801 70.547 16.2801H66.7126C65.6182 16.2801 64.7678 15.8986 64.161 15.1355C63.6821 14.5345 63.4429 13.8251 63.4429 13.0084C63.4429 12.3708 63.5173 11.8186 63.6672 11.3518C63.8165 10.8855 64.0666 10.432 64.4175 9.9921L65.8664 11.0287C65.4731 11.5676 65.2766 12.1509 65.2766 12.7792C65.2766 13.2551 65.4515 13.6635 65.8023 14.0044C66.1526 14.3456 66.6184 14.5163 67.2 14.5163H70.547C70.8117 14.5163 71.0235 14.4197 71.1816 14.2265C71.3396 14.0338 71.4189 13.7758 71.4189 13.4527V9.42655H73.5091Z" fill="white"/>
<path fill-rule="evenodd" clip-rule="evenodd" d="M77.2661 7.42037V13.4531C77.2661 13.7852 77.3516 14.0498 77.5225 14.2472C77.6681 14.427 77.8732 14.5166 78.1382 14.5166H78.574V16.2804H78.1382C77.0609 16.2804 76.2958 16.0428 75.8428 15.5668C75.3981 15.0913 75.1761 14.3008 75.1761 13.197V7.42037H77.2661ZM75.4453 5.09082C75.6161 5.09082 75.8725 5.17134 76.2146 5.33353C76.2486 5.35114 76.3086 5.38288 76.3941 5.4274C76.6762 5.57121 76.8731 5.64301 76.984 5.64301C77.138 5.64301 77.2832 5.47734 77.4201 5.14463L78.0996 5.5894C77.8176 6.24456 77.4456 6.57205 76.984 6.57205C76.7871 6.57205 76.5306 6.46888 76.2146 6.26237C75.9583 6.10075 75.7315 6.01985 75.535 6.01985C75.3212 6.01985 75.1458 6.18611 75.0093 6.51824L74.3297 6.07404C74.6118 5.41869 74.9837 5.09082 75.4453 5.09082Z" fill="white"/>
<path fill-rule="evenodd" clip-rule="evenodd" d="M83.2036 11.042C82.9216 11.042 82.7055 11.1343 82.5562 11.3178C82.4065 11.5018 82.3317 11.7649 82.3317 12.1055V13.4524C82.3317 13.7938 82.4065 14.0561 82.5562 14.2396C82.7055 14.4242 82.9216 14.516 83.2036 14.516C83.4859 14.516 83.7015 14.4242 83.8514 14.2396C84.0007 14.0561 84.0757 13.7938 84.0757 13.4524V12.1055C84.0757 11.7649 84.0007 11.5018 83.8514 11.3178C83.7015 11.1343 83.4859 11.042 83.2036 11.042ZM82.1521 8.56436H84.2423V6.6792H82.1521V8.56436ZM83.2036 9.27817C85.1787 9.27817 86.1661 10.3063 86.1661 12.3616V13.1966C86.1661 15.2522 85.1787 16.28 83.2036 16.28H78.3179V14.516H80.5365C80.3397 14.1033 80.2413 13.6634 80.2413 13.1966V12.3616C80.2413 10.3063 81.2289 9.27817 83.2036 9.27817Z" fill="white"/>
<path fill-rule="evenodd" clip-rule="evenodd" d="M89.8591 6.66553V13.4521C89.8591 13.7751 89.9379 14.0333 90.0964 14.2259C90.2543 14.4191 90.4659 14.5157 90.7312 14.5157H91.1671V16.2797H90.7312C88.7565 16.2797 87.7691 15.2519 87.7691 13.1962V6.66553H89.8591Z" fill="white"/>
<path fill-rule="evenodd" clip-rule="evenodd" d="M99.7457 16.2797H98.7843C98.0998 16.2797 97.6771 16.0822 97.5145 15.6872C97.0275 16.0822 96.3477 16.2797 95.4754 16.2797H90.9107V14.5158H95.4754C95.758 14.5158 95.9739 14.4241 96.1234 14.2395C96.2725 14.056 96.3477 13.7935 96.3477 13.4523V12.2535C96.3477 11.9126 96.2725 11.6498 96.1234 11.4657C95.9739 11.282 95.758 11.1899 95.4754 11.1899H92.3084V10.5297C92.3084 10.1713 92.3595 9.85695 92.4622 9.58753C92.5648 9.31811 92.7572 8.99991 93.0393 8.6312L94.5783 6.66553H96.8992L94.7445 9.42591H95.4754C97.4503 9.42591 98.4377 10.454 98.4377 12.5093V13.1962C98.4377 13.6364 98.3907 14.0397 98.2969 14.4078C98.3824 14.4798 98.5404 14.5158 98.7713 14.5158H99.7457V16.2797Z" fill="white"/>
<path fill-rule="evenodd" clip-rule="evenodd" d="M105.234 14.0182V12.1062C105.234 11.7655 105.16 11.5025 105.01 11.3184C104.86 11.1349 104.645 11.0426 104.362 11.0426C104.08 11.0426 103.864 11.1349 103.715 11.3184C103.565 11.5025 103.49 11.7655 103.49 12.1062V14.0182C103.49 14.3595 103.565 14.6225 103.715 14.806C103.864 14.99 104.08 15.0824 104.362 15.0824C104.645 15.0824 104.86 14.99 105.01 14.806C105.16 14.6225 105.234 14.3595 105.234 14.0182ZM104.362 9.27881C106.337 9.27881 107.325 10.3069 107.325 12.3622V13.7627C107.325 15.8186 106.337 16.8462 104.362 16.8462C103.319 16.8462 102.555 16.5634 102.067 15.9978C101.631 16.1862 101.118 16.2806 100.528 16.2806H99.4897V14.5168H100.528C100.793 14.5168 101.005 14.4202 101.163 14.2271C101.321 14.0343 101.4 13.7763 101.4 13.4533V12.3622C101.4 10.3069 102.388 9.27881 104.362 9.27881Z" fill="white"/>
</g>
<path d="M60.3336 6.14231L59.7425 8.77389C59.7139 8.89784 59.5994 8.98841 59.4707 8.98841H58.6269C58.4648 8.98841 58.3409 8.85493 58.3504 8.69761C58.3504 8.66423 58.3504 8.64993 58.3504 8.64993C58.3933 7.79181 57.8451 7.14822 56.6008 7.14822C54.5365 7.14822 53.0348 8.82156 52.8346 11.0193C52.6344 13.2886 54.2362 14.6091 56.4625 14.6091C57.6019 14.6091 58.5077 14.3898 59.0131 14.2325C59.2133 14.1705 59.4088 14.3421 59.3706 14.5471L59.1084 15.9058C59.0846 16.025 58.9988 16.1156 58.8891 16.1537C58.4314 16.2967 57.1538 16.6352 55.1944 16.6352C50.5415 16.6352 48.6536 13.9941 48.9444 11.3006C49.2019 8.9026 50.8085 5.36523 57.149 5.36523C58.3647 5.36523 59.3325 5.55593 60.1 5.76569C60.2669 5.8086 60.367 5.98022 60.3288 6.14708M33.8701 5.77523L33.7176 6.46172C33.6842 6.61428 33.7748 6.76683 33.9273 6.81451C34.1943 6.91939 34.2563 7.17206 34.0227 7.36275L30.1277 10.5569L30.7952 7.54868C30.9096 7.08625 31.2814 6.89555 31.515 6.81928C31.5293 6.81928 31.5389 6.80974 31.5532 6.80497C31.6581 6.7716 31.7343 6.69055 31.7582 6.58567L31.9203 5.87057C31.9584 5.69895 31.8297 5.54163 31.6533 5.54163H26.6333C26.4903 5.54163 26.3663 5.63697 26.3377 5.77523L26.1756 6.49986C26.1422 6.64765 26.2281 6.79544 26.3711 6.84311C26.3997 6.85264 26.4188 6.85741 26.4235 6.85741C26.7382 6.98136 27.1053 7.2531 26.9479 7.97297L25.7513 13.3839C25.4367 14.8618 24.9313 15.1621 24.4451 15.2193C24.4403 15.2193 24.4355 15.2193 24.426 15.2193C24.2973 15.2336 24.1924 15.329 24.1638 15.4529L24.0065 16.1442C23.9683 16.3206 24.1066 16.4922 24.2925 16.4922H29.57C29.6987 16.4922 29.8131 16.4016 29.8369 16.2777L30.0181 15.4672C30.0467 15.3337 29.9752 15.2003 29.8465 15.1526C29.8369 15.1526 29.8226 15.1431 29.8131 15.1383C29.5461 15.0334 29.179 14.8046 29.2744 14.3755L29.8846 11.6105C31.987 15.4053 32.683 16.497 35.205 16.497H37.4838C37.6125 16.497 37.7221 16.4064 37.7507 16.2824L37.9128 15.5816C37.9557 15.4005 37.8175 15.2289 37.6315 15.2241C37.0595 15.2146 36.783 15.0858 36.2156 14.366L33.2933 10.4568L37.0928 7.33891C37.6029 6.94322 38.2227 6.83357 38.5659 6.79067C38.5659 6.79067 38.5802 6.79067 38.6041 6.79067C38.7233 6.77637 38.8234 6.69532 38.852 6.57614L39.0093 5.88011C39.0474 5.70848 38.914 5.54639 38.7376 5.54639H34.1657C34.0227 5.54639 33.9035 5.64174 33.8701 5.77999M47.929 8.78342H48.8205C48.9492 8.78342 49.0636 8.69284 49.0875 8.56889L49.6929 5.88011C49.7311 5.70848 49.6023 5.54639 49.4212 5.54639H40.0724C39.9294 5.54639 39.8102 5.64174 39.7768 5.77999L39.6148 6.49986C39.5814 6.64288 39.6624 6.78113 39.8007 6.82881C39.8102 6.82881 39.8197 6.83835 39.8341 6.83835C40.1392 6.95276 40.5682 7.24834 40.3823 7.97297L38.5516 16.168C38.5135 16.3397 38.647 16.5017 38.8186 16.5017H43.0234C43.1521 16.5017 43.2665 16.4112 43.2904 16.2872L43.4763 15.4672C43.5049 15.348 43.4382 15.2241 43.3285 15.1717C43.3142 15.1669 43.2999 15.1574 43.2856 15.1526C43.0186 15.0239 42.6229 14.7283 42.7564 14.1514C42.7707 14.0752 43.1664 12.297 43.1664 12.297H46.7419C46.8706 12.297 46.9851 12.2064 47.0137 12.0824L47.3521 10.5855C47.3903 10.4139 47.2568 10.2518 47.0804 10.2518H43.6289L44.2724 7.35322H46.6847C47.4618 7.35322 47.7002 7.75367 47.6573 8.44017C47.6573 8.44017 47.6573 8.4497 47.6573 8.47831C47.6382 8.6404 47.7669 8.78342 47.9338 8.78342" fill="white"/>
<path d="M15.5004 13.7139L18.2816 15.5L17.5255 12.1667L20.0001 9.93781L16.7519 9.66418L15.5004 6.5L14.2488 9.66418L11.0001 9.93781L13.4752 12.1667L12.7191 15.5L15.5004 13.7139Z" fill="white"/>
<defs>
<linearGradient id="paint0_linear_2595_155140" x1="122" y1="22" x2="94.5498" y2="65.9396" gradientUnits="userSpaceOnUse">
<stop stop-color="#DD1E42"/>
<stop offset="0.531382" stop-color="#FA708A"/>
<stop offset="1" stop-color="#B50728"/>
</linearGradient>
<clipPath id="clip0_2595_155140">
<rect width="44" height="12" fill="white" transform="translate(63.3369 5)"/>
</clipPath>
</defs>
</svg>
