<svg width="274" height="114" viewBox="0 0 274 114" fill="none" xmlns="http://www.w3.org/2000/svg">
<path d="M29.0592 45.7336C28.8329 44.1009 28.6065 42.4751 28.3801 40.8423C28.2223 39.7036 28.0577 38.5374 27.5775 37.5495C26.9738 36.2804 25.8418 35.2171 24.0376 34.188C23.777 34.0234 23.53 33.8931 23.2762 33.7627C22.3363 33.2757 21.3965 32.9121 20.491 32.6788C18.1242 32.0751 15.8124 32.4867 14.3032 33.7696C13.7543 34.2361 13.3153 34.8329 12.8557 35.464C12.7871 35.5532 12.7185 35.6493 12.6567 35.7384C12.5195 35.9237 12.3823 36.1089 12.2383 36.2872C12.1216 36.4313 12.005 36.5754 11.8815 36.7126C11.8472 36.7537 11.8129 36.788 11.7786 36.8223C11.4219 37.2065 11.0446 37.5632 10.6742 37.9062C9.92641 38.5991 9.21982 39.2577 8.82193 40.0877C8.59555 40.5817 8.47207 41.1305 8.40347 41.693C8.17708 41.6107 7.9507 41.5215 7.73804 41.4323C7.51165 41.35 7.29213 41.2608 7.07947 41.1648C7.16865 40.6022 7.31957 40.0329 7.5734 39.4978C8.08104 38.4276 8.91798 37.6455 9.73433 36.8909C10.1322 36.5205 10.4958 36.1775 10.8319 35.8002H10.8388C10.9966 35.6149 11.1475 35.4229 11.2984 35.2308C11.4425 35.0456 11.5866 34.8466 11.7375 34.6477C11.7375 34.6408 11.7375 34.6408 11.7512 34.634C12.2314 33.9685 12.7391 33.2757 13.4045 32.7131C15.2567 31.1422 18.0351 30.6277 20.834 31.3411C21.8424 31.5949 22.8783 31.9997 23.9142 32.5348C24.1954 32.6788 24.4698 32.8229 24.7442 32.9944C26.7885 34.1537 28.092 35.416 28.8329 36.9458C29.4022 38.1257 29.5806 39.4086 29.7521 40.6434C29.9785 42.283 30.2049 43.9157 30.4313 45.5415C30.4518 45.7062 30.4724 45.8708 30.4861 46.0354C30.246 46.0149 30.0128 45.9943 29.7795 45.9737C29.5463 45.9463 29.3131 45.9257 29.0798 45.8982C29.073 45.8434 29.0661 45.7885 29.0592 45.7336Z" fill="#1D1D1B"/>
<path d="M54.8059 114C75.9849 114 93.1538 110.662 93.1538 106.543C93.1538 102.425 75.9849 99.0864 54.8059 99.0864C33.6269 99.0864 16.4579 102.425 16.4579 106.543C16.4579 110.662 33.6269 114 54.8059 114Z" fill="#1D1D1B"/>
<path d="M45.5235 112.03C61.5764 112.03 74.5898 108.691 74.5898 104.573C74.5898 100.454 61.5764 97.1157 45.5235 97.1157C29.4707 97.1157 16.4573 100.454 16.4573 104.573C16.4573 108.691 29.4707 112.03 45.5235 112.03Z" fill="white"/>
<path d="M45.5233 112.724C31.0965 112.724 15.7642 109.87 15.7642 104.574C15.7642 99.2781 31.0965 96.4243 45.5233 96.4243C59.9501 96.4243 75.2824 99.2781 75.2824 104.574C75.2824 109.87 59.9501 112.724 45.5233 112.724ZM45.5233 97.8101C28.8052 97.8101 17.1499 101.377 17.1499 104.574C17.1499 107.771 28.8052 111.338 45.5233 111.338C62.2413 111.338 73.8967 107.771 73.8967 104.574C73.8967 101.377 62.2413 97.8101 45.5233 97.8101Z" fill="#010101"/>
<path d="M74.6928 104.416L85.4289 38.0649C85.4289 38.0649 76.2295 29.1948 45.359 29.1948C14.4886 29.1948 5.28918 37.7356 5.28918 37.7356L16.3888 104.416" fill="white"/>
<path d="M16.388 105.109C16.0519 105.109 15.7637 104.869 15.702 104.533L4.60921 37.8459C4.56805 37.6195 4.65037 37.3794 4.82187 37.2217C5.20604 36.8649 14.5701 28.4956 45.3651 28.4956C76.1601 28.4956 85.531 37.1874 85.9151 37.5578C86.0798 37.7156 86.1552 37.942 86.1209 38.1683L75.3849 104.519C75.3231 104.897 74.9664 105.15 74.5891 105.095C74.2118 105.034 73.9511 104.677 74.0129 104.3L84.6872 38.333C82.979 36.9747 72.7437 29.8813 45.3651 29.8813C17.9864 29.8813 7.79916 36.6728 6.04297 38.0106L17.0809 104.293C17.1426 104.67 16.8888 105.027 16.5115 105.089C16.4703 105.089 16.436 105.095 16.3949 105.095L16.388 105.109Z" fill="#010101"/>
<path d="M72.175 62.3423L71.3243 66.1291C71.2832 66.3075 71.1185 66.4378 70.9333 66.4378H69.719C69.4858 66.4378 69.3074 66.2457 69.3212 66.0193C69.3212 65.9713 69.3212 65.9507 69.3212 65.9507C69.3829 64.7159 68.594 63.7898 66.8035 63.7898C63.8331 63.7898 61.6722 66.1977 61.384 69.3602C61.0959 72.6256 63.4009 74.5259 66.6046 74.5259C68.2441 74.5259 69.5475 74.2103 70.2747 73.9839C70.5628 73.8947 70.8441 74.1417 70.7892 74.4367L70.4119 76.3918C70.3776 76.5633 70.2541 76.6937 70.0964 76.7485C69.4378 76.9543 67.5993 77.4414 64.7798 77.4414C58.0843 77.4414 55.3677 73.6409 55.7862 69.7649C56.1566 66.3143 58.4685 61.2241 67.5924 61.2241C69.3417 61.2241 70.7343 61.4985 71.8388 61.8004C72.0789 61.8621 72.223 62.1091 72.1681 62.3492M34.0945 61.8141L33.875 62.8019C33.827 63.0215 33.9573 63.241 34.1769 63.3096C34.561 63.4605 34.6502 63.8241 34.3141 64.0985L28.7094 68.6948L29.6698 64.366C29.8344 63.7006 30.3695 63.4262 30.7057 63.3165C30.7262 63.3165 30.74 63.3027 30.7605 63.2959C30.9115 63.2478 31.0212 63.1312 31.0555 62.9803L31.2888 61.9513C31.3436 61.7043 31.1584 61.4779 30.9046 61.4779H23.6809C23.4751 61.4779 23.2967 61.6151 23.2556 61.8141L23.0223 62.8568C22.9743 63.0695 23.0978 63.2822 23.3036 63.3508C23.3448 63.3645 23.3722 63.3713 23.3791 63.3713C23.8318 63.5497 24.3601 63.9407 24.1337 64.9766L22.4118 72.7628C21.959 74.8894 21.2319 75.3216 20.5321 75.404C20.5253 75.404 20.5184 75.404 20.5047 75.404C20.3195 75.4245 20.1685 75.5617 20.1274 75.7401L19.901 76.7348C19.8461 76.9886 20.0451 77.2356 20.3126 77.2356H27.9067C28.092 77.2356 28.2566 77.1053 28.2909 76.9269L28.5516 75.7607C28.5927 75.5686 28.4898 75.3765 28.3046 75.3079C28.2909 75.3079 28.2703 75.2942 28.2566 75.2873C27.8724 75.1364 27.3442 74.8071 27.4814 74.1897L28.3595 70.2109C31.3848 75.6715 32.3864 77.2425 36.0154 77.2425H39.2945C39.4797 77.2425 39.6375 77.1121 39.6787 76.9338L39.9119 75.9253C39.9736 75.6646 39.7747 75.4177 39.5072 75.4108C38.684 75.3971 38.2861 75.2119 37.4697 74.176L33.2645 68.5507L38.732 64.0642C39.466 63.4948 40.3578 63.337 40.8517 63.2753C40.8517 63.2753 40.8723 63.2753 40.9066 63.2753C41.0781 63.2547 41.2222 63.1381 41.2634 62.9666L41.4897 61.965C41.5446 61.718 41.3525 61.4848 41.0987 61.4848H34.5199C34.3141 61.4848 34.1426 61.622 34.0945 61.821M54.325 66.1428H55.6078C55.793 66.1428 55.9577 66.0125 55.992 65.8341L56.8632 61.965C56.9181 61.718 56.7329 61.4848 56.4722 61.4848H43.0195C42.8137 61.4848 42.6422 61.622 42.5942 61.821L42.361 62.8568C42.3129 63.0626 42.4296 63.2616 42.6285 63.3302C42.6422 63.3302 42.6559 63.3439 42.6765 63.3439C43.1156 63.5085 43.733 63.9339 43.4654 64.9766L40.8312 76.7691C40.7763 77.0161 40.9684 77.2493 41.2153 77.2493H47.2659C47.4512 77.2493 47.6158 77.119 47.6501 76.9406L47.9176 75.7607C47.9588 75.5892 47.8628 75.4108 47.705 75.3354C47.6844 75.3285 47.6638 75.3148 47.6432 75.3079C47.2591 75.1227 46.6897 74.6974 46.8818 73.8673C46.9023 73.7575 47.4717 71.1987 47.4717 71.1987H52.6168C52.802 71.1987 52.9667 71.0684 53.0078 70.89L53.4949 68.7359C53.5498 68.489 53.3577 68.2557 53.1039 68.2557H48.1372L49.0633 64.0848H52.5345C53.6527 64.0848 53.9957 64.661 53.934 65.6489C53.934 65.6489 53.934 65.6626 53.934 65.7038C53.9065 65.937 54.0917 66.1428 54.3318 66.1428" fill="#1D1D1B"/>
<path d="M71.8044 84.8643L68.7311 108.545C65.6715 109.499 62.3649 110.226 58.928 110.734L60.4509 86.8262L71.8044 84.8643Z" fill="#E11E2F"/>
<path d="M32.6128 110.878C29.0112 110.377 25.6772 109.671 22.796 108.779L19.2699 84.9468L30.5753 86.6206L32.6128 110.878Z" fill="#E11E2F"/>
<path d="M44.8653 49.8914C69.2609 49.8914 89.0375 44.8175 89.0375 38.5585C89.0375 32.2995 69.2609 27.2256 44.8653 27.2256C20.4697 27.2256 0.693115 32.2995 0.693115 38.5585C0.693115 44.8175 20.4697 49.8914 44.8653 49.8914Z" fill="white"/>
<path d="M44.8651 50.5779C22.8098 50.5779 0 46.0845 0 38.5521C0 31.0197 22.8098 26.5264 44.8651 26.5264C66.9203 26.5264 89.737 31.0266 89.737 38.5521C89.737 46.0777 66.9272 50.5779 44.8651 50.5779ZM44.8651 27.9121C18.8584 27.9121 1.38574 33.4139 1.38574 38.5521C1.38574 43.6903 18.8584 49.1921 44.8651 49.1921C70.8717 49.1921 88.3444 43.6903 88.3444 38.5521C88.3444 33.4139 70.8717 27.9121 44.8651 27.9121Z" fill="#010101"/>
<path d="M39.6521 99.1001C39.6658 99.6215 39.8853 100.993 41.6415 102.283C42.3755 102.825 42.7048 103.065 42.8009 103.134C42.8489 103.168 42.5402 103.168 42.4579 103.175C42.3207 103.189 41.8542 103.148 41.4837 103.223C41.1476 103.285 41.1956 103.367 41.1613 103.614C41.1339 103.806 41.1613 104.115 41.1544 104.376C41.1476 104.636 41.1339 104.821 41.2436 104.945C41.3534 105.068 41.422 105.089 41.8816 105.055C42.3207 105.027 43.5349 105.02 43.679 104.986C43.8642 104.945 43.8367 105.014 43.727 105.247C43.5418 105.645 42.9518 107.476 42.0188 109.212C41.8885 109.459 42.2589 109.335 42.5745 109.486C43.1507 109.761 43.1302 109.836 43.2811 109.548C43.4389 109.232 44.2552 107.291 44.3787 106.687C44.3924 106.612 44.4267 106.543 44.4404 106.66C44.4473 106.742 44.4747 109.205 44.413 109.973C44.413 110.015 44.4199 110.056 44.4542 110.083C44.4953 110.124 44.5571 110.138 44.6051 110.152C44.8863 110.056 45.2293 109.987 45.5243 110.028C45.5518 110.028 45.5724 110.021 45.5998 110.015C45.6135 110.001 45.6272 109.987 45.641 109.967C45.6615 109.925 45.6753 109.877 45.6821 109.836C45.6821 109.836 45.6821 109.829 45.6821 109.822C45.6958 109.754 45.7096 109.692 45.7164 109.624C45.7164 109.582 45.7164 109.548 45.7233 109.507C45.7233 109.459 45.7233 109.404 45.7233 109.356C45.7233 109.294 45.7233 109.232 45.7233 109.171C45.7233 109.102 45.7233 109.027 45.7233 108.958C45.7233 108.876 45.7233 108.8 45.7233 108.718C45.7233 108.629 45.7233 108.663 45.7233 108.574C45.7233 108.478 45.7164 108.389 45.7096 108.293C45.7096 108.197 45.7027 108.094 45.6958 107.998C45.6958 107.895 45.6821 107.792 45.6753 107.689C45.6684 107.586 45.6615 107.483 45.6478 107.373C45.641 107.27 45.6272 107.161 45.6135 107.058C45.5998 106.948 45.5861 106.845 45.5724 106.735C45.5586 106.632 45.5449 106.523 45.5243 106.42C45.5106 106.317 45.49 106.214 45.4694 106.104C45.4489 106.001 45.4352 105.96 45.4077 105.857C45.3871 105.761 45.3665 105.665 45.3391 105.562C45.3185 105.466 45.2911 105.377 45.2637 105.288C45.2431 105.212 45.2225 105.144 45.195 105.068C45.195 105.055 45.1676 104.959 45.1745 104.945C45.1813 104.911 45.2293 104.931 45.2774 104.924C45.2774 104.924 45.298 104.924 45.3117 104.924C45.6204 104.883 46.1692 104.904 46.2927 104.911C46.4161 104.911 47.0336 104.965 47.2051 104.986C47.3766 105 47.5892 105.041 47.5755 104.513C47.5755 104.376 47.5755 104.286 47.5755 104.156C47.5755 104.135 47.5755 104.122 47.5755 104.101C47.5755 104.067 47.5755 104.033 47.5755 104.005C47.5755 103.985 47.5755 103.971 47.5755 103.95C47.5755 103.93 47.5755 103.916 47.5755 103.895C47.5755 103.882 47.5755 103.861 47.5755 103.847C47.5755 103.82 47.5755 103.792 47.5755 103.765C47.5755 103.758 47.5755 103.751 47.5755 103.744C47.5755 103.724 47.5755 103.71 47.5755 103.69C47.5755 103.683 47.5755 103.676 47.5755 103.669C47.5755 103.655 47.5755 103.641 47.5755 103.628C47.5755 103.628 47.5755 103.621 47.5755 103.614C47.5755 103.6 47.5755 103.58 47.5755 103.566C47.5755 103.436 47.5618 103.202 47.3148 103.141C47.0336 103.072 46.5465 103.058 46.1006 103.1C46.0388 103.1 46.0251 103.1 46.0457 103.086C46.1417 103.01 46.7729 102.661 47.5 102.002C48.2958 101.275 48.68 100.891 48.9201 100.369C48.9201 100.369 49.7913 98.6611 49.7364 97.2204C49.7227 96.9323 49.8599 96.9735 50.0451 96.9803C50.1 96.9803 50.395 96.9666 50.5048 96.8912C50.985 96.5687 51.0604 95.9239 51.1633 95.4848C51.5406 93.9207 52.4187 91.8901 51.5063 91.4511C51.472 91.4168 51.4034 91.4031 51.3417 91.3894C51.3143 91.3688 51.3074 91.3345 51.3143 91.2933C51.424 90.6279 51.7945 89.7429 51.7053 89.2421C51.6778 89.0775 51.6092 89.0775 51.5818 89.0569C51.5612 89.0432 51.424 88.8786 51.3486 88.6865C51.2251 87.3076 50.7312 85.572 49.2562 84.0696C49.2562 84.0696 49.1533 83.9804 49.0984 83.9256C48.975 83.8158 48.8103 83.6786 48.632 83.5414C48.2409 83.2533 47.9322 83.0338 47.2942 82.7182C47.2462 82.6976 46.766 82.4781 46.0594 82.3134C45.9908 82.2929 45.9291 82.2791 45.8605 82.2654C45.7576 82.2448 45.5929 82.2105 45.4077 82.19C44.9687 82.1214 44.4885 82.0939 43.9877 82.1214C43.9259 82.1214 43.8573 82.1282 43.8367 82.1282C43.8093 82.1282 43.775 82.1282 43.7476 82.1282C43.7133 82.1282 43.679 82.1282 43.6447 82.1282C43.5349 82.1282 43.3977 82.1488 43.2536 82.1694C43.0135 82.2037 42.7597 82.2517 42.6019 82.2929C42.4236 82.334 42.1903 82.3889 41.8953 82.4712C41.7719 82.5055 41.6484 82.5467 41.5318 82.5878C41.4975 82.6016 41.4632 82.6084 41.4289 82.6221C41.2985 82.6633 41.1682 82.7113 41.031 82.7593C40.9349 82.7936 40.5233 82.972 40.4341 83.02C40.393 83.0406 40.3312 83.068 40.2695 83.0955C39.9814 83.1915 39.9196 83.3562 39.9128 83.4522C39.9128 83.514 39.8922 83.5688 39.8647 83.6237C39.4531 84.5155 38.4653 84.6047 38.0743 84.6322C37.9714 84.6322 37.8822 84.6527 37.9165 84.7556C37.9988 85.0095 38.4653 85.4828 38.7466 85.572C38.7466 85.6131 38.5064 85.668 38.4584 85.6817C38.3418 85.7092 37.8753 85.6749 37.8547 85.6817C37.3265 85.7298 37.1687 86.0865 37.1207 86.258C37.107 86.3129 37.1207 86.3746 37.1481 86.4158C37.2648 86.5941 37.3883 86.7382 37.4843 86.9646C37.4843 86.9646 37.4843 86.9646 37.4843 86.9714C37.5117 87.0332 37.5323 87.1018 37.5529 87.1773C37.5666 87.2802 37.6489 87.3831 37.546 87.582C37.3677 87.9319 37.0658 88.1377 36.9835 88.4807C36.86 89.002 36.9423 89.2833 37.1687 90.0653C37.3334 90.6347 37.5117 91.2041 37.6146 91.458C37.6009 91.458 37.5255 91.4854 37.498 91.4991C37.1756 91.6089 37.0384 91.8833 37.0109 92.2812C36.9492 93.173 37.6901 94.4764 37.8547 95.6426C37.9165 96.0885 38.1291 96.7814 38.5064 96.9529C38.8152 97.097 39.117 96.9735 39.1376 97.4125C39.1856 98.2563 39.6384 99.0932 39.6384 99.0932" fill="white"/>
<path d="M51.2381 92.7394C51.0735 93.645 50.8402 94.0909 50.7167 94.6465C50.5933 95.2296 50.4012 95.9568 50.1062 96.046C49.8592 96.1215 49.674 95.8402 49.5162 96.046C49.4202 96.1695 49.3516 96.3341 49.2693 96.4439C49.2144 96.5125 49.1664 96.6703 49.1664 96.7526C49.1664 96.9172 49.1664 97.5072 49.0223 98.2001C48.8096 99.2497 48.4118 100.011 47.9933 100.498C47.1975 101.424 46.4498 101.575 46.3606 101.623C46.244 101.685 46.0725 101.651 46.0176 101.623C45.9627 101.596 45.9147 101.527 45.8186 101.431C45.7157 101.335 45.6814 101.479 45.6814 101.52C45.6814 101.555 45.7363 101.994 45.6266 102.186C45.3864 102.611 45.1738 102.68 45.0434 103.208C45.0023 103.386 45.0297 103.654 44.8171 103.537C44.2957 103.242 43.5342 102.412 43.3696 101.63C43.3216 101.39 43.3696 101.129 43.5068 100.677C43.5891 100.409 43.644 100.114 43.644 99.9425C43.644 99.6407 43.5205 99.3869 43.644 99.3594C43.8635 99.3114 43.9664 99.8739 44.0693 99.819C44.2477 99.7161 44.1105 99.1193 44.1105 99.1193C44.1105 99.1193 44.035 98.9478 43.7263 98.8792C43.5479 98.8381 43.4931 98.7077 43.6783 98.6117C43.8223 98.5431 43.987 98.447 44.1791 98.4745C45.4619 98.646 45.8324 98.3921 46.3537 98.2481C46.4566 98.2206 46.5184 98.2069 46.5938 98.2481C46.6761 98.2824 46.8888 98.399 46.93 98.5088C46.978 98.6185 46.93 99.0439 46.9986 99.3663C47.0672 99.6887 47.2936 99.3937 47.3484 99.2634C47.4033 99.133 47.4582 98.8243 47.4719 98.742C47.4856 98.6597 47.5474 98.3304 47.664 98.2344C47.8972 98.0354 47.9796 97.7816 48.0139 97.6787C48.055 97.5758 48.1099 97.2671 48.0962 96.8143C48.0825 96.3616 48.0001 96.3135 47.8904 96.2175C47.7806 96.1215 47.6503 96.142 47.3759 95.8882C47.1289 95.6618 46.9231 95.3051 46.7447 95.0719C46.5664 94.8455 46.2714 94.5985 45.9284 94.523C45.5922 94.4407 45.7363 94.7563 45.75 94.8386C45.7638 94.9004 45.8461 95.1748 45.7363 95.2639C45.6265 95.3531 44.9474 95.8127 44.3437 95.6618C43.6234 95.4766 43.3696 95.0787 43.349 94.6877C43.3353 94.4133 43.4656 94.1457 43.6303 93.8302C43.7263 93.645 43.7606 93.3363 43.8018 93.0413C43.8292 92.808 43.8909 92.465 43.9458 92.3415C43.9801 92.2524 44.0693 92.1563 44.2614 92.17C44.4535 92.1769 44.5838 92.2729 44.6181 92.4444C44.7485 93.0275 44.9543 93.1716 45.0229 93.2196C45.0915 93.2677 45.2218 93.1716 45.2767 93.1373C45.3247 93.103 45.4619 92.9727 45.4139 92.8972C45.3521 92.7874 45.3178 92.7189 45.3041 92.6571C45.2767 92.5473 45.4207 92.5611 45.4482 92.5816C45.6746 92.76 45.8872 92.7737 46.2783 92.8355C46.9643 92.9452 47.0603 92.6914 47.5268 92.7737C47.5885 92.7806 47.7052 92.8355 47.7395 92.9041C47.7738 92.9658 47.8286 93.103 47.8835 93.1236C47.9384 93.1442 48.0825 93.151 48.1511 93.1647C48.254 93.1785 48.4255 93.1648 48.398 93.35C48.3226 93.8439 47.76 93.9811 47.4925 94.0291C47.3827 94.0497 47.3347 94.0566 47.3141 94.0703C47.2593 94.1183 47.2524 94.2761 47.321 94.3721C47.369 94.4407 47.5817 94.4476 47.8767 94.3858C48.1854 94.3241 48.4735 94.1732 48.7067 93.8096C48.9537 93.4254 49.084 92.5748 49.1115 92.417C49.1389 92.2592 49.2007 91.9917 49.2898 91.9368C49.3722 91.8819 49.7769 91.7584 49.8318 91.7653C49.9004 91.779 49.9484 91.8064 49.9827 91.9642C50.017 92.122 49.9621 93.055 49.9621 93.1922C49.9621 93.3431 50.0376 93.3431 50.0788 93.3225C50.1748 93.2814 50.4218 93.1099 50.4766 92.9178C50.5178 92.7737 50.3943 92.5679 50.4561 92.369C50.5452 92.0603 50.6413 91.978 50.703 91.9848C51.0941 92.0191 51.3136 92.2181 51.2175 92.7188M45.5785 97.7473C45.4345 97.8022 45.016 97.8982 44.8102 97.9119C44.6044 97.9257 43.9527 97.9737 43.8498 97.9668C43.7126 97.96 43.5342 97.8982 43.3902 97.761C43.3627 97.7336 43.3284 97.6375 43.445 97.6375C43.6646 97.6375 44.0419 97.5141 45.3384 97.6101C45.4756 97.6238 45.5442 97.6238 45.5785 97.6307C45.6128 97.6307 45.7295 97.6856 45.5785 97.7404M42.3886 97.2328C41.7575 97.2328 41.4625 96.9927 41.4213 96.9241C41.3801 96.8555 41.4487 96.8006 41.5173 96.78C41.6683 96.732 41.929 96.5948 42.0387 96.5125C42.1485 96.4302 42.4435 96.2449 42.5944 96.1489C42.663 96.1009 43.0677 95.9225 43.3078 96.0872C43.6646 96.3341 44.0007 96.4988 44.6044 96.4576C44.9954 96.4302 44.9817 96.1146 45.3041 96.0117C45.5922 95.9225 45.6471 95.847 45.7363 95.7922C45.8529 95.7716 45.9353 95.7373 46.0656 95.8539C46.2234 96.0048 46.2851 96.1215 46.4703 96.3273C46.7242 96.6085 47.0054 96.7457 47.0946 96.7594C47.1838 96.78 47.2455 96.8486 47.2455 96.8761C47.2455 96.9035 47.2112 96.9927 46.9574 97.0681C46.1068 97.3151 45.1806 97.1642 44.7073 96.979C44.4672 96.8829 44.2339 96.8623 43.9664 96.9927C43.6989 97.123 42.9923 97.2328 42.4023 97.2259M42.121 100.731C41.6408 100.752 40.4197 100.039 39.8572 97.8776C39.7131 97.322 40.0081 96.8212 40.2276 96.7457C40.358 96.6977 40.4266 96.684 40.4678 96.6771C40.5089 96.6771 40.7353 96.6771 40.7284 96.9172C40.7284 97.1162 40.8999 98.7969 41.339 99.4006C41.4487 99.5515 41.5516 99.5584 41.5997 99.4212C41.6477 99.2977 41.7232 99.1399 41.7437 99.0782C41.7643 99.037 41.9221 98.79 41.9701 98.9753C42.073 99.3663 42.3131 100.176 42.416 100.382C42.5807 100.725 42.3131 100.725 42.1279 100.731M39.5554 94.2898C39.5211 94.1457 39.5828 93.9262 39.9258 94.1457C39.9807 94.18 40.1453 94.2555 40.3237 94.3035C40.4335 94.331 40.5021 94.2898 40.5295 94.2075C40.5638 94.132 40.6461 93.9742 40.4952 93.8988C40.3443 93.8233 39.967 93.7616 39.7474 93.2334C39.7063 93.1373 39.7749 93.0276 39.8298 93.0001C39.8915 92.9727 39.967 92.9864 40.0356 93.055C40.1042 93.1167 40.2551 93.2608 40.3923 93.2677C40.5158 93.2677 40.5364 93.2196 40.5638 93.1922C40.6667 93.0756 40.9617 92.6365 41.5791 92.712C41.8329 92.7394 42.0662 92.7943 42.1553 92.8012C42.2171 92.8012 42.3886 92.8149 42.5464 92.7806C42.7316 92.7463 43.006 92.6845 42.8756 92.8423C42.7659 92.9727 42.6767 93.0207 42.7727 93.1579C42.7727 93.1648 42.7796 93.1716 42.7865 93.1785C42.8756 93.302 42.8756 93.4597 42.7865 93.5832L42.7727 93.5969C42.6355 93.7753 42.3543 93.9811 41.7712 94.0223C41.5036 94.0428 41.4899 94.0291 41.483 94.18C41.483 94.2418 41.483 94.2692 41.4899 94.3104C41.5036 94.3858 41.5585 94.4201 41.7369 94.427C41.8672 94.4339 42.1142 94.4064 42.1142 94.4064C42.1759 94.3858 42.2445 94.427 42.2034 94.475C42.2034 94.4819 42.1759 94.5162 42.1691 94.523C42.0387 94.6945 41.9976 94.8523 41.9838 94.9484C41.977 95.0307 41.929 95.0993 41.8604 95.1336C41.778 95.1748 41.4282 95.2571 41.1606 95.4766C40.8931 95.703 40.3306 95.8882 40.0836 95.6138C39.8366 95.3394 39.6377 94.7288 39.5279 94.2761M39.3358 91.5663C39.2604 91.5732 39.1986 91.532 39.1095 91.5115C39.0134 91.4909 38.9517 91.5183 38.9174 91.4703C38.8831 91.4154 38.8899 91.3674 38.9448 91.3468C38.9997 91.3262 39.0409 91.3468 39.0957 91.3331C39.2055 91.3125 39.3427 91.1822 39.4456 91.3262C39.5142 91.4154 39.4593 91.5663 39.3358 91.5801M38.5195 94.9141C38.2725 94.7563 38.2931 94.5779 38.2314 94.3721C38.0942 93.9331 37.957 93.4872 37.8266 93.0344C37.7512 92.76 37.6277 92.1014 37.9981 92.1014C38.1833 92.1014 38.3274 92.1563 38.3891 92.3347C38.5263 92.7257 38.2725 92.6571 38.3411 93.1236C38.3891 93.4529 38.4509 93.6861 38.5606 94.2418C38.6087 94.4956 38.7527 95.065 38.5263 94.9141M37.7169 88.7126C37.8472 88.3421 38.053 88.0334 38.2176 87.807C38.3686 87.6012 38.2931 87.3405 38.2176 87.1004C38.1628 86.8809 38.0256 86.6545 37.9981 86.5928C37.9844 86.5516 37.9844 86.5173 37.9981 86.4899C38.005 86.4899 38.0187 86.4762 38.0256 86.4693L38.3205 86.4419C39.1712 86.3252 39.9258 86.0234 40.1522 85.893C40.2619 85.8313 40.3717 85.7833 40.4883 85.7421C40.6324 85.6941 40.7902 85.6392 40.9411 85.6186C41.0509 85.5981 41.1881 85.5843 41.2978 85.5706C41.4693 85.55 41.7369 85.6667 41.6751 85.701C41.5311 85.7901 40.8725 85.9479 40.2894 86.6477C39.9327 87.073 39.8503 87.3405 39.7337 87.5395C39.6102 87.7384 39.5142 87.7864 39.3427 87.9305C39.2604 88.0059 39.0889 88.1569 39.0066 88.3901C38.9242 88.6302 38.6018 89.474 38.5675 90.8049C38.5675 90.9627 38.5401 91.1204 38.3891 91.1822C38.2657 91.2302 38.1902 91.1822 38.1559 91.0518C38.0667 90.7157 37.8884 90.1738 37.8266 89.7416C37.71 89.3162 37.6345 88.9252 37.71 88.7194M40.2825 91.9505C40.1247 92.0465 39.9738 92.1632 39.8641 92.2386C39.72 92.3347 39.5279 92.2386 39.5828 92.0465C39.6102 91.9505 39.7474 91.7036 39.9738 91.6555C40.0013 91.6555 40.1179 91.6281 40.2139 91.6144C40.3237 91.6007 40.4403 91.5938 40.5021 91.5869C40.6667 91.5801 40.6804 91.7104 40.5707 91.779C40.4952 91.827 40.3854 91.8819 40.2825 91.9437M40.4129 92.2318C40.454 92.1975 40.4746 92.1975 40.6118 92.122C40.7079 92.0671 40.8245 91.9985 40.9411 91.9231C41.1469 91.7859 41.5379 91.6418 41.7094 91.6487C41.8329 91.6487 42.0387 91.7036 42.1553 91.8202C42.272 91.9505 42.3063 92.0946 42.1553 92.074C42.0044 92.0466 41.8398 92.0054 41.5516 92.074C41.2224 92.1495 41.0028 92.2798 40.8451 92.3484C40.6873 92.4239 40.5226 92.4444 40.4678 92.4376C40.4129 92.4376 40.2688 92.3553 40.4197 92.2318M42.9374 95.1062C42.9786 95.1748 42.9854 95.2914 42.9786 95.3394C42.9648 95.4011 42.759 95.4766 42.5807 95.2159C42.4023 94.9552 42.4846 94.6397 42.5875 94.5162C42.7522 94.3172 42.9991 94.4613 42.9648 94.5299C42.8413 94.7906 42.8962 95.0307 42.9305 95.0993M48.1442 92.5954C48.0825 92.6297 47.8355 92.5473 47.7738 92.513C47.6366 92.4376 47.5474 92.3896 47.3622 92.2318C47.2455 92.1289 47.026 92.0877 46.8202 92.0946C46.6624 92.1014 46.5046 92.1357 46.388 92.17C46.2714 92.1975 46.2577 92.0946 46.292 92.0534C46.3263 92.0123 46.4909 91.8613 46.8614 91.7584C46.9162 91.7447 47.0192 91.7516 47.0672 91.7584C47.2181 91.7721 47.4033 91.8751 47.5337 91.9985C47.664 92.1289 47.9315 92.3484 48.0756 92.4376C48.1442 92.4787 48.2951 92.5199 48.1442 92.6022M47.9864 91.9299C47.9864 91.9299 47.76 91.779 47.6846 91.6555C47.6503 91.5938 47.6571 91.5389 47.7532 91.5389C48.0893 91.5389 48.4049 91.5252 48.5558 91.6487C48.6656 91.7379 48.6724 91.9368 48.6176 92.0603C48.5558 92.2043 48.4323 92.1632 48.3637 92.1563C48.2951 92.1495 47.9933 91.9368 47.9933 91.9368M49.6877 91.4223C49.6397 91.4772 49.5917 91.4429 49.4888 91.4703C49.4065 91.4909 49.3516 91.5389 49.2761 91.532C49.1595 91.5252 49.0978 91.3811 49.1595 91.2851C49.2555 91.141 49.3996 91.2645 49.5094 91.2851C49.5642 91.2919 49.6054 91.2782 49.6603 91.2988C49.7152 91.3194 49.722 91.3674 49.6877 91.4223ZM39.8915 84.9326C39.9395 84.8503 40.0699 84.7337 40.1933 84.6445C40.3237 84.5485 40.9685 84.0614 41.5654 83.8762C41.6751 83.8419 41.7026 83.8282 41.778 83.8076C41.8672 83.7801 41.9427 83.588 41.7575 83.5606C41.5585 83.5332 41.483 83.5469 41.3733 83.5538C41.2704 83.5538 41.2155 83.4989 41.291 83.4165C41.3664 83.3342 41.5036 83.245 41.7506 83.149C42.2857 82.9295 43.2324 82.8129 43.6714 82.7717C44.2477 82.7168 44.3163 82.7168 44.6936 82.7443C45.0434 82.7717 45.3247 82.8334 45.455 82.854C46.1205 82.9706 46.8819 83.2725 47.5611 83.6429C47.9178 83.8556 48.2677 84.0888 48.5833 84.3358C49.5574 85.0904 50.6824 86.5242 50.5384 89.5563C50.5178 89.9131 50.4766 90.112 50.4561 90.2012C50.4355 90.2904 50.3189 90.4413 50.2571 90.2424C50.0513 89.5975 49.7906 88.4519 49.1938 87.5532C49.1115 87.4297 48.988 87.4434 49.0017 87.5738C49.0017 87.6287 49.036 88.2049 49.0223 88.3215C48.9331 89.0693 49.1595 88.7743 49.4956 89.5769C49.5985 89.8239 49.7357 90.3109 49.7769 90.6265C49.7838 90.7088 49.7906 90.798 49.7975 90.8872C49.7495 90.9558 49.6946 90.997 49.6946 90.997C49.4613 90.997 49.1115 90.8941 48.8988 90.8941C48.6519 90.8941 46.9437 90.8803 46.2988 90.9352C45.654 90.9901 45.311 91.2233 44.9474 91.5183C44.8582 91.5938 44.7416 91.6555 44.7142 91.6555C44.6867 91.6555 44.6044 91.6487 44.4466 91.6144C44.2888 91.5801 44.1722 91.5732 44.0144 91.6212C43.8635 91.6692 43.788 91.7104 43.6234 91.6144C43.3902 91.4772 43.0197 90.9284 41.7575 90.9284C41.044 90.9284 40.1042 90.9284 39.5554 90.9489C39.377 90.9558 39.281 90.9627 39.2398 90.9627C39.2398 90.9421 39.2398 90.9284 39.2398 90.9215C39.2261 89.9131 39.8846 90.1326 39.9601 89.8719C40.1453 89.2202 40.1796 87.6492 41.3115 86.682C41.8535 86.2155 42.1348 86.1949 42.6424 86.1949C43.1844 86.1949 43.7194 86.3321 43.9938 86.4624C44.2134 86.5653 44.3163 86.6408 44.3986 86.5722C44.4809 86.5105 44.7073 86.2978 44.8033 86.2292C44.8994 86.1537 44.8582 86.044 44.769 85.9754C44.6867 85.9068 43.8704 84.8983 42.6287 84.6994C42.3474 84.6514 42.1348 84.6102 41.8741 84.6102C41.7369 84.6102 41.6134 84.6102 41.2841 84.6445C40.8108 84.7062 40.1933 84.9738 39.7955 85.1316C39.7749 85.111 39.8572 84.9738 39.8778 84.9395M39.6377 99.0713C39.6514 99.5927 39.8709 100.965 41.6271 102.254C42.3611 102.796 42.6904 103.036 42.7865 103.105C42.8345 103.139 42.5258 103.139 42.4435 103.146C42.3063 103.16 41.8398 103.119 41.4693 103.194C41.1332 103.256 41.1812 103.338 41.1469 103.585C41.1195 103.777 41.1469 104.086 41.14 104.347C41.1332 104.607 41.1195 104.793 41.2292 104.916C41.339 105.04 41.4076 105.06 41.8672 105.026C42.3063 104.998 43.5205 104.992 43.6646 104.957C43.8498 104.916 43.8223 104.985 43.7126 105.218C43.5274 105.616 42.9374 107.447 42.0044 109.183C41.8741 109.43 42.2445 109.307 42.5601 109.457C43.1363 109.732 43.1158 109.807 43.2667 109.519C43.4245 109.204 44.2408 107.262 44.3643 106.659C44.378 106.583 44.4123 106.515 44.426 106.631C44.4329 106.713 44.4603 109.176 44.3986 109.945C44.3986 109.986 44.4055 110.027 44.4398 110.054C44.4809 110.095 44.5427 110.109 44.5907 110.123C44.8719 110.027 45.2149 109.958 45.5099 109.999C45.5374 109.999 45.5579 109.993 45.5854 109.986C45.5991 109.972 45.6128 109.958 45.6266 109.938C45.6471 109.897 45.6609 109.849 45.6677 109.807C45.6677 109.807 45.6677 109.8 45.6677 109.794C45.6814 109.725 45.6952 109.663 45.702 109.595C45.702 109.554 45.702 109.519 45.7089 109.478C45.7089 109.43 45.7089 109.375 45.7089 109.327C45.7089 109.265 45.7089 109.204 45.7089 109.142C45.7089 109.073 45.7089 108.998 45.7089 108.929C45.7089 108.847 45.7089 108.771 45.7089 108.689C45.7089 108.6 45.7089 108.634 45.7089 108.545C45.7089 108.449 45.702 108.36 45.6952 108.264C45.6952 108.168 45.6883 108.065 45.6814 107.969C45.6814 107.866 45.6677 107.763 45.6608 107.66C45.654 107.557 45.6471 107.454 45.6334 107.345C45.6265 107.242 45.6128 107.132 45.5991 107.029C45.5854 106.919 45.5717 106.816 45.558 106.707C45.5442 106.604 45.5305 106.494 45.5099 106.391C45.4962 106.288 45.4756 106.185 45.455 106.075C45.4345 105.973 45.4207 105.931 45.3933 105.829C45.3727 105.732 45.3521 105.636 45.3247 105.534C45.3041 105.437 45.2767 105.348 45.2492 105.259C45.2287 105.184 45.2081 105.115 45.1806 105.04C45.1806 105.026 45.1532 104.93 45.1601 104.916C45.1669 104.882 45.2149 104.902 45.263 104.896C45.263 104.896 45.2835 104.896 45.2973 104.896C45.606 104.854 46.1548 104.875 46.2783 104.882C46.4017 104.882 47.0192 104.937 47.1907 104.957C47.3622 104.971 47.5748 105.012 47.5611 104.484C47.5611 104.347 47.5611 104.258 47.5611 104.127C47.5611 104.107 47.5611 104.093 47.5611 104.072C47.5611 104.038 47.5611 104.004 47.5611 103.976C47.5611 103.956 47.5611 103.942 47.5611 103.921C47.5611 103.901 47.5611 103.887 47.5611 103.867C47.5611 103.853 47.5611 103.832 47.5611 103.818C47.5611 103.791 47.5611 103.764 47.5611 103.736C47.5611 103.729 47.5611 103.722 47.5611 103.716C47.5611 103.695 47.5611 103.681 47.5611 103.661C47.5611 103.654 47.5611 103.647 47.5611 103.64C47.5611 103.626 47.5611 103.613 47.5611 103.599C47.5611 103.599 47.5611 103.592 47.5611 103.585C47.5611 103.572 47.5611 103.551 47.5611 103.537C47.5611 103.407 47.5474 103.174 47.3004 103.112C47.0191 103.043 46.5321 103.03 46.0862 103.071C46.0244 103.071 46.0107 103.071 46.0313 103.057C46.1273 102.982 46.7585 102.632 47.4856 101.973C48.2814 101.246 48.6656 100.862 48.9057 100.34C48.9057 100.34 49.7769 98.6322 49.722 97.1916C49.7083 96.9035 49.8455 96.9447 50.0307 96.9515C50.0856 96.9515 50.3806 96.9378 50.4904 96.8623C50.9706 96.5399 51.046 95.8951 51.1489 95.456C51.5262 93.8919 52.4043 91.8613 51.4919 91.4223C51.4576 91.388 51.389 91.3743 51.3273 91.3605C51.2999 91.34 51.293 91.3057 51.2999 91.2645C51.4096 90.5991 51.7801 89.7141 51.6909 89.2133C51.6634 89.0487 51.5948 89.0487 51.5674 89.0281C51.5468 89.0144 51.4096 88.8498 51.3342 88.6577C51.2107 87.2788 50.7167 85.5432 49.2418 84.0408C49.2418 84.0408 49.1389 83.9516 49.084 83.8968C48.9606 83.787 48.7959 83.6498 48.6176 83.5126C48.2265 83.2245 47.9178 83.0049 47.2798 82.6894C47.2318 82.6688 46.7516 82.4493 46.045 82.2846C45.9764 82.264 45.9147 82.2503 45.8461 82.2366C45.7432 82.216 45.5785 82.1817 45.3933 82.1611C44.9543 82.0925 44.4741 82.0651 43.9733 82.0925C43.9115 82.0925 43.8429 82.0994 43.8223 82.0994C43.7949 82.0994 43.7606 82.0994 43.7332 82.0994C43.6989 82.0994 43.6646 82.0994 43.6303 82.0994C43.5205 82.0994 43.3833 82.12 43.2392 82.1406C42.9991 82.1749 42.7453 82.2229 42.5875 82.264C42.4092 82.3052 42.1759 82.3601 41.8809 82.4424C41.7575 82.4767 41.634 82.5179 41.5173 82.559C41.483 82.5728 41.4487 82.5796 41.4144 82.5933C41.2841 82.6345 41.1538 82.6825 41.0166 82.7305C40.9205 82.7648 40.5089 82.9432 40.4197 82.9912C40.3786 83.0118 40.3168 83.0392 40.2551 83.0667C39.967 83.1627 39.9052 83.3274 39.8984 83.4234C39.8984 83.4851 39.8778 83.54 39.8503 83.5949C39.4387 84.4867 38.4509 84.5759 38.0599 84.6033C37.957 84.6033 37.8678 84.6239 37.9021 84.7268C37.9844 84.9807 38.4509 85.454 38.7321 85.5432C38.7321 85.5843 38.492 85.6392 38.444 85.6529C38.3274 85.6804 37.8609 85.6461 37.8403 85.6529C37.3121 85.701 37.1543 86.0577 37.1063 86.2292C37.0926 86.2841 37.1063 86.3458 37.1337 86.387C37.2504 86.5653 37.3738 86.7094 37.4699 86.9358C37.4699 86.9358 37.4699 86.9358 37.4699 86.9426C37.4973 87.0044 37.5179 87.073 37.5385 87.1484C37.5522 87.2513 37.6345 87.3542 37.5316 87.5532C37.3533 87.9031 37.0514 88.1089 36.9691 88.4519C36.8456 88.9732 36.9279 89.2545 37.1543 90.0365C37.319 90.6059 37.4973 91.1753 37.6002 91.4291C37.5865 91.4291 37.511 91.4566 37.4836 91.4703C37.1612 91.5801 37.024 91.8545 36.9965 92.2524C36.9348 93.1442 37.6757 94.4476 37.8403 95.6138C37.9021 96.0597 38.1147 96.7526 38.492 96.9241C38.8007 97.0681 39.1026 96.9447 39.1232 97.3837C39.1712 98.2275 39.624 99.0644 39.624 99.0644" fill="#211F1F"/>
<path d="M86.6711 39.2864C86.5064 40.3497 85.3265 41.1729 83.6046 42.0853C76.477 45.8652 61.7621 48.2114 45.1949 48.2114C28.6278 48.2114 14.345 45.927 7.10076 42.25C5.72874 41.5502 3.44433 40.1096 3.59525 38.3054C3.69815 37.0706 4.84379 36.1239 7.10762 35.4173C7.47121 35.3075 7.86224 35.5065 7.97886 35.8769C8.09548 36.2405 7.88968 36.6315 7.52609 36.7413C5.94827 37.2352 5.02215 37.8458 4.97413 38.422C4.91925 39.108 6.02373 40.1439 7.73189 41.0151C11.7519 43.0595 18.3651 44.6784 26.2816 45.6869C27.0156 45.7829 27.7634 45.8721 28.518 45.9476H28.5249C31.6599 46.2974 34.9734 46.5444 38.3897 46.6816C38.5681 46.8462 38.7396 47.004 38.9248 47.1549C38.9385 47.1686 38.9522 47.1755 38.9659 47.1824C39.0551 47.251 39.1512 47.2921 39.2541 47.3059C39.4599 47.3402 39.6794 47.2784 39.844 47.1275C39.8646 47.1138 39.8852 47.0863 39.9058 47.0658C39.9881 46.9766 40.0361 46.8599 40.0567 46.7433C41.7511 46.7982 43.4662 46.8256 45.1949 46.8256C61.3024 46.8256 76.1202 44.4864 82.9529 40.8642C84.8189 39.8764 85.2579 39.3481 85.2991 39.0737C85.3196 38.9159 85.1413 38.6964 84.9904 38.5386C84.7228 38.2642 84.7228 37.8252 84.9972 37.5576C85.2716 37.2901 85.7107 37.2901 85.9782 37.5645C86.527 38.1202 86.7603 38.6964 86.6711 39.2864Z" fill="#010101"/>
<path d="M31.9137 20.2627C31.9755 20.6262 32.0509 21.0104 32.3185 21.2642C32.7095 21.6278 33.32 21.5524 33.8414 21.6484C34.9322 21.8473 35.7005 22.8146 36.6815 23.3291C37.1617 23.5761 37.6831 23.7133 38.2113 23.8162C40.729 24.3238 43.5622 24.1249 45.5585 22.5059C46.7041 21.5798 47.5273 20.2352 48.8239 19.5424C49.5648 19.1445 50.4154 18.9935 51.2455 18.8426C51.417 18.431 51.5199 17.992 51.5473 17.5461C51.5816 17.0178 51.5062 16.4965 51.4376 15.9751C51.1426 13.8004 50.8407 11.6258 50.5458 9.45114C50.5252 9.2865 50.484 9.10128 50.34 9.0121C50.2576 8.96407 50.1616 8.96407 50.0656 8.96407C48.769 8.94349 47.4519 8.92977 46.1965 9.25906C45.8946 9.34138 45.5722 9.458 45.4144 9.73241C45.3115 9.91077 45.2909 10.1303 45.2909 10.3361C45.2703 11.0633 45.3389 11.7836 45.4967 12.4902C44.406 12.7577 43.3084 13.0253 42.2176 13.2997C41.8815 13.382 41.4836 13.4506 41.2366 13.2173C41.0788 13.0664 41.0308 12.84 40.9828 12.6274C40.6947 11.1456 40.3997 9.67066 40.1115 8.18888C40.0224 7.73612 39.9126 7.24219 39.5627 6.9472C39.1717 6.61792 38.6092 6.61792 38.1015 6.66594C37.1137 6.76198 36.1327 6.9815 35.1929 7.31765C34.9802 7.39311 34.7538 7.49601 34.6646 7.70182C34.6097 7.83216 34.6235 7.97622 34.644 8.12028C34.7744 9.29336 34.9459 10.4664 35.1586 11.6258C34.0472 11.8179 32.929 11.9962 31.8177 12.2089C30.7063 12.4216 30.672 12.696 30.8367 13.7661C31.1728 15.9408 31.5364 18.1155 31.9137 20.2832V20.2627Z" fill="#EA0029"/>
<path d="M28.2704 22.4382L35.5695 45.104L56.0881 41.9826L56.1841 18.0752L49.3103 19.0562C49.3103 19.0562 46.2164 24.4619 40.2138 24.3247C38.6223 24.2904 36.7358 24.0984 35.4666 23.0076C34.9521 22.5686 34.6777 21.7316 33.9986 21.5121C33.8271 21.4572 33.4155 21.6081 33.2371 21.6356C32.5511 21.7454 31.8719 21.8551 31.1859 21.9649L28.2704 22.4314V22.4382Z" fill="white"/>
<path d="M32.956 34.7311C32.9903 34.9575 33.0315 35.177 33.0727 35.3897C33.4774 37.4202 34.1085 39.3685 35.0209 41.1453L32.956 34.7311ZM32.956 34.7311C32.9903 34.9575 33.0315 35.177 33.0727 35.3897C33.4774 37.4202 34.1085 39.3685 35.0209 41.1453L32.956 34.7311ZM32.956 34.7311C32.9903 34.9575 33.0315 35.177 33.0727 35.3897C33.4774 37.4202 34.1085 39.3685 35.0209 41.1453L32.956 34.7311ZM56.6371 17.5465C56.4862 17.4162 56.2804 17.3544 56.0814 17.3887L52.7749 17.8621L51.4989 18.0473H51.4097L49.2145 18.3697C49.0018 18.3972 48.8166 18.5207 48.7068 18.7059C48.6931 18.7265 48.2609 19.4674 47.4171 20.3729C47.0741 20.7433 46.6694 21.1344 46.196 21.5117C45.4071 22.1497 44.433 22.7533 43.2805 23.1512C42.8552 23.3022 42.4093 23.4188 41.9359 23.5011C41.4626 23.5834 40.9618 23.6314 40.4335 23.6314H40.2277C39.4388 23.6109 38.547 23.556 37.7101 23.3433C37.1887 23.213 36.6879 23.014 36.2626 22.7328H36.2557C36.1391 22.6504 36.0225 22.5681 35.9196 22.4789C35.7893 22.3692 35.6589 22.184 35.5149 21.985C35.2199 21.5734 34.8494 21.0589 34.2114 20.8531C33.8959 20.7502 33.5597 20.8394 33.2716 20.9148C33.2099 20.9286 33.1618 20.9423 33.1207 20.9491L32.3661 21.0726L32.1877 21.1001L31.0009 21.2921L30.0062 21.4499L29.2516 21.5734L28.4901 21.6969L28.154 21.7518C27.955 21.7792 27.7835 21.8958 27.6738 22.0742C27.5709 22.2457 27.5434 22.4515 27.6052 22.6436L34.9112 45.3162C35.0003 45.6043 35.2679 45.7964 35.5697 45.7964C35.604 45.7964 35.6383 45.7896 35.6726 45.7827L37.2436 45.5426L38.0805 45.4191L38.938 45.2888L50.2504 43.5669L51.1284 43.4365L52.0408 43.2993L56.1912 42.6682C56.2667 42.6545 56.3421 42.6339 56.4107 42.5928C56.5754 42.5104 56.6989 42.3595 56.7537 42.1743C56.7743 42.1125 56.7812 42.0508 56.7812 41.9822V40.9944L56.788 40.1163L56.8086 35.863V33.7432C56.8086 33.7432 56.8155 33.7432 56.8155 33.7364V31.6372L56.8223 31.4177V30.8688L56.8292 29.929L56.8498 25.4425V24.7291L56.8704 20.4895V18.0748C56.8772 17.8758 56.788 17.6837 56.6371 17.5465ZM55.4846 19.584V20.3729L55.4778 21.1549L55.4435 29.2773V30.1554L55.4366 30.9374V32.6593V33.2013V34.3332L55.4092 40.0065V41.0835L55.4023 41.3854L55.1485 41.4265L50.7992 42.0851L50.024 42.2017L49.2831 42.3183L37.7924 44.0677L36.9898 44.1843L36.2009 44.3078L36.0568 44.3284L35.9333 43.9442L35.0278 41.1453L32.9629 34.7311L31.9613 31.6097L29.183 22.9934L29.3682 22.966L30.8774 22.719L33.3471 22.3212C33.4225 22.3074 33.5186 22.2869 33.6283 22.2594C33.6901 22.2388 33.793 22.2114 33.8616 22.1977C34.0399 22.2937 34.2114 22.5407 34.3967 22.7945C34.5682 23.0346 34.7671 23.309 35.0209 23.5354C36.4753 24.7771 38.5539 24.9829 40.2072 25.0172H40.4473C45.8736 25.0172 48.9675 20.8668 49.7358 19.6937L55.4915 18.8705V19.584H55.4846ZM32.956 34.7311C32.9903 34.9575 33.0315 35.177 33.0727 35.3897C33.4774 37.4202 34.1085 39.3685 35.0209 41.1453L32.956 34.7311ZM32.956 34.7311C32.9903 34.9575 33.0315 35.177 33.0727 35.3897C33.4774 37.4202 34.1085 39.3685 35.0209 41.1453L32.956 34.7311ZM35.0209 41.1453L32.956 34.7311L31.9545 31.6097C31.9545 31.6509 31.9613 31.6989 31.9613 31.7401C32.0436 32.8583 32.1328 33.9353 32.2906 34.9232V34.9369L34.3829 41.4197C34.8357 42.3184 35.3502 43.1621 35.9265 43.9442L35.0209 41.1453Z" fill="#1D1D1B"/>
<path d="M37.0377 23.8995C36.7016 23.8995 36.4066 23.6594 36.3517 23.3163L34.6024 12.4088L31.0488 12.9782L32.4757 21.7248C32.5375 22.1021 32.2836 22.4588 31.9063 22.5206C31.529 22.5892 31.1723 22.3285 31.1106 21.9512L29.5739 12.5185C29.5465 12.3402 29.5876 12.1481 29.6974 12.004C29.8071 11.8531 29.9649 11.7571 30.1502 11.7228L35.0757 10.9339C35.453 10.8721 35.8097 11.1328 35.8715 11.5101L37.7306 23.1037C37.7923 23.481 37.5316 23.8377 37.1543 23.8995C37.12 23.8995 37.0789 23.9063 37.0446 23.9063L37.0377 23.8995Z" fill="#1D1D1B"/>
<path d="M42.6759 24.4682C42.3397 24.4682 42.0447 24.2281 41.9898 23.8851L39.3556 7.5032L35.2464 8.16177L35.8501 11.4889C35.9187 11.8662 35.6648 12.2298 35.2944 12.2915C34.9171 12.367 34.5535 12.1063 34.4918 11.7359L33.7646 7.709C33.7303 7.52378 33.7714 7.33855 33.8812 7.18763C33.991 7.03671 34.1556 6.93381 34.334 6.90637L39.8221 6.02142C40.0004 5.99398 40.1925 6.03514 40.3366 6.1449C40.4875 6.25466 40.5835 6.41244 40.6178 6.59766L43.3619 23.6656C43.4236 24.0429 43.1629 24.3996 42.7856 24.4614C42.7513 24.4614 42.7102 24.4682 42.6759 24.4682Z" fill="#1D1D1B"/>
<path d="M46.9089 22.3141C46.5728 22.3141 46.2778 22.074 46.2229 21.7309L44.8989 13.492L41.2288 14.0819C40.8515 14.1437 40.4947 13.883 40.433 13.5057C40.3713 13.1284 40.6319 12.7717 41.0093 12.7099L45.3654 12.0102C45.5438 11.9827 45.7359 12.0239 45.8799 12.1337C46.0308 12.2434 46.1269 12.4012 46.1612 12.5864L47.595 21.5046C47.6567 21.8819 47.396 22.2386 47.0187 22.3003C46.9844 22.3003 46.9432 22.3072 46.9089 22.3072V22.3141Z" fill="#1D1D1B"/>
<path d="M52.1853 19.2485C51.8492 19.2485 51.5542 19.0084 51.4993 18.6654L50.0244 9.4866L45.7711 10.1726L46.1621 12.5874C46.2239 12.9647 45.9632 13.3214 45.5859 13.3831C45.2086 13.4449 44.8519 13.1842 44.7901 12.8069L44.2893 9.70612C44.2276 9.32881 44.4883 8.97209 44.8656 8.91035L50.4909 8.00481C50.6692 7.97737 50.8613 8.01853 51.0054 8.1283C51.1563 8.23806 51.2523 8.39584 51.2866 8.58106L52.8713 18.4459C52.9331 18.8232 52.6724 19.1799 52.2951 19.2417C52.2608 19.2417 52.2196 19.2485 52.1853 19.2485Z" fill="#1D1D1B"/>
<path d="M42.0728 40.3083C41.7366 40.3083 41.4416 40.0682 41.3867 39.7252C41.325 39.3479 41.5857 38.9912 41.963 38.9295L52.308 37.2693C52.6853 37.2076 53.0421 37.4683 53.1038 37.8456C53.1655 38.2229 52.9049 38.5796 52.5275 38.6413L42.1825 40.3015C42.1482 40.3015 42.1071 40.3083 42.0728 40.3083Z" fill="#1D1D1B"/>
<path d="M37.3333 41.3302C36.9971 41.3302 36.7021 41.0901 36.6472 40.7471C36.5855 40.3697 36.8462 40.013 37.2235 39.9513L39.5148 39.5808C39.8989 39.5191 40.2488 39.7798 40.3105 40.1571C40.3723 40.5344 40.1116 40.8911 39.7343 40.9529L37.443 41.3233C37.4087 41.3233 37.3676 41.3302 37.3333 41.3302Z" fill="#1D1D1B"/>
<path d="M83.4737 38.5248C83.4188 38.7855 83.3022 39.0256 83.1375 39.2108C83.0003 39.3686 82.8014 39.4372 82.6711 39.595C82.4652 39.8488 82.4035 40.2261 82.232 40.5143C82.0331 40.871 81.793 41.2003 81.5323 41.5158C81.5048 41.5501 81.4019 41.6393 81.2853 41.7559H81.2785C81.0383 41.9892 80.7159 42.2979 80.7296 42.3459C80.7434 42.3939 80.7434 42.4831 80.7228 42.6066C80.7159 42.7507 80.6953 42.9427 80.6473 43.1691C80.3935 43.32 80.1259 43.4641 79.8447 43.6013C79.9133 43.3338 79.9613 43.1005 79.9956 42.9084C79.1587 43.2103 78.2737 43.3886 77.3956 43.5464C75.7492 43.8414 74.0959 44.0952 72.4289 44.1913C70.8923 44.5068 69.2733 44.795 67.572 45.0557C64.6564 45.5016 61.5214 45.8651 58.2216 46.1327C58.1805 46.1464 58.1393 46.1533 58.0982 46.1601C58.0158 46.1739 57.9335 46.1738 57.8512 46.1738C57.8306 46.1738 57.8032 46.1739 57.7826 46.167C57.275 46.2082 56.7673 46.2425 56.2528 46.2768C55.8549 46.3042 55.457 46.3316 55.0523 46.3591H55.0454C53.5774 45.4467 52.3014 44.4314 51.1352 43.4367L51.1146 43.4161C50.8882 43.224 50.6892 43.0319 50.5177 42.833C50.3257 42.6203 50.161 42.4145 50.0238 42.2019C49.3104 41.118 49.2006 40.0272 49.2966 39.156C49.3378 38.6895 49.4476 38.2847 49.5573 37.976C49.5916 37.8663 49.6328 37.7771 49.6602 37.6948C49.7631 37.4615 49.8386 37.3243 49.8386 37.3243C49.8386 37.3243 49.6877 37.0979 49.5025 36.7206C49.1389 35.9866 48.6244 34.6626 48.7478 33.2494C48.8439 32.0969 49.2829 31.3286 49.6671 30.8621C50.0032 30.4574 50.2982 30.279 50.2982 30.279C50.5863 29.641 50.6481 28.8658 50.8676 28.2004C51.0254 27.7339 51.2724 27.2674 51.6359 26.9518C51.7183 26.8695 51.8006 26.8078 51.8966 26.7598C51.9789 26.698 52.0681 26.6569 52.1642 26.6226C52.2739 26.9518 52.418 27.2674 52.5964 27.5693C52.6032 27.583 52.6101 27.5898 52.6101 27.6036C52.7198 27.7956 52.8502 27.9809 52.9874 28.1592C53.6322 28.9893 54.5035 29.5861 55.4502 30.0595C55.6765 30.1761 55.9098 30.2859 56.143 30.3888C56.3077 30.4642 56.4792 30.5328 56.6438 30.6014C56.7056 30.6289 56.7742 30.6563 56.8359 30.6769C58.2354 31.2463 59.6828 31.6922 61.1578 32.0283C62.6533 32.3713 64.0459 32.8447 65.5002 33.3592C65.6992 33.4278 65.8912 33.5032 66.0902 33.565H66.097C66.4743 33.6953 66.8585 33.7982 67.2495 33.8531C67.6749 33.9148 68.0865 33.8874 68.4912 33.8325H68.5049C69.2595 33.7365 70.0004 33.5307 70.7619 33.5581C71.2353 33.5718 71.7635 33.8394 72.23 33.956C73.0052 34.1412 73.7872 34.2716 74.583 34.3333C74.83 34.3539 75.0701 34.3676 75.2964 34.3745C75.3239 34.3813 75.3445 34.3813 75.3719 34.3813C75.4817 34.3882 75.5914 34.3882 75.6943 34.3882H75.9207C76.9772 34.3882 78.0268 34.2922 79.0626 34.0795C79.5291 33.9834 80.0162 33.9766 80.4895 33.86C80.9492 33.7433 81.3196 33.4552 81.7312 33.2288C81.7381 33.222 81.7518 33.222 81.7587 33.2151C82.0399 33.0573 82.3898 32.9544 82.6916 33.0573H82.7053C83.0895 33.174 83.3296 33.5718 83.3845 33.9697C83.3845 33.9834 83.3914 33.9972 83.3914 34.0109C83.4325 34.4225 83.3228 34.8272 83.213 35.232C83.117 35.5956 83.0278 35.9797 83.0758 36.357C83.0758 36.3845 83.0827 36.4188 83.0895 36.4531C83.1444 36.7481 83.2816 37.0225 83.3845 37.2969C83.4188 37.3792 83.4531 37.4684 83.4737 37.5507C83.556 37.8457 83.5629 38.1955 83.4805 38.5248H83.4737Z" fill="white"/>
<path d="M75.1729 35.0601C75.2278 35.0669 75.2827 35.0738 75.3375 35.0738H75.4473C75.3581 35.0669 75.2621 35.0669 75.1729 35.0601ZM67.2495 34.4015C66.8173 34.3535 66.3851 34.3055 65.9598 34.2506C66.3371 34.3741 66.735 34.477 67.1466 34.5387C67.6268 34.6073 68.0727 34.5867 68.5049 34.5387C68.1001 34.4975 67.6817 34.4564 67.2495 34.4084V34.4015ZM51.0391 29.6269C50.9773 29.8875 50.9636 30.1414 50.9979 30.3815C51.1488 29.9973 51.2312 29.6063 51.3135 29.229C51.3684 28.9889 51.4164 28.7556 51.485 28.543C51.286 28.886 51.1214 29.2496 51.0391 29.6269ZM75.1729 35.0601C75.2278 35.0669 75.2827 35.0738 75.3375 35.0738H75.4473C75.3581 35.0669 75.2621 35.0669 75.1729 35.0601ZM67.2495 34.4015C66.8173 34.3535 66.3851 34.3055 65.9598 34.2506C66.3371 34.3741 66.735 34.477 67.1466 34.5387C67.6268 34.6073 68.0727 34.5867 68.5049 34.5387C68.1001 34.4975 67.6817 34.4564 67.2495 34.4084V34.4015ZM51.0391 29.6269C50.9773 29.8875 50.9636 30.1414 50.9979 30.3815C51.1488 29.9973 51.2312 29.6063 51.3135 29.229C51.3684 28.9889 51.4164 28.7556 51.485 28.543C51.286 28.886 51.1214 29.2496 51.0391 29.6269ZM84.1391 37.3719C84.0842 37.1798 84.0087 36.9878 83.9264 36.8025C83.8578 36.631 83.7892 36.4732 83.7617 36.3292C83.7137 36.0616 83.7892 35.7598 83.8921 35.3688C83.947 35.1492 84.0087 34.9091 84.043 34.6553V34.6416C84.0842 34.4152 84.0979 34.182 84.0705 33.935C83.995 33.2284 83.5765 32.6522 83.0003 32.4258C82.9728 32.4121 82.9385 32.3983 82.9111 32.3915C82.7053 32.3297 82.4926 32.3092 82.2731 32.3366C81.9987 32.3572 81.7106 32.4532 81.4225 32.6041C81.3676 32.6316 81.3127 32.6659 81.2647 32.6933C81.1824 32.7413 81.1 32.7962 81.0177 32.8442C80.7639 33.002 80.5444 33.1324 80.318 33.1873C80.0985 33.2421 79.8584 33.2696 79.6114 33.297C79.3781 33.3245 79.1449 33.3588 78.9185 33.3999C77.7866 33.6263 76.6341 33.7223 75.4747 33.688C75.4199 33.6812 75.365 33.6812 75.3032 33.6812C74.3085 33.6469 73.3344 33.5097 72.3877 33.2764C72.2368 33.2421 72.079 33.1873 71.9212 33.1324C71.5782 33.0158 71.1872 32.8785 70.7756 32.8648C70.1788 32.8374 69.6231 32.9403 69.0811 33.0363C68.8822 33.0706 68.6832 33.1049 68.4912 33.1324C68.1001 33.1941 67.7228 33.2216 67.3387 33.1667C66.9682 33.1118 66.5978 33.002 66.2273 32.8785C66.0627 32.8237 65.8912 32.7619 65.7265 32.707C64.3545 32.22 62.8796 31.7123 61.3018 31.3556C59.8063 31.0126 58.3245 30.5461 56.9045 29.963C56.877 29.9493 56.8564 29.9424 56.829 29.9287C56.6026 29.8395 56.3694 29.7366 56.1361 29.6269C55.9029 29.5171 55.6696 29.4073 55.4433 29.277C54.7161 28.8791 54.0301 28.3852 53.5224 27.7335C53.4127 27.5894 53.3098 27.4453 53.2206 27.2876C53.0559 27.0132 52.9187 26.7182 52.8158 26.4026C52.761 26.2243 52.6306 26.0802 52.4591 25.9979C52.3631 25.9498 52.2533 25.9224 52.1435 25.9293C52.0681 25.9293 51.9858 25.943 51.9172 25.9704C51.7594 26.0322 51.6153 26.1008 51.4781 26.1968C50.7921 26.629 50.4148 27.3699 50.209 27.9736C50.0992 28.296 50.0306 28.6184 49.962 28.934C49.8934 29.2564 49.8248 29.5651 49.7219 29.8327C49.6876 29.867 49.6396 29.9013 49.5985 29.9356C49.0977 30.3746 48.2058 31.3899 48.0481 33.1873C47.8903 35.0052 48.6518 36.6447 49.0428 37.3445C48.9742 37.4954 48.9124 37.6532 48.8507 37.8247C48.7135 38.25 48.6037 38.7371 48.5694 39.2722C48.5077 40.212 48.6723 41.2822 49.276 42.318C49.3995 42.5307 49.5436 42.7502 49.7082 42.956C49.866 43.1618 50.0444 43.3676 50.2502 43.5666C50.3736 43.6969 50.5108 43.8204 50.6549 43.9439C51.6633 44.8014 52.7198 45.6452 53.8723 46.4204C54.2633 46.3998 54.6543 46.3792 55.0385 46.3587H55.0454C55.4501 46.3312 55.848 46.3038 56.2459 46.2763C54.6406 45.3777 53.2755 44.3349 52.0406 43.299C51.876 43.1618 51.7114 43.0246 51.5536 42.8874C51.485 42.8257 51.4164 42.764 51.3478 42.7022C51.1283 42.4964 50.943 42.2906 50.7921 42.0848C49.9483 40.994 49.866 39.8759 49.9963 39.0389C50.0306 38.8057 50.0787 38.5999 50.1335 38.4147C50.1747 38.2774 50.2159 38.154 50.257 38.0511C50.3462 37.8247 50.4217 37.6875 50.4354 37.6669C50.456 37.6326 50.4697 37.5983 50.4765 37.564C50.5589 37.3582 50.5314 37.125 50.4079 36.9397C50.4079 36.9397 50.3942 36.9123 50.3668 36.8643C50.3668 36.8643 50.3645 36.8597 50.3599 36.8505C50.1404 36.4801 49.2897 34.9434 49.4338 33.3107C49.4955 32.5904 49.7151 32.0485 49.9483 31.6643C49.9758 31.6163 50.0032 31.5751 50.0306 31.534C50.3325 31.0812 50.6275 30.8891 50.648 30.8754C50.7715 30.7999 50.8676 30.697 50.9225 30.5667C50.9499 30.505 50.9773 30.4501 50.9979 30.3883C51.1488 29.9973 51.2312 29.6063 51.3135 29.229C51.3684 28.9889 51.4164 28.7556 51.485 28.543C51.485 28.5018 51.5056 28.4606 51.5193 28.4195C51.5879 28.2274 51.6976 27.953 51.8691 27.7129C51.8897 27.7541 51.9172 27.8021 51.9446 27.8432H51.9515C51.9515 27.8432 51.9583 27.8707 51.9652 27.8775C52.0955 28.1245 52.2602 28.3577 52.4317 28.5841C53.2412 29.6269 54.3456 30.3129 55.4364 30.8274C55.6696 30.944 55.9029 31.0469 56.1293 31.1429C56.2116 31.1772 56.2939 31.2115 56.3762 31.2458C56.5272 31.3076 56.6712 31.3693 56.8221 31.4173C58.1736 31.9524 59.5799 32.3846 60.9931 32.707C62.5023 33.0501 63.9292 33.5371 65.2601 34.0105C65.4864 34.0928 65.7197 34.1751 65.9598 34.2506C66.3371 34.3741 66.735 34.477 67.1466 34.5387C67.6268 34.6073 68.0727 34.5867 68.5049 34.5387C68.7862 34.5044 69.0537 34.4564 69.3212 34.4084C69.8152 34.3192 70.2748 34.2368 70.7344 34.2574C70.9265 34.2643 71.2009 34.3603 71.4685 34.4495C71.6674 34.5181 71.8732 34.5867 72.0584 34.6347C72.8611 34.8268 73.6774 34.9572 74.5075 35.0326C74.6378 35.0395 74.7682 35.0463 74.8916 35.0532C74.9877 35.0532 75.0769 35.0532 75.1729 35.0669C75.2278 35.0738 75.2827 35.0806 75.3375 35.0806H75.5022C75.7011 35.0875 75.8932 35.0875 76.0784 35.0875C77.128 35.0806 78.1708 34.9709 79.1861 34.7651C79.385 34.7308 79.5771 34.7102 79.776 34.6828C80.0573 34.6485 80.3454 34.6142 80.6473 34.5456C81.0863 34.4358 81.4293 34.2231 81.738 34.031C81.8546 33.9624 81.9644 33.8938 82.081 33.8321C82.1085 33.8184 82.129 33.8115 82.1496 33.7978C82.328 33.7155 82.4446 33.7018 82.4926 33.7223C82.5681 33.7429 82.671 33.9007 82.6916 34.0928C82.719 34.3603 82.6367 34.6828 82.5407 35.0601C82.4515 35.4099 82.3691 35.7667 82.3623 36.144C82.3623 36.288 82.3692 36.4321 82.3966 36.583C82.3966 36.6173 82.4103 36.6447 82.4172 36.679C82.4721 36.926 82.5681 37.1524 82.6504 37.3445C82.671 37.3856 82.6847 37.4268 82.7053 37.4748C82.7396 37.564 82.7739 37.6532 82.7945 37.7424C82.8288 37.8658 82.8425 38.0099 82.8288 38.1471C82.8288 38.2637 82.8082 38.3804 82.767 38.4764V38.4901C82.7327 38.593 82.6847 38.6822 82.623 38.7508C82.5955 38.7851 82.5612 38.8057 82.5269 38.8263C82.4172 38.9017 82.2663 38.9978 82.1359 39.1624C81.9438 39.4025 81.8409 39.6701 81.7586 39.8896C81.7174 39.9856 81.6831 40.0885 81.6351 40.1708C81.4636 40.4727 81.2441 40.7745 81.0108 41.0627C80.9765 41.097 80.9011 41.1656 80.8188 41.2479C80.5924 41.4674 80.414 41.632 80.2905 41.7761C80.1465 41.9339 80.0642 42.0642 80.0367 42.2014C80.0161 42.2837 80.023 42.3661 80.0436 42.4553C80.0436 42.5444 80.0299 42.7022 79.9956 42.9149C79.9613 43.107 79.9132 43.3402 79.8446 43.6077C80.1259 43.4705 80.3934 43.3265 80.6473 43.1756C80.9217 43.0178 81.1755 42.86 81.4156 42.6885C81.4156 42.6542 81.4156 42.6199 81.4156 42.5925C81.5254 42.4827 81.6763 42.3386 81.7655 42.2494C81.9027 42.1191 82.0193 42.0093 82.0536 41.9682C82.2525 41.7281 82.4378 41.488 82.5887 41.241C82.6779 41.1175 82.7602 40.9941 82.8288 40.8706C82.8562 40.8225 82.8837 40.7814 82.9042 40.7265C82.9591 40.6099 83.0071 40.4933 83.0483 40.3766C83.0963 40.2394 83.1512 40.1022 83.1992 40.0474C83.2129 40.0336 83.2335 40.0199 83.2541 40.0062C83.2678 39.9925 83.2815 39.9856 83.2953 39.9719C83.3913 39.9102 83.5285 39.821 83.652 39.6838C83.8921 39.4094 84.0499 39.0801 84.1322 38.7371C84.1391 38.7302 84.1391 38.7234 84.1391 38.7234C84.2557 38.2569 84.2351 37.7629 84.1322 37.3788L84.1391 37.3719ZM51.0391 29.6269C50.9773 29.8875 50.9636 30.1414 50.9979 30.3815C51.1488 29.9973 51.2312 29.6063 51.3135 29.229C51.3684 28.9889 51.4164 28.7556 51.485 28.543C51.286 28.886 51.1214 29.2496 51.0391 29.6269ZM67.2495 34.4015C66.8173 34.3535 66.3851 34.3055 65.9598 34.2506C66.3371 34.3741 66.735 34.477 67.1466 34.5387C67.6268 34.6073 68.0727 34.5867 68.5049 34.5387C68.1001 34.4975 67.6817 34.4564 67.2495 34.4084V34.4015ZM75.1729 35.0601C75.2278 35.0669 75.2827 35.0738 75.3375 35.0738H75.4473C75.3581 35.0669 75.2621 35.0669 75.1729 35.0601ZM51.0391 29.6269C50.9773 29.8875 50.9636 30.1414 50.9979 30.3815C51.1488 29.9973 51.2312 29.6063 51.3135 29.229C51.3684 28.9889 51.4164 28.7556 51.485 28.543C51.286 28.886 51.1214 29.2496 51.0391 29.6269ZM67.2495 34.4015C66.8173 34.3535 66.3851 34.3055 65.9598 34.2506C66.3371 34.3741 66.735 34.477 67.1466 34.5387C67.6268 34.6073 68.0727 34.5867 68.5049 34.5387C68.1001 34.4975 67.6817 34.4564 67.2495 34.4084V34.4015ZM75.1729 35.0601C75.2278 35.0669 75.2827 35.0738 75.3375 35.0738H75.4473C75.3581 35.0669 75.2621 35.0669 75.1729 35.0601Z" fill="#1D1D1B"/>
<path d="M49.2758 35.0329C49.3032 35.1084 49.3375 35.1839 49.3718 35.2662C49.3993 35.3348 49.413 35.4102 49.4404 35.4788C49.461 35.5269 49.4679 35.5749 49.4885 35.6298C49.5228 35.7052 49.5571 35.767 49.5845 35.8424C49.6257 35.9659 49.6874 36.0825 49.7423 36.1992C49.8177 36.3501 49.9001 36.4941 49.9824 36.6313C50.0441 36.7411 50.1333 36.844 50.1264 36.9675C50.1127 37.1115 50.099 37.2556 50.0441 37.3928C49.9755 37.5575 49.9344 37.6947 50.0441 37.8593C50.2088 38.0857 50.4832 38.2092 50.7301 38.3532C50.9908 38.5041 51.2584 38.6619 51.5122 38.8334C52.7058 39.6498 53.7349 40.8503 55.1686 41.063C55.7106 41.1453 56.2662 41.063 56.8082 40.9944C56.9454 40.9738 57.0894 40.9532 57.2061 40.8777C57.3158 40.8023 57.3913 40.6857 57.453 40.5759C58.0156 39.54 58.0567 38.2435 57.8303 37.0292C57.7274 36.4941 57.5765 35.9796 57.3982 35.5063C57.1169 34.7723 56.7053 34.0588 56.0399 33.5786C54.8188 32.6936 53.385 32.6868 51.9718 32.4467C51.7454 32.4055 51.5053 32.3644 51.3064 32.2477C51.0183 32.0831 50.9016 31.795 50.6615 31.6097C50.5038 31.4931 50.3117 31.4657 50.1264 31.5137C50.0304 31.5411 49.9549 31.5892 49.8726 31.6235C49.7903 31.6578 49.7011 31.6372 49.6051 31.6235C49.3856 31.9802 49.2415 32.2066 49.1523 32.6113C49.118 32.7897 49.1112 32.9612 49.1043 33.1396C49.1043 33.215 49.0768 33.2905 49.0631 33.3659C49.0082 33.6541 49.0426 33.9353 49.0837 34.2234C49.1043 34.2989 49.1249 34.3812 49.1386 34.4567C49.1592 34.5527 49.1798 34.6488 49.2141 34.7448C49.2484 34.8409 49.2484 34.9506 49.2827 35.0467L49.2758 35.0329Z" fill="#EA0029"/>
<path d="M83.2612 39.9995C83.172 40.2465 83.0554 40.4866 82.9113 40.713C82.7947 40.9119 82.6575 41.0971 82.5066 41.2755C82.1155 41.7351 81.6285 42.1261 81.0934 42.4211C80.9699 42.4897 80.8464 42.5515 80.7229 42.6063C80.4897 42.723 80.2427 42.8259 79.9958 42.9082C79.1588 43.21 78.2739 43.3884 77.3958 43.5462C75.7494 43.8412 74.0961 44.095 72.4291 44.191C71.6676 44.239 70.9061 44.2528 70.1378 44.2253C67.6956 44.1293 65.2946 43.6079 62.9073 43.0934C61.9537 42.8807 60.9933 42.6749 60.0397 42.4554C60.0192 42.4486 59.9986 42.4486 59.978 42.4417C59.8408 42.4074 59.6967 42.3525 59.6144 42.2359C59.5321 42.1193 59.5389 41.9684 59.5664 41.8174C59.5732 41.7831 59.5801 41.7488 59.587 41.7145C59.9231 40.2808 60.7257 38.9225 61.9331 38.0718C63.1405 37.228 64.7732 36.9399 66.1452 37.4818C67.2223 37.9072 68.0592 38.7784 69.0882 39.3066C70.3367 39.9446 71.846 40.0338 73.1631 39.5536C75.0428 38.8676 76.8058 37.4407 78.9256 37.8454C79.5979 37.9758 80.2633 38.161 80.9425 38.2639C81.2649 38.3119 81.5599 38.3737 81.8549 38.2159C82.1224 38.0718 82.3351 37.8386 82.5409 37.619L82.5546 37.6053C82.6026 37.5573 82.6506 37.5093 82.7055 37.4681C82.7878 37.4064 82.8839 37.3721 82.9799 37.3858C83.0897 37.3995 83.172 37.475 83.2269 37.571C83.2749 37.6396 83.3092 37.7219 83.3298 37.7974C83.4052 38.0375 83.4533 38.2845 83.4738 38.5246C83.515 39.0391 83.4395 39.533 83.2612 39.9995Z" fill="#EA0029"/>
<path d="M57.6728 31.2598C57.3092 31.102 56.9593 30.9373 56.6026 30.7658C55.2169 30.0867 53.2412 29.0371 52.5895 27.5759C51.8966 26.0255 51.9652 24.3173 52.7884 22.8356C54.085 20.4963 56.9182 19.673 59.429 18.9047C62.3034 18.0198 65.507 18.0266 68.45 18.4588C74.1439 19.2957 82.232 21.4841 82.8425 28.3991C82.9728 29.9083 82.7739 31.7468 81.8958 33.0297C80.5924 34.9436 75.4199 34.5526 67.3181 33.7157C64.0252 33.3727 60.7187 32.5975 57.6728 31.2598Z" fill="white"/>
<path d="M83.5281 28.3306C83.0341 22.7053 77.992 19.1518 68.5456 17.766C65.1018 17.2584 61.8776 17.423 59.2227 18.2325L59.0375 18.2874C58.3309 18.5069 57.5969 18.7333 56.8697 19.0009C56.6365 19.0832 56.4032 19.1724 56.1768 19.2684C55.9436 19.3644 55.7104 19.4673 55.484 19.584C54.1394 20.2357 52.9389 21.1206 52.1843 22.4927C51.5463 23.6451 51.3062 24.9348 51.4777 26.1971C51.4982 26.3412 51.5257 26.4852 51.5531 26.6224C51.5737 26.7322 51.6012 26.842 51.6286 26.9517C51.7109 27.2536 51.8207 27.5554 51.9442 27.8435H51.951C51.951 27.8435 51.9579 27.871 51.9647 27.8778C52.5616 29.1881 53.9747 30.1554 55.4359 30.9374C55.6692 31.0678 55.9024 31.1844 56.1288 31.301C56.1837 31.3285 56.2454 31.3559 56.3003 31.3833C56.4718 31.4725 56.6433 31.5548 56.8217 31.6372C57.0138 31.7263 57.2059 31.8087 57.3979 31.891C59.9911 33.0298 62.8654 33.8187 65.9593 34.2509C66.3847 34.3057 66.8169 34.3538 67.249 34.4018C67.6812 34.4498 68.0997 34.491 68.5044 34.5321C70.8163 34.7654 72.8057 34.9369 74.507 35.0261C74.6374 35.0329 74.7677 35.0398 74.8912 35.0466C74.9872 35.0466 75.0764 35.0466 75.1725 35.0604C75.2616 35.0672 75.3577 35.0672 75.4469 35.0741H75.5017C75.7007 35.0809 75.8928 35.0809 76.078 35.0809C76.3181 35.0947 76.5445 35.0947 76.7709 35.0947C79.5012 35.0947 81.2231 34.7311 82.1492 33.7912C82.2727 33.6746 82.3756 33.5511 82.4647 33.4139C82.5471 33.2973 82.6157 33.1807 82.6843 33.0572C82.8078 32.8514 82.9038 32.6387 82.9998 32.4261C83.6515 30.8483 83.5967 29.1058 83.5281 28.3306ZM75.3028 33.6815C73.2173 33.606 70.8232 33.3728 68.4907 33.1327C68.1271 33.0984 67.7567 33.0572 67.3931 33.0229C67.0021 32.9817 66.6111 32.9337 66.2269 32.8788C63.229 32.4741 60.4507 31.7126 57.9536 30.6219C57.5969 30.4709 57.2539 30.3063 56.9109 30.1417C56.8834 30.1279 56.856 30.1142 56.8285 30.1005C56.6365 30.0045 56.3964 29.881 56.1357 29.7438C55.9162 29.6272 55.6829 29.4968 55.4428 29.3528C54.5441 28.8177 53.5837 28.1042 53.2201 27.2879C52.6164 25.9227 52.6782 24.4615 53.3916 23.1649C53.8718 22.2937 54.6059 21.6557 55.4771 21.1549C55.6966 21.0246 55.9299 20.9011 56.17 20.7913C56.3964 20.6884 56.6296 20.5855 56.8697 20.4895C57.6929 20.1534 58.5779 19.8858 59.4491 19.6183L59.6275 19.5634C61.1436 19.0969 62.8654 18.8637 64.7245 18.8637C65.8839 18.8637 67.0981 18.9528 68.3467 19.1381C77.0727 20.4209 81.717 23.556 82.1492 28.4541C82.2932 30.1005 81.9845 31.6646 81.3191 32.6319C81.3054 32.6525 81.2917 32.673 81.2642 32.6936C80.5782 33.5717 78.3281 33.7775 75.4743 33.6883C75.4194 33.6815 75.3645 33.6815 75.3028 33.6815Z" fill="#1D1D1B"/>
<path d="M84.0431 34.6415V34.6552C84.05 35.06 83.9539 35.6842 83.7618 36.3222C83.7207 36.4594 83.6727 36.5898 83.6246 36.7201C83.5492 36.919 83.4669 37.1111 83.3777 37.2964C83.3297 37.3924 83.2816 37.4816 83.2268 37.5708C83.1307 37.7491 83.021 37.9138 82.9043 38.0578C82.8838 38.0853 82.8563 38.1127 82.8289 38.1401C82.8014 38.1744 82.774 38.2019 82.7466 38.2225C82.1429 38.7987 81.2236 38.8673 80.2015 38.3871C79.8653 38.2293 79.5292 38.1264 79.193 38.0784C78.6236 37.9892 78.0131 38.0647 77.4163 38.2842C76.6273 38.5792 75.9688 39.0937 75.2622 39.6356C75.077 39.7797 74.8986 39.9238 74.7065 40.061C73.5334 40.9391 71.4548 41.3301 70.0211 40.4657C69.3145 40.0335 68.6422 39.567 68.0454 39.0731C67.8807 38.9359 67.7161 38.7713 67.5514 38.6135C67.277 38.3391 66.9889 38.051 66.7282 37.9686C65.7747 37.6462 64.3478 37.6188 63.4079 37.8932C62.2897 38.2293 61.5008 38.7095 60.9932 39.3544C60.4649 40.0335 60.2248 40.9802 60.0602 41.9544C60.0259 42.119 60.0053 42.2768 59.9779 42.4414C59.9642 42.5443 59.9436 42.6404 59.9299 42.7433C59.8956 42.9422 59.8681 43.1412 59.8338 43.3401C59.8064 43.4773 59.7858 43.6145 59.7583 43.7517C59.6211 44.4583 59.3467 45.8783 58.2148 46.1322C58.1737 46.1459 58.1325 46.1527 58.0913 46.1596C58.009 46.1733 57.9267 46.1733 57.8444 46.1733C57.8238 46.1733 57.7964 46.1733 57.7758 46.1665C57.4122 46.1596 57.0898 46.0224 56.8291 45.7686C56.1431 45.1032 56.246 43.9095 56.2734 43.6831C56.3214 43.3058 56.3626 42.9422 56.4106 42.5924C56.4381 42.4071 56.4655 42.2288 56.4861 42.0504C56.541 41.6937 56.589 41.3507 56.6439 41.0145C56.6644 40.8842 56.685 40.7538 56.6987 40.6304C56.733 40.452 56.7605 40.2805 56.7879 40.1159C56.8977 39.4779 57.0074 38.8742 57.1309 38.2842L57.1652 38.1401C57.2887 37.5433 57.4053 36.9808 57.2407 36.5417C57.1584 36.3154 56.9937 36.0958 56.8085 35.8626C56.7879 35.8352 56.7605 35.8009 56.7399 35.7734C56.541 35.5264 56.3352 35.2726 56.1156 35.0257C55.903 34.7787 55.6697 34.5386 55.4228 34.3328C55.1346 34.0858 54.8328 33.88 54.4967 33.7428C54.085 33.5782 53.6048 33.4959 53.0972 33.4067C52.1574 33.2489 51.1009 33.0637 50.3531 32.2473C50.1885 32.069 50.0582 31.8769 49.9484 31.6642C49.9278 31.6436 49.921 31.6162 49.9072 31.5887C49.7975 31.3624 49.7152 31.1154 49.6603 30.8616C49.5985 30.5666 49.578 30.251 49.5985 29.9355C49.6123 29.7365 49.6397 29.5307 49.6877 29.3249C49.7975 28.8378 49.9827 28.3919 50.2091 27.9803C50.4286 27.5824 50.6756 27.2189 50.9088 26.8964C51.0597 26.6838 51.3136 26.5877 51.5537 26.622C51.6634 26.6358 51.78 26.6769 51.8829 26.7524H51.8898C52.1917 26.9856 52.2603 27.4109 52.0339 27.7197C52.0064 27.7608 51.9721 27.802 51.9447 27.8431C51.7869 28.0627 51.6291 28.2959 51.4851 28.5429C51.2861 28.8859 51.1215 29.2495 51.0392 29.6268C50.9774 29.8874 50.9637 30.1413 50.998 30.3814C50.9911 30.3882 50.998 30.3882 50.998 30.3882C51.0254 30.7518 51.1558 31.0742 51.3684 31.3075C51.8006 31.7808 52.5072 31.8975 53.3304 32.0415C53.893 32.1376 54.4692 32.2336 55.0249 32.46C55.1689 32.5217 55.2993 32.5835 55.4296 32.6589C55.6766 32.7893 55.9098 32.947 56.1225 33.1186C56.3695 33.3038 56.6027 33.5164 56.8154 33.736C57.1927 34.127 57.522 34.5386 57.8238 34.909C58.0776 35.2315 58.3726 35.595 58.5441 36.0684C58.8391 36.8779 58.6744 37.7011 58.5235 38.4214L58.4892 38.5655C58.1668 40.1433 57.8993 41.8172 57.6523 43.8478C57.5974 44.3142 57.7209 44.7396 57.8101 44.7876C57.8101 44.7876 57.8307 44.7944 57.8924 44.7876C57.9747 44.7739 58.1737 44.6298 58.3932 43.4979C58.4549 43.1823 58.5029 42.853 58.5578 42.5238C58.7636 41.1792 59.0037 39.6562 59.9024 38.5037C60.5884 37.6188 61.6037 36.9877 63.01 36.5692C64.2311 36.2056 65.9393 36.2399 67.1673 36.6515C67.7367 36.8436 68.1551 37.2552 68.5256 37.6256C68.6628 37.756 68.7931 37.8932 68.9234 38.0029C69.4723 38.4557 70.0828 38.881 70.7345 39.2789C71.6195 39.8072 73.1012 39.5259 73.8833 38.9496C74.0617 38.8124 74.24 38.6752 74.4115 38.538C75.1661 37.9549 75.9482 37.3512 76.9292 36.9876C77.7455 36.6858 78.5962 36.5829 79.3988 36.7064C79.8584 36.775 80.3249 36.9122 80.7846 37.1249C80.9698 37.214 81.5941 37.4747 81.8273 37.1797C82.0468 36.9122 82.232 36.528 82.3624 36.137C82.5613 35.5745 82.6642 34.9845 82.6574 34.6827C82.6436 34.2985 82.9455 33.9829 83.3297 33.9692H83.3777C83.7344 33.9692 84.0294 34.271 84.0431 34.6415Z" fill="#1D1D1B"/>
<path d="M57.1588 42.2835C57.0696 42.2835 56.9736 42.2629 56.8844 42.2286C53.4269 40.7537 50.9093 39.0456 49.4 37.8656C49.0982 37.6324 49.0433 37.1933 49.2765 36.8915C49.5098 36.5896 49.9488 36.5348 50.2507 36.768C51.6913 37.8931 54.1061 39.5326 57.4263 40.9458C57.7762 41.0967 57.9409 41.5015 57.7899 41.8582C57.6802 42.1189 57.4195 42.2767 57.1519 42.2767L57.1588 42.2835Z" fill="#1D1D1B"/>
<path d="M84.1459 38.7173C84.1459 38.7173 84.1459 38.7241 84.1391 38.731C84.1116 39.1632 84.0019 39.6571 83.7618 40.1991C83.6589 40.4323 83.5079 40.6793 83.3227 40.9262C82.8905 41.5093 82.2457 42.1199 81.4156 42.6824C81.1755 42.8539 80.9217 43.0117 80.6473 43.1695C80.3934 43.3204 80.1259 43.4645 79.8446 43.6017C79.9132 43.3341 79.9613 43.1009 79.9956 42.9088C79.1586 43.2106 78.2737 43.389 77.3956 43.5468C75.7492 43.8418 74.0959 44.0956 72.4289 44.1916C70.8922 44.5072 69.2732 44.7953 67.5719 45.056C64.9033 44.7336 62.3102 44.1642 59.8406 43.341C59.6622 43.2792 59.4839 43.2244 59.3124 43.1626C58.9488 43.0391 58.7567 42.6413 58.8802 42.2845C58.9899 41.9827 59.2712 41.8043 59.573 41.818C59.6348 41.818 59.7034 41.8318 59.7651 41.8523C59.868 41.8866 59.9641 41.9209 60.067 41.9552C63.7303 43.1901 67.6542 43.8624 71.736 43.9584C72.4906 43.979 73.2109 43.9447 73.9038 43.8761C73.9107 43.8692 73.9175 43.8692 73.9244 43.8692C75.7286 43.684 77.3201 43.2244 78.6304 42.6481C79.2478 42.3737 79.8035 42.0719 80.2905 41.77C81.4568 41.036 82.2251 40.2471 82.4926 39.6365C82.6984 39.1838 82.767 38.7996 82.767 38.484V38.4703C82.767 38.3811 82.7602 38.2988 82.7465 38.2234C82.719 37.9284 82.6161 37.7226 82.5544 37.6059C82.5132 37.5442 82.4858 37.5099 82.4789 37.503C82.2731 37.2698 82.2594 36.9268 82.4172 36.673C82.4515 36.6181 82.4926 36.5701 82.5407 36.5289C82.6916 36.3986 82.8837 36.3368 83.0689 36.3574C83.2267 36.3711 83.3845 36.4397 83.5011 36.5701C83.5148 36.5838 83.556 36.6318 83.6246 36.721C83.8304 37.0091 84.2145 37.6951 84.1459 38.7173Z" fill="#1D1D1B"/>
<path d="M62.6875 23.4321C62.4885 23.4321 62.2896 23.3429 62.1524 23.1783C61.9123 22.8833 61.9534 22.4443 62.2484 22.2042C62.564 21.9435 62.8521 21.6416 63.1059 21.3192C63.3392 21.0174 63.7714 20.9556 64.0801 21.1957C64.3819 21.429 64.4368 21.868 64.2036 22.1699C63.888 22.5746 63.5244 22.9519 63.1265 23.2812C62.9962 23.391 62.8384 23.439 62.6875 23.439V23.4321Z" fill="#1D1D1B"/>
<path d="M57.447 25.7788C57.2549 25.7788 57.0697 25.7033 56.9325 25.5455C56.6786 25.2574 56.7061 24.8184 56.9873 24.5645L57.6116 24.0089C57.8997 23.7551 58.3319 23.7825 58.5926 24.0638C58.8464 24.3519 58.819 24.7909 58.5377 25.0447L57.9135 25.6004C57.7831 25.717 57.6185 25.7788 57.4538 25.7788H57.447Z" fill="#1D1D1B"/>
<path d="M64.1004 28.2275C63.8672 28.2275 63.6408 28.1109 63.5104 27.8982C63.3115 27.569 63.4144 27.1436 63.7368 26.9447C63.9495 26.8144 64.1347 26.6566 64.2925 26.4713C64.5395 26.1764 64.9785 26.1421 65.2666 26.389C65.5616 26.636 65.5959 27.075 65.3489 27.3632C65.0951 27.665 64.8001 27.9188 64.464 28.1315C64.3474 28.2001 64.2239 28.2344 64.1004 28.2344V28.2275Z" fill="#1D1D1B"/>
<path d="M22.9949 74.3611C23.2487 74.3199 23.5025 74.2513 23.7563 74.1484L23.5094 74.4914L23.0978 75.0471C22.8714 75.0814 22.6381 75.0951 22.4049 75.0883C22.3843 74.7315 22.6313 74.416 22.9949 74.3611Z" fill="white"/>
<path d="M26.6868 70.1712L26.5974 70.3018C26.5768 70.1712 26.5356 70.0475 26.4806 69.9375C26.5287 70.0337 26.6043 70.1093 26.6868 70.1712Z" fill="white"/>
<path d="M23.7632 74.8772C23.7632 74.8772 23.7769 74.9252 23.7838 74.9458C23.8386 75.3231 23.578 75.673 23.2007 75.7347C23.1664 75.7347 23.1321 75.7347 23.0978 75.7347C22.7616 75.7347 22.4666 75.4878 22.4117 75.1448C22.4049 75.1242 22.4049 75.1036 22.4049 75.083C22.3843 74.7263 22.6313 74.4107 22.9949 74.3559C23.1801 74.3216 23.3653 74.3764 23.5094 74.4862C23.6328 74.5754 23.7289 74.7126 23.7632 74.8704V74.8772Z" fill="#1D1D1B"/>
<path d="M27.098 69.6143C27.208 69.8205 27.2698 70.0404 27.2973 70.2741C27.0842 70.3429 26.8574 70.3016 26.6855 70.171L27.098 69.6143Z" fill="#1D1D1B"/>
<path d="M23.7633 74.876C23.5438 74.9583 23.3243 75.0132 23.0979 75.0475L23.5095 74.4918L23.7565 74.1488L26.5966 70.3003L26.6857 70.1699L27.0973 69.6143C27.2071 69.8201 27.2688 70.0396 27.2963 70.2728C27.5021 71.9467 25.8008 74.2037 23.7633 74.876Z" fill="white"/>
<path d="M27.5157 72.4342C26.7885 73.8611 25.1764 75.4321 23.2007 75.7339C23.1664 75.7339 23.1321 75.7339 23.0978 75.7339C22.7616 75.7339 22.4666 75.487 22.4117 75.144C22.4049 75.1234 22.4049 75.1028 22.4049 75.0822C22.3843 74.7255 22.6313 74.4099 22.9949 74.355C23.2487 74.3139 23.5025 74.2453 23.7563 74.1424C24.7716 73.7376 25.7458 72.8527 26.274 71.8031C26.5552 71.2474 26.665 70.7123 26.5964 70.2939C26.5758 70.1635 26.5347 70.04 26.4798 69.9303C26.5278 70.0263 26.6033 70.1018 26.6856 70.1635L27.0972 69.6079C27.207 69.8137 27.2687 70.0332 27.2961 70.2664C27.3236 70.2664 27.3442 70.2596 27.3716 70.2458C27.7146 70.0949 27.8792 69.697 27.742 69.3472C28.1674 70.2115 28.085 71.3023 27.5157 72.4274V72.4342Z" fill="#1D1D1B"/>
<path d="M22.5011 44.9391C22.4257 44.9391 22.3502 44.9253 22.2747 44.9048C21.9112 44.7813 21.7191 44.3903 21.8425 44.0267C22.2747 42.7507 21.6848 41.1591 20.5254 40.4731C20.2853 40.3291 20.0109 40.2124 19.7228 40.0958L20.2579 38.813L19.9903 39.451L20.2647 38.813C20.5803 38.9502 20.9096 39.0874 21.232 39.2726C22.9607 40.2879 23.8045 42.5723 23.1597 44.4726C23.0636 44.7607 22.7892 44.9391 22.5011 44.9391Z" fill="#1D1D1B"/>
<path d="M28.4009 45.8309C28.0373 45.7966 27.6806 45.7623 27.3307 45.7211C27.1661 45.5496 26.9946 45.385 26.8231 45.2272C25.7598 44.2325 24.5867 43.3612 23.3381 42.6135C22.7825 42.2773 22.2131 41.9618 21.6231 41.6805C20.5392 41.1454 19.4073 40.6995 18.2479 40.3496C15.991 39.6636 13.9398 38.3053 12.4374 36.4737C12.4031 36.4394 12.3688 36.3982 12.3345 36.3708C12.3002 36.3502 12.2728 36.3228 12.2385 36.2885C12.0464 36.1513 11.8818 35.9866 11.724 35.8151C11.5662 35.6368 11.4221 35.4378 11.2987 35.232C10.9694 34.7175 10.743 34.1413 10.5303 33.5444C10.1599 32.5086 9.37097 31.7745 9.1583 30.6495C9.08284 30.2104 9.04168 29.7165 8.7124 29.4215C7.70396 28.516 8.17045 26.1149 8.01953 24.887C7.98523 24.6126 7.95093 24.3382 7.96465 24.0638C7.98523 23.7619 8.07441 23.4738 8.15673 23.1857C8.28021 22.7603 8.40369 22.335 8.53403 21.9097C8.59577 21.697 8.65752 21.4844 8.75356 21.2854C8.84274 21.1071 8.9525 20.9493 9.06226 20.7846C9.53561 20.0986 9.54247 19.392 9.94722 18.754C10.3245 18.1572 11.1134 17.9994 11.7034 17.7182C12.5198 17.3409 13.048 16.7783 13.6791 16.1609C14.8522 15.0153 16.3134 14.8781 17.9187 14.9947C19.1809 15.0908 20.5324 15.2211 21.6231 14.59C21.925 14.4116 22.2817 14.1715 22.5972 14.3156C22.803 14.4047 22.9128 14.6311 23.0775 14.782C23.3656 15.0359 23.7772 15.0633 24.1545 15.1456C25.0737 15.3583 25.8558 16.01 26.384 16.7921C27.1249 17.876 27.4679 19.0628 28.2362 20.1261C28.5793 20.6063 28.9154 21.0865 29.2515 21.5736C29.3956 21.7862 29.5397 21.9989 29.6837 22.2047C29.8278 22.4173 29.9719 22.63 30.1159 22.8427C30.356 23.1925 30.5961 23.5424 30.8362 23.8923C32.0024 25.5799 32.3386 27.9466 32.5444 30.327C32.6816 31.85 32.7571 33.3798 32.956 34.7312C32.9903 34.9576 33.0315 35.1771 33.0726 35.3898C33.4774 37.4204 34.1085 39.3687 35.0209 41.1454C35.5697 42.2225 36.2214 43.2446 36.9829 44.1845C37.1475 44.3971 37.3259 44.6029 37.5111 44.8087C37.6895 45.0145 37.8816 45.2203 38.0805 45.4193C38.2863 45.6319 38.5058 45.8446 38.7322 46.0435C38.8968 46.2013 39.0683 46.3454 39.2467 46.4963L39.233 46.5649L39.1301 47.1823L39.3976 47.1137C39.3222 47.0108 38.938 47.1274 38.842 47.0588C38.8282 47.0588 38.8145 47.0451 38.8008 47.0314C38.6019 46.8667 38.4166 46.7021 38.2246 46.5237C35.5628 46.4208 32.9697 46.2562 30.4864 46.0367C30.2463 46.0161 30.013 45.9955 29.7798 45.9749C29.5465 45.9475 29.3133 45.9269 29.08 45.8995" fill="white"/>
<path d="M40.063 46.7016C40.063 46.7016 40.063 46.729 40.0561 46.7427C39.5004 46.729 38.9448 46.7084 38.3891 46.681C38.3754 46.6741 38.3617 46.6604 38.3479 46.6467C38.0049 46.338 37.6757 46.0087 37.367 45.6657C37.1749 45.4667 36.9965 45.2609 36.825 45.0551C36.6466 44.8493 36.482 44.6435 36.3174 44.4309C36.2282 44.3142 36.139 44.1908 36.0498 44.0673C35.4736 43.2852 34.9591 42.4414 34.5063 41.5428C33.6145 39.7866 32.949 37.8177 32.5169 35.6499C32.4757 35.4579 32.4414 35.2589 32.414 35.06C32.2562 34.0653 32.167 32.9882 32.0847 31.8632C32.0847 31.822 32.0778 31.774 32.0778 31.7328C32.0435 31.3281 32.0161 30.9233 31.9818 30.5117C31.7965 28.4057 31.5084 26.0321 30.3834 24.4062C30.109 24.0015 29.8277 23.5967 29.5533 23.1851C29.5327 23.1508 29.5121 23.1234 29.4847 23.0891C29.3406 22.8764 29.1966 22.6638 29.0456 22.4511C28.9084 22.2384 28.7644 22.0326 28.6135 21.82C28.3459 21.4289 28.0715 21.0379 27.7971 20.6538C27.3581 20.0501 27.0562 19.4258 26.7681 18.8221C26.5074 18.287 26.2604 17.7794 25.938 17.306C25.4441 16.5857 24.7992 16.1055 24.1201 15.9477C24.0515 15.934 23.9829 15.9203 23.9074 15.9066C23.5507 15.838 23.1048 15.7488 22.7344 15.4195C22.652 15.3372 22.5766 15.248 22.5011 15.1588C22.4874 15.1451 22.4737 15.1245 22.46 15.1108C22.3776 15.1451 22.261 15.2137 22.1855 15.2549L22.0964 15.3097C20.8615 16.0232 19.4278 15.9203 18.1587 15.8242L17.994 15.8105C16.2035 15.6802 15.1265 15.9546 14.2896 16.7778L14.1181 16.9493C13.5281 17.5324 12.9656 18.0812 12.1218 18.4722C11.964 18.5477 11.7925 18.6163 11.621 18.678C11.2094 18.8427 10.8184 18.9936 10.6537 19.2474C10.5097 19.4738 10.4273 19.7276 10.3313 20.0295C10.2078 20.4137 10.0637 20.8527 9.75504 21.2986C9.66586 21.4358 9.56982 21.5661 9.50122 21.7102C9.42576 21.8611 9.37774 22.0395 9.32285 22.2316L8.94555 23.5007C8.87009 23.7614 8.79463 24.0083 8.78091 24.2279C8.76719 24.4131 8.79463 24.6258 8.82207 24.8521L8.83579 24.9276C8.88381 25.3323 8.87009 25.8125 8.86323 26.3202C8.84265 27.2806 8.82207 28.5977 9.30227 29.0299C9.7619 29.4415 9.85794 30.0109 9.9334 30.4706L9.9677 30.6489C10.0637 31.1703 10.3381 31.6231 10.6263 32.0964C10.8732 32.508 11.1271 32.9265 11.3054 33.4341C11.4838 33.9349 11.6621 34.3808 11.8748 34.7581C11.9914 34.9845 12.1218 35.1834 12.2796 35.3687C12.4236 35.5539 12.5883 35.7185 12.7803 35.8626C12.8078 35.89 12.8352 35.9106 12.8627 35.9312C12.9724 36.0067 13.0479 36.1027 13.0891 36.1507C14.5022 37.8657 16.4505 39.1623 18.5771 39.8072C19.1191 39.9718 19.6473 40.1502 20.1755 40.356C20.203 40.3628 20.2304 40.3765 20.2579 40.3903C21.2937 40.7882 22.3022 41.2615 23.2557 41.8103C24.7649 42.661 26.1713 43.6831 27.4129 44.8425C27.804 45.1992 28.1676 45.5628 28.5174 45.9469H28.5243C28.1607 45.9195 27.804 45.8852 27.4541 45.844C27.0631 45.796 26.6789 45.7549 26.3016 45.7068L26.281 45.6863C25.4167 44.8905 24.4768 44.1839 23.4752 43.5596C23.0156 43.2646 22.5491 42.9902 22.0621 42.7364C20.8341 42.0847 19.5307 41.5496 18.1724 41.138C15.7919 40.4108 13.6104 38.9565 12.0257 37.0425C11.9846 37.0082 11.9434 36.9808 11.9023 36.9465C11.717 36.7956 11.5455 36.6378 11.3946 36.4663C11.23 36.2948 11.0928 36.1164 10.9556 35.9243C10.5165 35.2795 10.2284 34.5592 9.99514 33.8937C9.8648 33.5233 9.659 33.1803 9.43948 32.8167C9.11705 32.2816 8.74661 31.6711 8.60254 30.8959L8.56824 30.6969C8.52708 30.4431 8.47906 30.1481 8.3693 30.059C7.42261 29.2014 7.45005 27.5893 7.47749 26.2928C7.48435 25.8331 7.49121 25.4009 7.45691 25.0922V25.0236C7.41575 24.7561 7.38145 24.4542 7.40203 24.1387C7.42261 23.7614 7.52551 23.4184 7.61469 23.1097L7.99199 21.8406C8.05374 21.6142 8.1292 21.3603 8.25268 21.1065C8.36244 20.8801 8.49964 20.6881 8.61626 20.5166C8.80835 20.2353 8.90439 19.9403 9.01415 19.5973C9.12391 19.2612 9.24739 18.877 9.4875 18.4997C9.89224 17.8617 10.5714 17.601 11.1202 17.3883C11.2643 17.3335 11.4015 17.2786 11.5387 17.2168C12.1629 16.9219 12.6157 16.476 13.1439 15.9614L13.3223 15.7899C14.7561 14.3836 16.5397 14.3082 18.0969 14.4248L18.2616 14.4385C19.3798 14.5208 20.5391 14.61 21.3966 14.1092L21.479 14.0612C21.822 13.8623 22.3913 13.5261 23.0088 13.8074C23.2832 13.9309 23.4478 14.1298 23.5713 14.2807C23.5987 14.315 23.633 14.3562 23.6673 14.3905C23.7496 14.4591 23.9623 14.5002 24.1681 14.5414C24.2573 14.562 24.3465 14.5757 24.4357 14.5963C25.451 14.8295 26.3908 15.5155 27.0837 16.524C27.4678 17.0865 27.7422 17.6627 28.0166 18.2184C28.291 18.7947 28.5517 19.3435 28.9222 19.8443C29.3269 20.4137 29.7317 20.9899 30.1295 21.573C30.2736 21.7788 30.4177 21.9915 30.5617 22.2041C30.6029 22.2727 30.6509 22.3413 30.6989 22.4099C30.795 22.554 30.8979 22.6981 30.9939 22.8421C31.1723 23.1028 31.3506 23.3635 31.529 23.6173C32.8393 25.5244 33.1617 28.1107 33.3607 30.3882C33.4018 30.8479 33.4361 31.3006 33.4704 31.7534C33.5665 33.0637 33.6625 34.3054 33.882 35.3824C34.5817 38.9016 35.9332 41.8583 37.9089 44.1908C38.0873 44.4034 38.2656 44.6092 38.4577 44.8082C38.6498 45.014 38.8556 45.2198 39.0614 45.4119C39.3015 45.6451 39.5553 45.8715 39.816 46.091C39.8229 46.0979 39.8366 46.1047 39.8434 46.1185C40.0081 46.2694 40.0836 46.4889 40.063 46.7016Z" fill="#1D1D1B"/>
<path d="M19.7906 23.4463C19.427 23.4463 19.1252 23.1651 19.0978 22.8015C19.0703 22.4173 19.3584 22.088 19.7426 22.0606C20.0719 22.04 20.4423 22.0126 20.8196 22.0332C21.2038 22.0606 21.4919 22.3899 21.4645 22.7741C21.4371 23.1582 21.1078 23.4326 20.7305 23.4189C20.4423 23.3983 20.1336 23.4189 19.8386 23.4395C19.8249 23.4395 19.8043 23.4395 19.7906 23.4395V23.4463Z" fill="#1D1D1B"/>
<path d="M82.1567 14.3224C82.7947 13.7599 82.6781 12.6966 83.22 12.0449C83.8032 11.3451 85.0243 11.448 85.6348 12.1203C86.2454 12.7995 86.3071 13.8491 85.9641 14.6997C85.6211 15.5504 84.9557 16.2227 84.2422 16.7921C83.8237 17.1213 83.371 17.4369 82.8565 17.5467C82.342 17.6564 81.7383 17.5261 81.409 17.1076C80.9013 16.449 81.2786 15.4955 81.7726 14.8301C82.2665 14.1646 82.8976 13.4923 82.8839 12.6691" fill="#EA0029"/>
<path d="M82.4998 18.2736C81.8412 18.2736 81.2375 18.0061 80.8671 17.5259C80.2497 16.7232 80.3869 15.5365 81.2238 14.4114C81.2993 14.3085 81.3816 14.2056 81.4571 14.1027C81.4914 14.0547 81.5257 14.0135 81.56 13.9655C81.5874 13.9243 81.6148 13.8832 81.6491 13.8489C81.7383 13.7254 81.8275 13.6019 81.903 13.4853C81.9647 13.3275 82.0196 13.1423 82.0745 12.9433C82.1979 12.5111 82.3351 12.0172 82.6781 11.5988C83.0623 11.1391 83.6248 10.8853 84.2697 10.8716C85.0037 10.8716 85.6829 11.1528 86.1425 11.6536C86.8903 12.4837 87.0755 13.7734 86.6021 14.9533C86.266 15.7903 85.6554 16.5449 84.6676 17.3338C84.2148 17.6905 83.666 18.0747 82.9937 18.2188C82.8222 18.2531 82.6507 18.2736 82.4861 18.2736H82.4998ZM82.6919 14.775C82.6439 14.8367 82.6027 14.8916 82.5547 14.9533C82.4792 15.0494 82.4037 15.1454 82.3351 15.2415C81.9853 15.7148 81.7177 16.3665 81.9647 16.6821C82.095 16.8536 82.4106 16.9291 82.7193 16.8673C83.1103 16.785 83.4945 16.5106 83.8169 16.2499C84.6058 15.6188 85.086 15.0494 85.3261 14.4457C85.5525 13.8832 85.5731 13.0874 85.1272 12.5866C84.9351 12.3739 84.599 12.2505 84.3109 12.2573C84.1737 12.2573 83.9198 12.2916 83.7552 12.4906C83.6866 12.5729 83.6317 12.6758 83.5837 12.7924C83.5631 13.3001 83.3779 13.7391 83.1378 14.137C83.0349 14.3634 82.8908 14.5829 82.6919 14.775Z" fill="#010101"/>
<path d="M58.6057 12.1758C57.5149 12.1758 56.6849 11.2153 56.2595 10.2549C56.2047 10.1315 56.1498 10.008 56.1018 9.88449C56.0812 9.82961 56.0537 9.77473 56.0332 9.71984C56.0057 9.67182 55.9851 9.6238 55.9714 9.57578C55.9097 9.43172 55.8411 9.28766 55.7725 9.15732C55.6627 9.01325 55.5186 8.86919 55.3609 8.71827C55.0316 8.38899 54.6543 8.01168 54.4553 7.49031C54.2358 6.92092 54.2907 6.27607 54.5994 5.69297C54.9424 5.04126 55.5598 4.56105 56.2458 4.40327C57.3709 4.14258 58.6331 4.63651 59.4632 5.6518C60.0532 6.37898 60.4305 7.31881 60.6363 8.61537C60.7323 9.20534 60.8009 9.89821 60.5951 10.5842C60.3344 11.428 59.669 12.0454 58.8938 12.162C58.7978 12.1758 58.7086 12.1826 58.6194 12.1826L58.6057 12.1758ZM57.2817 9.12302C57.316 9.19848 57.3434 9.26708 57.3777 9.34254C57.4258 9.45916 57.4738 9.57578 57.5287 9.68554C57.7825 10.2549 58.2627 10.8449 58.688 10.7763C58.9213 10.742 59.1682 10.4813 59.2643 10.1658C59.3877 9.761 59.3329 9.26022 59.2643 8.83489C59.0928 7.79216 58.8115 7.05813 58.3793 6.52304C57.9746 6.02225 57.2474 5.59006 56.5545 5.74785C56.2595 5.81645 55.9783 6.04283 55.8205 6.33781C55.7519 6.46816 55.649 6.72884 55.745 6.98952C55.7862 7.09929 55.8548 7.20219 55.944 7.31195C56.3967 7.58635 56.6986 7.97738 56.9387 8.40271C57.0896 8.61537 57.2131 8.84861 57.2886 9.12302H57.2817Z" fill="#010101"/>
<path d="M24.1341 9.10836C23.8186 9.10836 23.5373 8.8957 23.4618 8.57328L23.3795 8.21655C23.0777 6.94057 23.0502 6.80337 22.4603 5.43135C22.3093 5.08148 22.4671 4.66988 22.8238 4.51895C23.1737 4.36803 23.5853 4.53267 23.7362 4.88254C24.3811 6.37118 24.4222 6.57013 24.7378 7.90099L24.8201 8.25771C24.9093 8.62816 24.6761 9.00546 24.3056 9.08778C24.2507 9.1015 24.1959 9.10836 24.1478 9.10836H24.1341Z" fill="#010101"/>
<path d="M67.6479 13.2729C67.3597 13.2729 67.0853 13.0877 66.9893 12.7995C66.8658 12.4359 67.0648 12.0449 67.4283 11.9214L68.2653 11.6402C68.6357 11.5167 69.0199 11.7156 69.1434 12.0792C69.2669 12.4428 69.0679 12.8338 68.7043 12.9573L67.8674 13.2386C67.7919 13.266 67.7233 13.2729 67.6479 13.2729Z" fill="#010101"/>
<path d="M52.3969 1.66538C52.294 1.66538 52.1911 1.6448 52.0882 1.59678C51.7452 1.42527 51.6011 1.01367 51.7726 0.670663L51.9167 0.382539C52.0882 0.0395335 52.5067 -0.0976685 52.8497 0.073834C53.1927 0.245337 53.3299 0.663803 53.1584 1.00681L53.0212 1.28121C52.8977 1.52818 52.6576 1.66538 52.3969 1.66538Z" fill="#010101"/>
<path d="M16.7383 10.4739C16.5599 10.4739 16.3816 10.4053 16.2512 10.2749L15.97 9.99366C15.6956 9.72612 15.6956 9.28021 15.97 9.01267C16.2375 8.74513 16.6766 8.74513 16.951 9.01267L17.2322 9.29393C17.5066 9.56148 17.5066 10.0005 17.2322 10.2749C17.095 10.4121 16.9167 10.4807 16.7383 10.4807V10.4739Z" fill="#010101"/>
<path d="M75.5641 10.3171C75.4475 10.3171 75.324 10.2896 75.2143 10.221C74.885 10.029 74.7684 9.60364 74.9604 9.27435L76.8195 6.07754C77.0116 5.74826 77.4369 5.63164 77.7662 5.82372C78.0955 6.0158 78.2121 6.44113 78.02 6.77041L76.161 9.96722C76.0306 10.1867 75.7974 10.3102 75.5573 10.3102L75.5641 10.3171Z" fill="#010101"/>
<path d="M25.8352 31.4583C25.6363 31.4583 25.4442 31.376 25.307 31.2114C25.1423 31.0193 24.9846 30.7723 24.8336 30.5254C24.7445 30.3813 24.6073 30.1755 24.5112 30.0452C24.3329 30.0109 24.1682 29.9011 24.0585 29.7296C23.8595 29.4072 23.9556 28.975 24.2848 28.776C25.06 28.2958 25.6294 29.1876 25.9999 29.7776C26.1302 29.9766 26.2605 30.1892 26.3634 30.3058C26.6104 30.594 26.5761 31.033 26.2811 31.28C26.1508 31.3897 25.993 31.4446 25.8352 31.4446V31.4583Z" fill="#1D1D1B"/>
<path d="M28.2086 27.7815C27.8245 27.7815 27.5157 27.4728 27.5157 27.0887V26.4507C27.5157 26.0665 27.8245 25.7578 28.2086 25.7578C28.5928 25.7578 28.9015 26.0665 28.9015 26.4507V27.0887C28.9015 27.4728 28.5928 27.7815 28.2086 27.7815Z" fill="#1D1D1B"/>
<path d="M30.1635 34.4567C29.9852 34.4567 29.7999 34.3881 29.6696 34.2441L29.6147 34.1892C29.3403 33.9217 29.3334 33.4826 29.601 33.2082C29.8685 32.9338 30.3076 32.9269 30.582 33.1945L30.6643 33.2768C30.9318 33.5512 30.925 33.9903 30.6506 34.2578C30.5134 34.3881 30.3419 34.4567 30.1704 34.4567H30.1635Z" fill="#1D1D1B"/>
<path d="M23.1392 19.7347C23.0981 19.7347 23.0569 19.7347 23.0157 19.721C22.3366 19.5975 21.6711 19.3917 21.0332 19.1173C20.6833 18.9664 20.5255 18.5548 20.6764 18.2049C20.8274 17.855 21.239 17.6973 21.5888 17.8482C22.1239 18.0814 22.6864 18.2529 23.2627 18.3627C23.64 18.4313 23.887 18.7949 23.8184 19.1722C23.7566 19.5083 23.4685 19.7416 23.1392 19.7416V19.7347Z" fill="#1D1D1B"/>
<path d="M272.34 53.4653H83.8309C83.4468 53.4653 83.1381 53.1566 83.1381 52.7725C83.1381 52.3883 83.4468 52.0796 83.8309 52.0796H272.34C272.724 52.0796 273.033 52.3883 273.033 52.7725C273.033 53.1566 272.724 53.4653 272.34 53.4653Z" fill="#010101"/>
<path d="M110.352 95.5249C109.81 94.6057 109.488 93.3023 109.214 91.6215L108.452 84.9604C108.075 82.5799 107.094 81.7087 105.145 81.7087H103.142V95.5181H95.4521V59.3379H106.449C113.981 59.3379 117.501 63.1315 117.501 69.8476C117.501 74.8829 114.633 77.8602 111.491 78.5668V78.6765C113.872 79.2185 115.607 81.057 116.094 84.3087L117.068 91.402C117.281 93.0279 117.72 94.3793 118.475 95.5181H110.352V95.5249ZM105.482 65.6286H103.149V75.809H105.53C108.672 75.809 109.536 74.0254 109.536 70.7188C109.536 67.4122 108.672 65.6286 105.475 65.6286H105.482Z" fill="#EA0029"/>
<path d="M138.904 95.5249H121.246V59.3447H138.904V65.7864H128.881V74.1282H137.333V80.2475H128.881V89.0764H138.904V95.518V95.5249Z" fill="#EA0029"/>
<path d="M160.465 59.3447L163.387 81.5509H163.6L166.31 59.3447H173.677L167.826 95.5249H160.513L157.481 74.0253H157.268L154.236 95.5249H146.868L141.016 59.3447H148.652L151.361 81.5509H151.581L154.448 59.3447H160.465Z" fill="#EA0029"/>
<path d="M189.127 87.3957H182.191L180.785 95.5181H173.472L180.894 59.3379H190.643L198.065 95.5181H190.54L189.133 87.3957H189.127ZM183.227 81.544H188.098L185.717 67.9473H185.552L183.22 81.544H183.227Z" fill="#EA0029"/>
<path d="M215.675 95.5249C215.133 94.6057 214.81 93.3023 214.536 91.6215L213.774 84.9604C213.397 82.5799 212.416 81.7087 210.468 81.7087H208.465V95.5181H200.774V59.3379H211.771C219.304 59.3379 222.823 63.1315 222.823 69.8476C222.823 74.8829 219.955 77.8602 216.813 78.5668V78.6765C219.194 79.2185 220.929 81.057 221.416 84.3087L222.391 91.402C222.603 93.0279 223.042 94.3793 223.797 95.5181H215.675V95.5249ZM210.804 65.6286H208.471V75.809H210.852C213.994 75.809 214.858 74.0254 214.858 70.7188C214.858 67.4122 213.994 65.6286 210.797 65.6286H210.804Z" fill="#EA0029"/>
<path d="M226.569 59.3447H235.94C244.824 59.3447 249.317 65.5737 249.317 77.4897C249.317 89.4057 244.817 95.5249 235.94 95.5249H226.569V59.3447ZM234.259 89.1381H235.885C239.788 89.1381 241.195 85.6738 241.195 77.4897C241.195 69.3056 239.788 65.7383 235.885 65.7383H234.259V89.1381Z" fill="#EA0029"/>
<path d="M251.052 85.2897L257.714 83.4443C257.604 87.2929 259.175 89.7831 261.617 89.7831C263.565 89.7831 264.704 88.5345 264.704 86.4765C264.704 80.4671 251.649 79.3283 251.649 68.9832C251.649 63.0767 255.93 58.9058 262.104 58.9058C268.278 58.9058 271.907 62.6994 272.127 68.9832L265.466 70.4445C265.466 67.3574 264.327 65.025 262.159 65.025C260.32 65.025 259.182 66.2735 259.182 68.2218C259.182 73.7442 272.346 75.1573 272.346 85.8248C272.346 91.944 267.743 95.9572 261.672 95.9572C255.601 95.9572 251.162 91.896 251.059 85.2897H251.052Z" fill="#EA0029"/>
<path d="M272.339 105.877H103.148C102.764 105.877 102.456 105.569 102.456 105.185C102.456 104.8 102.764 104.492 103.148 104.492H272.339C272.723 104.492 273.032 104.8 273.032 105.185C273.032 105.569 272.723 105.877 272.339 105.877Z" fill="#010101"/>
<path d="M45.1943 48.2184C28.9359 48.2184 14.3444 45.934 7.10018 42.2569C5.7213 41.5572 3.43688 40.1166 3.58781 38.3124C3.69071 37.0776 4.8432 36.1377 7.10704 35.4243C7.47062 35.3077 7.86165 35.5135 7.97827 35.8771C8.09489 36.2406 7.88909 36.6317 7.5255 36.7483C5.95454 37.2422 5.02843 37.8528 4.98041 38.429C4.92553 39.115 6.03 40.1578 7.73817 41.0221C14.6875 44.5551 29.3955 46.8326 45.2012 46.8326C61.0069 46.8326 76.1265 44.4933 82.9592 40.8643C84.8183 39.8765 85.2573 39.3483 85.2985 39.0807C85.3259 38.9161 85.1476 38.7034 84.9898 38.5456C84.7222 38.2712 84.7222 37.8322 84.9898 37.5646C85.2642 37.2971 85.7032 37.2971 85.9708 37.5646C86.5196 38.1203 86.7528 38.6966 86.6636 39.2865C86.499 40.3498 85.3191 41.1731 83.604 42.0854C76.4764 45.8654 61.7615 48.2115 45.1943 48.2115V48.2184Z" fill="#010101"/>
</svg>
