<svg width="18" height="18" viewBox="0 0 18 18" fill="none" xmlns="http://www.w3.org/2000/svg">
<g filter="url(#filter0_i_1899_144758)">
<path d="M14.1 9V4.5C14.1 2.84315 12.7569 1.5 11.1 1.5H2.88803C2.72234 1.5 2.58803 1.63431 2.58803 1.8V3.02756C2.58803 3.24794 2.68496 3.45717 2.85308 3.59967L3.93495 5.02533C4.10307 5.16783 4.2 5.37707 4.2 5.59745V9V16.0907C4.2 16.818 5.35151 16.0845 5.55593 15.9488C5.60118 15.9186 5.65916 15.9155 5.70749 15.9402L6.4536 16.3238C6.66881 16.4343 6.92415 16.4343 7.13936 16.3238L7.89516 15.9353C7.9382 15.9132 7.98927 15.9132 8.03231 15.9353L8.78811 16.3238C9.00332 16.4343 9.25866 16.4343 9.47387 16.3238L10.2297 15.9353C10.2727 15.9132 10.3238 15.9132 10.3668 15.9353L11.1226 16.3238C11.3378 16.4343 11.5932 16.4343 11.8084 16.3238L12.5558 15.9396C12.6034 15.915 12.6605 15.9179 12.7055 15.9468C12.9088 16.0774 14.1 16.8352 14.1 16.1007V9Z" fill="#FFBA33"/>
</g>
<path d="M1.8 6.3H4.2C4.23513 6.3 4.2 3.20384 4.2 2.85C4.2 2.10441 3.59559 1.5 2.85 1.5C2.10441 1.5 1.5 2.10441 1.5 2.85V6C1.5 6.16569 1.63431 6.3 1.8 6.3Z" fill="#E99A00"/>
<path d="M8.25 9.14999C8.25 11.5524 10.1976 13.5 12.6 13.5C15.0024 13.5 16.95 11.5524 16.95 9.14999C16.95 6.74755 15.0024 4.79999 12.6 4.79999C10.1976 4.79999 8.25 6.74755 8.25 9.14999Z" fill="#FF7A00"/>
<path fill-rule="evenodd" clip-rule="evenodd" d="M12.0977 8.98279C12.0977 9.35239 12.3973 9.65202 12.7669 9.65202H14.44C14.6248 9.65202 14.7746 9.50221 14.7746 9.31741C14.7746 9.1326 14.6248 8.98279 14.44 8.98279H12.7669V7.30971C12.7669 7.1249 12.6171 6.9751 12.4323 6.9751C12.2475 6.9751 12.0977 7.1249 12.0977 7.30971V8.98279Z" fill="white"/>
<defs>
<filter id="filter0_i_1899_144758" x="2.58803" y="1.5" width="11.512" height="16.9169" filterUnits="userSpaceOnUse" color-interpolation-filters="sRGB">
<feFlood flood-opacity="0" result="BackgroundImageFix"/>
<feBlend mode="normal" in="SourceGraphic" in2="BackgroundImageFix" result="shape"/>
<feColorMatrix in="SourceAlpha" type="matrix" values="0 0 0 0 0 0 0 0 0 0 0 0 0 0 0 0 0 0 127 0" result="hardAlpha"/>
<feOffset dy="2"/>
<feGaussianBlur stdDeviation="1.5"/>
<feComposite in2="hardAlpha" operator="arithmetic" k2="-1" k3="1"/>
<feColorMatrix type="matrix" values="0 0 0 0 1 0 0 0 0 0.900412 0 0 0 0 0.704167 0 0 0 1 0"/>
<feBlend mode="normal" in2="shape" result="effect1_innerShadow_1899_144758"/>
</filter>
</defs>
</svg>
