<svg width="8" height="11" viewBox="0 0 8 11" fill="none" xmlns="http://www.w3.org/2000/svg">
<path d="M7.66496 5.45444C7.66496 5.62424 7.60007 5.79402 7.47057 5.92348L3.39328 9.99732C3.13391 10.2565 2.7134 10.2565 2.45414 9.99732C2.19487 9.73827 2.19487 9.31819 2.45414 9.05902L6.06194 5.45444L2.45426 1.84983C2.195 1.59068 2.195 1.17064 2.45426 0.911619C2.71352 0.652344 3.13404 0.652344 3.39341 0.911619L7.47069 4.98539C7.60022 5.11492 7.66496 5.2847 7.66496 5.45444Z" fill="black"/>
<g opacity="0.5">
<path d="M4.42064 5.44629C4.42064 5.56544 4.37509 5.68458 4.28419 5.77543L1.42237 8.63412C1.24032 8.81597 0.945163 8.81597 0.763189 8.63412C0.581215 8.45234 0.581215 8.15756 0.763189 7.9757L3.29549 5.44629L0.763278 2.91687C0.581304 2.73502 0.581304 2.44027 0.763278 2.2585C0.945251 2.07657 1.24041 2.07657 1.42246 2.2585L4.28428 5.11715C4.3752 5.20804 4.42064 5.32718 4.42064 5.44629Z" fill="black"/>
</g>
</svg>
