<svg width="16" height="16" viewBox="0 0 16 16" fill="none" xmlns="http://www.w3.org/2000/svg">
<path d="M12.4491 15.4791C9.50206 16.1736 6.49781 16.1736 3.55093 15.4791C3.22531 15.4023 3 15.146 3 14.8544V8.14545C3 7.85404 3.22531 7.59773 3.55093 7.52093C6.49768 6.82636 9.50219 6.82636 12.4491 7.52093C12.7747 7.59773 13 7.85404 13 8.14545V14.8546C13 15.146 12.7747 15.4023 12.4491 15.4791Z" fill="url(#paint0_linear_242_30749)"/>
<path d="M12.0989 7.58069C12.0414 7.56555 11.9839 7.55054 11.9264 7.53601C11.8877 7.52637 11.849 7.51685 11.8103 7.50745C11.7544 7.49365 11.6985 7.48035 11.6424 7.46716C11.6033 7.45801 11.5641 7.4491 11.5249 7.44019C11.4689 7.42749 11.4128 7.41528 11.3568 7.4032C11.3181 7.3949 11.2794 7.3866 11.2407 7.37854C11.183 7.36658 11.1251 7.3551 11.0673 7.34375C11.0305 7.33655 10.9939 7.32922 10.9571 7.32227C10.8937 7.3103 10.8302 7.29895 10.7668 7.28772C10.7358 7.28223 10.7048 7.27649 10.6738 7.27112C10.5795 7.255 10.4851 7.23962 10.3907 7.22534C10.389 7.2251 10.3873 7.22485 10.3856 7.22449C10.2928 7.21045 10.2001 7.19727 10.1073 7.18481C10.076 7.18054 10.0448 7.17688 10.0137 7.17285C9.95019 7.16467 9.88671 7.15674 9.82324 7.14929C9.78637 7.14502 9.74951 7.14111 9.71264 7.13708C9.65466 7.13074 9.59655 7.12463 9.53857 7.1189C9.49975 7.11511 9.46093 7.11157 9.42199 7.10803C9.36572 7.10291 9.30932 7.09802 9.25292 7.09363C9.21349 7.09045 9.17394 7.0874 9.13452 7.08459C9.07836 7.08057 9.02209 7.07678 8.96581 7.07336C8.92675 7.07092 8.88769 7.06848 8.84875 7.06641C8.79064 7.06323 8.73254 7.06067 8.67456 7.05811C8.63769 7.05652 8.6007 7.05481 8.56396 7.05347C8.50012 7.05115 8.4364 7.04956 8.37268 7.04797C8.34155 7.04724 8.31042 7.04614 8.27929 7.04565C8.18469 7.04395 8.08984 7.04297 7.99523 7.04297H7.99511C7.90039 7.04297 7.80566 7.04395 7.71106 7.04565C7.67993 7.04626 7.64868 7.04724 7.61755 7.04797C7.55383 7.04956 7.49023 7.05115 7.42651 7.05347C7.38964 7.05481 7.35266 7.05652 7.31579 7.05811C7.25769 7.06067 7.19958 7.06323 7.1416 7.06641C7.10266 7.06848 7.06359 7.07092 7.02465 7.07336C6.96838 7.07678 6.91211 7.08057 6.85583 7.08459C6.81628 7.0874 6.77685 7.09045 6.73742 7.09363C6.68103 7.09802 6.62463 7.10303 6.56836 7.10803C6.52954 7.11157 6.49072 7.11511 6.45178 7.1189C6.3938 7.12451 6.33569 7.13074 6.27771 7.13708C6.24084 7.14111 6.20398 7.14502 6.16711 7.14929C6.10363 7.15662 6.04016 7.16467 5.97668 7.17285C5.94555 7.17688 5.9143 7.18054 5.88318 7.18469C5.7904 7.19714 5.69775 7.21033 5.6051 7.22449C5.60327 7.22473 5.60144 7.22498 5.59961 7.22522C5.50525 7.23962 5.41089 7.255 5.31665 7.27112C5.28564 7.27637 5.25464 7.28223 5.22363 7.28772C5.16015 7.29895 5.09668 7.3103 5.0332 7.32227C4.99658 7.32922 4.95996 7.33655 4.92334 7.34375C4.86535 7.3551 4.80749 7.36658 4.74963 7.37854C4.71094 7.3866 4.67224 7.3949 4.63354 7.4032C4.57751 7.41528 4.52161 7.42749 4.4657 7.44019C4.42639 7.44897 4.38708 7.45801 4.34778 7.46716C4.29187 7.48022 4.23608 7.49365 4.18017 7.50732C4.14148 7.51672 4.10278 7.52624 4.06409 7.53601C4.00659 7.55041 3.9491 7.56555 3.8916 7.58069C3.85486 7.59033 3.81824 7.59985 3.78162 7.60974C3.76538 7.61414 3.74927 7.61877 3.73303 7.62317C3.56055 7.67371 3.4187 7.78552 3.32812 7.93103C6.41528 8.85913 9.57531 8.85913 12.6626 7.93103C12.5719 7.78552 12.43 7.67371 12.2576 7.62317C12.2414 7.61877 12.2252 7.61414 12.209 7.60974C12.1722 7.59985 12.1355 7.59033 12.0989 7.58069Z" fill="url(#paint1_linear_242_30749)"/>
<path d="M9.26625 10.8133C9.26625 10.0809 8.64723 9.49314 7.90383 9.54465C7.27797 9.58799 6.77065 10.0943 6.72597 10.7201C6.69387 11.1715 6.89748 11.5771 7.22622 11.8265C7.45082 11.997 7.57656 12.2678 7.57656 12.5498V13.0704C7.57656 13.3005 7.75661 13.4979 7.98659 13.502C8.22097 13.5064 8.41237 13.3177 8.41237 13.0843V12.5359C8.41237 12.261 8.5353 11.9967 8.75539 11.832C9.06545 11.6002 9.26625 11.2302 9.26625 10.8133Z" fill="black"/>
<path d="M10.8864 5.65149C10.5479 5.65149 10.2733 5.37695 10.2733 5.03845V5.03967C10.2733 3.76391 9.23548 2.72607 7.95972 2.72607C6.68384 2.72607 5.646 3.76391 5.646 5.03967V7.80243C5.646 8.14093 5.37147 8.41546 5.03297 8.41546C4.69434 8.41546 4.41993 8.14093 4.41993 7.80243V5.03967C4.41993 3.08789 6.00782 1.5 7.95972 1.5C9.9115 1.5 11.4994 3.08789 11.4994 5.03967V5.03845C11.4994 5.37695 11.225 5.65149 10.8864 5.65149Z" fill="black"/>
<path d="M3.21875 12.695V14.7327C3.21875 15.0551 3.43396 15.3387 3.74512 15.4236C6.55981 16.1921 9.42956 16.1921 12.2444 15.4236C12.5554 15.3387 12.7706 15.0551 12.7706 14.7327V12.695H3.21875Z" fill="url(#paint2_linear_242_30749)"/>
<defs>
<linearGradient id="paint0_linear_242_30749" x1="4.60895" y1="9.74663" x2="12.8694" y2="15.4763" gradientUnits="userSpaceOnUse">
<stop stop-color="#FFC738"/>
<stop offset="0.4286" stop-color="#FFBB23"/>
<stop offset="1" stop-color="#FFA700"/>
</linearGradient>
<linearGradient id="paint1_linear_242_30749" x1="7.99518" y1="7.18136" x2="7.99518" y2="8.36386" gradientUnits="userSpaceOnUse">
<stop stop-color="#FFC738"/>
<stop offset="0.4286" stop-color="#FFBB23"/>
<stop offset="1" stop-color="#FFA700"/>
</linearGradient>
<linearGradient id="paint2_linear_242_30749" x1="7.99469" y1="14.437" x2="7.99469" y2="16.1389" gradientUnits="userSpaceOnUse">
<stop stop-color="#FFA700" stop-opacity="0"/>
<stop offset="0.0206" stop-color="#FEA600" stop-opacity="0.019608"/>
<stop offset="0.6348" stop-color="#F7B500" stop-opacity="0.54"/>
<stop offset="1" stop-color="#F7B500"/>
</linearGradient>
</defs>
</svg>
